<?xml version="1.0" encoding="utf-8"?>
<!-- Generator: Adobe Illustrator 20.1.0, SVG Export Plug-In . SVG Version: 6.00 Build 0)  -->
<svg version="1.1" id="图层_1" xmlns="http://www.w3.org/2000/svg" xmlns:xlink="http://www.w3.org/1999/xlink" x="0px" y="0px"
	 viewBox="0 0 522 110" style="enable-background:new 0 0 522 110;" xml:space="preserve">
<style type="text/css">
	.st0{fill:#18244A;}
	.st1{fill:#F7F7F7;}
	.st2{fill:#FFFFFF;}
	.st3{fill:none;stroke:#18244A;stroke-width:0.5;stroke-miterlimit:10;}
	.st4{fill-rule:evenodd;clip-rule:evenodd;fill:#B0B0B1;}
	.st5{fill:#EFF6E6;}
	.st6{fill:#5F1985;}
	.st7{fill:url(#SVGID_1_);}
	.st8{fill:#7B1C75;}
	.st9{fill:#382A54;}
	.st10{fill:#D6AD3C;}
	.st11{fill:#CA9A0C;}
	.st12{fill:#F29600;}
	.st13{fill:#FFF000;}
	.st14{fill:#B0A117;}
	.st15{fill:#976024;}
	.st16{fill:#9E9E9F;}
	.st17{fill:#DBDCDC;}
	.st18{fill:#B4B4B5;}
	.st19{fill:#717071;}
	.st20{fill:#182987;}
	.st21{fill:#2CA6E0;}
	.st22{fill:#137EAB;}
	.st23{fill:#19254A;}
	.st24{fill:#C8C9CA;}
	.st25{fill-rule:evenodd;clip-rule:evenodd;fill:url(#SVGID_2_);}
	.st26{fill:none;}
	.st27{fill:none;stroke:#18244A;stroke-miterlimit:10;}
	.st28{fill:url(#SVGID_3_);}
	.st29{fill-rule:evenodd;clip-rule:evenodd;fill:url(#SVGID_4_);}
	.st30{fill:url(#SVGID_5_);}
	.st31{fill-rule:evenodd;clip-rule:evenodd;fill:url(#SVGID_6_);}
	.st32{fill:#747474;}
	.st33{fill-rule:evenodd;clip-rule:evenodd;fill:#8B9294;}
	.st34{fill:#B0B0B1;}
	.st35{fill:url(#SVGID_7_);}
	.st36{fill:none;stroke:#E5F3F5;stroke-width:0.2;stroke-miterlimit:10;}
	.st37{fill:none;stroke:#B5C9CE;stroke-width:0.2;stroke-miterlimit:10;}
	.st38{fill-rule:evenodd;clip-rule:evenodd;fill:url(#SVGID_8_);}
	.st39{fill:none;stroke:#B0B0B1;stroke-width:0.2;stroke-miterlimit:10;}
	.st40{fill:url(#SVGID_9_);}
	.st41{fill-rule:evenodd;clip-rule:evenodd;fill:url(#SVGID_10_);}
	.st42{fill:#C9E0E6;}
	.st43{fill:#E50012;}
	.st44{fill:#B31D23;}
	.st45{fill:url(#SVGID_11_);}
	.st46{fill-rule:evenodd;clip-rule:evenodd;fill:url(#SVGID_12_);}
	.st47{fill:url(#SVGID_13_);}
	.st48{fill-rule:evenodd;clip-rule:evenodd;fill:url(#SVGID_14_);}
	.st49{fill-rule:evenodd;clip-rule:evenodd;fill:url(#SVGID_15_);}
	.st50{fill-rule:evenodd;clip-rule:evenodd;fill:url(#SVGID_16_);}
	.st51{fill:url(#SVGID_17_);}
	.st52{fill:url(#SVGID_18_);}
	.st53{fill-rule:evenodd;clip-rule:evenodd;fill:url(#SVGID_19_);}
	.st54{fill-rule:evenodd;clip-rule:evenodd;fill:url(#SVGID_20_);}
	.st55{clip-path:url(#SVGID_22_);}
	.st56{fill:#604C3F;}
	.st57{fill:#009844;}
	.st58{fill:#EEEEEF;}
	.st59{fill:#006934;}
	.st60{fill:url(#SVGID_23_);}
	.st61{fill:url(#SVGID_24_);}
	.st62{fill:#804F21;}
	.st63{fill:#6D3B1D;}
	.st64{fill:url(#SVGID_25_);}
	.st65{fill:url(#SVGID_26_);}
	.st66{fill:#036EB7;}
	.st67{fill:#0B6190;}
	.st68{fill-rule:evenodd;clip-rule:evenodd;fill:url(#SVGID_27_);}
	.st69{fill:#E0E0E1;}
	.st70{fill-rule:evenodd;clip-rule:evenodd;fill:url(#SVGID_28_);}
	.st71{fill:#142246;}
	.st72{fill:#C0CAD0;}
	.st73{fill:#4B4948;}
	.st74{fill:#122143;}
	.st75{fill:none;stroke:#132245;stroke-width:0.5;stroke-miterlimit:10;}
	.st76{fill-rule:evenodd;clip-rule:evenodd;fill:#AEAEAF;}
	.st77{fill:#EBF2E3;}
	.st78{fill:#AEAEAF;}
	.st79{fill-rule:evenodd;clip-rule:evenodd;fill:url(#SVGID_29_);}
	.st80{fill-rule:evenodd;clip-rule:evenodd;fill:url(#SVGID_30_);}
	.st81{fill:url(#SVGID_31_);}
	.st82{fill:url(#SVGID_32_);}
	.st83{fill-rule:evenodd;clip-rule:evenodd;fill:url(#SVGID_33_);}
	.st84{fill:none;stroke:#E2EFF0;stroke-width:0.2;stroke-miterlimit:10;}
	.st85{fill:none;stroke:#AEAEAF;stroke-width:0.2;stroke-miterlimit:10;}
	.st86{fill:none;stroke:#AFC2C7;stroke-width:0.2;stroke-miterlimit:10;}
	.st87{fill-rule:evenodd;clip-rule:evenodd;fill:url(#SVGID_34_);}
	.st88{clip-path:url(#SVGID_36_);}
	.st89{fill:#5F4C3F;}
	.st90{fill:#005D96;}
	.st91{fill:#151C51;}
	.st92{fill:#1D2087;}
	.st93{fill:#00696F;}
	.st94{fill:#888888;}
	.st95{fill:#231815;}
	.st96{fill:#595757;}
	.st97{fill:#3E3A39;}
	.st98{fill:#E6E6E6;}
	.st99{fill:#003360;}
	.st100{fill-rule:evenodd;clip-rule:evenodd;fill:none;}
	.st101{fill:none;stroke:#18244A;stroke-width:2;stroke-miterlimit:10;}
</style>
<g>
	<path class="st2" d="M59.2,51.6H28.8v20.9h35.6v11.4H14.1V10.4h50.2v11.3H28.8v18.4h30.4V51.6z"/>
	<path class="st2" d="M87.7,83.8H73V5.2h14.7V83.8z"/>
	<path class="st2" d="M123.9,84.9c-7.9,0-14.2-2.5-18.8-7.6c-4.7-5-7.1-11.4-7.1-19.2v-2c0-8.1,2.2-14.8,6.7-20
		c4.5-5.2,10.4-7.8,17.9-7.8c7.4,0,13.1,2.2,17.1,6.7c4.1,4.4,6.1,10.4,6.1,18v8h-32.6l-0.1,0.3c0.3,3.6,1.5,6.5,3.6,8.8
		c2.1,2.3,5,3.5,8.7,3.5c3.3,0,6-0.3,8.1-1c2.1-0.7,4.5-1.7,7.1-3.1l4,9.1c-2.2,1.8-5.1,3.3-8.7,4.5
		C132.3,84.3,128.3,84.9,123.9,84.9z M122.6,39.6c-2.7,0-4.9,1.1-6.4,3.1c-1.6,2.1-2.6,4.8-2.9,8.2l0.2,0.3h18v-1.3
		c0-3.1-0.7-5.6-2.2-7.5C127.8,40.6,125.6,39.6,122.6,39.6z"/>
	<path class="st2" d="M177.3,73.6c2.6,0,4.7-0.8,6.3-2.3c1.6-1.5,2.4-3.5,2.4-6.1h13.4l0.2,0.3c0.1,5.5-1.9,10.1-6.2,13.9
		c-4.3,3.7-9.6,5.6-15.9,5.6c-8.1,0-14.4-2.6-18.8-7.7c-4.4-5.1-6.6-11.7-6.6-19.8v-1.5c0-8,2.2-14.7,6.6-19.8
		c4.4-5.2,10.6-7.8,18.8-7.8c6.7,0,12.1,1.9,16.3,5.7c4.1,3.8,6.1,8.9,6,15.1l-0.1,0.3H186c0-2.8-0.8-5.2-2.3-7
		c-1.5-1.9-3.7-2.8-6.4-2.8c-3.9,0-6.6,1.5-8.2,4.5c-1.6,3-2.4,6.9-2.4,11.7v1.5c0,4.9,0.8,8.8,2.4,11.8
		C170.6,72.1,173.4,73.6,177.3,73.6z"/>
	<path class="st2" d="M222.2,83.8h-6.1V10.4h6.1V83.8z"/>
	<path class="st2" d="M246.2,29.3l0.6,9c1.7-3.2,4.1-5.6,7-7.4c2.9-1.7,6.4-2.6,10.4-2.6c4.2,0,7.7,1,10.5,3c2.8,2,4.8,5.1,6,9.2
		c1.6-3.8,4-6.8,7-9c3-2.2,6.7-3.3,11.1-3.3c5.8,0,10.3,1.9,13.5,5.8c3.2,3.9,4.8,9.8,4.8,17.9v31.8h-6v-32c0-6.7-1.2-11.5-3.6-14.3
		c-2.4-2.8-5.7-4.2-9.9-4.2c-4.7,0-8.3,1.5-10.8,4.4c-2.5,2.9-4.1,6.7-4.7,11.3c0,0.2,0,0.6,0,1c0,0.4,0,0.8,0,1v32.8h-6.1v-32
		c0-6.6-1.2-11.3-3.6-14.2c-2.4-2.8-5.7-4.3-9.9-4.3c-4.3,0-7.7,1.1-10.2,3.2c-2.5,2.2-4.3,5.1-5.3,8.8v38.4h-6.1V29.3H246.2z"/>
	<path class="st2" d="M376.5,58.1c0,8.2-1.9,14.7-5.5,19.5c-3.7,4.9-8.8,7.3-15.3,7.3c-3.8,0-7.2-0.7-10.1-2.2
		c-2.9-1.5-5.2-3.5-7-6.2v28.3h-6.1V29.3h5.1l0.8,8.5c1.8-3,4.2-5.4,7-7c2.9-1.7,6.3-2.5,10.2-2.5c6.6,0,11.7,2.6,15.4,7.8
		c3.7,5.2,5.5,12.2,5.5,20.9V58.1z M370.5,56.9c0-6.9-1.4-12.6-4.1-17c-2.7-4.4-6.8-6.6-12.1-6.6c-4.1,0-7.4,1-9.9,2.9
		c-2.5,2-4.5,4.5-5.7,7.6v26.2c1.4,3,3.4,5.3,6,7.1c2.6,1.7,5.9,2.6,9.8,2.6c5.3,0,9.3-2,12-6c2.7-4,4.1-9.2,4.1-15.8V56.9z"/>
	<path class="st2" d="M386.7,55.8c0-8,2.2-14.6,6.6-19.8c4.4-5.1,10.2-7.7,17.5-7.7c7.3,0,13.1,2.6,17.6,7.7
		c4.4,5.1,6.6,11.7,6.6,19.8v1.7c0,8.1-2.2,14.7-6.6,19.8c-4.4,5.1-10.2,7.7-17.5,7.7c-7.3,0-13.2-2.6-17.6-7.7
		c-4.4-5.1-6.6-11.7-6.6-19.8V55.8z M392.8,57.4c0,6.3,1.6,11.6,4.8,15.9c3.2,4.3,7.6,6.5,13.4,6.5c5.6,0,10-2.1,13.2-6.5
		c3.2-4.3,4.8-9.6,4.8-15.9v-1.7c0-6.2-1.6-11.5-4.8-15.8c-3.2-4.3-7.7-6.5-13.3-6.5c-5.6,0-10.1,2.2-13.2,6.5
		c-3.2,4.3-4.8,9.6-4.8,15.8V57.4z"/>
	<path class="st2" d="M472.7,34.5l-4.5-0.3c-3.8,0-6.9,1.1-9.3,3.2c-2.4,2.1-4.2,5.1-5.2,8.8v37.7h-6V29.3h5.3l0.7,9.1V39
		c1.6-3.4,3.7-6,6.3-7.9c2.7-1.9,5.8-2.8,9.5-2.8c0.8,0,1.5,0.1,2.2,0.2c0.7,0.1,1.3,0.2,1.8,0.4L472.7,34.5z"/>
	<path class="st2" d="M493.8,15.3v14h12v4.9h-12v35.6c0,3.6,0.6,6.1,1.9,7.6c1.3,1.5,3,2.2,5.2,2.2c1,0,1.9,0,2.8-0.1
		c0.9-0.1,2-0.2,3.2-0.4l0.9,4.5c-1,0.4-2.3,0.8-3.7,1c-1.5,0.2-2.9,0.4-4.3,0.4c-3.8,0-6.8-1.2-8.9-3.6c-2.1-2.4-3.2-6.2-3.2-11.5
		V34.2h-9.4v-4.9h9.4v-14H493.8z"/>
</g>
</svg>
