<svg id="图层_1" data-name="图层 1" xmlns="http://www.w3.org/2000/svg" xmlns:xlink="http://www.w3.org/1999/xlink" viewBox="0 0 1440 540">
  <defs>
    <style>
      .cls-1 {
        fill: #b0b0b1;
      }

      .cls-1, .cls-16, .cls-21, .cls-3 {
        fill-rule: evenodd;
      }

      .cls-2 {
        fill: #eff6e6;
      }

      .cls-3 {
        fill: #8b9294;
      }

      .cls-4 {
        fill: #c9e0e6;
      }

      .cls-5 {
        fill: #e50012;
      }

      .cls-6 {
        fill: #182987;
      }

      .cls-7 {
        fill: #19254a;
      }

      .cls-8 {
        fill: #b31d23;
      }

      .cls-9 {
        fill: #d6ad3c;
      }

      .cls-10 {
        fill: #ca9a0c;
      }

      .cls-11 {
        fill: #2ca6e0;
      }

      .cls-12 {
        fill: #dbdcdc;
      }

      .cls-13 {
        fill: #b4b4b5;
      }

      .cls-14 {
        fill: #137eab;
      }

      .cls-15 {
        fill: url(#linear-gradient);
      }

      .cls-16 {
        fill: url(#linear-gradient-2);
      }

      .cls-17, .cls-18, .cls-19, .cls-29 {
        fill: none;
      }

      .cls-18 {
        stroke: #e5f3f5;
      }

      .cls-18, .cls-19, .cls-29 {
        stroke-miterlimit: 10;
      }

      .cls-18, .cls-19 {
        stroke-width: 0.2px;
      }

      .cls-19 {
        stroke: #b5c9ce;
      }

      .cls-20 {
        fill: url(#linear-gradient-3);
      }

      .cls-21 {
        fill: url(#linear-gradient-4);
      }

      .cls-22 {
        font-size: 19.13px;
        fill: #18244a;
        font-family: Roboto-Light, Roboto;
      }

      .cls-23 {
        letter-spacing: -0.01em;
      }

      .cls-24 {
        letter-spacing: -0.01em;
      }

      .cls-25 {
        letter-spacing: -0.01em;
      }

      .cls-26 {
        letter-spacing: -0.01em;
      }

      .cls-27 {
        letter-spacing: -0.01em;
      }

      .cls-28 {
        letter-spacing: 0em;
      }

      .cls-29 {
        stroke: #18244a;
      }
    </style>
    <linearGradient id="linear-gradient" x1="1256.86" y1="-6721.3" x2="1599.68" y2="-6746.83" gradientTransform="matrix(0.79, 0.61, 0.61, -0.79, 3914.04, -6034.4)" gradientUnits="userSpaceOnUse">
      <stop offset="0.2" stop-color="#c3cfd4"/>
      <stop offset="0.29" stop-color="#edeeee"/>
      <stop offset="0.37" stop-color="#c3cfd4"/>
      <stop offset="0.44" stop-color="#eff6e6"/>
      <stop offset="0.61" stop-color="#c3cfd4"/>
    </linearGradient>
    <linearGradient id="linear-gradient-2" x1="12756.14" y1="2436.71" x2="12756.14" y2="2357.57" gradientTransform="matrix(-0.91, -0.41, -0.41, 0.91, 13831.71, 3356.32)" gradientUnits="userSpaceOnUse">
      <stop offset="0" stop-color="#547b8a"/>
      <stop offset="0.28" stop-color="#7d9cad"/>
      <stop offset="0.6" stop-color="#b7ccd0"/>
      <stop offset="0.73" stop-color="#dbe6ec"/>
      <stop offset="0.94" stop-color="#6f94aa"/>
    </linearGradient>
    <linearGradient id="linear-gradient-3" x1="12820.98" y1="2439.38" x2="13170.28" y2="2439.38" gradientTransform="matrix(-0.91, -0.41, -0.41, 0.91, 13831.71, 3356.32)" gradientUnits="userSpaceOnUse">
      <stop offset="0" stop-color="#d0d1d1"/>
      <stop offset="0.17" stop-color="#edeeee"/>
      <stop offset="1" stop-color="#bcbfc0"/>
    </linearGradient>
    <linearGradient id="linear-gradient-4" x1="12629.75" y1="2343.35" x2="12629.75" y2="2452.79" gradientTransform="matrix(-0.91, -0.41, -0.41, 0.91, 13831.71, 3356.32)" gradientUnits="userSpaceOnUse">
      <stop offset="0" stop-color="#cdd3cb"/>
      <stop offset="0.22" stop-color="#eff6e6"/>
      <stop offset="0.31" stop-color="#eff7fa"/>
      <stop offset="0.45" stop-color="#eef2ec"/>
      <stop offset="0.91" stop-color="#c3cfd4"/>
    </linearGradient>
  </defs>
  <title>未标题-1</title>
  <g>
    <path class="cls-1" d="M1046.32,332.46c5.92,2.64,22.62-11.69,35.33-40.16s12.21-50.47,6.3-53.11-22.61,11.69-35.32,40.16S1040.4,329.82,1046.32,332.46Z"/>
    <path class="cls-2" d="M1049.14,277.8c12-27,29.55-45.48,39.6-42.14l-1.5,3.37c-6.41-1.39-22.36,12.87-34.61,40.33s-12.22,48.84-6.91,52.7l-1.5,3.36C1035,330.17,1037.09,304.79,1049.14,277.8Z"/>
    <path class="cls-3" d="M977,285c4.29,1.91,16.35-8.45,25.54-29s8.84-36.5,4.56-38.41-16.35,8.46-25.54,29S972.75,283.12,977,285Z"/>
    <path class="cls-4" d="M979.07,245.51c8.71-19.52,21.36-32.9,28.64-30.48l-1.09,2.43c-4.66-1-16.18,9.31-25,29.17s-8.85,35.31-5,38.11l-1.08,2.43C968.85,283.37,970.37,265,979.07,245.51Z"/>
    <g>
      <g>
        <g>
          <path class="cls-5" d="M1158.42,335.29l6.47-8.21c-8.69-6.68-15.2-12.64-21.49-18.39-12.92-11.82-25.11-23-52.27-36.26l-4.55,9.42c25.69,12.57,36.77,22.7,49.6,34.43C1142.65,322.2,1149.34,328.34,1158.42,335.29Z"/>
          <path class="cls-5" d="M790.22,155.08c30.93,4.81,58.7,10,86.87,24.33l4.74-9.32c-29.49-15.12-58.39-20.47-90.28-25.43Z"/>
          <path class="cls-5" d="M976.27,245.67c32.13,15.71,50.63,19.31,67,22.48,13.67,2.65,25.46,5,43.35,13.7l4.55-9.42c-19.23-9.4-32.31-11.94-46.15-14.64-16.41-3.19-33.38-6.49-64.17-21.54Z"/>
          <path class="cls-6" d="M866.75,192.8c1.09.53,2.22,1.07,3.33,1.58,15.58,7.25,30.18,10.78,45.61,14.51,18.83,4.54,40.17,9.68,67.25,22.93,30.8,15.06,43.86,26.44,56.48,37.45,10.65,9.29,20.73,18.05,39.95,27.46,27.17,13.28,43.41,16,60.63,19,8.39,1.41,17.07,2.89,27.66,5.64l2.43-10.2c-11-2.87-20-4.39-28.61-5.85-17.1-2.89-31.86-5.39-57.56-18-17.89-8.75-27-16.67-37.47-25.83-12.57-10.95-26.81-23.37-58.94-39.08-28.22-13.8-50.19-19.08-69.59-23.77-14.86-3.58-28.93-7-43.48-13.76-28.69-13.27-49.83-32.19-72.66-53.69l-7.33,7.48C817.14,160,838.33,178.89,866.75,192.8Z"/>
          <path class="cls-5" d="M976.27,245.67l4.54-9.42c-27.09-13.25-44.3-27-59.48-39-12.45-9.91-24.2-19.29-39.5-27.12l-4.74,9.32c14.28,7.31,25.62,16.35,37.61,25.89C930.34,217.75,948.05,231.87,976.27,245.67Z"/>
          <path class="cls-7" d="M797.05,133.81c-1.95,2-3,4.19-2.34,4.81s2.83-.49,4.8-2.49,3-4.2,2.34-4.81S799,131.8,797.05,133.81Z"/>
          <path class="cls-8" d="M789.22,149.67c-.28,2.83.26,5.2,1.18,5.32s1.88-2.08,2.16-4.88-.27-5.21-1.16-5.31S789.51,146.85,789.22,149.67Z"/>
        </g>
        <g>
          <path class="cls-9" d="M799.71,133.47v0c.22.29-.25,1.12-1.11,1.93s-1.71,1.25-2,1h0l-4.73-4.74,3.11-3Z"/>
          <path class="cls-10" d="M793.07,129.87c-.86.83-1.38,1.66-1.2,1.86s1.06-.32,1.92-1.13,1.39-1.63,1.21-1.84S793.94,129.05,793.07,129.87Z"/>
        </g>
        <g>
          <path class="cls-9" d="M790.82,147.81l0,0c.35,0,.56,1,.47,2.21s-.42,2.07-.79,2.08h0l-6.63-.71.32-4.29Z"/>
          <path class="cls-10" d="M783.56,149.23c-.09,1.19.07,2.17.35,2.21s.58-.92.66-2.11-.08-2.17-.34-2.21S783.66,148,783.56,149.23Z"/>
        </g>
      </g>
      <g>
        <g>
          <path class="cls-11" d="M1157.33,339.63l5.55-8.87c-9.39-5.66-16.51-10.85-23.4-15.87-14.16-10.29-27.51-20-56-30.16l-3.49,9.86c26.95,9.61,39.08,18.42,53.14,28.64C1140.2,328.39,1147.52,333.74,1157.33,339.63Z"/>
          <path class="cls-11" d="M771.23,201.82c31.3,1.33,59.49,3.34,89.09,14.46L864,206.5c-31-11.72-60.33-13.81-92.61-15.16Z"/>
          <path class="cls-11" d="M966.26,271c33.69,12,52.5,13.51,69.09,14.84,13.9,1.11,25.87,2.08,44.62,8.76l3.49-9.86c-20.15-7.18-33.43-8.25-47.52-9.38-16.65-1.33-33.91-2.71-66.19-14.22Z"/>
          <path class="cls-12" d="M851.51,230.72c1.14.41,2.31.82,3.48,1.2,16.31,5.47,31.2,7.34,47,9.31,19.22,2.4,41,5.13,69.44,15.26,32.27,11.5,46.53,21.36,60.29,30.87,11.62,8,22.6,15.61,42.75,22.8,28.5,10.16,45,11.08,62.42,12.07,8.5.46,17.29,1,28.14,2.52l1.29-10.4c-11.32-1.63-20.36-2.14-29.11-2.61-17.33-1-32.29-1.81-59.25-11.42-18.74-6.68-28.64-13.54-40.11-21.46-13.71-9.46-29.25-20.2-62.95-32.22-29.58-10.55-52-13.35-71.83-15.82-15.19-1.91-29.55-3.7-44.76-8.81-30-10-53.11-26.39-78.19-45.2l-6.47,8.25C798.55,203.72,821.71,220.1,851.51,230.72Z"/>
          <path class="cls-11" d="M966.26,271l3.49-9.86c-28.4-10.13-47-21.83-63.47-32.12-13.47-8.44-26.19-16.43-42.27-22.51l-3.69,9.78c15,5.66,27.29,13.37,40.26,21.5C917.5,248.41,936.67,260.44,966.26,271Z"/>
          <path class="cls-13" d="M775.69,179.94c-1.73,2.25-2.52,4.49-1.79,5s2.76-.8,4.49-3,2.53-4.51,1.8-5S777.44,177.72,775.69,179.94Z"/>
          <path class="cls-14" d="M769.64,196.56c0,2.84.83,5.13,1.76,5.16s1.63-2.29,1.61-5.09-.84-5.15-1.74-5.13S769.61,193.73,769.64,196.56Z"/>
        </g>
        <g>
          <path class="cls-9" d="M778.29,179.3v0c.26.26-.12,1.14-.89,2s-1.56,1.43-1.87,1.25h0l-5.23-4.16,2.78-3.3Z"/>
          <path class="cls-10" d="M771.31,176.47c-.78.92-1.21,1.8-1,2s1-.43,1.78-1.34,1.2-1.78,1-2S772.06,175.56,771.31,176.47Z"/>
        </g>
        <g>
          <path class="cls-9" d="M771,194.54l0,0c.34,0,.67.95.71,2.14s-.19,2.11-.57,2.15h0l-6.67.05-.14-4.3Z"/>
          <path class="cls-10" d="M764,196.75c0,1.2.31,2.16.59,2.17s.48-1,.42-2.17-.31-2.15-.57-2.15S763.92,195.55,764,196.75Z"/>
        </g>
      </g>
    </g>
    <path class="cls-15" d="M840.28,130.67a1.86,1.86,0,0,0-1.14.21c-1,.51-1.54,1.87-.75,2.64,22.7,21.86,58,41.39,83.47,54.71,6.07,3.18,11.34,5.94,15.5,8.37,13,7.56,35.48,16.32,57.24,24.82,19.95,7.77,38.78,15.1,50.38,21.41,20.86,11.33,76.27,41.43,92,66.68a2.05,2.05,0,0,0,2.75.71,1.87,1.87,0,0,0,.65-2.65c-14.4-23.19-57.52-48.59-93.49-68.12C1035,233,1016.05,225.63,996,217.83c-21.61-8.44-44-17.15-56.67-24.56-4.23-2.47-9.53-5.23-15.66-8.45-25-13.1-61.63-34.29-81.79-53.14A2.9,2.9,0,0,0,840.28,130.67Z"/>
    <path class="cls-16" d="M1005.09,257.12c8.65-19.38,10.19-37.6,3.7-41.58l0-.09,426.65,190.4-32.25,72.27L976.57,287.73l0-.09C983.91,289.81,996.44,276.49,1005.09,257.12Z"/>
    <path class="cls-17" d="M1002.56,256c-9.19,20.59-21.26,30.95-25.54,29a2.6,2.6,0,0,1-.42-.29l30-67.28a2.6,2.6,0,0,1,.5.12C1011.41,219.5,1011.75,235.4,1002.56,256Z"/>
    <path class="cls-4" d="M977,285c4.29,1.91,16.35-8.45,25.54-29s8.84-36.5,4.56-38.41a2.6,2.6,0,0,0-.5-.12l1.09-2.43c.16.05.34.07.49.14,7.18,3.2,5.8,22-3.11,41.95s-22,33.53-29.14,30.32a4.35,4.35,0,0,1-.43-.28l1.08-2.43A2.6,2.6,0,0,0,977,285Z"/>
    <path class="cls-18" d="M1099.57,257c-18.82-3.11-38.71,6-54.13,16.36-15.75,10.59-49.21,23.85-65,15.92"/>
    <path class="cls-19" d="M1098.86,256.22c-18.81-3.12-38.73,6-54.14,16.35-15.75,10.59-49.21,23.83-65,15.93"/>
    <path class="cls-20" d="M1134.37,346a1.74,1.74,0,0,0,1-.47,1.89,1.89,0,0,0,.08-2.75c-22.12-23.19-64-34.16-91.78-41.43-6.63-1.72-12.37-3.23-17-4.66-14.33-4.45-38.16-7.92-61.21-11.27-21.11-3.07-41.05-6-53.77-9.5-22.85-6.35-83.58-23.21-104.79-44.37a2,2,0,0,0-2.82-.08,1.91,1.91,0,0,0,0,2.75c19.49,19.43,67.21,34.49,106.62,45.43,13,3.6,33,6.53,54.28,9.61,22.88,3.33,46.57,6.78,60.59,11.14,4.68,1.45,10.47,3,17.15,4.71,27.27,7.14,68.51,17.94,89.8,40.27A2.07,2.07,0,0,0,1134.37,346Z"/>
    <path class="cls-21" d="M1085.11,293.85c12-26.79,14.1-52,5.13-57.49l.05-.12,506.13,225.87-44.6,99.94L1045.69,336.18l.05-.12C1055.84,339.06,1073.15,320.64,1085.11,293.85Z"/>
    <path class="cls-17" d="M1081.64,292.31c-12.71,28.47-29.41,42.8-35.33,40.16a3.83,3.83,0,0,1-.6-.41l41.52-93a3.46,3.46,0,0,1,.71.17C1093.86,241.84,1094.35,263.84,1081.64,292.31Z"/>
    <path class="cls-2" d="M1046.32,332.46c5.92,2.64,22.62-11.69,35.33-40.16s12.21-50.47,6.3-53.11a3.46,3.46,0,0,0-.71-.17l1.5-3.37c.23.08.48.11.69.2,9.93,4.43,8,30.4-4.32,58s-30.35,46.38-40.28,41.94a6.23,6.23,0,0,1-.61-.38l1.5-3.36A3.83,3.83,0,0,0,1046.32,332.46Z"/>
  </g>
  <text class="cls-22" transform="translate(1056.42 469.24)">Gaine P<tspan class="cls-23" x="64.71" y="0">V</tspan><tspan x="76.39" y="0">C i</tspan><tspan class="cls-24" x="97.65" y="0">v</tspan><tspan x="106.87" y="0">oi</tspan><tspan class="cls-25" x="121.86" y="0">r</tspan><tspan x="128.2" y="0">e</tspan></text>
  <text class="cls-22" transform="translate(951.9 154.99)">Ruban <tspan class="cls-23" x="59.48" y="0">P</tspan><tspan x="71.19" y="0">ol</tspan><tspan class="cls-26" x="86.19" y="0">y</tspan><tspan x="95.43" y="0">ester/Aluminium</tspan><tspan x="30.72" y="22.96">Recouv</tspan><tspan class="cls-25" x="93.74" y="22.96">r</tspan><tspan x="100.08" y="22.96">ement 100%</tspan></text>
  <text class="cls-22" transform="translate(881.83 399.15)">Fil de dechi<tspan class="cls-25" x="94.94" y="0">r</tspan><tspan x="101.27" y="0">ement</tspan></text>
  <text class="cls-22" transform="translate(727.2 321.34)">Ame massi<tspan class="cls-23" x="94.48" y="0">v</tspan><tspan x="103.72" y="0">e cuiv</tspan><tspan class="cls-27" x="152.5" y="0">r</tspan><tspan class="cls-28" x="158.83" y="0">e nu</tspan></text>
  <text class="cls-22" transform="translate(864.01 89.01)">Fil de continuité cuiv<tspan class="cls-25" x="172.21" y="0">r</tspan><tspan x="178.54" y="0">e étamé</tspan></text>
  <text class="cls-22" transform="translate(756.48 51.09)">Isolant: P<tspan class="cls-26" x="77.74" y="0">V</tspan><tspan x="89.42" y="0">C</tspan></text>
  <line class="cls-29" x1="960" y1="374.19" x2="960" y2="291.35"/>
  <line class="cls-29" x1="768.07" y1="298.81" x2="768.07" y2="199.23"/>
  <line class="cls-29" x1="1133.44" y1="384.97" x2="1133.44" y2="436.19"/>
  <line class="cls-29" x1="1063.62" y1="185.1" x2="1063.62" y2="226.27"/>
  <line class="cls-29" x1="924.59" y1="101.43" x2="924.59" y2="176"/>
  <line class="cls-29" x1="807.32" y1="63.93" x2="807.32" y2="126.93"/>
</svg>
