<?xml version="1.0" encoding="utf-8"?>
<!-- Generator: Adobe Illustrator 21.0.0, SVG Export Plug-In . SVG Version: 6.00 Build 0)  -->
<svg version="1.1" id="图层_1" xmlns="http://www.w3.org/2000/svg" xmlns:xlink="http://www.w3.org/1999/xlink" x="0px" y="0px"
	 viewBox="0 0 1440 540" style="enable-background:new 0 0 1440 540;" xml:space="preserve">
<style type="text/css">
	.st0{fill:none;stroke:#18244A;stroke-miterlimit:10;}
	.st1{fill:#B0B0B1;}
	.st2{fill:#EFF6E6;}
	.st3{fill:#8B9294;}
	.st4{fill:#C9E0E6;}
	.st5{fill:#009844;}
	.st6{fill:#EEEEEF;}
	.st7{fill:#B4B4B5;}
	.st8{fill:#006934;}
	.st9{fill:#D6AD3C;}
	.st10{fill:#CA9A0C;}
	.st11{fill:url(#SVGID_1_);}
	.st12{fill:url(#SVGID_2_);}
	.st13{fill:#804F21;}
	.st14{fill:#6D3B1D;}
	.st15{fill:#DBDCDC;}
	.st16{fill:#F29600;}
	.st17{fill:#976024;}
	.st18{fill:url(#SVGID_3_);}
	.st19{fill:url(#SVGID_4_);}
	.st20{fill:#036EB7;}
	.st21{fill:#0B6190;}
	.st22{fill:url(#SVGID_5_);}
	.st23{fill:none;}
	.st24{fill:none;stroke:#E5F3F5;stroke-width:0.2;stroke-miterlimit:10;}
	.st25{fill:#E0E0E1;}
	.st26{fill:none;stroke:#B5C9CE;stroke-width:0.2;stroke-miterlimit:10;}
	.st27{fill:url(#SVGID_6_);}
	.st28{enable-background:new    ;}
	.st29{fill:#151C51;}
</style>
<title>未标题-1</title>
<line class="st0" x1="310.1" y1="50" x2="310.1" y2="243.5"/>
<line class="st0" x1="417.2" y1="347.6" x2="417.2" y2="459.8"/>
<line class="st0" x1="406.4" y1="153.4" x2="406.4" y2="233.7"/>
<g>
	<path class="st1" d="M385,353.1c-6.6,2-22.3-15.1-31.8-46.6s-6-54.4,0.6-56.4s22.3,15.1,31.8,46.6S391.7,351.1,385,353.1z"/>
	<path class="st2" d="M389.5,295.5c-9-29.8-25-51.4-36.1-49.2l1.1,3.7c7-0.6,21.9,16.4,31.1,46.7s6.2,52.7,0.1,56.1l1.1,3.7
		C397.3,352.1,398.6,325.3,389.5,295.5z"/>
	<path class="st3" d="M464.8,312.3c-4.8,1.5-16.1-11-23-33.7s-4.3-39.4,0.5-40.8s16.1,11,23,33.7S469.5,310.9,464.8,312.3z"/>
	<path class="st4" d="M468,270.7c-6.5-21.6-18.1-37.2-26.1-35.6l0.8,2.7c5-0.5,15.8,11.8,22.5,33.7s4.5,38.1,0,40.5l0.8,2.7
		C473.6,311.6,474.5,292.2,468,270.7z"/>
	<g>
		<g>
			<g>
				<path class="st5" d="M288.4,362.4l-5.8-8.8c9.4-5.9,16.6-11.2,23.5-16.4c14.2-10.6,27.6-20.6,56.5-31.4l3.8,9.8
					c-27.3,10.2-39.5,19.3-53.6,29.8C305.6,350.7,298.3,356.3,288.4,362.4z"/>
				<path class="st5" d="M679.2,216.3c-31.9,2-60.6,4.6-90.6,16.3l-4-9.7c31.4-12.4,61.2-15.1,94.1-17.1L679.2,216.3z"/>
				<path class="st5" d="M481.8,289.6c-34.1,12.7-53.3,14.6-70.1,16.3c-14.2,1.4-26.4,2.6-45.3,9.7l-3.8-9.8
					c20.4-7.6,33.9-9,48.2-10.4c17-1.7,34.5-3.4,67.2-15.6L481.8,289.6z"/>
				<g>
					<path class="st6" d="M597.9,246.9l-3.5,1.3c-16.5,5.8-31.7,8-47.7,10.3c-19.6,2.8-41.7,6-70.5,16.7
						c-32.7,12.2-47,22.4-60.8,32.2c-11.7,8.3-22.7,16.1-43.1,23.8c-28.8,10.8-45.6,12-63.4,13.4c-8.7,0.6-17.6,1.3-28.6,3.1
						l-1.5-10.4c11.5-1.9,20.7-2.5,29.6-3.2c17.6-1.3,32.9-2.5,60.2-12.7c19-7.1,28.9-14.2,40.4-22.3c13.8-9.8,29.4-20.9,63.5-33.6
						c30-11.2,52.8-14.4,72.9-17.3c15.5-2.2,30.1-4.3,45.5-9.8c30.4-10.6,53.6-27.6,78.8-46.9l6.8,8.1
						C651.3,218.7,628.1,235.6,597.9,246.9z"/>
					<path class="st5" d="M340.4,336.6c-11.8,2.5-21.4,3.2-31.6,4c-7.7,0.6-15.6,1.2-25,2.5l-0.4-2.8c9.6-1.4,17.5-2,25.3-2.5
						c10.2-0.8,19.8-1.5,31.4-3.9c10.2-2.2,20.2-5.3,30-9c19.5-7.3,29.6-14.5,41.4-22.8c13.7-9.7,29.1-20.6,62.6-33.1
						c13.2-4.9,26.7-8.9,40.4-11.8c11.4-2.4,21.6-3.9,31.4-5.3c9.2-1.3,17.5-2.5,26.1-4.3c6.9-1.4,13.7-3.3,20.4-5.6
						c29.5-10.3,54.9-28,79.3-46.6l1.8,2.2c-23.5,18-48.2,35.3-76.6,45.9l-3.1,1.1c-6.9,2.4-13.9,4.4-21,5.9c-8.6,1.8-17,3-26,4.3
						c-10.1,1.5-20.1,2.9-31.5,5.3c-13.6,2.9-27,6.8-40.1,11.6c-33.3,12.4-47.8,22.8-61.9,32.7c-11.4,8.1-22.2,15.8-42.1,23.2
						C361,331.3,350.8,334.4,340.4,336.6z"/>
				</g>
				<path class="st5" d="M481.8,289.6l-3.8-9.8c28.8-10.8,47.5-22.9,64-33.5c13.5-8.8,26.3-17,42.6-23.4l4,9.7
					c-15.2,6-27.5,14-40.6,22.4C531,266,511.7,278.4,481.8,289.6z"/>
				<path class="st7" d="M674.1,194.4c1.8,2.2,2.7,4.5,2,5s-2.8-0.8-4.7-2.9s-2.7-4.5-2-5S672.3,192.2,674.1,194.4z"/>
				<path class="st8" d="M680.7,211c0,2.9-0.7,5.2-1.7,5.2s-1.7-2.2-1.8-5.1s0.7-5.2,1.7-5.2S680.7,208.1,680.7,211z"/>
			</g>
			<g>
				<path class="st9" d="M671.5,193.8L671.5,193.8c-0.2,0.3,0.2,1.1,1,2s1.6,1.4,1.9,1.2l0,0l5.2-4.3l-2.9-3.3L671.5,193.8z"/>
				<path class="st10" d="M678.5,190.8c0.8,0.9,1.3,1.8,1.1,2s-1.1-0.4-1.8-1.3s-1.3-1.8-1.1-1.9S677.7,190,678.5,190.8z"/>
			</g>
			<g>
				<path class="st9" d="M679.2,209L679.2,209c-0.4,0-0.7,1-0.7,2.2s0.2,2.1,0.6,2.1l0,0l6.8-0.1l0.1-4.3L679.2,209z"/>
				<path class="st10" d="M686.5,211c0,1.2-0.3,2.1-0.5,2.2s-0.5-1-0.5-2.2s0.3-2.2,0.6-2.2S686.5,209.8,686.5,211z"/>
			</g>
		</g>
		<polygon class="st7" points="611.7,227.1 621.7,201.2 615,194.2 602.8,224.3 		"/>
		<polygon class="st7" points="611.5,225.8 607.3,234.6 634.8,250.7 635,240.3 		"/>
		
			<linearGradient id="SVGID_1_" gradientUnits="userSpaceOnUse" x1="579.7524" y1="1787.5146" x2="587.1124" y2="1872.5146" gradientTransform="matrix(0.957 -0.29 -0.29 -0.957 447.8108 2209.9773)">
			<stop  offset="0" style="stop-color:#DBDCDC"/>
			<stop  offset="1" style="stop-color:#595757"/>
		</linearGradient>
		<polygon class="st11" points="313.5,316.5 602.8,230.3 634.8,250.7 346.1,336.1 		"/>
		
			<linearGradient id="SVGID_2_" gradientUnits="userSpaceOnUse" x1="580.4094" y1="1906.4963" x2="601.6094" y2="1798.5464" gradientTransform="matrix(0.957 -0.29 -0.29 -0.957 447.8108 2209.9773)">
			<stop  offset="0" style="stop-color:#DBDCDC"/>
			<stop  offset="1" style="stop-color:#595757"/>
		</linearGradient>
		<polygon class="st12" points="322.5,309.2 604,224.2 615,194.2 325.2,282.3 		"/>
		<g>
			<g>
				<path class="st13" d="M288.5,358.1l-6.5-8.4c9-6.5,15.7-12.3,22.3-17.9c13.4-11.5,26-22.5,54-35.2l4.5,9.5
					c-26.5,12-38,21.9-51.3,33.4C304.8,345.3,297.9,351.3,288.5,358.1z"/>
				<path class="st13" d="M667.9,185.6c-31.7,4.1-60.2,8.7-89.3,22.5l-4.7-9.4c30.4-14.5,60-19.2,92.8-23.5L667.9,185.6z"/>
				<path class="st13" d="M476.2,272.3c-33.1,15-52.1,18.2-68.9,21c-14,2.4-26.1,4.4-44.6,12.8l-4.5-9.5c19.8-9,33.2-11.3,47.5-13.7
					c16.8-2.9,34.2-5.8,66-20.2L476.2,272.3z"/>
				<g>
					<path class="st6" d="M589.1,221.7c-1.1,0.5-2.3,1-3.4,1.5c-16,6.9-31,10.1-46.9,13.5c-19.3,4.1-41.3,8.8-69.2,21.5
						c-31.7,14.4-45.3,25.5-58.4,36.3c-11,9.1-21.5,17.6-41.3,26.6c-28,12.7-44.7,15.1-62.3,17.7c-8.6,1.2-17.5,2.5-28.4,5.1
						l-2.3-10.3c11.3-2.6,20.5-4,29.4-5.2c17.5-2.5,32.7-4.7,59.2-16.8c18.4-8.4,27.8-16.1,38.7-25c13-10.7,27.8-22.8,60.9-37.9
						c29.1-13.2,51.6-18,71.6-22.3c15.3-3.3,29.7-6.4,44.7-12.9c29.6-12.7,51.5-31.1,75.2-52.2l7.4,7.6
						C640.3,190,618.3,208.4,589.1,221.7z"/>
					<path class="st13" d="M338.5,328.9c-11.6,3.3-21.2,4.7-31.3,6.2c-7.7,1.1-15.5,2.2-24.9,4.3l-0.6-2.8c9.5-2,17.4-3.2,25-4.3
						c10.1-1.5,19.6-2.8,31-6.1c10-2.9,19.8-6.6,29.3-11c18.9-8.6,28.5-16.5,39.6-25.6c13-10.6,27.5-22.5,60-37.3
						c12.8-5.8,26-10.7,39.5-14.5c11.2-3.2,21.3-5.3,31-7.4c9.1-2,17.3-3.7,25.7-6.1c6.8-1.9,13.5-4.2,19.9-7
						c28.7-12.3,52.8-31.7,75.7-51.9l2,2c-22.2,19.6-45.6,38.4-73.1,51l-3,1.4c-6.7,2.9-13.6,5.3-20.6,7.3
						c-8.5,2.4-16.8,4.2-25.7,6.1c-10,2.1-19.9,4.3-31,7.4c-13.4,3.8-26.5,8.6-39.2,14.4c-32.2,14.6-46,25.9-59.3,36.8
						c-10.8,8.9-21,17.3-40.4,26C358.7,322.1,348.7,325.9,338.5,328.9z"/>
				</g>
				<path class="st13" d="M476.2,272.3l-4.5-9.5c27.9-12.7,45.7-26,61.4-37.8c12.9-9.6,25.1-18.8,40.8-26.3l4.7,9.4
					c-14.7,7-26.5,15.8-38.9,25.1C523.6,245.3,505.3,259.1,476.2,272.3z"/>
				<path class="st7" d="M661.3,164.2c2,2.1,3,4.2,2.3,4.9s-2.9-0.6-4.9-2.6s-3-4.3-2.3-4.9S659.3,162.1,661.3,164.2z"/>
				<path class="st14" d="M669,180.2c0.2,2.8-0.3,5.2-1.3,5.3s-1.9-2.1-2.1-4.9s0.3-5.2,1.3-5.3S668.8,177.4,669,180.2z"/>
			</g>
			<g>
				<path class="st9" d="M658.6,163.8L658.6,163.8c-0.2,0.3,0.2,1.1,1.1,1.9s1.7,1.3,2,1.1l0,0l4.9-4.6l-3.1-3L658.6,163.8z"/>
				<path class="st10" d="M665.4,160.3c0.9,0.8,1.4,1.7,1.2,1.9s-1.1-0.3-2-1.2s-1.4-1.7-1.2-1.9S664.5,159.5,665.4,160.3z"/>
			</g>
			<g>
				<path class="st9" d="M667.4,178.3L667.4,178.3c-0.4,0-0.6,1-0.5,2.2s0.4,2.1,0.8,2.1l0,0l6.8-0.6l-0.2-4.3L667.4,178.3z"/>
				<path class="st10" d="M674.8,179.9c0.1,1.2-0.1,2.2-0.4,2.2s-0.6-0.9-0.7-2.1s0.1-2.2,0.4-2.2S674.8,178.7,674.8,179.9z"/>
			</g>
		</g>
		<polygon class="st15" points="576.9,216.9 316.8,294.6 318.2,284.1 578,205.3 		"/>
		<g>
			<g>
				<path class="st16" d="M276.8,342.5l-4.3-9.6c10.2-4.5,18.1-8.8,25.7-13c15.6-8.5,30.4-16.6,60.5-23.2l2.1,10.3
					c-28.4,6.3-41.9,13.6-57.4,22.1C295.5,333.3,287.4,337.8,276.8,342.5z"/>
				<path class="st16" d="M683.9,252.4c-31.6-2.6-60.2-4-91.5,3.4l-2.3-10.3c32.8-7.9,62.5-6.3,95.1-3.7L683.9,252.4z"/>
				<path class="st16" d="M478.3,297.4c-35.5,7.9-54.6,7-71.5,6.3c-14.1-0.6-26.3-1.1-46.1,3.2l-2.1-10.3c21.3-4.7,34.8-4.1,49-3.5
					c16.9,0.7,34.5,1.5,68.5-6L478.3,297.4z"/>
				<g>
					<path class="st6" d="M599.3,271.4l-3.7,0.8c-17.1,3.4-32.4,3.5-48.5,3.5c-19.7,0-42,0-71.9,6.7c-34,7.5-49.7,15.6-64.9,23.4
						c-12.8,6.6-24.9,12.8-46.1,17.5c-30,6.6-46.7,5.5-64.4,4.3c-8.6-0.6-17.5-1.2-28.6-1l0.1-10.6c11.6-0.2,20.8,0.4,29.6,1
						c17.6,1.2,32.7,2.2,61.1-4.1c19.8-4.4,30.7-10,43.3-16.5c15.1-7.8,32.2-16.6,67.7-24.5c31.2-6.9,54.1-6.9,74.4-6.9
						c15.5,0,30.2,0,46.2-3.3c31.5-6.3,57.1-19.8,84.9-35.6l5.4,9.1C656.2,250.9,630.7,264.4,599.3,271.4z"/>
					<path class="st16" d="M332,324.2c-12,0.8-21.6,0.2-31.7-0.5c-7.7-0.5-15.5-1-25-1v-2.9c9.6,0,17.5,0.5,25.2,1
						c10.1,0.7,19.7,1.3,31.4,0.5c10.4-0.8,20.7-2.4,30.9-4.7c20.3-4.5,31.4-10.2,44.3-16.9c15-7.7,31.9-16.4,66.8-24.1
						c13.7-3.1,27.6-5.1,41.6-6c11.5-0.8,21.8-0.8,31.7-0.8c9.2,0,17.6,0,26.3-0.6c7-0.4,14-1.4,20.9-2.7
						c30.6-6.1,58.4-20.1,85.3-35.2l1.4,2.4c-26,14.6-53.1,28.2-82.6,34.8l-3.3,0.7c-7.1,1.4-14.3,2.4-21.6,2.9
						c-8.8,0.6-17.3,0.6-26.2,0.6c-10.1,0-20.2,0-31.7,0.8c-13.9,1-27.7,2.9-41.2,5.9c-34.6,7.6-50.5,15.9-65.9,23.8
						c-12.5,6.5-24.4,12.6-45.1,17.2C353,321.9,342.6,323.4,332,324.2z"/>
				</g>
				<path class="st16" d="M478.3,297.4l-2.1-10.3c30-6.6,50.3-16,68.3-24.3c14.7-6.8,28.6-13.2,45.6-17.3l2.3,10.3
					c-15.9,3.8-29.3,10-43.5,16.5C530.5,280.9,509.5,290.5,478.3,297.4z"/>
				<path class="st7" d="M682.5,229.9c1.4,2.4,1.9,4.8,1.1,5.3s-2.6-1.1-4.1-3.6s-1.9-4.8-1.1-5.3S681.1,227.5,682.5,229.9z"/>
				<path class="st17" d="M686.3,247.3c-0.4,2.8-1.5,5-2.5,4.9s-1.3-2.5-0.9-5.3s1.5-5,2.5-4.9S686.7,244.5,686.3,247.3z"/>
			</g>
			<g>
				<path class="st9" d="M680,229L680,229c-0.3,0.2,0,1.1,0.6,2.1s1.4,1.6,1.7,1.5l0,0l5.8-3.5l-2.3-3.6L680,229z"/>
				<path class="st10" d="M687.4,227c0.7,1,1,1.9,0.7,2.1s-1-0.6-1.6-1.6s-1-1.9-0.7-2.1S686.8,226,687.4,227z"/>
			</g>
			<g>
				<path class="st9" d="M685.2,245.1L685.2,245.1c-0.3,0-0.8,0.9-1,2.1s-0.1,2.1,0.3,2.2l0,0l6.7,0.9l0.8-4.3L685.2,245.1z"/>
				<path class="st10" d="M692,248.2c-0.2,1.2-0.6,2.1-0.9,2.1s-0.3-1-0.2-2.2s0.6-2.1,0.9-2.1S692.2,247,692,248.2z"/>
			</g>
		</g>
		
			<linearGradient id="SVGID_3_" gradientUnits="userSpaceOnUse" x1="565.0843" y1="1915.7465" x2="591.8243" y2="1786.1665" gradientTransform="matrix(0.957 -0.29 -0.29 -0.957 447.8108 2209.9773)">
			<stop  offset="0" style="stop-color:#DBDCDC"/>
			<stop  offset="1" style="stop-color:#595757"/>
		</linearGradient>
		<polygon class="st18" points="603.7,231.3 343.6,310.1 316.8,294.6 576.8,216.6 		"/>
		<polygon class="st15" points="589,257.9 329.6,337.7 336.6,345.6 596.4,266.9 		"/>
		
			<linearGradient id="SVGID_4_" gradientUnits="userSpaceOnUse" x1="573.1249" y1="1812.1838" x2="580.8749" y2="1907.0038" gradientTransform="matrix(0.957 -0.29 -0.29 -0.957 447.8108 2209.9773)">
			<stop  offset="0" style="stop-color:#DBDCDC"/>
			<stop  offset="1" style="stop-color:#595757"/>
		</linearGradient>
		<polygon class="st19" points="601.2,231.7 343.3,309.9 329.6,337.7 589.1,258.1 		"/>
		<path class="st7" d="M614.5,225.9c1.9,6.3,0,12.4-4.2,13.7s-9.2-2.8-11.1-9.1s0-12.4,4.2-13.7S612.6,219.6,614.5,225.9z"/>
		<polygon class="st7" points="601.4,227.8 589.1,258.1 596.4,266.9 610.5,230.3 		"/>
		<polygon class="st7" points="608.7,224.1 578,205.3 576.9,216.9 604.6,233.1 		"/>
		<g>
			<g>
				<path class="st20" d="M267.1,338l-4.9-9.3c10-5,17.6-9.6,25-14.2c15.2-9.3,29.5-18,59.2-26.1l2.8,10.1
					c-28.1,7.6-41.1,15.6-56.1,24.8C285.3,328,277.5,332.9,267.1,338z"/>
				<path class="st20" d="M669.8,228.5c-31.8-1-60.6-1.1-91.5,7.9l-2.9-10.1c32.4-9.4,62.3-9.4,95.1-8.3L669.8,228.5z"/>
				<path class="st20" d="M466.4,283.4c-35.1,9.5-54.3,9.6-71.2,9.7c-14.2,0.1-26.4,0.2-46,5.5l-2.8-10.1c21-5.7,34.6-5.8,49-5.9
					c17-0.1,34.6-0.2,68.3-9.3L466.4,283.4z"/>
				<g>
					<path class="st6" d="M586,251.5l-3.7,1c-17,4.3-32.2,5-48.4,5.8c-19.7,1-42,2.1-71.7,10.2c-33.7,9.1-48.9,18-63.7,26.5
						c-12.4,7.2-24.2,14-45.2,19.7c-29.7,8.1-46.5,7.8-64.3,7.5c-8.7-0.2-17.6-0.3-28.7,0.4L260,312c11.6-0.8,20.8-0.6,29.7-0.5
						c17.6,0.3,32.9,0.6,61-7c19.5-5.3,30.1-11.5,42.4-18.5c14.7-8.5,31.3-18.1,66.5-27.6c30.9-8.4,53.8-9.5,74.2-10.5
						c15.6-0.8,30.2-1.5,46.1-5.5c31.2-7.8,56-22.5,83-39.5l5.9,8.8C641.9,228.4,617.1,243.1,586,251.5z"/>
					<path class="st20" d="M321.3,317.2c-11.9,1.4-21.6,1.2-31.8,1c-7.7-0.1-15.6-0.3-25.1,0.2l-0.1-2.8c9.6-0.5,17.6-0.3,25.3-0.2
						c10.2,0.2,19.8,0.4,31.5-1c10.4-1.3,20.6-3.4,30.7-6.2c20.1-5.5,30.9-11.7,43.4-19c14.6-8.4,31-17.9,65.5-27.2
						c13.6-3.7,27.4-6.3,41.4-7.9c11.5-1.4,21.8-1.9,31.7-2.4c9.2-0.5,17.6-0.9,26.3-1.9c7-0.8,14-2,20.8-3.8
						c30.3-7.5,57.3-22.9,83.5-39.2l1.5,2.4c-25.2,15.8-51.5,30.7-80.8,38.7l-3.2,0.8c-7.1,1.8-14.2,3.1-21.5,3.9
						c-8.7,1-17.2,1.4-26.3,1.9c-10.2,0.5-20.3,1-31.8,2.4c-13.8,1.6-27.6,4.3-41,7.9c-34.2,9.3-49.7,18.3-64.7,26.9
						c-12.2,7.1-23.7,13.7-44.2,19.3C342.2,313.8,331.8,315.9,321.3,317.2z"/>
				</g>
				<path class="st20" d="M466.4,283.4l-2.7-10.1c29.6-8,49.5-18.4,67-27.5c14.3-7.5,27.9-14.5,44.7-19.4l2.9,10.1
					c-15.7,4.6-28.8,11.4-42.6,18.6C517.7,264.3,497.3,275,466.4,283.4z"/>
				<path class="st7" d="M667,206.2c1.6,2.4,2.2,4.7,1.4,5.2s-2.7-1-4.3-3.4s-2.2-4.7-1.4-5.2S665.5,203.8,667,206.2z"/>
				<path class="st21" d="M671.8,223.3c-0.3,2.9-1.3,5.1-2.2,5s-1.5-2.4-1.2-5.2s1.2-5.1,2.2-5S672.1,220.5,671.8,223.3z"/>
			</g>
			<g>
				<path class="st9" d="M664.5,205.4L664.5,205.4c-0.3,0.2,0,1.1,0.7,2.1s1.5,1.6,1.8,1.4l0,0l5.6-3.8l-2.5-3.5L664.5,205.4z"/>
				<path class="st10" d="M671.8,203.1c0.7,1,1.1,1.9,0.9,2.1s-1-0.5-1.7-1.5s-1.1-1.9-0.8-2S671.1,202.1,671.8,203.1z"/>
			</g>
			<g>
				<path class="st9" d="M670.6,221.2L670.6,221.2c-0.3,0-0.8,0.9-0.9,2.1s0,2.1,0.4,2.2l0,0l6.8,0.5l0.5-4.3L670.6,221.2z"/>
				<path class="st10" d="M677.6,224c-0.2,1.2-0.5,2.1-0.8,2.1s-0.4-1-0.3-2.2s0.5-2.1,0.8-2.1S677.7,222.8,677.6,224z"/>
			</g>
		</g>
	</g>
	
		<image style="overflow:visible;enable-background:new    ;" width="367" height="49" xlink:href="B191F24C68ABE8C.png"  transform="matrix(1 0 0 1 268 277.58)">
	</image>
	
		<linearGradient id="SVGID_5_" gradientUnits="userSpaceOnUse" x1="316.702" y1="1808.3295" x2="316.702" y2="1891.7527" gradientTransform="matrix(0.957 -0.29 -0.29 -0.957 447.8108 2209.9773)">
		<stop  offset="0" style="stop-color:#547B8A"/>
		<stop  offset="0.28" style="stop-color:#7D9CAD"/>
		<stop  offset="0.6" style="stop-color:#B7CCD0"/>
		<stop  offset="0.73" style="stop-color:#DBE6EC"/>
		<stop  offset="0.94" style="stop-color:#6F94AA"/>
	</linearGradient>
	<path class="st22" d="M438.9,279.5c-6.5-21.4-5.6-40.7,1.8-44v-0.1L-36.3,380l24.2,79.8l477-144.6v-0.1
		C456.8,316.5,445.4,300.9,438.9,279.5z"/>
	<path class="st23" d="M441.7,278.6c6.9,22.7,18.2,35.1,23,33.7c0.2-0.1,0.3-0.1,0.5-0.2l-22.5-74.3c-0.2,0-0.4,0-0.5,0.1
		C437.4,239.3,434.9,255.9,441.7,278.6z"/>
	<path class="st4" d="M464.8,312.3c-4.8,1.5-16.1-11-23-33.7s-4.3-39.4,0.5-40.8c0.2,0,0.4-0.1,0.5-0.1l-0.8-2.7
		c-0.2,0-0.4,0-0.5,0.1c-8,2.4-9.1,22.3-2.5,44.3s18.6,37.9,26.6,35.5c0.2-0.1,0.3-0.1,0.5-0.2l-0.8-2.7
		C465.1,312.2,465,312.3,464.8,312.3z"/>
	<path class="st24" d="M339.1,267.2c20.3-0.9,40.1,11.2,55,24.1c15.2,13.1,48.7,31.3,66.5,25"/>
	<path class="st25" d="M251,299.5c-0.3,0.3-0.5,0.7-0.5,1.1c-0.1,1.1,0.7,2.1,1.8,2.2c0,0,0.1,0,0.1,0c34,2.5,75.2-18.5,102.4-32.5
		c6.5-3.3,12.1-6.2,16.8-8.4c14.5-6.6,36-20.8,56.6-34.5c19-12.5,36.9-24.4,49.5-30.6c22.7-11.2,82.9-40.9,114.8-39.4
		c1.2,0.1,2.2-0.8,2.3-1.9c0.1-1.1-0.8-2.1-1.9-2.1c0,0-0.1,0-0.1,0c-29.3-1.4-77.9,20.5-117,39.8c-12.9,6.4-30.9,18.3-50,30.9
		c-20.6,13.6-41.8,27.6-56.1,34.1c-4.8,2.2-10.4,5.1-17,8.5c-26.8,13.7-67.2,34.4-100,32C252.1,298.7,251.4,299,251,299.5z"/>
	<path class="st26" d="M340,266.5c20.3-0.8,40.1,11.2,55,24.1c15.2,13.1,48.7,31.3,66.5,25"/>
	
		<linearGradient id="SVGID_6_" gradientUnits="userSpaceOnUse" x1="178.4202" y1="1906.7378" x2="178.4202" y2="1791.3589" gradientTransform="matrix(0.957 -0.29 -0.29 -0.957 447.8108 2209.9773)">
		<stop  offset="0" style="stop-color:#CDD3CB"/>
		<stop  offset="0.22" style="stop-color:#EFF6E6"/>
		<stop  offset="0.31" style="stop-color:#EFF7FA"/>
		<stop  offset="0.45" style="stop-color:#EEF2EC"/>
		<stop  offset="0.91" style="stop-color:#C3CFD4"/>
	</linearGradient>
	<path class="st27" d="M349.3,307.7c-9-29.6-7.8-56.2,2.5-60.9v-0.1l-572.5,173.6l33.5,110.4l572.4-173.5v-0.1
		C374.1,358.8,358.3,337.3,349.3,307.7z"/>
	<path class="st23" d="M353.2,306.5c9.5,31.5,25.2,48.6,31.8,46.6c0.2-0.1,0.5-0.2,0.7-0.4L354.6,250c-0.3,0-0.5,0-0.8,0.1
		C347.2,252.1,343.7,275.1,353.2,306.5z"/>
	<path class="st2" d="M385,353.1c-6.6,2-22.3-15.1-31.8-46.6s-6-54.4,0.6-56.4c0.2-0.1,0.5-0.1,0.8-0.1l-1.1-3.7
		c-0.2,0.1-0.5,0-0.8,0.1c-11.1,3.4-12.6,30.8-3.4,61.3s25.7,52.5,36.8,49.1c0.2-0.1,0.5-0.2,0.7-0.3l-1.1-3.7
		C385.5,352.9,385.2,353,385,353.1z"/>
</g>
<g class="st28">
	<path class="st29" d="M339.1,135.8h-6.6v6.4h-1.1v-13.6h8.7v1h-7.6v5.3h6.6V135.8z"/>
	<path class="st29" d="M343.3,129.2h-1.1v-1.6h1.1V129.2z M343.3,142.2h-1.1v-10.1h1.1V142.2z"/>
	<path class="st29" d="M347.7,142.2h-1.1v-14.6h1.1V142.2z"/>
	<path class="st29" d="M355,137.2c0-1.6,0.3-2.9,1-3.9c0.7-1,1.6-1.5,2.9-1.5c0.7,0,1.3,0.1,1.8,0.4c0.5,0.3,0.9,0.7,1.3,1.3v-6h1.1
		v14.6h-1l-0.1-1.5c-0.3,0.5-0.8,0.9-1.3,1.2s-1.2,0.4-1.9,0.4c-1.2,0-2.2-0.5-2.8-1.3c-0.7-0.9-1-2.1-1-3.6V137.2z M356.1,137.4
		c0,1.2,0.2,2.2,0.7,2.9c0.5,0.7,1.2,1.1,2.2,1.1c0.7,0,1.3-0.2,1.8-0.5c0.5-0.3,0.9-0.8,1.1-1.4v-4.8c-0.3-0.6-0.6-1.1-1.1-1.4
		c-0.5-0.4-1.1-0.5-1.8-0.5c-1,0-1.7,0.4-2.2,1.2c-0.5,0.8-0.7,1.9-0.7,3.2V137.4z"/>
	<path class="st29" d="M369.9,142.4c-1.3,0-2.3-0.5-3.2-1.4c-0.8-0.9-1.3-2.1-1.3-3.5v-0.5c0-1.4,0.4-2.6,1.2-3.6
		c0.8-1,1.8-1.4,3-1.4c1.2,0,2.2,0.4,2.9,1.2c0.7,0.8,1.1,1.8,1.1,3.1v1h-7.1v0.3c0,1.1,0.3,2.1,0.9,2.9c0.6,0.8,1.4,1.1,2.4,1.1
		c0.7,0,1.3-0.1,1.8-0.3c0.5-0.2,0.9-0.5,1.3-0.8l0.5,0.8c-0.4,0.4-0.9,0.7-1.4,1C371.4,142.2,370.7,142.4,369.9,142.4z
		 M369.7,132.8c-0.8,0-1.5,0.3-2.1,0.9c-0.6,0.6-0.9,1.4-1,2.4l0,0h5.9v-0.3c0-0.9-0.3-1.6-0.8-2.2
		C371.3,133.1,370.6,132.8,369.7,132.8z"/>
	<path class="st29" d="M380.1,137.2c0-1.6,0.3-2.9,1-3.9c0.7-1,1.6-1.5,2.9-1.5c0.7,0,1.3,0.1,1.8,0.4c0.5,0.3,0.9,0.7,1.3,1.3v-6
		h1.1v14.6h-1l-0.1-1.5c-0.3,0.5-0.8,0.9-1.3,1.2s-1.2,0.4-1.9,0.4c-1.2,0-2.2-0.5-2.8-1.3c-0.7-0.9-1-2.1-1-3.6V137.2z
		 M381.3,137.4c0,1.2,0.2,2.2,0.7,2.9c0.5,0.7,1.2,1.1,2.2,1.1c0.7,0,1.3-0.2,1.8-0.5c0.5-0.3,0.9-0.8,1.1-1.4v-4.8
		c-0.3-0.6-0.6-1.1-1.1-1.4c-0.5-0.4-1.1-0.5-1.8-0.5c-1,0-1.7,0.4-2.2,1.2c-0.5,0.8-0.7,1.9-0.7,3.2V137.4z"/>
	<path class="st29" d="M395,142.4c-1.3,0-2.3-0.5-3.2-1.4c-0.8-0.9-1.3-2.1-1.3-3.5v-0.5c0-1.4,0.4-2.6,1.2-3.6c0.8-1,1.8-1.4,3-1.4
		c1.2,0,2.2,0.4,2.9,1.2c0.7,0.8,1.1,1.8,1.1,3.1v1h-7.1v0.3c0,1.1,0.3,2.1,0.9,2.9c0.6,0.8,1.4,1.1,2.4,1.1c0.7,0,1.3-0.1,1.8-0.3
		c0.5-0.2,0.9-0.5,1.3-0.8l0.5,0.8c-0.4,0.4-0.9,0.7-1.4,1C396.5,142.2,395.8,142.4,395,142.4z M394.9,132.8c-0.8,0-1.5,0.3-2.1,0.9
		c-0.6,0.6-0.9,1.4-1,2.4l0,0h5.9v-0.3c0-0.9-0.3-1.6-0.8-2.2C396.5,133.1,395.8,132.8,394.9,132.8z M396.2,128.1h1.4l0,0.1
		l-2.3,2.4h-1L396.2,128.1z"/>
	<path class="st29" d="M404.8,141.4c0.7,0,1.4-0.2,2-0.6c0.6-0.4,0.9-1,0.9-1.8h1l0,0.1c0,0.9-0.3,1.7-1.1,2.3s-1.7,0.9-2.7,0.9
		c-1.4,0-2.4-0.5-3.2-1.4c-0.8-0.9-1.1-2.2-1.1-3.6v-0.4c0-1.5,0.4-2.7,1.1-3.6c0.8-0.9,1.8-1.4,3.2-1.4c1.1,0,2,0.3,2.8,1
		c0.7,0.7,1.1,1.5,1.1,2.6l0,0.1h-1c0-0.8-0.3-1.5-0.8-1.9c-0.5-0.5-1.2-0.7-2-0.7c-1.1,0-1.9,0.4-2.4,1.2c-0.5,0.8-0.8,1.7-0.8,2.9
		v0.4c0,1.2,0.3,2.2,0.8,2.9C402.9,141,403.7,141.4,404.8,141.4z"/>
	<path class="st29" d="M412.1,133.8c0.3-0.6,0.8-1.1,1.3-1.4s1.2-0.5,2-0.5c1.1,0,1.9,0.3,2.5,1s0.9,1.7,0.9,3.1v6.2h-1.1v-6.3
		c0-1.1-0.2-1.9-0.6-2.4c-0.4-0.5-1-0.7-1.8-0.7c-0.8,0-1.4,0.2-1.9,0.6c-0.5,0.4-0.9,0.9-1.1,1.6v7.1H411v-14.6h1.1V133.8z"/>
	<path class="st29" d="M422.9,129.2h-1.1v-1.6h1.1V129.2z M422.9,142.2h-1.1v-10.1h1.1V142.2z"/>
</g>
<g class="st28">
	<path class="st29" d="M430.6,133l-0.8-0.1c-0.7,0-1.3,0.2-1.7,0.6s-0.8,0.9-1,1.6v7H426v-10.1h1l0.1,1.7v0.1
		c0.3-0.6,0.7-1.1,1.2-1.5c0.5-0.3,1.1-0.5,1.8-0.5c0.1,0,0.3,0,0.4,0s0.2,0,0.3,0.1L430.6,133z"/>
</g>
<g class="st28">
	<path class="st29" d="M436.1,142.4c-1.3,0-2.3-0.5-3.2-1.4c-0.8-0.9-1.3-2.1-1.3-3.5v-0.5c0-1.4,0.4-2.6,1.2-3.6
		c0.8-1,1.8-1.4,3-1.4c1.2,0,2.2,0.4,2.9,1.2c0.7,0.8,1.1,1.8,1.1,3.1v1h-7.1v0.3c0,1.1,0.3,2.1,0.9,2.9c0.6,0.8,1.4,1.1,2.4,1.1
		c0.7,0,1.3-0.1,1.8-0.3c0.5-0.2,0.9-0.5,1.3-0.8l0.5,0.8c-0.4,0.4-0.9,0.7-1.4,1C437.6,142.2,436.9,142.4,436.1,142.4z M436,132.8
		c-0.8,0-1.5,0.3-2.1,0.9c-0.6,0.6-0.9,1.4-1,2.4l0,0h5.9v-0.3c0-0.9-0.3-1.6-0.8-2.2C437.6,133.1,436.9,132.8,436,132.8z"/>
	<path class="st29" d="M443.1,132.1l0.1,1.7c0.3-0.6,0.8-1,1.3-1.4c0.5-0.3,1.2-0.5,1.9-0.5c0.8,0,1.4,0.2,1.9,0.6
		c0.5,0.4,0.9,0.9,1.1,1.7c0.3-0.7,0.7-1.3,1.3-1.7c0.6-0.4,1.2-0.6,2.1-0.6c1.1,0,1.9,0.4,2.5,1.1c0.6,0.7,0.9,1.8,0.9,3.3v5.9
		h-1.1v-5.9c0-1.2-0.2-2.1-0.7-2.6s-1.1-0.8-1.8-0.8c-0.9,0-1.5,0.3-2,0.8s-0.8,1.2-0.9,2.1c0,0,0,0.1,0,0.2c0,0.1,0,0.1,0,0.2v6.1
		h-1.1v-5.9c0-1.2-0.2-2.1-0.7-2.6s-1.1-0.8-1.8-0.8c-0.8,0-1.4,0.2-1.9,0.6c-0.5,0.4-0.8,0.9-1,1.6v7.1h-1.1v-10.1H443.1z"/>
	<path class="st29" d="M462.9,142.4c-1.3,0-2.3-0.5-3.2-1.4c-0.8-0.9-1.3-2.1-1.3-3.5v-0.5c0-1.4,0.4-2.6,1.2-3.6
		c0.8-1,1.8-1.4,3-1.4c1.2,0,2.2,0.4,2.9,1.2c0.7,0.8,1.1,1.8,1.1,3.1v1h-7.1v0.3c0,1.1,0.3,2.1,0.9,2.9c0.6,0.8,1.4,1.1,2.4,1.1
		c0.7,0,1.3-0.1,1.8-0.3c0.5-0.2,0.9-0.5,1.3-0.8l0.5,0.8c-0.4,0.4-0.9,0.7-1.4,1C464.4,142.2,463.7,142.4,462.9,142.4z
		 M462.8,132.8c-0.8,0-1.5,0.3-2.1,0.9c-0.6,0.6-0.9,1.4-1,2.4l0,0h5.9v-0.3c0-0.9-0.3-1.6-0.8-2.2
		C464.4,133.1,463.7,132.8,462.8,132.8z"/>
	<path class="st29" d="M470,132.1l0.1,1.8c0.3-0.6,0.8-1.1,1.3-1.4c0.6-0.3,1.2-0.5,2-0.5c1.1,0,1.9,0.3,2.5,1
		c0.6,0.7,0.9,1.7,0.9,3.1v6.2h-1.1V136c0-1.2-0.2-2-0.6-2.5c-0.4-0.5-1-0.7-1.8-0.7c-0.8,0-1.4,0.2-1.9,0.6c-0.5,0.4-0.9,1-1.1,1.7
		v7.1H469v-10.1H470z"/>
	<path class="st29" d="M481.4,129.5v2.6h2.2v0.9h-2.2v6.6c0,0.7,0.1,1.1,0.4,1.4s0.6,0.4,1,0.4c0.2,0,0.4,0,0.5,0s0.4,0,0.6-0.1
		l0.2,0.8c-0.2,0.1-0.4,0.1-0.7,0.2c-0.3,0-0.5,0.1-0.8,0.1c-0.7,0-1.3-0.2-1.7-0.7s-0.6-1.2-0.6-2.1V133h-1.7v-0.9h1.7v-2.6H481.4z
		"/>
</g>
<g class="st28">
	<path class="st29" d="M461,431.2h-6.6v6.4h-1.1V424h8.7v1h-7.6v5.3h6.6V431.2z"/>
	<path class="st29" d="M465.2,424.6h-1.1V423h1.1V424.6z M465.2,437.6h-1.1v-10.1h1.1V437.6z"/>
	<path class="st29" d="M469.6,437.6h-1.1V423h1.1V437.6z"/>
	<path class="st29" d="M476.9,432.6c0-1.6,0.3-2.9,1-3.9c0.7-1,1.6-1.5,2.9-1.5c0.7,0,1.3,0.2,1.8,0.4c0.5,0.3,0.9,0.7,1.3,1.3v-6
		h1.1v14.6h-1l-0.1-1.5c-0.3,0.5-0.8,0.9-1.3,1.2c-0.5,0.3-1.2,0.4-1.9,0.4c-1.2,0-2.2-0.4-2.8-1.3c-0.7-0.9-1-2.1-1-3.6V432.6z
		 M478,432.8c0,1.2,0.2,2.2,0.7,2.9c0.5,0.7,1.2,1.1,2.2,1.1c0.7,0,1.3-0.2,1.8-0.5c0.5-0.3,0.9-0.8,1.1-1.4v-4.8
		c-0.3-0.6-0.6-1.1-1.1-1.4c-0.5-0.4-1.1-0.5-1.8-0.5c-1,0-1.7,0.4-2.2,1.2c-0.5,0.8-0.7,1.9-0.7,3.2V432.8z"/>
	<path class="st29" d="M491.8,437.8c-1.3,0-2.3-0.5-3.2-1.4s-1.3-2.1-1.3-3.6v-0.5c0-1.4,0.4-2.6,1.2-3.6c0.8-1,1.8-1.4,3-1.4
		c1.2,0,2.2,0.4,2.9,1.2s1.1,1.8,1.1,3.1v1h-7.1v0.3c0,1.1,0.3,2.1,0.9,2.9c0.6,0.8,1.4,1.1,2.4,1.1c0.7,0,1.3-0.1,1.8-0.3
		s0.9-0.5,1.3-0.8l0.5,0.8c-0.4,0.4-0.9,0.7-1.4,1C493.3,437.7,492.6,437.8,491.8,437.8z M491.6,428.3c-0.8,0-1.5,0.3-2.1,0.9
		c-0.6,0.6-0.9,1.4-1,2.4l0,0h5.9v-0.3c0-0.9-0.3-1.6-0.8-2.2C493.2,428.6,492.5,428.3,491.6,428.3z"/>
	<path class="st29" d="M506.2,436.9c0.7,0,1.4-0.2,2-0.6c0.6-0.4,0.9-1,0.9-1.8h1l0,0.1c0,0.9-0.3,1.7-1.1,2.3s-1.7,0.9-2.7,0.9
		c-1.4,0-2.4-0.5-3.2-1.4c-0.8-0.9-1.1-2.2-1.1-3.6v-0.4c0-1.5,0.4-2.7,1.1-3.6c0.8-0.9,1.8-1.4,3.2-1.4c1.1,0,2,0.3,2.8,1
		c0.7,0.7,1.1,1.5,1.1,2.6l0,0.1h-1c0-0.8-0.3-1.5-0.8-1.9s-1.2-0.7-2-0.7c-1.1,0-1.9,0.4-2.4,1.2c-0.5,0.8-0.8,1.8-0.8,2.9v0.4
		c0,1.2,0.3,2.2,0.8,2.9C504.3,436.5,505.1,436.9,506.2,436.9z"/>
	<path class="st29" d="M511.8,432.4c0-1.5,0.4-2.7,1.2-3.7c0.8-1,1.9-1.4,3.2-1.4c1.4,0,2.4,0.5,3.3,1.4s1.2,2.2,1.2,3.7v0.3
		c0,1.5-0.4,2.7-1.2,3.7c-0.8,0.9-1.9,1.4-3.2,1.4c-1.4,0-2.4-0.5-3.3-1.4c-0.8-0.9-1.2-2.2-1.2-3.7V432.4z M512.9,432.7
		c0,1.2,0.3,2.2,0.9,2.9c0.6,0.8,1.4,1.2,2.5,1.2c1,0,1.9-0.4,2.5-1.2s0.9-1.8,0.9-2.9v-0.3c0-1.2-0.3-2.1-0.9-2.9
		c-0.6-0.8-1.4-1.2-2.5-1.2s-1.9,0.4-2.5,1.2c-0.6,0.8-0.9,1.8-0.9,2.9V432.7z"/>
	<path class="st29" d="M524,427.5l0.1,1.8c0.3-0.6,0.8-1.1,1.3-1.4c0.6-0.3,1.2-0.5,2-0.5c1.1,0,1.9,0.3,2.5,1
		c0.6,0.7,0.9,1.7,0.9,3.1v6.2h-1.1v-6.2c0-1.2-0.2-2-0.6-2.5c-0.4-0.5-1-0.7-1.8-0.7c-0.8,0-1.4,0.2-1.9,0.6
		c-0.5,0.4-0.9,1-1.1,1.7v7.1H523v-10.1H524z"/>
	<path class="st29" d="M535.4,424.9v2.6h2.2v0.9h-2.2v6.6c0,0.7,0.1,1.1,0.4,1.4s0.6,0.4,1,0.4c0.2,0,0.4,0,0.5,0s0.4,0,0.6-0.1
		l0.2,0.8c-0.2,0.1-0.4,0.1-0.7,0.2c-0.3,0-0.5,0.1-0.8,0.1c-0.7,0-1.3-0.2-1.7-0.7c-0.4-0.4-0.6-1.2-0.6-2.1v-6.6h-1.7v-0.9h1.7
		v-2.6H535.4z"/>
	<path class="st29" d="M541.3,424.6h-1.1V423h1.1V424.6z M541.3,437.6h-1.1v-10.1h1.1V437.6z"/>
	<path class="st29" d="M545.4,427.5l0.1,1.8c0.3-0.6,0.8-1.1,1.3-1.4c0.6-0.3,1.2-0.5,2-0.5c1.1,0,1.9,0.3,2.5,1
		c0.6,0.7,0.9,1.7,0.9,3.1v6.2H551v-6.2c0-1.2-0.2-2-0.6-2.5c-0.4-0.5-1-0.7-1.8-0.7c-0.8,0-1.4,0.2-1.9,0.6c-0.5,0.4-0.9,1-1.1,1.7
		v7.1h-1.1v-10.1H545.4z"/>
	<path class="st29" d="M561.7,436c-0.3,0.6-0.8,1-1.3,1.4c-0.5,0.3-1.2,0.5-1.9,0.5c-1.1,0-1.9-0.4-2.5-1.1
		c-0.6-0.7-0.9-1.8-0.9-3.4v-5.9h1.1v5.9c0,1.2,0.2,2.1,0.6,2.7c0.4,0.5,1,0.8,1.8,0.8c0.8,0,1.5-0.2,2-0.6c0.5-0.4,0.9-0.9,1.1-1.6
		v-7.2h1.1v10.1h-1L561.7,436z"/>
	<path class="st29" d="M566.9,424.6h-1.1V423h1.1V424.6z M566.9,437.6h-1.1v-10.1h1.1V437.6z"/>
	<path class="st29" d="M571.8,424.9v2.6h2.2v0.9h-2.2v6.6c0,0.7,0.1,1.1,0.4,1.4s0.6,0.4,1,0.4c0.2,0,0.4,0,0.5,0s0.4,0,0.6-0.1
		l0.2,0.8c-0.2,0.1-0.4,0.1-0.7,0.2c-0.3,0-0.5,0.1-0.8,0.1c-0.7,0-1.3-0.2-1.7-0.7c-0.4-0.4-0.6-1.2-0.6-2.1v-6.6h-1.7v-0.9h1.7
		v-2.6H571.8z"/>
	<path class="st29" d="M580.2,437.8c-1.3,0-2.3-0.5-3.2-1.4s-1.3-2.1-1.3-3.6v-0.5c0-1.4,0.4-2.6,1.2-3.6c0.8-1,1.8-1.4,3-1.4
		c1.2,0,2.2,0.4,2.9,1.2s1.1,1.8,1.1,3.1v1h-7.1v0.3c0,1.1,0.3,2.1,0.9,2.9c0.6,0.8,1.4,1.1,2.4,1.1c0.7,0,1.3-0.1,1.8-0.3
		s0.9-0.5,1.3-0.8l0.5,0.8c-0.4,0.4-0.9,0.7-1.4,1C581.7,437.7,581,437.8,580.2,437.8z M580,428.3c-0.8,0-1.5,0.3-2.1,0.9
		c-0.6,0.6-0.9,1.4-1,2.4l0,0h5.9v-0.3c0-0.9-0.3-1.6-0.8-2.2C581.6,428.6,580.9,428.3,580,428.3z M581.4,423.6h1.4l0,0.1l-2.3,2.4
		h-1L581.4,423.6z"/>
	<path class="st29" d="M594.6,436.9c0.7,0,1.4-0.2,2-0.6c0.6-0.4,0.9-1,0.9-1.8h1l0,0.1c0,0.9-0.3,1.7-1.1,2.3s-1.7,0.9-2.7,0.9
		c-1.4,0-2.4-0.5-3.2-1.4c-0.8-0.9-1.1-2.2-1.1-3.6v-0.4c0-1.5,0.4-2.7,1.1-3.6c0.8-0.9,1.8-1.4,3.2-1.4c1.1,0,2,0.3,2.8,1
		c0.7,0.7,1.1,1.5,1.1,2.6l0,0.1h-1c0-0.8-0.3-1.5-0.8-1.9s-1.2-0.7-2-0.7c-1.1,0-1.9,0.4-2.4,1.2c-0.5,0.8-0.8,1.8-0.8,2.9v0.4
		c0,1.2,0.3,2.2,0.8,2.9C592.7,436.5,593.5,436.9,594.6,436.9z"/>
	<path class="st29" d="M607.4,436c-0.3,0.6-0.8,1-1.3,1.4c-0.5,0.3-1.2,0.5-1.9,0.5c-1.1,0-1.9-0.4-2.5-1.1
		c-0.6-0.7-0.9-1.8-0.9-3.4v-5.9h1.1v5.9c0,1.2,0.2,2.1,0.6,2.7c0.4,0.5,1,0.8,1.8,0.8c0.8,0,1.5-0.2,2-0.6c0.5-0.4,0.9-0.9,1.1-1.6
		v-7.2h1.1v10.1h-1L607.4,436z"/>
	<path class="st29" d="M612.7,424.6h-1.1V423h1.1V424.6z M612.7,437.6h-1.1v-10.1h1.1V437.6z"/>
	<path class="st29" d="M618.7,435.1l0.3,1.2h0.1l0.4-1.2l2.7-7.6h1.2l-3.8,10.1h-0.9l-3.8-10.1h1.2L618.7,435.1z"/>
</g>
<g class="st28">
	<path class="st29" d="M629.8,428.5l-0.8-0.1c-0.7,0-1.3,0.2-1.7,0.6c-0.5,0.4-0.8,0.9-1,1.6v7h-1.1v-10.1h1l0.1,1.7v0.1
		c0.3-0.6,0.7-1.1,1.2-1.5c0.5-0.3,1.1-0.5,1.8-0.5c0.1,0,0.3,0,0.4,0s0.2,0,0.3,0.1L629.8,428.5z"/>
</g>
<g class="st28">
	<path class="st29" d="M635.3,437.8c-1.3,0-2.3-0.5-3.2-1.4s-1.3-2.1-1.3-3.6v-0.5c0-1.4,0.4-2.6,1.2-3.6c0.8-1,1.8-1.4,3-1.4
		c1.2,0,2.2,0.4,2.9,1.2s1.1,1.8,1.1,3.1v1H632v0.3c0,1.1,0.3,2.1,0.9,2.9c0.6,0.8,1.4,1.1,2.4,1.1c0.7,0,1.3-0.1,1.8-0.3
		s0.9-0.5,1.3-0.8l0.5,0.8c-0.4,0.4-0.9,0.7-1.4,1C636.8,437.7,636.1,437.8,635.3,437.8z M635.1,428.3c-0.8,0-1.5,0.3-2.1,0.9
		c-0.6,0.6-0.9,1.4-1,2.4l0,0h5.9v-0.3c0-0.9-0.3-1.6-0.8-2.2C636.7,428.6,636,428.3,635.1,428.3z"/>
	<path class="st29" d="M649.8,437.8c-1.3,0-2.3-0.5-3.2-1.4s-1.3-2.1-1.3-3.6v-0.5c0-1.4,0.4-2.6,1.2-3.6c0.8-1,1.8-1.4,3-1.4
		c1.2,0,2.2,0.4,2.9,1.2s1.1,1.8,1.1,3.1v1h-7.1v0.3c0,1.1,0.3,2.1,0.9,2.9c0.6,0.8,1.4,1.1,2.4,1.1c0.7,0,1.3-0.1,1.8-0.3
		s0.9-0.5,1.3-0.8l0.5,0.8c-0.4,0.4-0.9,0.7-1.4,1C651.3,437.7,650.6,437.8,649.8,437.8z M649.7,428.3c-0.8,0-1.5,0.3-2.1,0.9
		c-0.6,0.6-0.9,1.4-1,2.4l0,0h5.9v-0.3c0-0.9-0.3-1.6-0.8-2.2C651.2,428.6,650.5,428.3,649.7,428.3z M651,423.6h1.4l0,0.1l-2.3,2.4
		h-1L651,423.6z"/>
	<path class="st29" d="M657.6,424.9v2.6h2.2v0.9h-2.2v6.6c0,0.7,0.1,1.1,0.4,1.4s0.6,0.4,1,0.4c0.2,0,0.4,0,0.5,0s0.4,0,0.6-0.1
		l0.2,0.8c-0.2,0.1-0.4,0.1-0.7,0.2c-0.3,0-0.5,0.1-0.8,0.1c-0.7,0-1.3-0.2-1.7-0.7c-0.4-0.4-0.6-1.2-0.6-2.1v-6.6h-1.7v-0.9h1.7
		v-2.6H657.6z"/>
	<path class="st29" d="M668.6,437.6c-0.1-0.3-0.1-0.6-0.2-0.9c0-0.2,0-0.5,0-0.8c-0.4,0.5-0.9,1-1.5,1.3c-0.6,0.3-1.3,0.5-2.1,0.5
		c-1,0-1.7-0.3-2.3-0.8c-0.5-0.5-0.8-1.2-0.8-2.1c0-0.9,0.4-1.7,1.2-2.2c0.8-0.6,1.9-0.8,3.3-0.8h2.2v-1.3c0-0.7-0.2-1.3-0.7-1.7
		c-0.5-0.4-1.1-0.6-1.9-0.6c-0.8,0-1.4,0.2-1.9,0.6c-0.5,0.4-0.8,0.9-0.8,1.4l-1,0l0-0.1c0-0.8,0.3-1.4,1-2c0.7-0.6,1.6-0.9,2.8-0.9
		c1.1,0,2,0.3,2.7,0.9s1,1.4,1,2.4v5c0,0.4,0,0.7,0.1,1c0,0.3,0.1,0.7,0.2,1H668.6z M664.9,436.8c0.8,0,1.5-0.2,2.1-0.6
		c0.6-0.4,1.1-0.9,1.3-1.4v-2.1h-2.3c-1,0-1.8,0.2-2.4,0.7c-0.6,0.4-0.9,1-0.9,1.6c0,0.5,0.2,1,0.6,1.3S664.3,436.8,664.9,436.8z"/>
	<path class="st29" d="M673.4,427.5l0.1,1.7c0.3-0.6,0.8-1,1.3-1.4c0.5-0.3,1.2-0.5,1.9-0.5c0.8,0,1.4,0.2,1.9,0.6
		c0.5,0.4,0.9,0.9,1.1,1.7c0.3-0.7,0.7-1.3,1.3-1.7s1.2-0.6,2.1-0.6c1.1,0,1.9,0.4,2.5,1.1c0.6,0.7,0.9,1.8,0.9,3.3v5.9h-1.1v-5.9
		c0-1.2-0.2-2.1-0.7-2.6c-0.4-0.5-1.1-0.8-1.8-0.8c-0.9,0-1.5,0.3-2,0.8s-0.8,1.2-0.9,2.1c0,0,0,0.1,0,0.2c0,0.1,0,0.1,0,0.2v6.1
		h-1.1v-5.9c0-1.2-0.2-2.1-0.7-2.6s-1.1-0.8-1.8-0.8c-0.8,0-1.4,0.2-1.9,0.6c-0.5,0.4-0.8,0.9-1,1.6v7.1h-1.1v-10.1H673.4z"/>
	<path class="st29" d="M693.2,437.8c-1.3,0-2.3-0.5-3.2-1.4s-1.3-2.1-1.3-3.6v-0.5c0-1.4,0.4-2.6,1.2-3.6c0.8-1,1.8-1.4,3-1.4
		c1.2,0,2.2,0.4,2.9,1.2s1.1,1.8,1.1,3.1v1H690v0.3c0,1.1,0.3,2.1,0.9,2.9c0.6,0.8,1.4,1.1,2.4,1.1c0.7,0,1.3-0.1,1.8-0.3
		s0.9-0.5,1.3-0.8l0.5,0.8c-0.4,0.4-0.9,0.7-1.4,1C694.7,437.7,694,437.8,693.2,437.8z M693.1,428.3c-0.8,0-1.5,0.3-2.1,0.9
		c-0.6,0.6-0.9,1.4-1,2.4l0,0h5.9v-0.3c0-0.9-0.3-1.6-0.8-2.2C694.7,428.6,694,428.3,693.1,428.3z M694.5,423.6h1.4l0,0.1l-2.3,2.4
		h-1L694.5,423.6z"/>
</g>
<line class="st0" x1="533.3" y1="310.5" x2="533.3" y2="412.9"/>
<line class="st0" x1="525.2" y1="88.9" x2="525.2" y2="223.6"/>
<g class="st28">
	<path class="st29" d="M609.3,335.5H603l-1.4,3.8h-1.2l5.2-13.6h1.1l5.1,13.6h-1.2L609.3,335.5z M603.4,334.5h5.5l-2.7-7.4h-0.1
		L603.4,334.5z"/>
	<path class="st29" d="M614.5,329.2l0.1,1.7c0.3-0.6,0.8-1,1.3-1.4c0.5-0.3,1.2-0.5,1.9-0.5c0.8,0,1.4,0.2,1.9,0.6
		c0.5,0.4,0.9,0.9,1.1,1.7c0.3-0.7,0.7-1.3,1.3-1.7c0.6-0.4,1.2-0.6,2.1-0.6c1.1,0,1.9,0.4,2.5,1.1c0.6,0.7,0.9,1.8,0.9,3.3v5.9
		h-1.1v-5.9c0-1.2-0.2-2.1-0.7-2.6s-1.1-0.8-1.8-0.8c-0.9,0-1.5,0.3-2,0.8s-0.8,1.2-0.9,2.1c0,0,0,0.1,0,0.2c0,0.1,0,0.1,0,0.2v6.1
		H620v-5.9c0-1.2-0.2-2.1-0.7-2.6s-1.1-0.8-1.8-0.8c-0.8,0-1.4,0.2-1.9,0.6c-0.5,0.4-0.8,0.9-1,1.6v7.1h-1.1v-10.1H614.5z"/>
	<path class="st29" d="M634.3,339.5c-1.3,0-2.3-0.5-3.2-1.4c-0.8-0.9-1.3-2.1-1.3-3.5V334c0-1.4,0.4-2.6,1.2-3.6
		c0.8-1,1.8-1.4,3-1.4c1.2,0,2.2,0.4,2.9,1.2c0.7,0.8,1.1,1.8,1.1,3.1v1h-7.1v0.3c0,1.1,0.3,2.1,0.9,2.9c0.6,0.8,1.4,1.1,2.4,1.1
		c0.7,0,1.3-0.1,1.8-0.3c0.5-0.2,0.9-0.5,1.3-0.8l0.5,0.8c-0.4,0.4-0.9,0.7-1.4,1C635.8,339.3,635.2,339.5,634.3,339.5z
		 M634.2,329.9c-0.8,0-1.5,0.3-2.1,0.9c-0.6,0.6-0.9,1.4-1,2.4l0,0h5.9V333c0-0.9-0.3-1.6-0.8-2.2
		C635.8,330.2,635.1,329.9,634.2,329.9z"/>
	<path class="st29" d="M648.8,338.5c0.7,0,1.4-0.2,2-0.6c0.6-0.4,0.9-1,0.9-1.8h1l0,0.1c0,0.9-0.3,1.7-1.1,2.3s-1.7,0.9-2.7,0.9
		c-1.4,0-2.4-0.5-3.2-1.4c-0.8-0.9-1.1-2.2-1.1-3.6V334c0-1.5,0.4-2.7,1.1-3.6c0.8-0.9,1.8-1.4,3.2-1.4c1.1,0,2,0.3,2.8,1
		c0.7,0.7,1.1,1.5,1.1,2.6l0,0.1h-1c0-0.8-0.3-1.5-0.8-1.9c-0.5-0.5-1.2-0.7-2-0.7c-1.1,0-1.9,0.4-2.4,1.2c-0.5,0.8-0.8,1.7-0.8,2.9
		v0.4c0,1.2,0.3,2.2,0.8,2.9C646.9,338.1,647.7,338.5,648.8,338.5z"/>
	<path class="st29" d="M661.6,337.6c-0.3,0.6-0.8,1-1.3,1.4c-0.5,0.3-1.2,0.5-1.9,0.5c-1.1,0-1.9-0.4-2.5-1.1
		c-0.6-0.7-0.9-1.8-0.9-3.4v-5.9h1.1v5.9c0,1.2,0.2,2.1,0.6,2.7c0.4,0.5,1,0.8,1.8,0.8c0.8,0,1.5-0.2,2-0.6c0.5-0.4,0.9-0.9,1.1-1.6
		v-7.2h1.1v10.1h-1L661.6,337.6z"/>
	<path class="st29" d="M666.9,326.3h-1.1v-1.6h1.1V326.3z M666.9,339.3h-1.1v-10.1h1.1V339.3z"/>
	<path class="st29" d="M672.8,336.7l0.3,1.2h0.1l0.4-1.2l2.7-7.6h1.2l-3.8,10.1h-0.9l-3.8-10.1h1.2L672.8,336.7z"/>
</g>
<g class="st28">
	<path class="st29" d="M684,330.1l-0.8-0.1c-0.7,0-1.3,0.2-1.7,0.6s-0.8,0.9-1,1.6v7h-1.1v-10.1h1l0.1,1.7v0.1
		c0.3-0.6,0.7-1.1,1.2-1.5c0.5-0.3,1.1-0.5,1.8-0.5c0.1,0,0.3,0,0.4,0s0.2,0,0.3,0.1L684,330.1z"/>
</g>
<g class="st28">
	<path class="st29" d="M689.5,339.5c-1.3,0-2.3-0.5-3.2-1.4c-0.8-0.9-1.3-2.1-1.3-3.5V334c0-1.4,0.4-2.6,1.2-3.6
		c0.8-1,1.8-1.4,3-1.4c1.2,0,2.2,0.4,2.9,1.2c0.7,0.8,1.1,1.8,1.1,3.1v1h-7.1v0.3c0,1.1,0.3,2.1,0.9,2.9c0.6,0.8,1.4,1.1,2.4,1.1
		c0.7,0,1.3-0.1,1.8-0.3c0.5-0.2,0.9-0.5,1.3-0.8l0.5,0.8c-0.4,0.4-0.9,0.7-1.4,1C691,339.3,690.3,339.5,689.5,339.5z M689.3,329.9
		c-0.8,0-1.5,0.3-2.1,0.9c-0.6,0.6-0.9,1.4-1,2.4l0,0h5.9V333c0-0.9-0.3-1.6-0.8-2.2C690.9,330.2,690.2,329.9,689.3,329.9z"/>
	<path class="st29" d="M701.2,329.2l0.1,1.8c0.3-0.6,0.8-1.1,1.3-1.4c0.6-0.3,1.2-0.5,2-0.5c1.1,0,1.9,0.3,2.5,1
		c0.6,0.7,0.9,1.7,0.9,3.1v6.2h-1.1v-6.2c0-1.2-0.2-2-0.6-2.5c-0.4-0.5-1-0.7-1.8-0.7c-0.8,0-1.4,0.2-1.9,0.6
		c-0.5,0.4-0.9,1-1.1,1.7v7.1h-1.1v-10.1H701.2z"/>
	<path class="st29" d="M717.4,337.6c-0.3,0.6-0.8,1-1.3,1.4c-0.5,0.3-1.2,0.5-1.9,0.5c-1.1,0-1.9-0.4-2.5-1.1
		c-0.6-0.7-0.9-1.8-0.9-3.4v-5.9h1.1v5.9c0,1.2,0.2,2.1,0.6,2.7c0.4,0.5,1,0.8,1.8,0.8c0.8,0,1.5-0.2,2-0.6c0.5-0.4,0.9-0.9,1.1-1.6
		v-7.2h1.1v10.1h-1L717.4,337.6z"/>
</g>
<g class="st28">
	<path class="st29" d="M587.4,362.2h-8.4v-0.9l4.5-5c0.8-0.9,1.4-1.7,1.7-2.3c0.3-0.6,0.5-1.2,0.5-1.8c0-0.8-0.2-1.5-0.7-2
		c-0.5-0.5-1.2-0.8-2-0.8c-1,0-1.8,0.3-2.4,0.9c-0.5,0.6-0.8,1.3-0.8,2.3h-1l0-0.1c0-1.1,0.3-2.1,1.1-2.9c0.8-0.8,1.8-1.2,3.1-1.2
		c1.2,0,2.1,0.3,2.8,1c0.7,0.7,1.1,1.6,1.1,2.7c0,0.7-0.2,1.5-0.7,2.3c-0.5,0.8-1.1,1.6-2,2.6l-3.7,4.2l0,0h7V362.2z"/>
	<path class="st29" d="M592,354.8h1.3c1,0,1.7-0.2,2.3-0.7c0.5-0.5,0.8-1.1,0.8-1.9c0-0.8-0.2-1.5-0.7-2c-0.5-0.5-1.2-0.8-2.1-0.8
		c-0.9,0-1.6,0.3-2.1,0.8c-0.6,0.5-0.8,1.2-0.8,2h-1l0-0.1c0-1.1,0.3-1.9,1.1-2.6c0.8-0.7,1.7-1.1,2.9-1.1c1.2,0,2.2,0.3,2.9,1
		s1.1,1.6,1.1,2.8c0,0.6-0.2,1.2-0.6,1.8c-0.4,0.6-1,1-1.7,1.3c0.8,0.2,1.5,0.7,1.9,1.2s0.6,1.3,0.6,2c0,1.2-0.4,2.2-1.2,2.8
		c-0.8,0.7-1.8,1-3,1c-1.2,0-2.2-0.3-3.1-1c-0.9-0.7-1.3-1.6-1.2-2.8l0-0.1h1c0,0.9,0.3,1.6,0.9,2.1c0.6,0.5,1.4,0.8,2.3,0.8
		c1,0,1.7-0.2,2.3-0.8c0.5-0.5,0.8-1.2,0.8-2.2c0-1-0.3-1.7-0.9-2.1c-0.6-0.5-1.4-0.7-2.4-0.7H592V354.8z"/>
</g>
<g class="st28">
	<path class="st29" d="M612.6,358.4h-6.2l-1.4,3.8h-1.2l5.2-13.6h1.1l5.1,13.6H614L612.6,358.4z M606.7,357.4h5.5l-2.7-7.4h-0.1
		L606.7,357.4z"/>
</g>
<g class="st28">
	<path class="st29" d="M619,358.4l0.4,2.1l0.1,0l0.5-2.1l2.9-9.8h1.1l2.9,9.8l0.5,2.1l0.1,0l0.4-2.1l2.5-9.8h1.1l-3.5,13.6h-1.1
		l-3.1-10.4l-0.4-1.4h-0.1l-0.3,1.4l-3.1,10.4h-1.1l-3.5-13.6h1.1L619,358.4z"/>
	<path class="st29" d="M643.4,360.6c-0.3,0.4-0.9,0.9-1.7,1.2c-0.8,0.4-1.8,0.6-3,0.6c-1.6,0-2.9-0.5-3.9-1.6
		c-1-1.1-1.5-2.5-1.5-4.2v-2.5c0-1.7,0.5-3.1,1.4-4.1c1-1.1,2.2-1.6,3.7-1.6c1.5,0,2.6,0.4,3.4,1.1c0.8,0.7,1.3,1.7,1.4,2.9l0,0.1
		h-1c-0.2-0.9-0.5-1.6-1.1-2.2s-1.5-0.8-2.7-0.8c-1.2,0-2.2,0.4-2.9,1.3c-0.7,0.9-1.1,2-1.1,3.4v2.5c0,1.4,0.4,2.6,1.2,3.5
		s1.8,1.4,3.1,1.4c0.9,0,1.7-0.1,2.3-0.4c0.6-0.3,1.1-0.5,1.3-0.8v-3.5h-3.6v-1h4.7V360.6z"/>
	<path class="st29" d="M646.3,363.4h-1l5.7-14.8h1L646.3,363.4z"/>
	<path class="st29" d="M662.3,362.2h-8.4v-0.9l4.5-5c0.8-0.9,1.4-1.7,1.7-2.3c0.3-0.6,0.5-1.2,0.5-1.8c0-0.8-0.2-1.5-0.7-2
		c-0.5-0.5-1.2-0.8-2-0.8c-1,0-1.8,0.3-2.4,0.9c-0.5,0.6-0.8,1.3-0.8,2.3h-1l0-0.1c0-1.1,0.3-2.1,1.1-2.9c0.8-0.8,1.8-1.2,3.1-1.2
		c1.2,0,2.1,0.3,2.8,1c0.7,0.7,1.1,1.6,1.1,2.7c0,0.7-0.2,1.5-0.7,2.3c-0.5,0.8-1.1,1.6-2,2.6l-3.7,4.2l0,0h7V362.2z"/>
	<path class="st29" d="M671.3,357.8h2.1v1h-2.1v3.4h-1.1v-3.4h-6.4v-0.6l6.3-9.5h1.2V357.8z M665.2,357.8h5.1v-7.8l-0.1,0l-0.5,1
		L665.2,357.8z"/>
</g>
<g class="st28">
	<path class="st29" d="M687.6,358.4h-6.2l-1.4,3.8h-1.2l5.2-13.6h1.1l5.1,13.6H689L687.6,358.4z M681.7,357.4h5.5l-2.7-7.4h-0.1
		L681.7,357.4z"/>
</g>
<g class="st28">
	<path class="st29" d="M693.9,358.4l0.4,2.1l0.1,0l0.5-2.1l2.9-9.8h1.1l2.9,9.8l0.5,2.1l0.1,0l0.4-2.1l2.5-9.8h1.1l-3.5,13.6h-1.1
		l-3.1-10.4l-0.4-1.4h-0.1l-0.3,1.4l-3.1,10.4h-1.1l-3.5-13.6h1.1L693.9,358.4z"/>
	<path class="st29" d="M718.4,360.6c-0.3,0.4-0.9,0.9-1.7,1.2c-0.8,0.4-1.8,0.6-3,0.6c-1.6,0-2.9-0.5-3.9-1.6
		c-1-1.1-1.5-2.5-1.5-4.2v-2.5c0-1.7,0.5-3.1,1.4-4.1c1-1.1,2.2-1.6,3.7-1.6c1.5,0,2.6,0.4,3.4,1.1c0.8,0.7,1.3,1.7,1.4,2.9l0,0.1
		h-1c-0.2-0.9-0.5-1.6-1.1-2.2s-1.5-0.8-2.7-0.8c-1.2,0-2.2,0.4-2.9,1.3c-0.7,0.9-1.1,2-1.1,3.4v2.5c0,1.4,0.4,2.6,1.2,3.5
		s1.8,1.4,3.1,1.4c0.9,0,1.7-0.1,2.3-0.4c0.6-0.3,1.1-0.5,1.3-0.8v-3.5h-3.6v-1h4.7V360.6z"/>
</g>
<polyline class="st0" points="702.4,315.1 702.4,249.4 690.6,249.4 "/>
<g class="st28">
	<path class="st29" d="M544.4,120.7h-1.1v-13.6h1.1V120.7z"/>
	<path class="st29" d="M554,118.2c0-0.5-0.2-0.9-0.6-1.2c-0.4-0.4-1.1-0.6-2.1-0.9c-1.2-0.3-2.1-0.6-2.7-1c-0.6-0.4-0.9-1-0.9-1.8
		c0-0.8,0.3-1.4,1-2s1.5-0.8,2.6-0.8c1.1,0,2,0.3,2.7,0.8s1,1.3,1,2.1l0,0.1h-1c0-0.6-0.2-1-0.7-1.4c-0.5-0.4-1.1-0.6-1.9-0.6
		c-0.8,0-1.4,0.2-1.8,0.5c-0.4,0.3-0.6,0.8-0.6,1.2c0,0.5,0.2,0.8,0.5,1.2c0.4,0.3,1.1,0.6,2.1,0.8c1.2,0.3,2.1,0.6,2.7,1.1
		c0.6,0.5,0.9,1.1,0.9,1.9c0,0.8-0.3,1.5-1,2c-0.7,0.5-1.6,0.8-2.7,0.8c-1.2,0-2.2-0.3-2.9-0.9c-0.7-0.6-1-1.3-1-2.1l0-0.1h1
		c0,0.7,0.3,1.3,0.9,1.6c0.6,0.3,1.2,0.5,1.9,0.5c0.8,0,1.4-0.2,1.9-0.5C553.8,119.1,554,118.7,554,118.2z"/>
	<path class="st29" d="M557.1,115.5c0-1.5,0.4-2.7,1.2-3.7c0.8-1,1.9-1.4,3.2-1.4c1.4,0,2.4,0.5,3.3,1.4c0.8,1,1.2,2.2,1.2,3.7v0.3
		c0,1.5-0.4,2.7-1.2,3.7c-0.8,1-1.9,1.4-3.2,1.4c-1.4,0-2.4-0.5-3.3-1.4c-0.8-0.9-1.2-2.2-1.2-3.7V115.5z M558.2,115.8
		c0,1.2,0.3,2.2,0.9,2.9c0.6,0.8,1.4,1.2,2.5,1.2c1,0,1.9-0.4,2.5-1.2c0.6-0.8,0.9-1.8,0.9-2.9v-0.3c0-1.2-0.3-2.1-0.9-2.9
		c-0.6-0.8-1.4-1.2-2.5-1.2s-1.9,0.4-2.5,1.2c-0.6,0.8-0.9,1.8-0.9,2.9V115.8z"/>
	<path class="st29" d="M569.6,120.7h-1.1v-14.6h1.1V120.7z"/>
	<path class="st29" d="M579.1,120.7c-0.1-0.3-0.1-0.6-0.2-0.9s0-0.5,0-0.8c-0.4,0.5-0.9,1-1.5,1.3c-0.6,0.3-1.3,0.5-2.1,0.5
		c-1,0-1.7-0.3-2.3-0.8c-0.5-0.5-0.8-1.2-0.8-2.1c0-0.9,0.4-1.7,1.2-2.2c0.8-0.6,1.9-0.8,3.3-0.8h2.2v-1.3c0-0.7-0.2-1.3-0.7-1.7
		c-0.5-0.4-1.1-0.6-1.9-0.6c-0.8,0-1.4,0.2-1.9,0.6c-0.5,0.4-0.8,0.9-0.8,1.4l-1,0l0-0.1c0-0.8,0.3-1.4,1-2c0.7-0.6,1.6-0.9,2.8-0.9
		c1.1,0,2,0.3,2.7,0.9s1,1.4,1,2.4v5c0,0.4,0,0.7,0.1,1c0,0.3,0.1,0.7,0.2,1H579.1z M575.4,119.9c0.8,0,1.5-0.2,2.1-0.6
		c0.6-0.4,1.1-0.9,1.3-1.4v-2.1h-2.3c-1,0-1.8,0.2-2.4,0.6c-0.6,0.4-0.9,1-0.9,1.6c0,0.5,0.2,1,0.6,1.3S574.7,119.9,575.4,119.9z"/>
	<path class="st29" d="M584,110.6l0.1,1.8c0.3-0.6,0.8-1.1,1.3-1.4c0.6-0.3,1.2-0.5,2-0.5c1.1,0,1.9,0.3,2.5,1
		c0.6,0.7,0.9,1.7,0.9,3.1v6.2h-1.1v-6.2c0-1.2-0.2-2-0.6-2.5c-0.4-0.5-1-0.7-1.8-0.7c-0.8,0-1.4,0.2-1.9,0.6
		c-0.5,0.4-0.9,1-1.1,1.7v7.1H583v-10.1H584z"/>
	<path class="st29" d="M595.4,108v2.6h2.2v0.9h-2.2v6.6c0,0.7,0.1,1.1,0.4,1.4s0.6,0.4,1,0.4c0.2,0,0.4,0,0.5,0s0.4,0,0.6-0.1
		l0.2,0.8c-0.2,0.1-0.4,0.1-0.7,0.2c-0.3,0-0.5,0.1-0.8,0.1c-0.7,0-1.3-0.2-1.7-0.7s-0.6-1.2-0.6-2.1v-6.6h-1.7v-0.9h1.7V108H595.4z
		"/>
	<path class="st29" d="M605.9,112.2h-1.3v-1.5h1.3V112.2z M605.9,120.7h-1.3v-1.5h1.3V120.7z"/>
</g>
<g class="st28">
	<path class="st29" d="M614.8,115.1v5.7h-1.1v-13.6h4.7c1.4,0,2.5,0.4,3.3,1.1c0.8,0.7,1.2,1.7,1.2,2.9c0,1.2-0.4,2.2-1.2,2.9
		c-0.8,0.7-1.9,1.1-3.3,1.1H614.8z M614.8,114.1h3.6c1.1,0,2-0.3,2.5-0.9c0.6-0.6,0.8-1.3,0.8-2.2c0-0.9-0.3-1.6-0.8-2.2
		s-1.4-0.9-2.5-0.9h-3.6V114.1z"/>
</g>
<g class="st28">
	<path class="st29" d="M624.4,115.5c0-1.5,0.4-2.7,1.2-3.7c0.8-1,1.9-1.4,3.2-1.4c1.4,0,2.4,0.5,3.3,1.4c0.8,1,1.2,2.2,1.2,3.7v0.3
		c0,1.5-0.4,2.7-1.2,3.7c-0.8,1-1.9,1.4-3.2,1.4c-1.4,0-2.4-0.5-3.3-1.4c-0.8-0.9-1.2-2.2-1.2-3.7V115.5z M625.5,115.8
		c0,1.2,0.3,2.2,0.9,2.9c0.6,0.8,1.4,1.2,2.5,1.2c1,0,1.9-0.4,2.5-1.2c0.6-0.8,0.9-1.8,0.9-2.9v-0.3c0-1.2-0.3-2.1-0.9-2.9
		c-0.6-0.8-1.4-1.2-2.5-1.2s-1.9,0.4-2.5,1.2c-0.6,0.8-0.9,1.8-0.9,2.9V115.8z"/>
	<path class="st29" d="M636.9,120.7h-1.1v-14.6h1.1V120.7z"/>
</g>
<g class="st28">
	<path class="st29" d="M642.9,118l0.4,1.2h0.1l3.1-8.6h1.3l-4.4,11.7c-0.3,0.7-0.6,1.3-1,1.7c-0.4,0.5-1,0.7-1.8,0.7
		c-0.1,0-0.3,0-0.5,0c-0.2,0-0.3-0.1-0.4-0.1l0.1-0.9c0.1,0,0.2,0,0.4,0c0.2,0,0.3,0,0.4,0c0.5,0,0.9-0.2,1.2-0.5
		c0.3-0.3,0.5-0.8,0.7-1.3l0.5-1.4l-3.9-10h1.2L642.9,118z"/>
</g>
<g class="st28">
	<path class="st29" d="M653.1,120.9c-1.3,0-2.3-0.5-3.2-1.4c-0.8-0.9-1.3-2.1-1.3-3.5v-0.5c0-1.4,0.4-2.6,1.2-3.6
		c0.8-1,1.8-1.4,3-1.4c1.2,0,2.2,0.4,2.9,1.2c0.7,0.8,1.1,1.8,1.1,3.1v1h-7.1v0.3c0,1.1,0.3,2.1,0.9,2.9c0.6,0.8,1.4,1.1,2.4,1.1
		c0.7,0,1.3-0.1,1.8-0.3c0.5-0.2,0.9-0.5,1.3-0.8l0.5,0.8c-0.4,0.4-0.9,0.7-1.4,1C654.6,120.8,653.9,120.9,653.1,120.9z
		 M652.9,111.4c-0.8,0-1.5,0.3-2.1,0.9c-0.6,0.6-0.9,1.4-1,2.4l0,0h5.9v-0.3c0-0.9-0.3-1.6-0.8-2.2
		C654.5,111.7,653.8,111.4,652.9,111.4z M654.3,106.7h1.4l0,0.1l-2.3,2.4h-1L654.3,106.7z"/>
	<path class="st29" d="M660.9,108v2.6h2.2v0.9h-2.2v6.6c0,0.7,0.1,1.1,0.4,1.4s0.6,0.4,1,0.4c0.2,0,0.4,0,0.5,0s0.4,0,0.6-0.1
		l0.2,0.8c-0.2,0.1-0.4,0.1-0.7,0.2c-0.3,0-0.5,0.1-0.8,0.1c-0.7,0-1.3-0.2-1.7-0.7s-0.6-1.2-0.6-2.1v-6.6H658v-0.9h1.7V108H660.9z"
		/>
	<path class="st29" d="M666.6,112.4c0.3-0.6,0.8-1.1,1.3-1.4s1.2-0.5,2-0.5c1.1,0,1.9,0.3,2.5,1s0.9,1.7,0.9,3.1v6.2h-1.1v-6.3
		c0-1.1-0.2-1.9-0.6-2.4c-0.4-0.5-1-0.7-1.8-0.7c-0.8,0-1.4,0.2-1.9,0.6c-0.5,0.4-0.9,0.9-1.1,1.6v7.1h-1.1v-14.6h1.1V112.4z"/>
	<path class="st29" d="M679,118l0.4,1.2h0.1l3.1-8.6h1.3l-4.4,11.7c-0.3,0.7-0.6,1.3-1,1.7c-0.4,0.5-1,0.7-1.8,0.7
		c-0.1,0-0.3,0-0.5,0c-0.2,0-0.3-0.1-0.4-0.1l0.1-0.9c0.1,0,0.2,0,0.4,0c0.2,0,0.3,0,0.4,0c0.5,0,0.9-0.2,1.2-0.5
		c0.3-0.3,0.5-0.8,0.7-1.3l0.5-1.4l-3.9-10h1.2L679,118z"/>
	<path class="st29" d="M686.7,120.7h-1.1v-14.6h1.1V120.7z"/>
	<path class="st29" d="M693.6,120.9c-1.3,0-2.3-0.5-3.2-1.4c-0.8-0.9-1.3-2.1-1.3-3.5v-0.5c0-1.4,0.4-2.6,1.2-3.6
		c0.8-1,1.8-1.4,3-1.4c1.2,0,2.2,0.4,2.9,1.2c0.7,0.8,1.1,1.8,1.1,3.1v1h-7.1v0.3c0,1.1,0.3,2.1,0.9,2.9c0.6,0.8,1.4,1.1,2.4,1.1
		c0.7,0,1.3-0.1,1.8-0.3c0.5-0.2,0.9-0.5,1.3-0.8l0.5,0.8c-0.4,0.4-0.9,0.7-1.4,1C695.1,120.8,694.4,120.9,693.6,120.9z
		 M693.5,111.4c-0.8,0-1.5,0.3-2.1,0.9c-0.6,0.6-0.9,1.4-1,2.4l0,0h5.9v-0.3c0-0.9-0.3-1.6-0.8-2.2
		C695.1,111.7,694.4,111.4,693.5,111.4z M694.3,109.1h-1.1l-2.3-2.4l0,0h1.4L694.3,109.1z"/>
	<path class="st29" d="M700.7,110.6l0.1,1.8c0.3-0.6,0.8-1.1,1.3-1.4c0.6-0.3,1.2-0.5,2-0.5c1.1,0,1.9,0.3,2.5,1
		c0.6,0.7,0.9,1.7,0.9,3.1v6.2h-1.1v-6.2c0-1.2-0.2-2-0.6-2.5c-0.4-0.5-1-0.7-1.8-0.7c-0.8,0-1.4,0.2-1.9,0.6
		c-0.5,0.4-0.9,1-1.1,1.7v7.1h-1.1v-10.1H700.7z"/>
	<path class="st29" d="M714.1,120.9c-1.3,0-2.3-0.5-3.2-1.4c-0.8-0.9-1.3-2.1-1.3-3.5v-0.5c0-1.4,0.4-2.6,1.2-3.6
		c0.8-1,1.8-1.4,3-1.4c1.2,0,2.2,0.4,2.9,1.2c0.7,0.8,1.1,1.8,1.1,3.1v1h-7.1v0.3c0,1.1,0.3,2.1,0.9,2.9c0.6,0.8,1.4,1.1,2.4,1.1
		c0.7,0,1.3-0.1,1.8-0.3c0.5-0.2,0.9-0.5,1.3-0.8l0.5,0.8c-0.4,0.4-0.9,0.7-1.4,1C715.6,120.8,714.9,120.9,714.1,120.9z M714,111.4
		c-0.8,0-1.5,0.3-2.1,0.9c-0.6,0.6-0.9,1.4-1,2.4l0,0h5.9v-0.3c0-0.9-0.3-1.6-0.8-2.2C715.6,111.7,714.9,111.4,714,111.4z"/>
</g>
<line class="st0" x1="615.3" y1="127.3" x2="615.3" y2="177.7"/>
<g class="st28">
	<path class="st29" d="M251.2,42.3c-0.3,0.4-0.9,0.9-1.7,1.2c-0.8,0.4-1.8,0.6-3,0.6c-1.6,0-2.9-0.5-3.9-1.6c-1-1.1-1.5-2.5-1.5-4.2
		v-2.5c0-1.7,0.5-3.1,1.4-4.1c1-1.1,2.2-1.6,3.7-1.6c1.5,0,2.6,0.4,3.4,1.1c0.8,0.7,1.3,1.7,1.4,2.9l0,0.1h-1
		c-0.2-0.9-0.5-1.6-1.1-2.2s-1.5-0.8-2.7-0.8c-1.2,0-2.2,0.4-2.9,1.3c-0.7,0.9-1.1,2-1.1,3.4v2.5c0,1.4,0.4,2.6,1.2,3.5
		s1.8,1.4,3.1,1.4c0.9,0,1.7-0.1,2.3-0.4c0.6-0.3,1.1-0.5,1.3-0.8v-3.5h-3.6v-1h4.7V42.3z"/>
	<path class="st29" d="M260.6,43.9c-0.1-0.3-0.1-0.6-0.2-0.9s0-0.5,0-0.8c-0.4,0.5-0.9,1-1.5,1.3c-0.6,0.3-1.3,0.5-2.1,0.5
		c-1,0-1.7-0.3-2.3-0.8c-0.5-0.5-0.8-1.2-0.8-2.1c0-0.9,0.4-1.7,1.2-2.2c0.8-0.6,1.9-0.8,3.3-0.8h2.2v-1.3c0-0.7-0.2-1.3-0.7-1.7
		c-0.5-0.4-1.1-0.6-1.9-0.6c-0.8,0-1.4,0.2-1.9,0.6c-0.5,0.4-0.8,0.9-0.8,1.4l-1,0l0-0.1c0-0.8,0.3-1.4,1-2c0.7-0.6,1.6-0.9,2.8-0.9
		c1.1,0,2,0.3,2.7,0.9s1,1.4,1,2.4v5c0,0.4,0,0.7,0.1,1c0,0.3,0.1,0.7,0.2,1H260.6z M257,43.1c0.8,0,1.5-0.2,2.1-0.6
		c0.6-0.4,1.1-0.9,1.3-1.4V39h-2.3c-1,0-1.8,0.2-2.4,0.6c-0.6,0.4-0.9,1-0.9,1.6c0,0.5,0.2,1,0.6,1.3S256.3,43.1,257,43.1z"/>
	<path class="st29" d="M265.8,30.9h-1.1v-1.6h1.1V30.9z M265.8,43.9h-1.1V33.8h1.1V43.9z"/>
	<path class="st29" d="M269.9,33.8l0.1,1.8c0.3-0.6,0.8-1.1,1.3-1.4c0.6-0.3,1.2-0.5,2-0.5c1.1,0,1.9,0.3,2.5,1
		c0.6,0.7,0.9,1.7,0.9,3.1v6.2h-1.1v-6.2c0-1.2-0.2-2-0.6-2.5c-0.4-0.5-1-0.7-1.8-0.7c-0.8,0-1.4,0.2-1.9,0.6
		c-0.5,0.4-0.9,1-1.1,1.7v7.1h-1.1V33.8H269.9z"/>
	<path class="st29" d="M283.3,44.1c-1.3,0-2.3-0.5-3.2-1.4c-0.8-0.9-1.3-2.1-1.3-3.5v-0.5c0-1.4,0.4-2.6,1.2-3.6
		c0.8-1,1.8-1.4,3-1.4c1.2,0,2.2,0.4,2.9,1.2c0.7,0.8,1.1,1.8,1.1,3.1v1H280v0.3c0,1.1,0.3,2.1,0.9,2.9c0.6,0.8,1.4,1.1,2.4,1.1
		c0.7,0,1.3-0.1,1.8-0.3c0.5-0.2,0.9-0.5,1.3-0.8l0.5,0.8c-0.4,0.4-0.9,0.7-1.4,1C284.8,44,284.1,44.1,283.3,44.1z M283.2,34.6
		c-0.8,0-1.5,0.3-2.1,0.9c-0.6,0.6-0.9,1.4-1,2.4l0,0h5.9v-0.3c0-0.9-0.3-1.6-0.8-2.2C284.7,34.9,284,34.6,283.2,34.6z"/>
	<path class="st29" d="M295.4,43h6.7v1h-7.8V30.3h1.1V43z"/>
	<path class="st29" d="M312.2,40.6c0-0.7-0.3-1.3-0.8-1.8c-0.6-0.5-1.5-0.9-2.9-1.2c-1.5-0.4-2.6-0.9-3.4-1.5
		c-0.8-0.6-1.1-1.4-1.1-2.4c0-1,0.4-1.9,1.3-2.5c0.9-0.7,2-1,3.3-1c1.4,0,2.5,0.4,3.4,1.2s1.3,1.7,1.3,2.8l0,0.1h-1
		c0-0.9-0.3-1.7-1-2.2c-0.6-0.6-1.5-0.9-2.6-0.9c-1.1,0-1.9,0.2-2.6,0.7c-0.6,0.5-0.9,1.1-0.9,1.8c0,0.7,0.3,1.3,0.8,1.7
		c0.6,0.5,1.5,0.9,2.9,1.2c1.5,0.4,2.6,0.9,3.3,1.5c0.8,0.6,1.1,1.5,1.1,2.5c0,1.1-0.4,1.9-1.3,2.6c-0.9,0.6-2,1-3.4,1
		c-1.4,0-2.5-0.3-3.6-1c-1-0.7-1.5-1.7-1.5-3l0-0.1h1c0,1.1,0.4,1.8,1.2,2.3c0.8,0.5,1.7,0.8,2.8,0.8c1.1,0,1.9-0.2,2.6-0.7
		C311.9,42,312.2,41.4,312.2,40.6z"/>
	<path class="st29" d="M325.8,38.3c0,1.8-0.5,3.2-1.4,4.3c-1,1.1-2.3,1.6-3.9,1.6c-1.6,0-2.9-0.5-3.8-1.6c-0.9-1.1-1.4-2.5-1.4-4.3
		V36c0-1.8,0.5-3.2,1.4-4.3c0.9-1.1,2.2-1.6,3.8-1.6c1.6,0,2.9,0.5,3.9,1.6c1,1.1,1.4,2.5,1.4,4.3V38.3z M324.7,36
		c0-1.5-0.4-2.7-1.1-3.6c-0.7-0.9-1.8-1.3-3.1-1.3c-1.3,0-2.3,0.4-3,1.3c-0.7,0.9-1.1,2.1-1.1,3.6v2.2c0,1.5,0.4,2.7,1.1,3.6
		c0.7,0.9,1.7,1.3,3,1.3c1.3,0,2.4-0.4,3.1-1.3c0.7-0.9,1.1-2.1,1.1-3.6V36z"/>
	<path class="st29" d="M338.7,43.9h-1.1v-6.3h-7.7v6.3h-1.1V30.3h1.1v6.4h7.7v-6.4h1.1V43.9z"/>
	<path class="st29" d="M346.5,38.4c0-2.3,0.4-4.3,1.3-6.1c0.9-1.8,1.8-3,2.9-3.6l0.1,0l0.2,0.7c-0.9,0.6-1.7,1.8-2.4,3.4
		c-0.7,1.6-1,3.5-1,5.5v0.2c0,2.1,0.3,3.9,1,5.5c0.7,1.6,1.5,2.8,2.4,3.5l-0.2,0.7h-0.1c-1.1-0.6-2-1.8-2.9-3.6s-1.3-3.8-1.3-6.1
		V38.4z"/>
	<path class="st29" d="M358.7,41.4c0-0.5-0.2-0.9-0.6-1.2c-0.4-0.4-1.1-0.6-2.1-0.9c-1.2-0.3-2.1-0.6-2.7-1c-0.6-0.4-0.9-1-0.9-1.8
		c0-0.8,0.3-1.4,1-2s1.5-0.8,2.6-0.8c1.1,0,2,0.3,2.7,0.8s1,1.3,1,2.1l0,0.1h-1c0-0.6-0.2-1-0.7-1.4c-0.5-0.4-1.1-0.6-1.9-0.6
		c-0.8,0-1.4,0.2-1.8,0.5c-0.4,0.3-0.6,0.8-0.6,1.2c0,0.5,0.2,0.8,0.5,1.2c0.4,0.3,1.1,0.6,2.1,0.8c1.2,0.3,2.1,0.6,2.7,1.1
		c0.6,0.5,0.9,1.1,0.9,1.9c0,0.8-0.3,1.5-1,2c-0.7,0.5-1.6,0.8-2.7,0.8c-1.2,0-2.2-0.3-2.9-0.9c-0.7-0.6-1-1.3-1-2.1l0-0.1h1
		c0,0.7,0.3,1.3,0.9,1.6c0.6,0.3,1.2,0.5,1.9,0.5c0.8,0,1.4-0.2,1.9-0.5C358.4,42.3,358.7,41.9,358.7,41.4z"/>
	<path class="st29" d="M368.8,43.9c-0.1-0.3-0.1-0.6-0.2-0.9s0-0.5,0-0.8c-0.4,0.5-0.9,1-1.5,1.3c-0.6,0.3-1.3,0.5-2.1,0.5
		c-1,0-1.7-0.3-2.3-0.8c-0.5-0.5-0.8-1.2-0.8-2.1c0-0.9,0.4-1.7,1.2-2.2c0.8-0.6,1.9-0.8,3.3-0.8h2.2v-1.3c0-0.7-0.2-1.3-0.7-1.7
		c-0.5-0.4-1.1-0.6-1.9-0.6c-0.8,0-1.4,0.2-1.9,0.6c-0.5,0.4-0.8,0.9-0.8,1.4l-1,0l0-0.1c0-0.8,0.3-1.4,1-2c0.7-0.6,1.6-0.9,2.8-0.9
		c1.1,0,2,0.3,2.7,0.9s1,1.4,1,2.4v5c0,0.4,0,0.7,0.1,1c0,0.3,0.1,0.7,0.2,1H368.8z M365.1,43.1c0.8,0,1.5-0.2,2.1-0.6
		c0.6-0.4,1.1-0.9,1.3-1.4V39h-2.3c-1,0-1.8,0.2-2.4,0.6c-0.6,0.4-0.9,1-0.9,1.6c0,0.5,0.2,1,0.6,1.3S364.4,43.1,365.1,43.1z"/>
	<path class="st29" d="M373.6,33.8l0.1,1.8c0.3-0.6,0.8-1.1,1.3-1.4c0.6-0.3,1.2-0.5,2-0.5c1.1,0,1.9,0.3,2.5,1
		c0.6,0.7,0.9,1.7,0.9,3.1v6.2h-1.1v-6.2c0-1.2-0.2-2-0.6-2.5c-0.4-0.5-1-0.7-1.8-0.7c-0.8,0-1.4,0.2-1.9,0.6
		c-0.5,0.4-0.9,1-1.1,1.7v7.1h-1.1V33.8H373.6z"/>
	<path class="st29" d="M389.3,41.4c0-0.5-0.2-0.9-0.6-1.2c-0.4-0.4-1.1-0.6-2.1-0.9c-1.2-0.3-2.1-0.6-2.7-1c-0.6-0.4-0.9-1-0.9-1.8
		c0-0.8,0.3-1.4,1-2s1.5-0.8,2.6-0.8c1.1,0,2,0.3,2.7,0.8s1,1.3,1,2.1l0,0.1h-1c0-0.6-0.2-1-0.7-1.4c-0.5-0.4-1.1-0.6-1.9-0.6
		c-0.8,0-1.4,0.2-1.8,0.5c-0.4,0.3-0.6,0.8-0.6,1.2c0,0.5,0.2,0.8,0.5,1.2c0.4,0.3,1.1,0.6,2.1,0.8c1.2,0.3,2.1,0.6,2.7,1.1
		c0.6,0.5,0.9,1.1,0.9,1.9c0,0.8-0.3,1.5-1,2c-0.7,0.5-1.6,0.8-2.7,0.8c-1.2,0-2.2-0.3-2.9-0.9c-0.7-0.6-1-1.3-1-2.1l0-0.1h1
		c0,0.7,0.3,1.3,0.9,1.6c0.6,0.3,1.2,0.5,1.9,0.5c0.8,0,1.4-0.2,1.9-0.5C389.1,42.3,389.3,41.9,389.3,41.4z"/>
	<path class="st29" d="M398.8,35.6c0.3-0.6,0.8-1.1,1.3-1.4s1.2-0.5,2-0.5c1.1,0,1.9,0.3,2.5,1s0.9,1.7,0.9,3.1v6.2h-1.1v-6.3
		c0-1.1-0.2-1.9-0.6-2.4c-0.4-0.5-1-0.7-1.8-0.7c-0.8,0-1.4,0.2-1.9,0.6c-0.5,0.4-0.9,0.9-1.1,1.6v7.1h-1.1V29.4h1.1V35.6z"/>
	<path class="st29" d="M414.7,43.9c-0.1-0.3-0.1-0.6-0.2-0.9s0-0.5,0-0.8c-0.4,0.5-0.9,1-1.5,1.3c-0.6,0.3-1.3,0.5-2.1,0.5
		c-1,0-1.7-0.3-2.3-0.8c-0.5-0.5-0.8-1.2-0.8-2.1c0-0.9,0.4-1.7,1.2-2.2c0.8-0.6,1.9-0.8,3.3-0.8h2.2v-1.3c0-0.7-0.2-1.3-0.7-1.7
		c-0.5-0.4-1.1-0.6-1.9-0.6c-0.8,0-1.4,0.2-1.9,0.6c-0.5,0.4-0.8,0.9-0.8,1.4l-1,0l0-0.1c0-0.8,0.3-1.4,1-2c0.7-0.6,1.6-0.9,2.8-0.9
		c1.1,0,2,0.3,2.7,0.9s1,1.4,1,2.4v5c0,0.4,0,0.7,0.1,1c0,0.3,0.1,0.7,0.2,1H414.7z M411.1,43.1c0.8,0,1.5-0.2,2.1-0.6
		c0.6-0.4,1.1-0.9,1.3-1.4V39h-2.3c-1,0-1.8,0.2-2.4,0.6c-0.6,0.4-0.9,1-0.9,1.6c0,0.5,0.2,1,0.6,1.3S410.4,43.1,411.1,43.1z"/>
	<path class="st29" d="M419.9,43.9h-1.1V29.4h1.1V43.9z"/>
	<path class="st29" d="M422.3,38.7c0-1.5,0.4-2.7,1.2-3.7c0.8-1,1.9-1.4,3.2-1.4c1.4,0,2.4,0.5,3.3,1.4c0.8,1,1.2,2.2,1.2,3.7V39
		c0,1.5-0.4,2.7-1.2,3.7c-0.8,1-1.9,1.4-3.2,1.4c-1.4,0-2.4-0.5-3.3-1.4c-0.8-0.9-1.2-2.2-1.2-3.7V38.7z M423.5,39
		c0,1.2,0.3,2.2,0.9,2.9c0.6,0.8,1.4,1.2,2.5,1.2c1,0,1.9-0.4,2.5-1.2c0.6-0.8,0.9-1.8,0.9-2.9v-0.3c0-1.2-0.3-2.1-0.9-2.9
		c-0.6-0.8-1.4-1.2-2.5-1.2s-1.9,0.4-2.5,1.2c-0.6,0.8-0.9,1.8-0.9,2.9V39z"/>
	<path class="st29" d="M433.2,39c0-1.6,0.3-2.9,1-3.9c0.7-1,1.6-1.5,2.9-1.5c0.7,0,1.3,0.2,1.9,0.5c0.5,0.3,1,0.8,1.3,1.3l0.1-1.6
		h0.9v10c0,1.3-0.4,2.3-1.1,3.1c-0.7,0.8-1.7,1.1-3,1.1c-0.5,0-1-0.1-1.6-0.2s-1-0.3-1.4-0.5l0.3-0.9c0.4,0.2,0.8,0.3,1.3,0.5
		c0.4,0.1,0.9,0.2,1.4,0.2c1,0,1.7-0.3,2.2-0.8s0.8-1.4,0.8-2.4v-1.3c-0.3,0.5-0.8,0.9-1.3,1.2c-0.5,0.3-1.1,0.4-1.8,0.4
		c-1.2,0-2.2-0.5-2.9-1.4s-1-2.1-1-3.6V39z M434.3,39.2c0,1.2,0.2,2.2,0.7,2.9c0.5,0.7,1.2,1.1,2.2,1.1c0.7,0,1.3-0.2,1.8-0.5
		c0.5-0.3,0.9-0.8,1.1-1.4v-4.7c-0.2-0.6-0.6-1.1-1.1-1.5c-0.5-0.4-1.1-0.6-1.8-0.6c-1,0-1.7,0.4-2.2,1.2s-0.8,1.9-0.8,3.2V39.2z"/>
	<path class="st29" d="M448.1,44.1c-1.3,0-2.3-0.5-3.2-1.4c-0.8-0.9-1.3-2.1-1.3-3.5v-0.5c0-1.4,0.4-2.6,1.2-3.6
		c0.8-1,1.8-1.4,3-1.4c1.2,0,2.2,0.4,2.9,1.2c0.7,0.8,1.1,1.8,1.1,3.1v1h-7.1v0.3c0,1.1,0.3,2.1,0.9,2.9c0.6,0.8,1.4,1.1,2.4,1.1
		c0.7,0,1.3-0.1,1.8-0.3c0.5-0.2,0.9-0.5,1.3-0.8l0.5,0.8c-0.4,0.4-0.9,0.7-1.4,1C449.6,44,448.9,44.1,448.1,44.1z M447.9,34.6
		c-0.8,0-1.5,0.3-2.1,0.9c-0.6,0.6-0.9,1.4-1,2.4l0,0h5.9v-0.3c0-0.9-0.3-1.6-0.8-2.2C449.5,34.9,448.8,34.6,447.9,34.6z
		 M448.7,32.3h-1.1l-2.3-2.4l0,0h1.4L448.7,32.3z"/>
	<path class="st29" d="M455.1,33.8l0.1,1.8c0.3-0.6,0.8-1.1,1.3-1.4c0.6-0.3,1.2-0.5,2-0.5c1.1,0,1.9,0.3,2.5,1
		c0.6,0.7,0.9,1.7,0.9,3.1v6.2h-1.1v-6.2c0-1.2-0.2-2-0.6-2.5c-0.4-0.5-1-0.7-1.8-0.7c-0.8,0-1.4,0.2-1.9,0.6
		c-0.5,0.4-0.9,1-1.1,1.7v7.1h-1.1V33.8H455.1z"/>
	<path class="st29" d="M468.6,44.1c-1.3,0-2.3-0.5-3.2-1.4c-0.8-0.9-1.3-2.1-1.3-3.5v-0.5c0-1.4,0.4-2.6,1.2-3.6
		c0.8-1,1.8-1.4,3-1.4c1.2,0,2.2,0.4,2.9,1.2c0.7,0.8,1.1,1.8,1.1,3.1v1h-7.1v0.3c0,1.1,0.3,2.1,0.9,2.9c0.6,0.8,1.4,1.1,2.4,1.1
		c0.7,0,1.3-0.1,1.8-0.3c0.5-0.2,0.9-0.5,1.3-0.8l0.5,0.8c-0.4,0.4-0.9,0.7-1.4,1C470.1,44,469.4,44.1,468.6,44.1z M468.4,34.6
		c-0.8,0-1.5,0.3-2.1,0.9c-0.6,0.6-0.9,1.4-1,2.4l0,0h5.9v-0.3c0-0.9-0.3-1.6-0.8-2.2C470,34.9,469.3,34.6,468.4,34.6z"/>
	<path class="st29" d="M477.8,38.6c0,2.3-0.4,4.4-1.3,6.1s-1.8,2.9-2.9,3.6h-0.1l-0.2-0.7c0.9-0.6,1.7-1.8,2.4-3.4
		c0.7-1.7,1-3.5,1-5.6v-0.2c0-2-0.3-3.9-1-5.6c-0.7-1.7-1.5-2.8-2.3-3.4l0.2-0.7h0.1c1.1,0.6,2,1.8,2.9,3.6c0.9,1.8,1.3,3.8,1.3,6.1
		V38.6z"/>
	<path class="st29" d="M493.5,39.2c0,1.5-0.3,2.7-1,3.6c-0.7,0.9-1.6,1.3-2.8,1.3c-0.7,0-1.4-0.1-1.9-0.4c-0.5-0.3-1-0.7-1.3-1.3
		l-0.1,1.5h-1V29.4h1.1v6.1c0.3-0.6,0.8-1,1.3-1.3c0.5-0.3,1.1-0.5,1.9-0.5c1.2,0,2.2,0.5,2.8,1.5c0.7,1,1,2.3,1,3.9V39.2z
		 M492.4,39c0-1.3-0.2-2.3-0.7-3.2c-0.5-0.8-1.2-1.2-2.2-1.2c-0.8,0-1.4,0.2-1.9,0.6c-0.5,0.4-0.8,0.9-1.1,1.5v4.6
		c0.2,0.6,0.6,1.1,1.1,1.4c0.5,0.3,1.1,0.5,1.8,0.5c1,0,1.7-0.4,2.2-1.1c0.5-0.7,0.7-1.7,0.7-2.9V39z"/>
	<path class="st29" d="M497.3,43.9h-1.1V29.4h1.1V43.9z"/>
	<path class="st29" d="M506.8,43.9c-0.1-0.3-0.1-0.6-0.2-0.9s0-0.5,0-0.8c-0.4,0.5-0.9,1-1.5,1.3c-0.6,0.3-1.3,0.5-2.1,0.5
		c-1,0-1.7-0.3-2.3-0.8c-0.5-0.5-0.8-1.2-0.8-2.1c0-0.9,0.4-1.7,1.2-2.2c0.8-0.6,1.9-0.8,3.3-0.8h2.2v-1.3c0-0.7-0.2-1.3-0.7-1.7
		c-0.5-0.4-1.1-0.6-1.9-0.6c-0.8,0-1.4,0.2-1.9,0.6c-0.5,0.4-0.8,0.9-0.8,1.4l-1,0l0-0.1c0-0.8,0.3-1.4,1-2c0.7-0.6,1.6-0.9,2.8-0.9
		c1.1,0,2,0.3,2.7,0.9s1,1.4,1,2.4v5c0,0.4,0,0.7,0.1,1c0,0.3,0.1,0.7,0.2,1H506.8z M503.1,43.1c0.8,0,1.5-0.2,2.1-0.6
		c0.6-0.4,1.1-0.9,1.3-1.4V39h-2.3c-1,0-1.8,0.2-2.4,0.6c-0.6,0.4-0.9,1-0.9,1.6c0,0.5,0.2,1,0.6,1.3S502.4,43.1,503.1,43.1z"/>
	<path class="st29" d="M511.6,33.8l0.1,1.8c0.3-0.6,0.8-1.1,1.3-1.4c0.6-0.3,1.2-0.5,2-0.5c1.1,0,1.9,0.3,2.5,1
		c0.6,0.7,0.9,1.7,0.9,3.1v6.2h-1.1v-6.2c0-1.2-0.2-2-0.6-2.5c-0.4-0.5-1-0.7-1.8-0.7c-0.8,0-1.4,0.2-1.9,0.6
		c-0.5,0.4-0.9,1-1.1,1.7v7.1h-1.1V33.8H511.6z"/>
	<path class="st29" d="M525,43.2c0.7,0,1.4-0.2,2-0.6c0.6-0.4,0.9-1,0.9-1.8h1l0,0.1c0,0.9-0.3,1.7-1.1,2.3s-1.7,0.9-2.7,0.9
		c-1.4,0-2.4-0.5-3.2-1.4c-0.8-0.9-1.1-2.2-1.1-3.6v-0.4c0-1.5,0.4-2.7,1.1-3.6c0.8-0.9,1.8-1.4,3.2-1.4c1.1,0,2,0.3,2.8,1
		c0.7,0.7,1.1,1.5,1.1,2.6l0,0.1h-1c0-0.8-0.3-1.5-0.8-1.9c-0.5-0.5-1.2-0.7-2-0.7c-1.1,0-1.9,0.4-2.4,1.2c-0.5,0.8-0.8,1.7-0.8,2.9
		v0.4c0,1.2,0.3,2.2,0.8,2.9C523.1,42.8,523.9,43.2,525,43.2z"/>
	<path class="st29" d="M532.3,35.6c0.3-0.6,0.8-1.1,1.3-1.4s1.2-0.5,2-0.5c1.1,0,1.9,0.3,2.5,1c0.6,0.7,0.9,1.7,0.9,3.1v6.2h-1.1
		v-6.3c0-1.1-0.2-1.9-0.6-2.4c-0.4-0.5-1-0.7-1.8-0.7c-0.8,0-1.4,0.2-1.9,0.6c-0.5,0.4-0.9,0.9-1.1,1.6v7.1h-1.1V29.4h1.1V35.6z"/>
	<path class="st29" d="M545.6,44.1c-1.3,0-2.3-0.5-3.2-1.4c-0.8-0.9-1.3-2.1-1.3-3.5v-0.5c0-1.4,0.4-2.6,1.2-3.6
		c0.8-1,1.8-1.4,3-1.4c1.2,0,2.2,0.4,2.9,1.2c0.7,0.8,1.1,1.8,1.1,3.1v1h-7.1v0.3c0,1.1,0.3,2.1,0.9,2.9c0.6,0.8,1.4,1.1,2.4,1.1
		c0.7,0,1.3-0.1,1.8-0.3c0.5-0.2,0.9-0.5,1.3-0.8l0.5,0.8c-0.4,0.4-0.9,0.7-1.4,1C547.1,44,546.5,44.1,545.6,44.1z M545.5,34.6
		c-0.8,0-1.5,0.3-2.1,0.9c-0.6,0.6-0.9,1.4-1,2.4l0,0h5.9v-0.3c0-0.9-0.3-1.6-0.8-2.2C547.1,34.9,546.4,34.6,545.5,34.6z"/>
</g>
<g class="st28">
	<path class="st29" d="M299.3,478.4v6.1h-1.1v-13.6h4.6c1.5,0,2.6,0.3,3.4,1c0.8,0.6,1.2,1.6,1.2,2.8c0,0.7-0.2,1.4-0.6,1.9
		c-0.4,0.6-1,1-1.8,1.2c0.8,0.2,1.4,0.6,1.8,1.1s0.6,1.2,0.6,2v1.3c0,0.4,0,0.8,0.1,1.1c0.1,0.3,0.3,0.6,0.5,0.8v0.2h-1.1
		c-0.2-0.2-0.4-0.5-0.5-0.9c-0.1-0.4-0.1-0.8-0.1-1.3v-1.2c0-0.8-0.3-1.5-0.8-2c-0.5-0.5-1.3-0.7-2.3-0.7H299.3z M299.3,477.4h3.4
		c1.2,0,2.1-0.2,2.7-0.7c0.6-0.5,0.9-1.2,0.9-2c0-0.9-0.3-1.6-0.8-2.1c-0.6-0.5-1.4-0.7-2.6-0.7h-3.5V477.4z"/>
	<path class="st29" d="M317.1,482.9c-0.3,0.6-0.8,1-1.3,1.4c-0.5,0.3-1.2,0.5-1.9,0.5c-1.1,0-1.9-0.4-2.5-1.1
		c-0.6-0.7-0.9-1.8-0.9-3.4v-5.9h1.1v5.9c0,1.2,0.2,2.1,0.6,2.7c0.4,0.5,1,0.8,1.8,0.8c0.8,0,1.5-0.2,2-0.6c0.5-0.4,0.9-0.9,1.1-1.6
		v-7.2h1.1v10.1h-1L317.1,482.9z"/>
	<path class="st29" d="M329.3,479.7c0,1.5-0.3,2.7-1,3.6c-0.7,0.9-1.6,1.3-2.8,1.3c-0.7,0-1.4-0.1-1.9-0.4c-0.5-0.3-1-0.7-1.3-1.3
		l-0.1,1.5h-1v-14.6h1.1v6.1c0.3-0.6,0.8-1,1.3-1.3c0.5-0.3,1.1-0.5,1.9-0.5c1.2,0,2.2,0.5,2.8,1.5c0.7,1,1,2.3,1,3.9V479.7z
		 M328.2,479.5c0-1.3-0.2-2.3-0.7-3.2c-0.5-0.8-1.2-1.2-2.2-1.2c-0.8,0-1.4,0.2-1.9,0.6c-0.5,0.4-0.8,0.9-1.1,1.5v4.6
		c0.2,0.6,0.6,1.1,1.1,1.4c0.5,0.3,1.1,0.5,1.8,0.5c1,0,1.7-0.4,2.2-1.1c0.5-0.7,0.7-1.7,0.7-2.9V479.5z"/>
	<path class="st29" d="M338.2,484.5c-0.1-0.3-0.1-0.6-0.2-0.9s0-0.5,0-0.8c-0.4,0.5-0.9,1-1.5,1.3c-0.6,0.3-1.3,0.5-2.1,0.5
		c-1,0-1.7-0.3-2.3-0.8c-0.5-0.5-0.8-1.2-0.8-2.1c0-0.9,0.4-1.7,1.2-2.2c0.8-0.6,1.9-0.8,3.3-0.8h2.2v-1.3c0-0.7-0.2-1.3-0.7-1.7
		c-0.5-0.4-1.1-0.6-1.9-0.6c-0.8,0-1.4,0.2-1.9,0.6c-0.5,0.4-0.8,0.9-0.8,1.4l-1,0l0-0.1c0-0.8,0.3-1.4,1-2c0.7-0.6,1.6-0.9,2.8-0.9
		c1.1,0,2,0.3,2.7,0.9s1,1.4,1,2.4v5c0,0.4,0,0.7,0.1,1c0,0.3,0.1,0.7,0.2,1H338.2z M334.6,483.7c0.8,0,1.5-0.2,2.1-0.6
		c0.6-0.4,1.1-0.9,1.3-1.4v-2.1h-2.3c-1,0-1.8,0.2-2.4,0.6c-0.6,0.4-0.9,1-0.9,1.6c0,0.5,0.2,1,0.6,1.3S333.9,483.7,334.6,483.7z"/>
	<path class="st29" d="M343.1,474.4l0.1,1.8c0.3-0.6,0.8-1.1,1.3-1.4c0.6-0.3,1.2-0.5,2-0.5c1.1,0,1.9,0.3,2.5,1
		c0.6,0.7,0.9,1.7,0.9,3.1v6.2h-1.1v-6.2c0-1.2-0.2-2-0.6-2.5c-0.4-0.5-1-0.7-1.8-0.7c-0.8,0-1.4,0.2-1.9,0.6
		c-0.5,0.4-0.9,1-1.1,1.7v7.1h-1.1v-10.1H343.1z"/>
</g>
<g class="st28">
	<path class="st29" d="M358.8,478.9v5.7h-1.1v-13.6h4.7c1.4,0,2.5,0.4,3.3,1.1c0.8,0.7,1.2,1.7,1.2,2.9c0,1.2-0.4,2.2-1.2,2.9
		c-0.8,0.7-1.9,1.1-3.3,1.1H358.8z M358.8,477.9h3.6c1.1,0,2-0.3,2.5-0.9c0.6-0.6,0.8-1.3,0.8-2.2c0-0.9-0.3-1.6-0.8-2.2
		s-1.4-0.9-2.5-0.9h-3.6V477.9z"/>
</g>
<g class="st28">
	<path class="st29" d="M368.5,479.3c0-1.5,0.4-2.7,1.2-3.7c0.8-1,1.9-1.4,3.2-1.4c1.4,0,2.4,0.5,3.3,1.4c0.8,1,1.2,2.2,1.2,3.7v0.3
		c0,1.5-0.4,2.7-1.2,3.7c-0.8,1-1.9,1.4-3.2,1.4c-1.4,0-2.4-0.5-3.3-1.4c-0.8-0.9-1.2-2.2-1.2-3.7V479.3z M369.6,479.6
		c0,1.2,0.3,2.2,0.9,2.9c0.6,0.8,1.4,1.2,2.5,1.2c1,0,1.9-0.4,2.5-1.2c0.6-0.8,0.9-1.8,0.9-2.9v-0.3c0-1.2-0.3-2.1-0.9-2.9
		c-0.6-0.8-1.4-1.2-2.5-1.2s-1.9,0.4-2.5,1.2c-0.6,0.8-0.9,1.8-0.9,2.9V479.6z"/>
	<path class="st29" d="M381,484.5h-1.1v-14.6h1.1V484.5z"/>
</g>
<g class="st28">
	<path class="st29" d="M387,481.8l0.4,1.2h0.1l3.1-8.6h1.3l-4.4,11.7c-0.3,0.7-0.6,1.3-1,1.7c-0.4,0.5-1,0.7-1.8,0.7
		c-0.1,0-0.3,0-0.5,0c-0.2,0-0.3-0.1-0.4-0.1l0.1-0.9c0.1,0,0.2,0,0.4,0c0.2,0,0.3,0,0.4,0c0.5,0,0.9-0.2,1.2-0.5
		c0.3-0.3,0.5-0.8,0.7-1.3l0.5-1.4l-3.9-10h1.2L387,481.8z"/>
</g>
<g class="st28">
	<path class="st29" d="M397.2,484.7c-1.3,0-2.3-0.5-3.2-1.4c-0.8-0.9-1.3-2.1-1.3-3.5v-0.5c0-1.4,0.4-2.6,1.2-3.6
		c0.8-1,1.8-1.4,3-1.4c1.2,0,2.2,0.4,2.9,1.2c0.7,0.8,1.1,1.8,1.1,3.1v1h-7.1v0.3c0,1.1,0.3,2.1,0.9,2.9c0.6,0.8,1.4,1.1,2.4,1.1
		c0.7,0,1.3-0.1,1.8-0.3c0.5-0.2,0.9-0.5,1.3-0.8l0.5,0.8c-0.4,0.4-0.9,0.7-1.4,1C398.7,484.6,398,484.7,397.2,484.7z M397,475.2
		c-0.8,0-1.5,0.3-2.1,0.9c-0.6,0.6-0.9,1.4-1,2.4l0,0h5.9v-0.3c0-0.9-0.3-1.6-0.8-2.2C398.6,475.5,397.9,475.2,397,475.2z"/>
	<path class="st29" d="M409.3,481.9c0-0.5-0.2-0.9-0.6-1.2c-0.4-0.4-1.1-0.6-2.1-0.9c-1.2-0.3-2.1-0.6-2.7-1c-0.6-0.4-0.9-1-0.9-1.8
		c0-0.8,0.3-1.4,1-2s1.5-0.8,2.6-0.8c1.1,0,2,0.3,2.7,0.8s1,1.3,1,2.1l0,0.1h-1c0-0.6-0.2-1-0.7-1.4c-0.5-0.4-1.1-0.6-1.9-0.6
		c-0.8,0-1.4,0.2-1.8,0.5c-0.4,0.3-0.6,0.8-0.6,1.2c0,0.5,0.2,0.8,0.5,1.2c0.4,0.3,1.1,0.6,2.1,0.8c1.2,0.3,2.1,0.6,2.7,1.1
		c0.6,0.5,0.9,1.1,0.9,1.9c0,0.8-0.3,1.5-1,2c-0.7,0.5-1.6,0.8-2.7,0.8c-1.2,0-2.2-0.3-2.9-0.9c-0.7-0.6-1-1.3-1-2.1l0-0.1h1
		c0,0.7,0.3,1.3,0.9,1.6c0.6,0.3,1.2,0.5,1.9,0.5c0.8,0,1.4-0.2,1.9-0.5C409,482.9,409.3,482.4,409.3,481.9z"/>
	<path class="st29" d="M414.7,471.8v2.6h2.2v0.9h-2.2v6.6c0,0.7,0.1,1.1,0.4,1.4s0.6,0.4,1,0.4c0.2,0,0.4,0,0.5,0s0.4,0,0.6-0.1
		l0.2,0.8c-0.2,0.1-0.4,0.1-0.7,0.2c-0.3,0-0.5,0.1-0.8,0.1c-0.7,0-1.3-0.2-1.7-0.7s-0.6-1.2-0.6-2.1v-6.6h-1.7v-0.9h1.7v-2.6H414.7
		z"/>
	<path class="st29" d="M423.1,484.7c-1.3,0-2.3-0.5-3.2-1.4c-0.8-0.9-1.3-2.1-1.3-3.5v-0.5c0-1.4,0.4-2.6,1.2-3.6
		c0.8-1,1.8-1.4,3-1.4c1.2,0,2.2,0.4,2.9,1.2c0.7,0.8,1.1,1.8,1.1,3.1v1h-7.1v0.3c0,1.1,0.3,2.1,0.9,2.9c0.6,0.8,1.4,1.1,2.4,1.1
		c0.7,0,1.3-0.1,1.8-0.3c0.5-0.2,0.9-0.5,1.3-0.8l0.5,0.8c-0.4,0.4-0.9,0.7-1.4,1C424.6,484.6,423.9,484.7,423.1,484.7z M423,475.2
		c-0.8,0-1.5,0.3-2.1,0.9c-0.6,0.6-0.9,1.4-1,2.4l0,0h5.9v-0.3c0-0.9-0.3-1.6-0.8-2.2C424.6,475.5,423.9,475.2,423,475.2z"/>
	<path class="st29" d="M433.8,475.4l-0.8-0.1c-0.7,0-1.3,0.2-1.7,0.6s-0.8,0.9-1,1.6v7h-1.1v-10.1h1l0.1,1.7v0.1
		c0.3-0.6,0.7-1.1,1.2-1.5c0.5-0.3,1.1-0.5,1.8-0.5c0.1,0,0.3,0,0.4,0s0.2,0,0.3,0.1L433.8,475.4z"/>
	<path class="st29" d="M435.5,485.7h-1l5.7-14.8h1L435.5,485.7z"/>
	<path class="st29" d="M450.9,480.7h-6.2l-1.4,3.8h-1.2l5.2-13.6h1.1l5.1,13.6h-1.2L450.9,480.7z M445,479.7h5.5l-2.7-7.4h-0.1
		L445,479.7z"/>
	<path class="st29" d="M456.5,484.5h-1.1v-14.6h1.1V484.5z"/>
	<path class="st29" d="M466.2,482.9c-0.3,0.6-0.8,1-1.3,1.4c-0.5,0.3-1.2,0.5-1.9,0.5c-1.1,0-1.9-0.4-2.5-1.1
		c-0.6-0.7-0.9-1.8-0.9-3.4v-5.9h1.1v5.9c0,1.2,0.2,2.1,0.6,2.7c0.4,0.5,1,0.8,1.8,0.8c0.8,0,1.5-0.2,2-0.6c0.5-0.4,0.9-0.9,1.1-1.6
		v-7.2h1.1v10.1h-1L466.2,482.9z"/>
	<path class="st29" d="M471.2,474.4l0.1,1.7c0.3-0.6,0.8-1,1.3-1.4c0.5-0.3,1.2-0.5,1.9-0.5c0.8,0,1.4,0.2,1.9,0.6
		c0.5,0.4,0.9,0.9,1.1,1.7c0.3-0.7,0.7-1.3,1.3-1.7c0.6-0.4,1.2-0.6,2.1-0.6c1.1,0,1.9,0.4,2.5,1.1c0.6,0.7,0.9,1.8,0.9,3.3v5.9
		h-1.1v-5.9c0-1.2-0.2-2.1-0.7-2.6s-1.1-0.8-1.8-0.8c-0.9,0-1.5,0.3-2,0.8s-0.8,1.2-0.9,2.1c0,0,0,0.1,0,0.2c0,0.1,0,0.1,0,0.2v6.1
		h-1.1v-5.9c0-1.2-0.2-2.1-0.7-2.6s-1.1-0.8-1.8-0.8c-0.8,0-1.4,0.2-1.9,0.6c-0.5,0.4-0.8,0.9-1,1.6v7.1h-1.1v-10.1H471.2z"/>
	<path class="st29" d="M488.4,471.5h-1.1v-1.6h1.1V471.5z M488.4,484.5h-1.1v-10.1h1.1V484.5z"/>
	<path class="st29" d="M492.5,474.4l0.1,1.8c0.3-0.6,0.8-1.1,1.3-1.4c0.6-0.3,1.2-0.5,2-0.5c1.1,0,1.9,0.3,2.5,1
		c0.6,0.7,0.9,1.7,0.9,3.1v6.2h-1.1v-6.2c0-1.2-0.2-2-0.6-2.5c-0.4-0.5-1-0.7-1.8-0.7c-0.8,0-1.4,0.2-1.9,0.6
		c-0.5,0.4-0.9,1-1.1,1.7v7.1h-1.1v-10.1H492.5z"/>
	<path class="st29" d="M503.4,471.5h-1.1v-1.6h1.1V471.5z M503.4,484.5h-1.1v-10.1h1.1V484.5z"/>
	<path class="st29" d="M513.1,482.9c-0.3,0.6-0.8,1-1.3,1.4c-0.5,0.3-1.2,0.5-1.9,0.5c-1.1,0-1.9-0.4-2.5-1.1
		c-0.6-0.7-0.9-1.8-0.9-3.4v-5.9h1.1v5.9c0,1.2,0.2,2.1,0.6,2.7c0.4,0.5,1,0.8,1.8,0.8c0.8,0,1.5-0.2,2-0.6c0.5-0.4,0.9-0.9,1.1-1.6
		v-7.2h1.1v10.1h-1L513.1,482.9z"/>
	<path class="st29" d="M518.1,474.4l0.1,1.7c0.3-0.6,0.8-1,1.3-1.4c0.5-0.3,1.2-0.5,1.9-0.5c0.8,0,1.4,0.2,1.9,0.6
		c0.5,0.4,0.9,0.9,1.1,1.7c0.3-0.7,0.7-1.3,1.3-1.7c0.6-0.4,1.2-0.6,2.1-0.6c1.1,0,1.9,0.4,2.5,1.1c0.6,0.7,0.9,1.8,0.9,3.3v5.9
		h-1.1v-5.9c0-1.2-0.2-2.1-0.7-2.6s-1.1-0.8-1.8-0.8c-0.9,0-1.5,0.3-2,0.8s-0.8,1.2-0.9,2.1c0,0,0,0.1,0,0.2c0,0.1,0,0.1,0,0.2v6.1
		h-1.1v-5.9c0-1.2-0.2-2.1-0.7-2.6s-1.1-0.8-1.8-0.8c-0.8,0-1.4,0.2-1.9,0.6c-0.5,0.4-0.8,0.9-1,1.6v7.1h-1.1v-10.1H518.1z"/>
</g>
<g class="st28">
	<path class="st29" d="M464.9,65.9h1.1v9.7c0,1.2-0.4,2.2-1.1,3s-1.7,1.1-2.9,1.1c-1.3,0-2.3-0.3-3-1c-0.7-0.7-1.1-1.6-1.1-2.9
		l0-0.1h1c0,1,0.3,1.7,0.8,2.2c0.5,0.5,1.3,0.8,2.2,0.8c0.8,0,1.5-0.3,2-0.8c0.5-0.6,0.8-1.3,0.8-2.3V65.9z"/>
	<path class="st29" d="M468.5,74.3c0-1.5,0.4-2.7,1.2-3.7c0.8-1,1.9-1.4,3.2-1.4c1.4,0,2.4,0.5,3.3,1.4c0.8,1,1.2,2.2,1.2,3.7v0.3
		c0,1.5-0.4,2.7-1.2,3.7c-0.8,1-1.9,1.4-3.2,1.4c-1.4,0-2.4-0.5-3.3-1.4c-0.8-0.9-1.2-2.2-1.2-3.7V74.3z M469.6,74.6
		c0,1.2,0.3,2.2,0.9,2.9c0.6,0.8,1.4,1.2,2.5,1.2c1,0,1.9-0.4,2.5-1.2c0.6-0.8,0.9-1.8,0.9-2.9v-0.3c0-1.2-0.3-2.1-0.9-2.9
		c-0.6-0.8-1.4-1.2-2.5-1.2s-1.9,0.4-2.5,1.2c-0.6,0.8-0.9,1.8-0.9,2.9V74.6z"/>
	<path class="st29" d="M480.8,69.4l0.1,1.8c0.3-0.6,0.8-1.1,1.3-1.4c0.6-0.3,1.2-0.5,2-0.5c1.1,0,1.9,0.3,2.5,1
		c0.6,0.7,0.9,1.7,0.9,3.1v6.2h-1.1v-6.2c0-1.2-0.2-2-0.6-2.5c-0.4-0.5-1-0.7-1.8-0.7c-0.8,0-1.4,0.2-1.9,0.6
		c-0.5,0.4-0.9,1-1.1,1.7v7.1h-1.1V69.4H480.8z"/>
	<path class="st29" d="M494.2,78.7c0.7,0,1.4-0.2,2-0.6c0.6-0.4,0.9-1,0.9-1.8h1l0,0.1c0,0.9-0.3,1.7-1.1,2.3s-1.7,0.9-2.7,0.9
		c-1.4,0-2.4-0.5-3.2-1.4c-0.8-0.9-1.1-2.2-1.1-3.6v-0.4c0-1.5,0.4-2.7,1.1-3.6c0.8-0.9,1.8-1.4,3.2-1.4c1.1,0,2,0.3,2.8,1
		c0.7,0.7,1.1,1.5,1.1,2.6l0,0.1h-1c0-0.8-0.3-1.5-0.8-1.9c-0.5-0.5-1.2-0.7-2-0.7c-1.1,0-1.9,0.4-2.4,1.2c-0.5,0.8-0.8,1.7-0.8,2.9
		v0.4c0,1.2,0.3,2.2,0.8,2.9C492.3,78.3,493.1,78.7,494.2,78.7z"/>
	<path class="st29" d="M511.1,76.9c0-0.5-0.2-0.9-0.6-1.2c-0.4-0.4-1.1-0.6-2.1-0.9c-1.2-0.3-2.1-0.6-2.7-1c-0.6-0.4-0.9-1-0.9-1.8
		c0-0.8,0.3-1.4,1-2s1.5-0.8,2.6-0.8c1.1,0,2,0.3,2.7,0.8s1,1.3,1,2.1l0,0.1h-1c0-0.6-0.2-1-0.7-1.4c-0.5-0.4-1.1-0.6-1.9-0.6
		c-0.8,0-1.4,0.2-1.8,0.5c-0.4,0.3-0.6,0.8-0.6,1.2c0,0.5,0.2,0.8,0.5,1.2c0.4,0.3,1.1,0.6,2.1,0.8c1.2,0.3,2.1,0.6,2.7,1.1
		c0.6,0.5,0.9,1.1,0.9,1.9c0,0.8-0.3,1.5-1,2c-0.7,0.5-1.6,0.8-2.7,0.8c-1.2,0-2.2-0.3-2.9-0.9c-0.7-0.6-1-1.3-1-2.1l0-0.1h1
		c0,0.7,0.3,1.3,0.9,1.6c0.6,0.3,1.2,0.5,1.9,0.5c0.8,0,1.4-0.2,1.9-0.5C510.8,77.8,511.1,77.4,511.1,76.9z"/>
	<path class="st29" d="M518.5,79.7c-1.3,0-2.3-0.5-3.2-1.4c-0.8-0.9-1.3-2.1-1.3-3.5v-0.5c0-1.4,0.4-2.6,1.2-3.6
		c0.8-1,1.8-1.4,3-1.4c1.2,0,2.2,0.4,2.9,1.2c0.7,0.8,1.1,1.8,1.1,3.1v1h-7.1v0.3c0,1.1,0.3,2.1,0.9,2.9c0.6,0.8,1.4,1.1,2.4,1.1
		c0.7,0,1.3-0.1,1.8-0.3c0.5-0.2,0.9-0.5,1.3-0.8l0.5,0.8c-0.4,0.4-0.9,0.7-1.4,1C520,79.6,519.4,79.7,518.5,79.7z M518.4,70.1
		c-0.8,0-1.5,0.3-2.1,0.9c-0.6,0.6-0.9,1.4-1,2.4l0,0h5.9v-0.3c0-0.9-0.3-1.6-0.8-2.2C520,70.4,519.3,70.1,518.4,70.1z M519.8,65.4
		h1.4l0,0.1l-2.3,2.4h-1L519.8,65.4z"/>
	<path class="st29" d="M532.7,74.7c0,1.5-0.3,2.7-1,3.6c-0.7,0.9-1.6,1.3-2.8,1.3c-0.7,0-1.3-0.1-1.9-0.4c-0.5-0.3-1-0.7-1.3-1.1
		v5.2h-1.1v-14h0.9l0.1,1.6c0.3-0.6,0.8-1,1.3-1.3c0.5-0.3,1.2-0.5,1.9-0.5c1.2,0,2.2,0.5,2.8,1.5c0.7,1,1,2.3,1,3.9V74.7z
		 M531.6,74.5c0-1.3-0.3-2.3-0.8-3.1c-0.5-0.8-1.3-1.2-2.2-1.2c-0.8,0-1.4,0.2-1.8,0.5s-0.8,0.8-1.1,1.4v4.9c0.3,0.6,0.6,1,1.1,1.3
		c0.5,0.3,1.1,0.5,1.8,0.5c1,0,1.7-0.4,2.2-1.1c0.5-0.7,0.8-1.7,0.8-2.9V74.5z"/>
	<path class="st29" d="M541.7,79.5c-0.1-0.3-0.1-0.6-0.2-0.9s0-0.5,0-0.8c-0.4,0.5-0.9,1-1.5,1.3c-0.6,0.3-1.3,0.5-2.1,0.5
		c-1,0-1.7-0.3-2.3-0.8c-0.5-0.5-0.8-1.2-0.8-2.1c0-0.9,0.4-1.7,1.2-2.2c0.8-0.6,1.9-0.8,3.3-0.8h2.2v-1.3c0-0.7-0.2-1.3-0.7-1.7
		c-0.5-0.4-1.1-0.6-1.9-0.6c-0.8,0-1.4,0.2-1.9,0.6c-0.5,0.4-0.8,0.9-0.8,1.4l-1,0l0-0.1c0-0.8,0.3-1.4,1-2c0.7-0.6,1.6-0.9,2.8-0.9
		c1.1,0,2,0.3,2.7,0.9s1,1.4,1,2.4v5c0,0.4,0,0.7,0.1,1c0,0.3,0.1,0.7,0.2,1H541.7z M538,78.7c0.8,0,1.5-0.2,2.1-0.6
		c0.6-0.4,1.1-0.9,1.3-1.4v-2.1h-2.3c-1,0-1.8,0.2-2.4,0.6c-0.6,0.4-0.9,1-0.9,1.6c0,0.5,0.2,1,0.6,1.3S537.3,78.7,538,78.7z"/>
	<path class="st29" d="M550.2,70.3l-0.8-0.1c-0.7,0-1.3,0.2-1.7,0.6s-0.8,0.9-1,1.6v7h-1.1V69.4h1l0.1,1.7v0.1
		c0.3-0.6,0.7-1.1,1.2-1.5c0.5-0.3,1.1-0.5,1.8-0.5c0.1,0,0.3,0,0.4,0s0.2,0,0.3,0.1L550.2,70.3z"/>
	<path class="st29" d="M558.5,79.5c-0.1-0.3-0.1-0.6-0.2-0.9s0-0.5,0-0.8c-0.4,0.5-0.9,1-1.5,1.3c-0.6,0.3-1.3,0.5-2.1,0.5
		c-1,0-1.7-0.3-2.3-0.8c-0.5-0.5-0.8-1.2-0.8-2.1c0-0.9,0.4-1.7,1.2-2.2c0.8-0.6,1.9-0.8,3.3-0.8h2.2v-1.3c0-0.7-0.2-1.3-0.7-1.7
		c-0.5-0.4-1.1-0.6-1.9-0.6c-0.8,0-1.4,0.2-1.9,0.6c-0.5,0.4-0.8,0.9-0.8,1.4l-1,0l0-0.1c0-0.8,0.3-1.4,1-2c0.7-0.6,1.6-0.9,2.8-0.9
		c1.1,0,2,0.3,2.7,0.9s1,1.4,1,2.4v5c0,0.4,0,0.7,0.1,1c0,0.3,0.1,0.7,0.2,1H558.5z M554.8,78.7c0.8,0,1.5-0.2,2.1-0.6
		c0.6-0.4,1.1-0.9,1.3-1.4v-2.1H556c-1,0-1.8,0.2-2.4,0.6c-0.6,0.4-0.9,1-0.9,1.6c0,0.5,0.2,1,0.6,1.3S554.1,78.7,554.8,78.7z"/>
	<path class="st29" d="M564.1,66.8v2.6h2.2v0.9h-2.2v6.6c0,0.7,0.1,1.1,0.4,1.4s0.6,0.4,1,0.4c0.2,0,0.4,0,0.5,0s0.4,0,0.6-0.1
		l0.2,0.8c-0.2,0.1-0.4,0.1-0.7,0.2c-0.3,0-0.5,0.1-0.8,0.1c-0.7,0-1.3-0.2-1.7-0.7s-0.6-1.2-0.6-2.1v-6.6h-1.7v-0.9h1.7v-2.6H564.1
		z"/>
	<path class="st29" d="M572.5,79.7c-1.3,0-2.3-0.5-3.2-1.4c-0.8-0.9-1.3-2.1-1.3-3.5v-0.5c0-1.4,0.4-2.6,1.2-3.6
		c0.8-1,1.8-1.4,3-1.4c1.2,0,2.2,0.4,2.9,1.2c0.7,0.8,1.1,1.8,1.1,3.1v1h-7.1v0.3c0,1.1,0.3,2.1,0.9,2.9c0.6,0.8,1.4,1.1,2.4,1.1
		c0.7,0,1.3-0.1,1.8-0.3c0.5-0.2,0.9-0.5,1.3-0.8l0.5,0.8c-0.4,0.4-0.9,0.7-1.4,1C574,79.6,573.3,79.7,572.5,79.7z M572.3,70.1
		c-0.8,0-1.5,0.3-2.1,0.9c-0.6,0.6-0.9,1.4-1,2.4l0,0h5.9v-0.3c0-0.9-0.3-1.6-0.8-2.2C573.9,70.4,573.2,70.1,572.3,70.1z"/>
	<path class="st29" d="M585.2,77.8c-0.3,0.6-0.8,1-1.3,1.4c-0.5,0.3-1.2,0.5-1.9,0.5c-1.1,0-1.9-0.4-2.5-1.1
		c-0.6-0.7-0.9-1.8-0.9-3.4v-5.9h1.1v5.9c0,1.2,0.2,2.1,0.6,2.7c0.4,0.5,1,0.8,1.8,0.8c0.8,0,1.5-0.2,2-0.6c0.5-0.4,0.9-0.9,1.1-1.6
		v-7.2h1.1v10.1h-1L585.2,77.8z"/>
	<path class="st29" d="M593.8,70.3l-0.8-0.1c-0.7,0-1.3,0.2-1.7,0.6s-0.8,0.9-1,1.6v7h-1.1V69.4h1l0.1,1.7v0.1
		c0.3-0.6,0.7-1.1,1.2-1.5c0.5-0.3,1.1-0.5,1.8-0.5c0.1,0,0.3,0,0.4,0s0.2,0,0.3,0.1L593.8,70.3z"/>
</g>
</svg>
