<?xml version="1.0" encoding="utf-8"?>
<!-- Generator: Adobe Illustrator 21.0.0, SVG Export Plug-In . SVG Version: 6.00 Build 0)  -->
<svg version="1.1" id="图层_1" xmlns="http://www.w3.org/2000/svg" xmlns:xlink="http://www.w3.org/1999/xlink" x="0px" y="0px"
	 viewBox="0 0 1440 540" style="enable-background:new 0 0 1440 540;" xml:space="preserve">
<style type="text/css">
	.st0{fill:#B0B0B1;}
	.st1{fill:#EFF6E6;}
	.st2{fill:url(#SVGID_1_);}
	.st3{fill:url(#SVGID_2_);}
	.st4{fill:url(#SVGID_3_);}
	.st5{fill:url(#SVGID_4_);}
	.st6{fill:url(#SVGID_5_);}
	.st7{fill:none;}
	.st8{fill:none;stroke:#E5F3F5;stroke-width:0.2;stroke-miterlimit:10;}
	.st9{fill:none;stroke:#B0B0B1;stroke-width:0.2;stroke-miterlimit:10;}
	.st10{fill:none;stroke:#B5C9CE;stroke-width:0.2;stroke-miterlimit:10;}
	.st11{fill:url(#SVGID_6_);}
	.st12{clip-path:url(#SVGID_8_);}
	.st13{fill:#604C3F;}
	.st14{enable-background:new    ;}
	.st15{fill:#151C51;}
	.st16{fill:none;stroke:#18244A;stroke-miterlimit:10;}
</style>
<title>未标题-1</title>
<g>
	<path class="st0" d="M1079.2,386.4c5.3,2,19.1-11.3,28.5-36.6s7.7-44.3,2.3-46.3s-19.1,11.3-28.5,36.6S1073.8,384.4,1079.2,386.4z"
		/>
	<path class="st1" d="M1078.4,338.9c8.9-24,23.1-40.9,32.1-38.6l-1.1,3c-5.7-0.9-18.8,12.3-27.8,36.7s-7.8,42.9-2.9,46l-1.1,3
		C1069.1,385,1069.5,362.9,1078.4,338.9z"/>
	<path class="st0" d="M887.4,267.3c7.5-20.2,19.4-34.4,27-32.4l-0.9,2.5c-4.8-0.7-15.8,10.4-23.4,30.9s-6.5,36.1-2.4,38.7l-0.9,2.5
		C879.7,306.1,879.9,287.5,887.4,267.3z"/>
	<g>
		
			<linearGradient id="SVGID_1_" gradientUnits="userSpaceOnUse" x1="15052.1738" y1="-2408.2317" x2="15052.1738" y2="-2333.8518" gradientTransform="matrix(-0.94 -0.35 0.35 -0.94 15880.0273 3308.6165)">
			<stop  offset="0" style="stop-color:#B4B4B5"/>
			<stop  offset="0.45" style="stop-color:#FFFFFF"/>
			<stop  offset="0.77" style="stop-color:#FBFBFB"/>
			<stop  offset="1" style="stop-color:#E6E6E6"/>
		</linearGradient>
		<path class="st2" d="M962.2,255.4L962.2,255.4L962.2,255.4c4.6,1.7,6,17.7-1.9,38.9s-19.5,32.5-23.9,30.8h-0.1l0,0l-109.4-40.6
			l25.9-69.7L962.2,255.4z"/>
		
			<linearGradient id="SVGID_2_" gradientUnits="userSpaceOnUse" x1="15118.752" y1="-2371.5391" x2="15157.3018" y2="-2332.989" gradientTransform="matrix(-0.94 -0.35 0.35 -0.94 15880.0273 3308.6165)">
			<stop  offset="0" style="stop-color:#B4B4B5"/>
			<stop  offset="0.37" style="stop-color:#E6E6E6"/>
			<stop  offset="0.76" style="stop-color:#FFFFFF"/>
			<stop  offset="1" style="stop-color:#EEEEEF"/>
		</linearGradient>
		<path class="st3" d="M827,284.6c4.5,1.7,16-9.5,23.9-30.8s6.4-37.3,2-38.9s-16,9.5-23.9,30.8S822.5,282.9,827,284.6z"/>
	</g>
	<g>
		
			<linearGradient id="SVGID_3_" gradientUnits="userSpaceOnUse" x1="15139.8818" y1="-2381.0818" x2="15139.8818" y2="-2360.0718" gradientTransform="matrix(-0.94 -0.35 0.35 -0.94 15880.0273 3308.6165)">
			<stop  offset="0" style="stop-color:#F8F0DC"/>
			<stop  offset="0.17" style="stop-color:#D6AD3C"/>
			<stop  offset="0.36" style="stop-color:#CA9A0C"/>
			<stop  offset="0.76" style="stop-color:#F6E5B5"/>
			<stop  offset="0.99" style="stop-color:#D6AD3C"/>
		</linearGradient>
		<path class="st4" d="M842.8,239L842.8,239c1.6,0.8,1.3,5.6-0.7,10.9s-4.9,9.2-6.6,8.7v0.1l-45.7-17l7.3-19.7L842.8,239z"/>
		
			<linearGradient id="SVGID_4_" gradientUnits="userSpaceOnUse" x1="15190.417" y1="-2358.5051" x2="15204.0371" y2="-2350.1353" gradientTransform="matrix(-0.94 -0.35 0.35 -0.94 15880.0273 3308.6165)">
			<stop  offset="0" style="stop-color:#D6AD3C"/>
			<stop  offset="0.15" style="stop-color:#F1DCA1"/>
			<stop  offset="0.37" style="stop-color:#CA9A0C"/>
			<stop  offset="0.54" style="stop-color:#D6AD3C"/>
			<stop  offset="0.65" style="stop-color:#F6E5B5"/>
			<stop  offset="0.76" style="stop-color:#D0A429"/>
			<stop  offset="0.97" style="stop-color:#CEA120"/>
		</linearGradient>
		<path class="st5" d="M791.1,231c-2,5.4-2.6,10.3-1.3,10.7s4-3.5,6-9s2.6-10.2,1.3-10.7S793.1,225.6,791.1,231z"/>
	</g>
	
		<linearGradient id="SVGID_5_" gradientUnits="userSpaceOnUse" x1="14813.0977" y1="-2410.9016" x2="14813.0977" y2="-2331.1917" gradientTransform="matrix(-0.94 -0.35 0.35 -0.94 15880.0273 3308.6165)">
		<stop  offset="0" style="stop-color:#8B9294"/>
		<stop  offset="0.28" style="stop-color:#7A7A7A"/>
		<stop  offset="0.6" style="stop-color:#B0B0B1"/>
		<stop  offset="0.73" style="stop-color:#DBE6EC"/>
		<stop  offset="0.94" style="stop-color:#7A7A7A"/>
	</linearGradient>
	<path class="st6" d="M914.6,277.4c7.4-20,7.8-38.5,0.9-42.1v-0.1L1362,401.1l-27.8,74.7L887.8,310v-0.1
		C895.4,311.6,907.2,297.5,914.6,277.4z"/>
	<path class="st7" d="M912,276.5c-7.9,21.3-19.5,32.5-23.9,30.8c-0.2-0.1-0.3-0.2-0.5-0.3l25.8-69.6c0.2,0,0.4,0,0.5,0.1
		C918.5,239.2,919.9,255.2,912,276.5z"/>
	<path class="st0" d="M888.1,307.2c4.5,1.7,16-9.5,23.9-30.8s6.4-37.3,2-38.9c-0.2-0.1-0.3-0.1-0.5-0.1l0.9-2.5
		c0.2,0,0.3,0.1,0.5,0.1c7.5,2.8,7.4,21.8-0.3,42.4s-20,35.1-27.5,32.3c-0.2-0.1-0.3-0.2-0.5-0.2l0.9-2.5
		C887.8,307.1,887.9,307.2,888.1,307.2z"/>
	<g>
		<path class="st8" d="M1010.6,271.6c-19.3-2-38.9,8.4-53.9,19.8c-15.3,11.6-48.3,27-64.9,20"/>
		<path class="st9" d="M1009.8,270.9c-19.3-2-38.9,8.4-53.9,19.7c-15.3,11.6-48.3,27-64.9,20"/>
	</g>
	<g>
		<path class="st8" d="M1130.6,316.1c-19.3-2-38.9,8.4-53.9,19.8c-15.3,11.6-48.3,27-64.9,20"/>
		<path class="st9" d="M1129.8,315.4c-19.3-2-38.9,8.4-53.9,19.7c-15.3,11.6-48.3,27-64.9,20"/>
	</g>
	<g>
		<path class="st8" d="M1293.7,376.8c-19.3-2-38.9,8.4-53.9,19.8c-15.2,11.6-48.3,27-64.9,20"/>
		<path class="st10" d="M1292.9,376c-19.3-2-38.9,8.4-53.8,19.8c-15.3,11.6-48.3,27-64.9,20"/>
	</g>
	
		<linearGradient id="SVGID_6_" gradientUnits="userSpaceOnUse" x1="14625.8877" y1="-2324.2317" x2="14625.8877" y2="-2419.1636" gradientTransform="matrix(-0.94 -0.35 0.35 -0.94 15880.0273 3308.6165)">
		<stop  offset="0" style="stop-color:#CDD3CB"/>
		<stop  offset="0.22" style="stop-color:#EFF6E6"/>
		<stop  offset="0.31" style="stop-color:#EFF7FA"/>
		<stop  offset="0.45" style="stop-color:#EEF2EC"/>
		<stop  offset="0.91" style="stop-color:#C3CFD4"/>
	</linearGradient>
	<path class="st11" d="M1110.7,350.9c8.8-23.8,9.2-45.8,1.1-50v-0.1l410.7,152.5l-33,88.9l-410.7-152.5v-0.1
		C1087.9,391.6,1101.9,374.7,1110.7,350.9z"/>
	<path class="st7" d="M1107.6,349.7c-9.4,25.3-23.1,38.6-28.5,36.6c-0.2-0.1-0.4-0.2-0.5-0.3l30.7-82.7c0.2,0,0.4,0.1,0.6,0.1
		C1115.3,305.4,1117,324.4,1107.6,349.7z"/>
	<path class="st1" d="M1079.2,386.4c5.3,2,19.1-11.3,28.5-36.6s7.7-44.3,2.3-46.3c-0.2-0.1-0.4-0.1-0.6-0.1l1.1-3
		c0.2,0.1,0.4,0.1,0.6,0.1c8.9,3.3,8.8,25.9-0.3,50.4s-23.7,41.8-32.7,38.4c-0.2-0.1-0.4-0.2-0.6-0.3l1.1-3
		C1078.7,386.1,1078.9,386.3,1079.2,386.4z"/>
	<g>
		<g>
			<g>
				<defs>
					<path id="SVGID_7_" d="M969.5,255.4L969.5,255.4l138.3,51.3v0.1c0.2,0,0.3,0.1,0.5,0.1c7.5,2.8,7.4,21.8-0.3,42.4
						s-20,35.1-27.5,32.3c-0.2-0.1-0.3-0.2-0.5-0.3v0.1L941.8,330v-0.1c7.6,1.7,19.4-12.4,26.8-32.5S976.4,259,969.5,255.4z"/>
				</defs>
				<clipPath id="SVGID_8_">
					<use xlink:href="#SVGID_7_"  style="overflow:visible;"/>
				</clipPath>
				<g class="st12">
					<g>
						<g>
							<polygon class="st13" points="1127.5,384.4 1129.1,383.7 1045.7,214 1044.1,214.6 							"/>
							<polygon class="st13" points="1121,387.2 1122.7,386.5 1039.2,216.7 1037.6,217.4 							"/>
							<polygon class="st13" points="1117.8,388.5 1119.4,387.8 1036,218.1 1034.4,218.8 							"/>
							<polygon class="st13" points="1124.3,385.8 1125.9,385.1 1042.5,215.3 1040.9,216 							"/>
						</g>
						<g>
							<polygon class="st13" points="1101.1,395.6 1102.7,395 1019.3,225.2 1017.7,225.9 							"/>
							<polygon class="st13" points="1094.6,398.4 1096.2,397.7 1012.8,228 1011.2,228.7 							"/>
							<polygon class="st13" points="1091.4,399.8 1093,399.1 1009.6,229.3 1008,230 							"/>
							<polygon class="st13" points="1097.8,397 1099.5,396.4 1016,226.6 1014.4,227.3 							"/>
						</g>
						<g>
							<polygon class="st13" points="1074.6,406.9 1076.3,406.2 992.8,236.5 991.2,237.2 							"/>
							<polygon class="st13" points="1068.2,409.7 1069.8,409 986.4,239.2 984.8,239.9 							"/>
							<polygon class="st13" points="1064.9,411.1 1066.6,410.4 983.1,240.6 981.5,241.3 							"/>
							<polygon class="st13" points="1071.4,408.3 1073,407.6 989.6,237.9 988,238.5 							"/>
						</g>
						<g>
							<polygon class="st13" points="1048.2,418.2 1049.8,417.5 966.4,247.7 964.8,248.4 							"/>
							<polygon class="st13" points="1041.7,420.9 1043.3,420.2 959.9,250.5 958.3,251.2 							"/>
							<polygon class="st13" points="1038.5,422.3 1040.1,421.6 956.7,251.9 955.1,252.6 							"/>
							<polygon class="st13" points="1045,419.6 1046.6,418.9 963.2,249.1 961.5,249.8 							"/>
						</g>
						<g>
							<polygon class="st13" points="934.2,312.6 1108.2,238.4 1107.4,236.9 933.4,311 							"/>
							<polygon class="st13" points="937.3,318.9 1111.3,244.7 1110.5,243.2 936.5,317.3 							"/>
							<polygon class="st13" points="938.8,322 1112.8,247.9 1112,246.3 938,320.5 							"/>
							<polygon class="st13" points="935.7,315.7 1109.7,241.6 1108.9,240 934.9,314.1 							"/>
						</g>
						<g>
							<polygon class="st13" points="946.8,338.4 1120.8,264.2 1120.1,262.6 946.1,336.8 							"/>
							<polygon class="st13" points="949.9,344.7 1123.9,270.5 1123.2,269 949.2,343.1 							"/>
							<polygon class="st13" points="951.5,347.8 1125.5,273.7 1124.7,272.1 950.7,346.2 							"/>
							<polygon class="st13" points="948.4,341.5 1122.4,267.4 1121.6,265.8 947.6,339.9 							"/>
						</g>
						<g>
							<polygon class="st13" points="959.5,364.1 1133.5,290 1132.7,288.5 958.7,362.6 							"/>
							<polygon class="st13" points="962.6,370.5 1136.6,296.3 1135.8,294.8 961.8,368.9 							"/>
							<polygon class="st13" points="964.2,373.6 1138.2,299.5 1137.4,297.9 963.4,372 							"/>
							<polygon class="st13" points="961.1,367.3 1135.1,293.2 1134.3,291.6 960.3,365.7 							"/>
						</g>
						<g>
							<polygon class="st13" points="972.2,389.9 1146.2,315.8 1145.4,314.2 971.4,388.4 							"/>
							<polygon class="st13" points="975.3,396.2 1149.3,322.1 1148.5,320.5 974.5,394.7 							"/>
							<polygon class="st13" points="976.8,399.4 1150.8,325.3 1150.1,323.7 976,397.8 							"/>
							<polygon class="st13" points="973.7,393.1 1147.7,319 1147,317.4 973,391.5 							"/>
						</g>
					</g>
				</g>
			</g>
		</g>
	</g>
</g>
<g class="st14">
	<path class="st15" d="M740.1,354.5h-6.2l-1.4,3.8h-1.2l5.2-13.6h1.1l5.1,13.6h-1.2L740.1,354.5z M734.3,353.5h5.5l-2.7-7.4H737
		L734.3,353.5z"/>
	<path class="st15" d="M745.4,348.2l0.1,1.7c0.3-0.6,0.8-1,1.3-1.4c0.5-0.3,1.2-0.5,1.9-0.5c0.8,0,1.4,0.2,1.9,0.6s0.9,0.9,1.1,1.7
		c0.3-0.7,0.7-1.3,1.3-1.7c0.6-0.4,1.2-0.6,2.1-0.6c1.1,0,1.9,0.4,2.5,1.1s0.9,1.8,0.9,3.3v5.9h-1.1v-5.9c0-1.2-0.2-2.1-0.7-2.6
		c-0.4-0.5-1.1-0.8-1.8-0.8c-0.9,0-1.5,0.3-2,0.8s-0.8,1.2-0.9,2.1c0,0,0,0.1,0,0.2s0,0.1,0,0.2v6.1h-1.1v-5.9
		c0-1.2-0.2-2.1-0.7-2.6s-1.1-0.8-1.8-0.8c-0.8,0-1.4,0.2-1.9,0.6s-0.8,0.9-1,1.6v7.1h-1.1v-10.1h1V348.2z"/>
	<path class="st15" d="M765.2,358.5c-1.3,0-2.3-0.5-3.2-1.4c-0.8-0.9-1.3-2.1-1.3-3.5V353c0-1.4,0.4-2.6,1.2-3.6s1.8-1.4,3-1.4
		s2.2,0.4,2.9,1.2c0.7,0.8,1.1,1.8,1.1,3.1v1h-7.1v0.3c0,1.1,0.3,2.1,0.9,2.9c0.6,0.8,1.4,1.1,2.4,1.1c0.7,0,1.3-0.1,1.8-0.3
		c0.5-0.2,0.9-0.5,1.3-0.8l0.5,0.8c-0.4,0.4-0.9,0.7-1.4,1C766.7,358.4,766,358.5,765.2,358.5z M765.1,349c-0.8,0-1.5,0.3-2.1,0.9
		s-0.9,1.4-1,2.4l0,0h5.9V352c0-0.9-0.3-1.6-0.8-2.2C766.7,349.3,766,349,765.1,349z"/>
	<path class="st15" d="M777.2,349.8h-1.3v-1.5h1.3V349.8z M777.2,358.3h-1.3v-1.5h1.3V358.3z"/>
	<path class="st15" d="M788.4,357.6c0.7,0,1.4-0.2,2-0.6s0.8-1,0.8-1.8h1v0.1c0,0.9-0.3,1.7-1.1,2.3s-1.7,0.9-2.7,0.9
		c-1.4,0-2.4-0.5-3.2-1.4s-1.1-2.2-1.1-3.6v-0.4c0-1.5,0.4-2.7,1.1-3.6c0.8-0.9,1.8-1.4,3.2-1.4c1.1,0,2,0.3,2.8,1
		c0.7,0.7,1.1,1.5,1.1,2.6v0.1h-1c0-0.8-0.3-1.5-0.8-1.9c-0.5-0.5-1.2-0.7-2-0.7c-1.1,0-1.9,0.4-2.4,1.2c-0.5,0.8-0.8,1.7-0.8,2.9
		v0.4c0,1.2,0.3,2.2,0.8,2.9C786.5,357.2,787.3,357.6,788.4,357.6z"/>
	<path class="st15" d="M801.2,356.7c-0.3,0.6-0.8,1-1.3,1.4c-0.5,0.3-1.2,0.5-1.9,0.5c-1.1,0-1.9-0.4-2.5-1.1s-0.9-1.8-0.9-3.4v-5.9
		h1.1v5.9c0,1.2,0.2,2.1,0.6,2.7c0.4,0.5,1,0.8,1.8,0.8s1.5-0.2,2-0.6s0.9-0.9,1.1-1.6v-7.2h1.1v10.1h-1L801.2,356.7z"/>
	<path class="st15" d="M806.5,345.3h-1.1v-1.6h1.1V345.3z M806.5,358.3h-1.1v-10.1h1.1V358.3z"/>
	<path class="st15" d="M812.4,355.8l0.3,1.2h0.1l0.4-1.2l2.7-7.6h1.2l-3.8,10.1h-0.9l-3.8-10.1h1.2L812.4,355.8z"/>
</g>
<g class="st14">
	<path class="st15" d="M823.6,349.2l-0.8-0.1c-0.7,0-1.3,0.2-1.7,0.6c-0.5,0.4-0.8,0.9-1,1.6v7H819v-10.1h1l0.1,1.7v0.1
		c0.3-0.6,0.7-1.1,1.2-1.5s1.1-0.5,1.8-0.5c0.1,0,0.3,0,0.4,0s0.2,0,0.3,0.1L823.6,349.2z"/>
</g>
<g class="st14">
	<path class="st15" d="M829,358.5c-1.3,0-2.3-0.5-3.2-1.4c-0.8-0.9-1.3-2.1-1.3-3.5V353c0-1.4,0.4-2.6,1.2-3.6s1.8-1.4,3-1.4
		s2.2,0.4,2.9,1.2c0.7,0.8,1.1,1.8,1.1,3.1v1h-7.1v0.3c0,1.1,0.3,2.1,0.9,2.9c0.6,0.8,1.4,1.1,2.4,1.1c0.7,0,1.3-0.1,1.8-0.3
		c0.5-0.2,0.9-0.5,1.3-0.8l0.5,0.8c-0.4,0.4-0.9,0.7-1.4,1C830.5,358.4,829.8,358.5,829,358.5z M828.9,349c-0.8,0-1.5,0.3-2.1,0.9
		s-0.9,1.4-1,2.4l0,0h5.9V352c0-0.9-0.3-1.6-0.8-2.2C830.5,349.3,829.8,349,828.9,349z"/>
	<path class="st15" d="M846.2,358.3c-0.1-0.3-0.1-0.6-0.2-0.9s0-0.5,0-0.8c-0.4,0.5-0.9,1-1.5,1.3s-1.3,0.5-2.1,0.5
		c-1,0-1.7-0.3-2.3-0.8c-0.5-0.5-0.8-1.2-0.8-2.1s0.4-1.7,1.2-2.2c0.8-0.6,1.9-0.8,3.3-0.8h2.2v-1.3c0-0.7-0.2-1.3-0.7-1.7
		c-0.5-0.4-1.1-0.6-1.9-0.6c-0.8,0-1.4,0.2-1.9,0.6s-0.8,0.9-0.8,1.4h-1v-0.1c0-0.8,0.3-1.4,1-2s1.6-0.9,2.8-0.9
		c1.1,0,2,0.3,2.7,0.9s1,1.4,1,2.4v5c0,0.4,0,0.7,0.1,1c0,0.3,0.1,0.7,0.2,1h-1.3V358.3z M842.5,357.5c0.8,0,1.5-0.2,2.1-0.6
		s1.1-0.9,1.3-1.4v-2.1h-2.3c-1,0-1.8,0.2-2.4,0.6c-0.6,0.4-0.9,1-0.9,1.6c0,0.5,0.2,1,0.6,1.3S841.8,357.5,842.5,357.5z"/>
	<path class="st15" d="M853.8,357.6c0.7,0,1.4-0.2,2-0.6s0.8-1,0.8-1.8h1v0.1c0,0.9-0.3,1.7-1.1,2.3s-1.7,0.9-2.7,0.9
		c-1.4,0-2.4-0.5-3.2-1.4s-1.1-2.2-1.1-3.6v-0.4c0-1.5,0.4-2.7,1.1-3.6c0.8-0.9,1.8-1.4,3.2-1.4c1.1,0,2,0.3,2.8,1
		c0.7,0.7,1.1,1.5,1.1,2.6v0.1h-1c0-0.8-0.3-1.5-0.8-1.9c-0.5-0.5-1.2-0.7-2-0.7c-1.1,0-1.9,0.4-2.4,1.2s-0.8,1.7-0.8,2.9v0.4
		c0,1.2,0.3,2.2,0.8,2.9C851.9,357.2,852.7,357.6,853.8,357.6z"/>
	<path class="st15" d="M861.2,345.3h-1.1v-1.6h1.1V345.3z M861.2,358.3h-1.1v-10.1h1.1V358.3z"/>
	<path class="st15" d="M868.1,358.5c-1.3,0-2.3-0.5-3.2-1.4c-0.8-0.9-1.3-2.1-1.3-3.5V353c0-1.4,0.4-2.6,1.2-3.6s1.8-1.4,3-1.4
		s2.2,0.4,2.9,1.2c0.7,0.8,1.1,1.8,1.1,3.1v1h-7.1v0.3c0,1.1,0.3,2.1,0.9,2.9c0.6,0.8,1.4,1.1,2.4,1.1c0.7,0,1.3-0.1,1.8-0.3
		c0.5-0.2,0.9-0.5,1.3-0.8l0.5,0.8c-0.4,0.4-0.9,0.7-1.4,1C869.6,358.4,868.9,358.5,868.1,358.5z M867.9,349c-0.8,0-1.5,0.3-2.1,0.9
		s-0.9,1.4-1,2.4l0,0h5.9V352c0-0.9-0.3-1.6-0.8-2.2C869.5,349.3,868.8,349,867.9,349z"/>
	<path class="st15" d="M878.8,349.2l-0.8-0.1c-0.7,0-1.3,0.2-1.7,0.6s-0.8,0.9-1,1.6v7h-1.1v-10.1h1l0.1,1.7v0.1
		c0.3-0.6,0.7-1.1,1.2-1.5c0.5-0.3,1.1-0.5,1.8-0.5c0.1,0,0.3,0,0.4,0s0.2,0,0.3,0.1L878.8,349.2z"/>
	<path class="st15" d="M890.2,358.4H889v-12.5l-3.5,0.4v-0.8l4.6-0.8v13.7L890.2,358.4L890.2,358.4z"/>
	<path class="st15" d="M897,358.1l-1,2.6h-0.8l0.6-2.6v-1.6h1.1v1.6H897z"/>
	<path class="st15" d="M904.4,358.4h-1.1v-12.5l-3.5,0.4v-0.8l4.6-0.8V358.4z"/>
	<path class="st15" d="M912.5,350.9h1.3c1,0,1.7-0.2,2.3-0.7c0.5-0.5,0.8-1.1,0.8-1.9s-0.2-1.5-0.7-2s-1.2-0.8-2.1-0.8
		c-0.9,0-1.6,0.3-2.1,0.8s-0.8,1.2-0.8,2h-1v-0.1c0-1.1,0.3-1.9,1.1-2.6s1.7-1.1,2.9-1.1s2.2,0.3,2.9,1s1.1,1.6,1.1,2.8
		c0,0.6-0.2,1.2-0.6,1.8c-0.4,0.6-1,1-1.7,1.3c0.8,0.2,1.5,0.7,1.9,1.2c0.4,0.6,0.6,1.3,0.6,2c0,1.2-0.4,2.2-1.2,2.8
		c-0.8,0.7-1.8,1-3,1s-2.2-0.3-3.1-1c-0.9-0.7-1.3-1.6-1.2-2.8v-0.1h1c0,0.9,0.3,1.6,0.9,2.1c0.6,0.5,1.4,0.8,2.3,0.8
		c1,0,1.7-0.2,2.3-0.8c0.5-0.5,0.8-1.2,0.8-2.2s-0.3-1.7-0.9-2.1c-0.6-0.5-1.4-0.7-2.4-0.7h-1.3L912.5,350.9L912.5,350.9z"/>
	<path class="st15" d="M921.7,348.2l0.1,1.7c0.3-0.6,0.8-1,1.3-1.4c0.5-0.3,1.2-0.5,1.9-0.5c0.8,0,1.4,0.2,1.9,0.6s0.9,0.9,1.1,1.7
		c0.3-0.7,0.7-1.3,1.3-1.7c0.6-0.4,1.2-0.6,2.1-0.6c1.1,0,1.9,0.4,2.5,1.1s0.9,1.8,0.9,3.3v5.9h-1.1v-5.9c0-1.2-0.2-2.1-0.7-2.6
		s-1.1-0.8-1.8-0.8c-0.9,0-1.5,0.3-2,0.8s-0.8,1.2-0.9,2.1c0,0,0,0.1,0,0.2s0,0.1,0,0.2v6.1h-1.1v-5.9c0-1.2-0.2-2.1-0.7-2.6
		s-1.1-0.8-1.8-0.8c-0.8,0-1.4,0.2-1.9,0.6s-0.8,0.9-1,1.6v7.1h-1.1v-10.1h1V348.2z"/>
	<path class="st15" d="M938.7,348.2l0.1,1.7c0.3-0.6,0.8-1,1.3-1.4c0.5-0.3,1.2-0.5,1.9-0.5c0.8,0,1.4,0.2,1.9,0.6s0.9,0.9,1.1,1.7
		c0.3-0.7,0.7-1.3,1.3-1.7c0.6-0.4,1.2-0.6,2.1-0.6c1.1,0,1.9,0.4,2.5,1.1s0.9,1.8,0.9,3.3v5.9h-1.1v-5.9c0-1.2-0.2-2.1-0.7-2.6
		c-0.4-0.5-1.1-0.8-1.8-0.8c-0.9,0-1.5,0.3-2,0.8s-0.8,1.2-0.9,2.1c0,0,0,0.1,0,0.2s0,0.1,0,0.2v6.1h-1.1v-5.9
		c0-1.2-0.2-2.1-0.7-2.6s-1.1-0.8-1.8-0.8c-0.8,0-1.4,0.2-1.9,0.6s-0.8,0.9-1,1.6v7.1h-1.1v-10.1h1V348.2z"/>
</g>
<g class="st14">
	<path class="st15" d="M737.5,91.1V77.5h4c1.7,0,3,0.6,4.1,1.7s1.6,2.5,1.6,4.3v1.7c0,1.7-0.5,3.2-1.6,4.3c-1.1,1.1-2.5,1.7-4.1,1.7
		L737.5,91.1L737.5,91.1z M738.6,78.5v11.7h2.8c1.3,0,2.5-0.5,3.3-1.4c0.9-0.9,1.3-2.1,1.3-3.6v-1.8c0-1.4-0.4-2.6-1.3-3.5
		c-0.9-0.9-2-1.4-3.3-1.4C741.4,78.5,738.6,78.5,738.6,78.5z"/>
	<path class="st15" d="M751,78.1h-1.1v-1.6h1.1V78.1z M751,91.1h-1.1V81h1.1V91.1z"/>
	<path class="st15" d="M757.9,91.3c-1.3,0-2.3-0.5-3.2-1.4c-0.8-0.9-1.3-2.1-1.3-3.5v-0.5c0-1.4,0.4-2.6,1.2-3.6s1.8-1.4,3-1.4
		s2.2,0.4,2.9,1.2c0.7,0.8,1.1,1.8,1.1,3.1v1h-7.1v0.3c0,1.1,0.3,2.1,0.9,2.9c0.6,0.8,1.4,1.1,2.4,1.1c0.7,0,1.3-0.1,1.8-0.3
		c0.5-0.2,0.9-0.5,1.3-0.8l0.5,0.8c-0.4,0.4-0.9,0.7-1.4,1C759.4,91.2,758.7,91.3,757.9,91.3z M757.7,81.8c-0.8,0-1.5,0.3-2.1,0.9
		s-0.9,1.4-1,2.4l0,0h5.9v-0.3c0-0.9-0.3-1.6-0.8-2.2C759.3,82.1,758.6,81.8,757.7,81.8z M759.1,77.1h1.4v0.1l-2.3,2.4h-1
		L759.1,77.1z"/>
	<path class="st15" d="M765.2,91.1h-1.1V76.6h1.1V91.1z"/>
	<path class="st15" d="M772.1,91.3c-1.3,0-2.3-0.5-3.2-1.4c-0.8-0.9-1.3-2.1-1.3-3.5v-0.5c0-1.4,0.4-2.6,1.2-3.6s1.8-1.4,3-1.4
		s2.2,0.4,2.9,1.2c0.7,0.8,1.1,1.8,1.1,3.1v1h-7.1v0.3c0,1.1,0.3,2.1,0.9,2.9c0.6,0.8,1.4,1.1,2.4,1.1c0.7,0,1.3-0.1,1.8-0.3
		c0.5-0.2,0.9-0.5,1.3-0.8l0.5,0.8c-0.4,0.4-0.9,0.7-1.4,1C773.6,91.2,772.9,91.3,772.1,91.3z M771.9,81.8c-0.8,0-1.5,0.3-2.1,0.9
		s-0.9,1.4-1,2.4l0,0h5.9v-0.3c0-0.9-0.3-1.6-0.8-2.2C773.5,82.1,772.8,81.8,771.9,81.8z"/>
	<path class="st15" d="M781.9,90.4c0.7,0,1.4-0.2,2-0.6s0.8-1,0.8-1.8h1v0.1c0,0.9-0.3,1.7-1.1,2.3s-1.7,0.9-2.7,0.9
		c-1.4,0-2.4-0.5-3.2-1.4s-1.1-2.2-1.1-3.6v-0.4c0-1.5,0.4-2.7,1.1-3.6c0.8-0.9,1.8-1.4,3.2-1.4c1.1,0,2,0.3,2.8,1
		c0.7,0.7,1.1,1.5,1.1,2.6v0.1h-1c0-0.8-0.3-1.5-0.8-1.9c-0.5-0.5-1.2-0.7-2-0.7c-1.1,0-1.9,0.4-2.4,1.2c-0.5,0.8-0.8,1.7-0.8,2.9
		v0.4c0,1.2,0.3,2.2,0.8,2.9C780,90,780.8,90.4,781.9,90.4z"/>
	<path class="st15" d="M789.8,78.4V81h2.2v0.9h-2.2v6.6c0,0.7,0.1,1.1,0.4,1.4c0.2,0.3,0.6,0.4,1,0.4c0.2,0,0.4,0,0.5,0
		c0.2,0,0.4,0,0.6-0.1l0.2,0.8c-0.2,0.1-0.4,0.1-0.7,0.2c-0.3,0-0.5,0.1-0.8,0.1c-0.7,0-1.3-0.2-1.7-0.7s-0.6-1.2-0.6-2.1v-6.6H787
		V81h1.7v-2.6H789.8z"/>
	<path class="st15" d="M799,82l-0.8-0.1c-0.7,0-1.3,0.2-1.7,0.6c-0.5,0.4-0.8,0.9-1,1.6v7h-1.1V81h1l0.1,1.7v0.1
		c0.3-0.6,0.7-1.1,1.2-1.5s1.1-0.5,1.8-0.5c0.1,0,0.3,0,0.4,0s0.2,0,0.3,0.1L799,82z"/>
	<path class="st15" d="M802.2,78.1H801v-1.6h1.1v1.6H802.2z M802.2,91.1H801V81h1.1v10.1H802.2z"/>
	<path class="st15" d="M809,90.4c0.7,0,1.4-0.2,2-0.6s0.8-1,0.8-1.8h1v0.1c0,0.9-0.3,1.7-1.1,2.3s-1.7,0.9-2.7,0.9
		c-1.4,0-2.4-0.5-3.2-1.4s-1.1-2.2-1.1-3.6v-0.4c0-1.5,0.4-2.7,1.1-3.6c0.8-0.9,1.8-1.4,3.2-1.4c1.1,0,2,0.3,2.8,1
		c0.7,0.7,1.1,1.5,1.1,2.6v0.1h-1c0-0.8-0.3-1.5-0.8-1.9c-0.5-0.5-1.2-0.7-2-0.7c-1.1,0-1.9,0.4-2.4,1.2c-0.5,0.8-0.8,1.7-0.8,2.9
		v0.4c0,1.2,0.3,2.2,0.8,2.9C807.1,90,807.9,90.4,809,90.4z"/>
	<path class="st15" d="M816.9,78.4V81h2.2v0.9h-2.2v6.6c0,0.7,0.1,1.1,0.4,1.4c0.2,0.3,0.6,0.4,1,0.4c0.2,0,0.4,0,0.5,0
		c0.2,0,0.4,0,0.6-0.1l0.2,0.8c-0.2,0.1-0.4,0.1-0.7,0.2c-0.3,0-0.5,0.1-0.8,0.1c-0.7,0-1.3-0.2-1.7-0.7s-0.6-1.2-0.6-2.1v-6.6H814
		V81h1.7v-2.6H816.9z"/>
	<path class="st15" d="M826.2,82l-0.8-0.1c-0.7,0-1.3,0.2-1.7,0.6c-0.5,0.4-0.8,0.9-1,1.6v7h-1.1V81h1l0.1,1.7v0.1
		c0.3-0.6,0.7-1.1,1.2-1.5s1.1-0.5,1.8-0.5c0.1,0,0.3,0,0.4,0s0.2,0,0.3,0.1L826.2,82z"/>
	<path class="st15" d="M829.3,78.1h-1.1v-1.6h1.1V78.1z M829.3,91.1h-1.1V81h1.1V91.1z"/>
	<path class="st15" d="M831.9,86.2c0-1.6,0.3-2.9,1-3.9s1.6-1.5,2.9-1.5c0.7,0,1.3,0.1,1.8,0.4s0.9,0.7,1.3,1.2L839,81h1v14h-1.1
		v-5.2c-0.3,0.5-0.8,0.9-1.3,1.1c-0.5,0.3-1.1,0.4-1.8,0.4c-1.2,0-2.2-0.5-2.8-1.3c-0.7-0.9-1-2.1-1-3.6v-0.2
		C832,86.2,831.9,86.2,831.9,86.2z M833.1,86.4c0,1.2,0.2,2.2,0.7,2.9c0.5,0.7,1.2,1.1,2.2,1.1c0.7,0,1.3-0.2,1.8-0.5
		s0.9-0.7,1.1-1.3v-4.9c-0.3-0.6-0.6-1-1.1-1.4s-1.1-0.5-1.8-0.5c-1,0-1.7,0.4-2.2,1.2s-0.7,1.9-0.7,3.1V86.4z"/>
	<path class="st15" d="M849.6,89.5c-0.3,0.6-0.8,1-1.3,1.4c-0.5,0.3-1.2,0.5-1.9,0.5c-1.1,0-1.9-0.4-2.5-1.1s-0.9-1.8-0.9-3.4V81
		h1.1v5.9c0,1.2,0.2,2.1,0.6,2.7c0.4,0.5,1,0.8,1.8,0.8s1.5-0.2,2-0.6s0.9-0.9,1.1-1.6V81h1.1v10.1h-1L849.6,89.5z"/>
	<path class="st15" d="M857.5,91.3c-1.3,0-2.3-0.5-3.2-1.4c-0.8-0.9-1.3-2.1-1.3-3.5v-0.5c0-1.4,0.4-2.6,1.2-3.6s1.8-1.4,3-1.4
		s2.2,0.4,2.9,1.2c0.7,0.8,1.1,1.8,1.1,3.1v1h-7.1v0.3c0,1.1,0.3,2.1,0.9,2.9c0.6,0.8,1.4,1.1,2.4,1.1c0.7,0,1.3-0.1,1.8-0.3
		c0.5-0.2,0.9-0.5,1.3-0.8L861,90c-0.4,0.4-0.9,0.7-1.4,1C859,91.2,858.3,91.3,857.5,91.3z M857.3,81.8c-0.8,0-1.5,0.3-2.1,0.9
		s-0.9,1.4-1,2.4l0,0h5.9v-0.3c0-0.9-0.3-1.6-0.8-2.2S858.2,81.8,857.3,81.8z"/>
	<path class="st15" d="M876.3,86.4c0,1.5-0.3,2.7-1,3.6s-1.6,1.3-2.8,1.3c-0.7,0-1.3-0.1-1.9-0.4c-0.5-0.3-1-0.7-1.3-1.1V95h-1.1V81
		h0.9l0.1,1.6c0.3-0.6,0.8-1,1.3-1.3s1.2-0.5,1.9-0.5c1.2,0,2.2,0.5,2.8,1.5c0.7,1,1,2.3,1,3.9L876.3,86.4L876.3,86.4z M875.2,86.1
		c0-1.3-0.3-2.3-0.8-3.1c-0.5-0.8-1.3-1.2-2.2-1.2c-0.8,0-1.4,0.2-1.8,0.5c-0.5,0.4-0.8,0.8-1.1,1.4v4.9c0.3,0.6,0.6,1,1.1,1.3
		s1.1,0.5,1.8,0.5c1,0,1.7-0.4,2.2-1.1s0.8-1.7,0.8-2.9V86.1z"/>
	<path class="st15" d="M878.2,85.9c0-1.5,0.4-2.7,1.2-3.7s1.9-1.4,3.2-1.4c1.4,0,2.4,0.5,3.2,1.4c0.8,1,1.2,2.2,1.2,3.7v0.3
		c0,1.5-0.4,2.7-1.2,3.7s-1.9,1.4-3.2,1.4c-1.4,0-2.4-0.5-3.3-1.4c-0.8-0.9-1.2-2.2-1.2-3.7L878.2,85.9L878.2,85.9z M879.3,86.2
		c0,1.2,0.3,2.2,0.9,2.9c0.6,0.8,1.4,1.2,2.5,1.2c1,0,1.9-0.4,2.5-1.2c0.6-0.8,0.9-1.8,0.9-2.9v-0.3c0-1.2-0.3-2.1-0.9-2.9
		c-0.6-0.8-1.4-1.2-2.5-1.2c-1,0-1.9,0.4-2.5,1.2c-0.6,0.8-0.9,1.8-0.9,2.9V86.2z"/>
	<path class="st15" d="M890.7,91.1h-1.1V76.6h1.1V91.1z"/>
</g>
<g class="st14">
	<path class="st15" d="M896.7,88.4l0.4,1.2h0.1l3.1-8.6h1.3L897,92.7c-0.3,0.7-0.6,1.3-1,1.7s-1,0.7-1.8,0.7c-0.1,0-0.3,0-0.5,0
		s-0.3-0.1-0.4-0.1l0.1-0.9c0.1,0,0.2,0,0.4,0s0.3,0,0.4,0c0.5,0,0.9-0.2,1.2-0.5s0.5-0.8,0.7-1.3l0.5-1.4l-3.9-10h1.2L896.7,88.4z"
		/>
</g>
<g class="st14">
	<path class="st15" d="M906.9,91.3c-1.3,0-2.3-0.5-3.2-1.4c-0.8-0.9-1.3-2.1-1.3-3.5v-0.5c0-1.4,0.4-2.6,1.2-3.6s1.8-1.4,3-1.4
		s2.2,0.4,2.9,1.2c0.7,0.8,1.1,1.8,1.1,3.1v1h-7.1v0.3c0,1.1,0.3,2.1,0.9,2.9c0.6,0.8,1.4,1.1,2.4,1.1c0.7,0,1.3-0.1,1.8-0.3
		c0.5-0.2,0.9-0.5,1.3-0.8l0.5,0.8c-0.4,0.4-0.9,0.7-1.4,1C908.4,91.2,907.7,91.3,906.9,91.3z M906.7,81.8c-0.8,0-1.5,0.3-2.1,0.9
		s-0.9,1.4-1,2.4l0,0h5.9v-0.3c0-0.9-0.3-1.6-0.8-2.2C908.3,82.1,907.6,81.8,906.7,81.8z"/>
	<path class="st15" d="M914.7,78.4V81h2.2v0.9h-2.2v6.6c0,0.7,0.1,1.1,0.4,1.4c0.2,0.3,0.6,0.4,1,0.4c0.2,0,0.4,0,0.5,0
		c0.2,0,0.4,0,0.6-0.1l0.2,0.8c-0.2,0.1-0.4,0.1-0.7,0.2c-0.3,0-0.5,0.1-0.8,0.1c-0.7,0-1.3-0.2-1.7-0.7s-0.6-1.2-0.6-2.1v-6.6h-1.7
		V81h1.7v-2.6H914.7z"/>
	<path class="st15" d="M920.4,82.8c0.3-0.6,0.8-1.1,1.3-1.4s1.2-0.5,2-0.5c1.1,0,1.9,0.3,2.5,1s0.9,1.7,0.9,3.1v6.2H926v-6.3
		c0-1.1-0.2-1.9-0.6-2.4c-0.4-0.5-1-0.7-1.8-0.7s-1.4,0.2-1.9,0.6s-0.9,0.9-1.1,1.6v7.1h-1.1V76.6h1.1v6.2
		C920.6,82.8,920.4,82.8,920.4,82.8z"/>
	<path class="st15" d="M932.8,88.4l0.4,1.2h0.1l3.1-8.6h1.3l-4.4,11.7c-0.3,0.7-0.6,1.3-1,1.7c-0.4,0.5-1,0.7-1.8,0.7
		c-0.1,0-0.3,0-0.5,0s-0.3-0.1-0.4-0.1l0.1-0.9c0.1,0,0.2,0,0.4,0s0.3,0,0.4,0c0.5,0,0.9-0.2,1.2-0.5s0.5-0.8,0.7-1.3l0.5-1.4
		l-3.9-10h1.2L932.8,88.4z"/>
	<path class="st15" d="M940.5,91.1h-1.1V76.6h1.1V91.1z"/>
	<path class="st15" d="M947.4,91.3c-1.3,0-2.3-0.5-3.2-1.4c-0.8-0.9-1.3-2.1-1.3-3.5v-0.5c0-1.4,0.4-2.6,1.2-3.6s1.8-1.4,3-1.4
		s2.2,0.4,2.9,1.2c0.7,0.8,1.1,1.8,1.1,3.1v1H944v0.3c0,1.1,0.3,2.1,0.9,2.9c0.6,0.8,1.4,1.1,2.4,1.1c0.7,0,1.3-0.1,1.8-0.3
		c0.5-0.2,0.9-0.5,1.3-0.8l0.5,0.8c-0.4,0.4-0.9,0.7-1.4,1C948.9,91.2,948.2,91.3,947.4,91.3z M947.3,81.8c-0.8,0-1.5,0.3-2.1,0.9
		s-0.9,1.4-1,2.4l0,0h5.9v-0.3c0-0.9-0.3-1.6-0.8-2.2C948.9,82.1,948.2,81.8,947.3,81.8z"/>
	<path class="st15" d="M954.5,81l0.1,1.8c0.3-0.6,0.8-1.1,1.3-1.4c0.6-0.3,1.2-0.5,2-0.5c1.1,0,1.9,0.3,2.5,1s0.9,1.7,0.9,3.1v6.2
		h-1.1V85c0-1.2-0.2-2-0.6-2.5s-1-0.7-1.8-0.7s-1.4,0.2-1.9,0.6s-0.9,1-1.1,1.7v7.1h-1.1V81H954.5z"/>
	<path class="st15" d="M967.9,91.3c-1.3,0-2.3-0.5-3.2-1.4c-0.8-0.9-1.3-2.1-1.3-3.5v-0.5c0-1.4,0.4-2.6,1.2-3.6s1.8-1.4,3-1.4
		s2.2,0.4,2.9,1.2c0.7,0.8,1.1,1.8,1.1,3.1v1h-7.1v0.3c0,1.1,0.3,2.1,0.9,2.9c0.6,0.8,1.4,1.1,2.4,1.1c0.7,0,1.3-0.1,1.8-0.3
		c0.5-0.2,0.9-0.5,1.3-0.8l0.5,0.8c-0.4,0.4-0.9,0.7-1.4,1C969.4,91.2,968.7,91.3,967.9,91.3z M967.8,81.8c-0.8,0-1.5,0.3-2.1,0.9
		s-0.9,1.4-1,2.4l0,0h5.9v-0.3c0-0.9-0.3-1.6-0.8-2.2S968.7,81.8,967.8,81.8z"/>
	<path class="st15" d="M982.4,90.4c0.7,0,1.4-0.2,2-0.6s0.8-1,0.8-1.8h1v0.1c0,0.9-0.3,1.7-1.1,2.3s-1.7,0.9-2.7,0.9
		c-1.4,0-2.4-0.5-3.2-1.4s-1.1-2.2-1.1-3.6v-0.4c0-1.5,0.4-2.7,1.1-3.6c0.8-0.9,1.8-1.4,3.2-1.4c1.1,0,2,0.3,2.8,1
		c0.7,0.7,1.1,1.5,1.1,2.6v0.1h-1c0-0.8-0.3-1.5-0.8-1.9c-0.5-0.5-1.2-0.7-2-0.7c-1.1,0-1.9,0.4-2.4,1.2c-0.5,0.8-0.8,1.7-0.8,2.9
		v0.4c0,1.2,0.3,2.2,0.8,2.9C980.5,90,981.3,90.4,982.4,90.4z"/>
	<path class="st15" d="M992.3,91.3c-1.3,0-2.3-0.5-3.2-1.4c-0.8-0.9-1.3-2.1-1.3-3.5v-0.5c0-1.4,0.4-2.6,1.2-3.6s1.8-1.4,3-1.4
		s2.2,0.4,2.9,1.2c0.7,0.8,1.1,1.8,1.1,3.1v1h-7v0.3c0,1.1,0.3,2.1,0.9,2.9c0.6,0.8,1.4,1.1,2.4,1.1c0.7,0,1.3-0.1,1.8-0.3
		c0.5-0.2,0.9-0.5,1.3-0.8l0.5,0.8c-0.4,0.4-0.9,0.7-1.4,1C993.8,91.2,993.1,91.3,992.3,91.3z M992.2,81.8c-0.8,0-1.5,0.3-2.1,0.9
		s-0.9,1.4-1,2.4l0,0h5.9v-0.3c0-0.9-0.3-1.6-0.8-2.2C993.8,82.1,993.1,81.8,992.2,81.8z M993.5,77.1h1.4v0.1l-2.3,2.4h-1
		L993.5,77.1z"/>
	<path class="st15" d="M999.7,91.1h-1.1V76.6h1.1V91.1z"/>
	<path class="st15" d="M1004,91.1h-1.1V76.6h1.1V91.1z"/>
	<path class="st15" d="M1013.7,89.5c-0.3,0.6-0.8,1-1.3,1.4c-0.5,0.3-1.2,0.5-1.9,0.5c-1.1,0-1.9-0.4-2.5-1.1s-0.9-1.8-0.9-3.4V81
		h1.1v5.9c0,1.2,0.2,2.1,0.6,2.7c0.4,0.5,1,0.8,1.8,0.8s1.5-0.2,2-0.6s0.9-0.9,1.1-1.6V81h1.1v10.1h-1L1013.7,89.5z"/>
	<path class="st15" d="M1019,91.1h-1.1V76.6h1.1V91.1z"/>
	<path class="st15" d="M1028.5,91.1c-0.1-0.3-0.1-0.6-0.2-0.9s0-0.5,0-0.8c-0.4,0.5-0.9,1-1.5,1.3s-1.3,0.5-2.1,0.5
		c-1,0-1.7-0.3-2.3-0.8c-0.5-0.5-0.8-1.2-0.8-2.1s0.4-1.7,1.2-2.2c0.8-0.6,1.9-0.8,3.3-0.8h2.2V84c0-0.7-0.2-1.3-0.7-1.7
		s-1.1-0.6-1.9-0.6s-1.4,0.2-1.9,0.6s-0.8,0.9-0.8,1.4h-1v-0.1c0-0.8,0.3-1.4,1-2s1.6-0.9,2.8-0.9c1.1,0,2,0.3,2.7,0.9s1,1.4,1,2.4
		v5c0,0.4,0,0.7,0.1,1c0,0.3,0.1,0.7,0.2,1L1028.5,91.1L1028.5,91.1z M1024.8,90.3c0.8,0,1.5-0.2,2.1-0.6s1.1-0.9,1.3-1.4v-2.1h-2.3
		c-1,0-1.8,0.2-2.4,0.6s-0.9,1-0.9,1.6c0,0.5,0.2,1,0.6,1.3S1024.1,90.3,1024.8,90.3z"/>
	<path class="st15" d="M1033.6,78.1h-1.1v-1.6h1.1V78.1z M1033.6,91.1h-1.1V81h1.1V91.1z"/>
</g>
<g class="st14">
	<path class="st15" d="M1041.4,82l-0.8-0.1c-0.7,0-1.3,0.2-1.7,0.6c-0.5,0.4-0.8,0.9-1,1.6v7h-1.1V81h1l0.1,1.7v0.1
		c0.3-0.6,0.7-1.1,1.2-1.5s1.1-0.5,1.8-0.5c0.1,0,0.3,0,0.4,0s0.2,0,0.3,0.1L1041.4,82z"/>
</g>
<g class="st14">
	<path class="st15" d="M1046.8,91.3c-1.3,0-2.3-0.5-3.2-1.4c-0.8-0.9-1.3-2.1-1.3-3.5v-0.5c0-1.4,0.4-2.6,1.2-3.6
		c0.8-1,1.8-1.4,3-1.4s2.2,0.4,2.9,1.2c0.7,0.8,1.1,1.8,1.1,3.1v1h-7.1v0.3c0,1.1,0.3,2.1,0.9,2.9s1.4,1.1,2.4,1.1
		c0.7,0,1.3-0.1,1.8-0.3c0.5-0.2,0.9-0.5,1.3-0.8l0.5,0.8c-0.4,0.4-0.9,0.7-1.4,1C1048.3,91.2,1047.7,91.3,1046.8,91.3z
		 M1046.7,81.8c-0.8,0-1.5,0.3-2.1,0.9s-0.9,1.4-1,2.4l0,0h5.9v-0.3c0-0.9-0.3-1.6-0.8-2.2C1048.3,82.1,1047.6,81.8,1046.7,81.8z"/>
</g>
<g class="st14">
	<path class="st15" d="M923.3,150v6.1h-1.1v-13.6h4.6c1.5,0,2.6,0.3,3.4,1c0.8,0.6,1.2,1.6,1.2,2.8c0,0.7-0.2,1.4-0.6,1.9
		c-0.4,0.6-1,1-1.8,1.2c0.8,0.2,1.4,0.6,1.8,1.1c0.4,0.5,0.6,1.2,0.6,2v1.3c0,0.4,0,0.8,0.1,1.1s0.3,0.6,0.5,0.8v0.2h-1.1
		c-0.2-0.2-0.4-0.5-0.5-0.9s-0.1-0.8-0.1-1.3v-1.2c0-0.8-0.3-1.5-0.8-2s-1.3-0.7-2.3-0.7h-3.9L923.3,150L923.3,150z M923.3,149.1
		h3.4c1.2,0,2.1-0.2,2.7-0.7s0.9-1.2,0.9-2c0-0.9-0.3-1.6-0.8-2.1s-1.4-0.7-2.6-0.7h-3.5v5.5H923.3z"/>
	<path class="st15" d="M941.2,154.5c-0.3,0.6-0.8,1-1.3,1.4c-0.5,0.3-1.2,0.5-1.9,0.5c-1.1,0-1.9-0.4-2.5-1.1
		c-0.6-0.7-0.9-1.8-0.9-3.4V146h1.1v5.9c0,1.2,0.2,2.1,0.6,2.7c0.4,0.5,1,0.8,1.8,0.8s1.5-0.2,2-0.6c0.5-0.4,0.9-0.9,1.1-1.6V146
		h1.1v10.1h-1L941.2,154.5z"/>
	<path class="st15" d="M953.3,151.4c0,1.5-0.3,2.7-1,3.6c-0.7,0.9-1.6,1.3-2.8,1.3c-0.7,0-1.4-0.1-1.9-0.4c-0.5-0.3-1-0.7-1.3-1.3
		l-0.1,1.5h-1v-14.6h1.1v6.1c0.3-0.6,0.8-1,1.3-1.3s1.1-0.5,1.9-0.5c1.2,0,2.2,0.5,2.8,1.5c0.7,1,1,2.3,1,3.9V151.4z M952.2,151.2
		c0-1.3-0.2-2.3-0.7-3.2c-0.5-0.8-1.2-1.2-2.2-1.2c-0.8,0-1.4,0.2-1.9,0.6s-0.8,0.9-1.1,1.5v4.6c0.2,0.6,0.6,1.1,1.1,1.4
		c0.5,0.3,1.1,0.5,1.8,0.5c1,0,1.7-0.4,2.2-1.1c0.5-0.7,0.7-1.7,0.7-2.9v-0.2L952.2,151.2L952.2,151.2z"/>
	<path class="st15" d="M962.2,156.2c-0.1-0.3-0.1-0.6-0.2-0.9s0-0.5,0-0.8c-0.4,0.5-0.9,1-1.5,1.3s-1.3,0.5-2.1,0.5
		c-1,0-1.7-0.3-2.3-0.8c-0.5-0.5-0.8-1.2-0.8-2.1c0-0.9,0.4-1.7,1.2-2.2s1.9-0.8,3.3-0.8h2.2v-1.3c0-0.7-0.2-1.3-0.7-1.7
		s-1.1-0.6-1.9-0.6c-0.8,0-1.4,0.2-1.9,0.6c-0.5,0.4-0.8,0.9-0.8,1.4h-1v-0.1c0-0.8,0.3-1.4,1-2s1.6-0.9,2.8-0.9
		c1.1,0,2,0.3,2.7,0.9s1,1.4,1,2.4v5c0,0.4,0,0.7,0.1,1c0,0.3,0.1,0.7,0.2,1h-1.3V156.2z M958.6,155.4c0.8,0,1.5-0.2,2.1-0.6
		c0.6-0.4,1.1-0.9,1.3-1.4v-2.1h-2.3c-1,0-1.8,0.2-2.4,0.6c-0.6,0.4-0.9,1-0.9,1.6c0,0.5,0.2,1,0.6,1.3S957.9,155.4,958.6,155.4z"/>
	<path class="st15" d="M967.1,146.1l0.1,1.8c0.3-0.6,0.8-1.1,1.3-1.4c0.6-0.3,1.2-0.5,2-0.5c1.1,0,1.9,0.3,2.5,1s0.9,1.7,0.9,3.1
		v6.2h-1.1V150c0-1.2-0.2-2-0.6-2.5s-1-0.7-1.8-0.7s-1.4,0.2-1.9,0.6c-0.5,0.4-0.9,1-1.1,1.7v7.1h-1.1v-10.1H967.1z"/>
	<path class="st15" d="M989,152.4h-6.2l-1.4,3.8h-1.2l5.2-13.6h1.1l5.1,13.6h-1.2L989,152.4z M983.2,151.4h5.5L986,144h-0.1
		L983.2,151.4z"/>
	<path class="st15" d="M994.6,156.2h-1.1v-14.6h1.1V156.2z"/>
	<path class="st15" d="M1004.3,154.5c-0.3,0.6-0.8,1-1.3,1.4c-0.5,0.3-1.2,0.5-1.9,0.5c-1.1,0-1.9-0.4-2.5-1.1
		c-0.6-0.7-0.9-1.8-0.9-3.4V146h1.1v5.9c0,1.2,0.2,2.1,0.6,2.7c0.4,0.5,1,0.8,1.8,0.8s1.5-0.2,2-0.6c0.5-0.4,0.9-0.9,1.1-1.6V146
		h1.1v10.1h-1L1004.3,154.5z"/>
	<path class="st15" d="M1009.3,146.1l0.1,1.7c0.3-0.6,0.8-1,1.3-1.4c0.5-0.3,1.2-0.5,1.9-0.5c0.8,0,1.4,0.2,1.9,0.6
		c0.5,0.4,0.9,0.9,1.1,1.7c0.3-0.7,0.7-1.3,1.3-1.7s1.2-0.6,2.1-0.6c1.1,0,1.9,0.4,2.5,1.1c0.6,0.7,0.9,1.8,0.9,3.3v5.9h-1.1v-5.9
		c0-1.2-0.2-2.1-0.7-2.6c-0.4-0.5-1.1-0.8-1.8-0.8c-0.9,0-1.5,0.3-2,0.8s-0.8,1.2-0.9,2.1c0,0,0,0.1,0,0.2c0,0.1,0,0.1,0,0.2v6.1
		h-1.1v-5.9c0-1.2-0.2-2.1-0.7-2.6s-1.1-0.8-1.8-0.8c-0.8,0-1.4,0.2-1.9,0.6s-0.8,0.9-1,1.6v7.1h-1.1v-10.1h1V146.1z"/>
	<path class="st15" d="M1026.6,143.2h-1.1v-1.6h1.1V143.2z M1026.6,156.2h-1.1v-10.1h1.1V156.2z"/>
	<path class="st15" d="M1030.6,146.1l0.1,1.8c0.3-0.6,0.8-1.1,1.3-1.4c0.6-0.3,1.2-0.5,2-0.5c1.1,0,1.9,0.3,2.5,1s0.9,1.7,0.9,3.1
		v6.2h-1.1V150c0-1.2-0.2-2-0.6-2.5s-1-0.7-1.8-0.7s-1.4,0.2-1.9,0.6c-0.5,0.4-0.9,1-1.1,1.7v7.1h-1.1v-10.1H1030.6z"/>
	<path class="st15" d="M1041.6,143.2h-1.1v-1.6h1.1V143.2z M1041.6,156.2h-1.1v-10.1h1.1V156.2z"/>
	<path class="st15" d="M1051.3,154.5c-0.3,0.6-0.8,1-1.3,1.4c-0.5,0.3-1.2,0.5-1.9,0.5c-1.1,0-1.9-0.4-2.5-1.1
		c-0.6-0.7-0.9-1.8-0.9-3.4V146h1.1v5.9c0,1.2,0.2,2.1,0.6,2.7c0.4,0.5,1,0.8,1.8,0.8s1.5-0.2,2-0.6c0.5-0.4,0.9-0.9,1.1-1.6V146
		h1.1v10.1h-1L1051.3,154.5z"/>
	<path class="st15" d="M1056.2,146.1l0.1,1.7c0.3-0.6,0.8-1,1.3-1.4c0.5-0.3,1.2-0.5,1.9-0.5c0.8,0,1.4,0.2,1.9,0.6
		c0.5,0.4,0.9,0.9,1.1,1.7c0.3-0.7,0.7-1.3,1.3-1.7c0.6-0.4,1.2-0.6,2.1-0.6c1.1,0,1.9,0.4,2.5,1.1c0.6,0.7,0.9,1.8,0.9,3.3v5.9
		h-1.1v-5.9c0-1.2-0.2-2.1-0.7-2.6c-0.4-0.5-1.1-0.8-1.8-0.8c-0.9,0-1.5,0.3-2,0.8s-0.8,1.2-0.9,2.1c0,0,0,0.1,0,0.2
		c0,0.1,0,0.1,0,0.2v6.1h-1.1v-5.9c0-1.2-0.2-2.1-0.7-2.6s-1.1-0.8-1.8-0.8c-0.8,0-1.4,0.2-1.9,0.6s-0.8,0.9-1,1.6v7.1h-1.1v-10.1h1
		L1056.2,146.1L1056.2,146.1z"/>
	<path class="st15" d="M1072.1,157.3h-1l5.7-14.8h1L1072.1,157.3z"/>
</g>
<g class="st14">
	<path class="st15" d="M1081.3,150.5v5.7h-1.1v-13.6h4.7c1.4,0,2.5,0.4,3.3,1.1s1.2,1.7,1.2,2.9s-0.4,2.2-1.2,2.9
		c-0.8,0.7-1.9,1.1-3.3,1.1L1081.3,150.5L1081.3,150.5z M1081.3,149.6h3.6c1.1,0,2-0.3,2.5-0.9c0.6-0.6,0.8-1.3,0.8-2.2
		s-0.3-1.6-0.8-2.2s-1.4-0.9-2.5-0.9h-3.6V149.6z"/>
</g>
<g class="st14">
	<path class="st15" d="M1091,151c0-1.5,0.4-2.7,1.2-3.7c0.8-1,1.9-1.4,3.2-1.4c1.4,0,2.4,0.5,3.2,1.4c0.8,1,1.2,2.2,1.2,3.7v0.3
		c0,1.5-0.4,2.7-1.2,3.7c-0.8,1-1.9,1.4-3.2,1.4c-1.4,0-2.4-0.5-3.3-1.4c-0.8-0.9-1.2-2.2-1.2-3.7V151H1091z M1092.1,151.3
		c0,1.2,0.3,2.2,0.9,2.9c0.6,0.8,1.4,1.2,2.5,1.2c1,0,1.9-0.4,2.5-1.2s0.9-1.8,0.9-2.9V151c0-1.2-0.3-2.1-0.9-2.9
		c-0.6-0.8-1.4-1.2-2.5-1.2c-1,0-1.9,0.4-2.5,1.2s-0.9,1.8-0.9,2.9V151.3z"/>
	<path class="st15" d="M1103.5,156.2h-1.1v-14.6h1.1V156.2z"/>
</g>
<g class="st14">
	<path class="st15" d="M1109.4,153.4l0.4,1.2h0.1l3.1-8.6h1.3l-4.4,11.7c-0.3,0.7-0.6,1.3-1,1.7s-1,0.7-1.8,0.7c-0.1,0-0.3,0-0.5,0
		s-0.3-0.1-0.4-0.1l0.1-0.9c0.1,0,0.2,0,0.4,0c0.2,0,0.3,0,0.4,0c0.5,0,0.9-0.2,1.2-0.5c0.3-0.3,0.5-0.8,0.7-1.3l0.5-1.4l-3.9-10
		h1.2L1109.4,153.4z"/>
</g>
<g class="st14">
	<path class="st15" d="M1119.6,156.4c-1.3,0-2.3-0.5-3.2-1.4c-0.8-0.9-1.3-2.1-1.3-3.5V151c0-1.4,0.4-2.6,1.2-3.6
		c0.8-1,1.8-1.4,3-1.4s2.2,0.4,2.9,1.2c0.7,0.8,1.1,1.8,1.1,3.1v1h-7.1v0.3c0,1.1,0.3,2.1,0.9,2.9c0.6,0.8,1.4,1.1,2.4,1.1
		c0.7,0,1.3-0.1,1.8-0.3s0.9-0.5,1.3-0.8l0.5,0.8c-0.4,0.4-0.9,0.7-1.4,1C1121.1,156.2,1120.4,156.4,1119.6,156.4z M1119.5,146.8
		c-0.8,0-1.5,0.3-2.1,0.9c-0.6,0.6-0.9,1.4-1,2.4l0,0h5.9v-0.3c0-0.9-0.3-1.6-0.8-2.2S1120.3,146.8,1119.5,146.8z"/>
	<path class="st15" d="M1131.7,153.6c0-0.5-0.2-0.9-0.6-1.2c-0.4-0.4-1.1-0.6-2.1-0.9c-1.2-0.3-2.1-0.6-2.7-1s-0.9-1-0.9-1.8
		s0.3-1.4,1-2c0.7-0.5,1.5-0.8,2.6-0.8s2,0.3,2.7,0.8c0.7,0.6,1,1.3,1,2.1v0.1h-1c0-0.6-0.2-1-0.7-1.4s-1.1-0.6-1.9-0.6
		s-1.4,0.2-1.8,0.5s-0.6,0.8-0.6,1.2c0,0.5,0.2,0.8,0.5,1.2s1.1,0.6,2.1,0.8c1.2,0.3,2.1,0.6,2.7,1.1s0.9,1.1,0.9,1.9
		c0,0.8-0.3,1.5-1,2s-1.6,0.8-2.7,0.8c-1.2,0-2.2-0.3-2.9-0.9c-0.7-0.6-1-1.3-1-2.1v-0.1h1c0,0.7,0.3,1.3,0.9,1.6s1.2,0.5,1.9,0.5
		c0.8,0,1.4-0.2,1.9-0.5C1131.5,154.5,1131.7,154.1,1131.7,153.6z"/>
	<path class="st15" d="M1137.2,143.5v2.6h2.2v0.9h-2.2v6.6c0,0.7,0.1,1.1,0.4,1.4c0.2,0.3,0.6,0.4,1,0.4c0.2,0,0.4,0,0.5,0
		c0.2,0,0.4,0,0.6-0.1l0.2,0.8c-0.2,0.1-0.4,0.1-0.7,0.2c-0.3,0-0.5,0.1-0.8,0.1c-0.7,0-1.3-0.2-1.7-0.7s-0.6-1.2-0.6-2.1V147h-1.7
		v-0.9h1.7v-2.6H1137.2z"/>
	<path class="st15" d="M1145.5,156.4c-1.3,0-2.3-0.5-3.2-1.4c-0.8-0.9-1.3-2.1-1.3-3.5V151c0-1.4,0.4-2.6,1.2-3.6
		c0.8-1,1.8-1.4,3-1.4s2.2,0.4,2.9,1.2c0.7,0.8,1.1,1.8,1.1,3.1v1h-7.1v0.3c0,1.1,0.3,2.1,0.9,2.9c0.6,0.8,1.4,1.1,2.4,1.1
		c0.7,0,1.3-0.1,1.8-0.3s0.9-0.5,1.3-0.8l0.5,0.8c-0.4,0.4-0.9,0.7-1.4,1C1147,156.2,1146.3,156.4,1145.5,156.4z M1145.4,146.8
		c-0.8,0-1.5,0.3-2.1,0.9c-0.6,0.6-0.9,1.4-1,2.4l0,0h5.9v-0.3c0-0.9-0.3-1.6-0.8-2.2C1147,147.1,1146.3,146.8,1145.4,146.8z"/>
	<path class="st15" d="M1156.3,147l-0.8-0.1c-0.7,0-1.3,0.2-1.7,0.6c-0.5,0.4-0.8,0.9-1,1.6v7h-1.1V146h1l0.1,1.7v0.1
		c0.3-0.6,0.7-1.1,1.2-1.5c0.5-0.3,1.1-0.5,1.8-0.5c0.1,0,0.3,0,0.4,0s0.2,0,0.3,0.1L1156.3,147z"/>
</g>
<g class="st14">
	<path class="st15" d="M1039.4,220.4c-0.3,0.4-0.9,0.9-1.7,1.2c-0.8,0.4-1.8,0.6-3,0.6c-1.6,0-2.9-0.5-3.9-1.6s-1.5-2.5-1.5-4.2V214
		c0-1.7,0.5-3.1,1.4-4.1c1-1.1,2.2-1.6,3.7-1.6s2.6,0.4,3.4,1.1c0.8,0.7,1.3,1.7,1.4,2.9v0.1h-1c-0.2-0.9-0.5-1.6-1.1-2.2
		c-0.6-0.6-1.5-0.8-2.7-0.8s-2.2,0.4-2.9,1.3c-0.7,0.9-1.1,2-1.1,3.4v2.5c0,1.4,0.4,2.6,1.2,3.5s1.8,1.4,3.1,1.4
		c0.9,0,1.7-0.1,2.3-0.4c0.6-0.3,1.1-0.5,1.3-0.8v-3.5h-3.6v-1h4.7L1039.4,220.4L1039.4,220.4z"/>
	<path class="st15" d="M1048.8,222.1c-0.1-0.3-0.1-0.6-0.2-0.9s0-0.5,0-0.8c-0.4,0.5-0.9,1-1.5,1.3s-1.3,0.5-2.1,0.5
		c-1,0-1.7-0.3-2.3-0.8c-0.5-0.5-0.8-1.2-0.8-2.1c0-0.9,0.4-1.7,1.2-2.2c0.8-0.6,1.9-0.8,3.3-0.8h2.2V215c0-0.7-0.2-1.3-0.7-1.7
		s-1.1-0.6-1.9-0.6s-1.4,0.2-1.9,0.6c-0.5,0.4-0.8,0.9-0.8,1.4h-1v-0.1c0-0.8,0.3-1.4,1-2s1.6-0.9,2.8-0.9c1.1,0,2,0.3,2.7,0.9
		s1,1.4,1,2.4v5c0,0.4,0,0.7,0.1,1c0,0.3,0.1,0.7,0.2,1h-1.3L1048.8,222.1L1048.8,222.1z M1045.2,221.3c0.8,0,1.5-0.2,2.1-0.6
		c0.6-0.4,1.1-0.9,1.3-1.4v-2.1h-2.3c-1,0-1.8,0.2-2.4,0.6c-0.6,0.4-0.9,1-0.9,1.6c0,0.5,0.2,1,0.6,1.3S1044.5,221.3,1045.2,221.3z"
		/>
	<path class="st15" d="M1054,209.1h-1.1v-1.6h1.1V209.1z M1054,222.1h-1.1V212h1.1V222.1z"/>
	<path class="st15" d="M1058.1,212l0.1,1.8c0.3-0.6,0.8-1.1,1.3-1.4c0.6-0.3,1.2-0.5,2-0.5c1.1,0,1.9,0.3,2.5,1s0.9,1.7,0.9,3.1v6.2
		h-1.1V216c0-1.2-0.2-2-0.6-2.5s-1-0.7-1.8-0.7s-1.4,0.2-1.9,0.6c-0.5,0.4-0.9,1-1.1,1.7v7.1h-1.1V212H1058.1z"/>
	<path class="st15" d="M1071.5,222.3c-1.3,0-2.3-0.5-3.2-1.4c-0.8-0.9-1.3-2.1-1.3-3.5v-0.5c0-1.4,0.4-2.6,1.2-3.6
		c0.8-1,1.8-1.4,3-1.4s2.2,0.4,2.9,1.2c0.7,0.8,1.1,1.8,1.1,3.1v1h-7.1v0.3c0,1.1,0.3,2.1,0.9,2.9c0.6,0.8,1.4,1.1,2.4,1.1
		c0.7,0,1.3-0.1,1.8-0.3s0.9-0.5,1.3-0.8l0.5,0.8c-0.4,0.4-0.9,0.7-1.4,1C1073,222.1,1072.3,222.3,1071.5,222.3z M1071.4,212.7
		c-0.8,0-1.5,0.3-2.1,0.9c-0.6,0.6-0.9,1.4-1,2.4l0,0h5.9v-0.3c0-0.9-0.3-1.6-0.8-2.2S1072.3,212.7,1071.4,212.7z"/>
	<path class="st15" d="M1083.6,216.4v5.7h-1.1v-13.6h4.7c1.4,0,2.5,0.4,3.3,1.1s1.2,1.7,1.2,2.9s-0.4,2.2-1.2,2.9
		c-0.8,0.7-1.9,1.1-3.3,1.1L1083.6,216.4L1083.6,216.4z M1083.6,215.5h3.6c1.1,0,2-0.3,2.5-0.9c0.6-0.6,0.8-1.3,0.8-2.2
		s-0.3-1.6-0.8-2.2s-1.4-0.9-2.5-0.9h-3.6V215.5z"/>
</g>
<g class="st14">
	<path class="st15" d="M1098.2,219.8l0.3,0.9h0.1l0.3-0.9l4.1-11.3h1.2l-5.1,13.6h-1.1l-5.1-13.6h1.2L1098.2,219.8z"/>
</g>
<g class="st14">
	<path class="st15" d="M1115.4,217.8L1115.4,217.8c-0.1,1.4-0.6,2.5-1.4,3.3c-0.9,0.8-2,1.2-3.4,1.2c-1.5,0-2.7-0.5-3.7-1.6
		s-1.4-2.5-1.4-4.2v-2.2c0-1.7,0.5-3.1,1.4-4.2c0.9-1.1,2.1-1.6,3.7-1.6c1.4,0,2.6,0.4,3.4,1.1c0.8,0.8,1.3,1.8,1.4,3.2v0.1h-1
		c-0.1-1.1-0.5-2-1.2-2.6c-0.6-0.6-1.5-0.9-2.7-0.9s-2.1,0.5-2.9,1.4s-1.1,2.1-1.1,3.5v2.2c0,1.5,0.4,2.6,1.1,3.6
		c0.7,0.9,1.7,1.4,2.9,1.4c1.1,0,2-0.3,2.7-0.9c0.6-0.6,1-1.5,1.2-2.6h1V217.8z"/>
	<path class="st15" d="M1130.8,217.3c0,1.5-0.3,2.7-1,3.6c-0.7,0.9-1.6,1.3-2.8,1.3c-0.7,0-1.4-0.1-1.9-0.4c-0.5-0.3-1-0.7-1.3-1.3
		l-0.1,1.5h-1v-14.6h1.1v6.1c0.3-0.6,0.8-1,1.3-1.3s1.1-0.5,1.9-0.5c1.2,0,2.2,0.5,2.8,1.5c0.7,1,1,2.3,1,3.9V217.3z M1129.7,217.1
		c0-1.3-0.2-2.3-0.7-3.2c-0.5-0.8-1.2-1.2-2.2-1.2c-0.8,0-1.4,0.2-1.9,0.6s-0.8,0.9-1.1,1.5v4.6c0.2,0.6,0.6,1.1,1.1,1.4
		c0.5,0.3,1.1,0.5,1.8,0.5c1,0,1.7-0.4,2.2-1.1c0.5-0.7,0.7-1.7,0.7-2.9L1129.7,217.1L1129.7,217.1z"/>
	<path class="st15" d="M1134.6,222.1h-1.1v-14.6h1.1V222.1z"/>
	<path class="st15" d="M1144.1,222.1c-0.1-0.3-0.1-0.6-0.2-0.9s0-0.5,0-0.8c-0.4,0.5-0.9,1-1.5,1.3s-1.3,0.5-2.1,0.5
		c-1,0-1.7-0.3-2.3-0.8c-0.5-0.5-0.8-1.2-0.8-2.1c0-0.9,0.4-1.7,1.2-2.2s1.9-0.8,3.3-0.8h2.2V215c0-0.7-0.2-1.3-0.7-1.7
		s-1.1-0.6-1.9-0.6s-1.4,0.2-1.9,0.6c-0.5,0.4-0.8,0.9-0.8,1.4h-1v-0.1c0-0.8,0.3-1.4,1-2s1.6-0.9,2.8-0.9c1.1,0,2,0.3,2.7,0.9
		s1,1.4,1,2.4v5c0,0.4,0,0.7,0.1,1c0,0.3,0.1,0.7,0.2,1h-1.3L1144.1,222.1L1144.1,222.1z M1140.4,221.3c0.8,0,1.5-0.2,2.1-0.6
		c0.6-0.4,1.1-0.9,1.3-1.4v-2.1h-2.3c-1,0-1.8,0.2-2.4,0.6c-0.6,0.4-0.9,1-0.9,1.6c0,0.5,0.2,1,0.6,1.3S1139.7,221.3,1140.4,221.3z"
		/>
	<path class="st15" d="M1148.9,212l0.1,1.8c0.3-0.6,0.8-1.1,1.3-1.4c0.6-0.3,1.2-0.5,2-0.5c1.1,0,1.9,0.3,2.5,1s0.9,1.7,0.9,3.1v6.2
		h-1.1V216c0-1.2-0.2-2-0.6-2.5s-1-0.7-1.8-0.7s-1.4,0.2-1.9,0.6c-0.5,0.4-0.9,1-1.1,1.7v7.1h-1.1V212H1148.9z"/>
	<path class="st15" d="M1162.3,221.3c0.7,0,1.4-0.2,2-0.6c0.6-0.4,0.9-1,0.9-1.8h1v0.1c0,0.9-0.3,1.7-1.1,2.3
		c-0.8,0.6-1.7,0.9-2.7,0.9c-1.4,0-2.4-0.5-3.2-1.4s-1.1-2.2-1.1-3.6v-0.4c0-1.5,0.4-2.7,1.1-3.6c0.8-0.9,1.8-1.4,3.2-1.4
		c1.1,0,2,0.3,2.8,1c0.7,0.7,1.1,1.5,1.1,2.6v0.1h-1c0-0.8-0.3-1.5-0.8-1.9c-0.5-0.5-1.2-0.7-2-0.7c-1.1,0-1.9,0.4-2.4,1.2
		s-0.8,1.7-0.8,2.9v0.4c0,1.2,0.3,2.2,0.8,2.9C1160.4,220.9,1161.2,221.3,1162.3,221.3z"/>
	<path class="st15" d="M1169.6,213.7c0.3-0.6,0.8-1.1,1.3-1.4s1.2-0.5,2-0.5c1.1,0,1.9,0.3,2.5,1s0.9,1.7,0.9,3.1v6.2h-1.1v-6.3
		c0-1.1-0.2-1.9-0.7-2.4c-0.4-0.5-1-0.7-1.8-0.7s-1.4,0.2-1.9,0.6c-0.5,0.4-0.9,0.9-1.1,1.6v7.1h-1.1v-14.6h1.1v6.3L1169.6,213.7
		L1169.6,213.7z"/>
	<path class="st15" d="M1182.9,222.3c-1.3,0-2.3-0.5-3.2-1.4c-0.8-0.9-1.3-2.1-1.3-3.5v-0.5c0-1.4,0.4-2.6,1.2-3.6
		c0.8-1,1.8-1.4,3-1.4s2.2,0.4,2.9,1.2c0.7,0.8,1.1,1.8,1.1,3.1v1h-7.1v0.3c0,1.1,0.3,2.1,0.9,2.9c0.6,0.8,1.4,1.1,2.4,1.1
		c0.7,0,1.3-0.1,1.8-0.3s0.9-0.5,1.3-0.8l0.5,0.8c-0.4,0.4-0.9,0.7-1.4,1C1184.4,222.1,1183.7,222.3,1182.9,222.3z M1182.8,212.7
		c-0.8,0-1.5,0.3-2.1,0.9c-0.6,0.6-0.9,1.4-1,2.4l0,0h5.9v-0.3c0-0.9-0.3-1.6-0.8-2.2C1184.4,213,1183.7,212.7,1182.8,212.7z"/>
</g>
<line class="st16" x1="789.5" y1="249" x2="789.5" y2="323.4"/>
<line class="st16" x1="994.2" y1="360.2" x2="994.2" y2="434.6"/>
<line class="st16" x1="1132.4" y1="240.4" x2="1132.4" y2="295.9"/>
<line class="st16" x1="881.6" y1="104.6" x2="881.6" y2="201.3"/>
<line class="st16" x1="951.2" y1="163.2" x2="951.2" y2="233.2"/>
<g class="st14">
	<path class="st15" d="M945.1,443.1h-4.7v12.6h-1.1v-12.6h-4.7v-1h10.5V443.1z"/>
</g>
<g class="st14">
	<path class="st15" d="M950.9,446.6l-0.8-0.1c-0.7,0-1.3,0.2-1.7,0.6c-0.5,0.4-0.8,0.9-1,1.6v7h-1.1v-10.1h1l0.1,1.7v0.1
		c0.3-0.6,0.7-1.1,1.2-1.5s1.1-0.5,1.8-0.5c0.1,0,0.3,0,0.4,0s0.2,0,0.3,0.1L950.9,446.6z"/>
</g>
<g class="st14">
	<path class="st15" d="M956.4,455.9c-1.3,0-2.3-0.5-3.2-1.4c-0.8-0.9-1.3-2.1-1.3-3.5v-0.5c0-1.4,0.4-2.6,1.2-3.6s1.8-1.4,3-1.4
		s2.2,0.4,2.9,1.2c0.7,0.8,1.1,1.8,1.1,3.1v1H953v0.3c0,1.1,0.3,2.1,0.9,2.9c0.6,0.8,1.4,1.1,2.4,1.1c0.7,0,1.3-0.1,1.8-0.3
		c0.5-0.2,0.9-0.5,1.3-0.8l0.5,0.8c-0.4,0.4-0.9,0.7-1.4,1C957.9,455.8,957.2,455.9,956.4,455.9z M956.2,446.4
		c-0.8,0-1.5,0.3-2.1,0.9s-0.9,1.4-1,2.4l0,0h5.9v-0.3c0-0.9-0.3-1.6-0.8-2.2S957.1,446.4,956.2,446.4z"/>
	<path class="st15" d="M968.5,453.2c0-0.5-0.2-0.9-0.6-1.2c-0.4-0.4-1.1-0.6-2.1-0.9c-1.2-0.3-2.1-0.6-2.7-1s-0.9-1-0.9-1.8
		s0.3-1.4,1-2c0.7-0.5,1.5-0.8,2.6-0.8s2,0.3,2.7,0.8c0.7,0.6,1,1.3,1,2.1v0.1h-1c0-0.6-0.2-1-0.7-1.4s-1.1-0.6-1.9-0.6
		c-0.8,0-1.4,0.2-1.8,0.5c-0.4,0.3-0.6,0.8-0.6,1.2c0,0.5,0.2,0.8,0.5,1.2s1.1,0.6,2.1,0.8c1.2,0.3,2.1,0.6,2.7,1.1s0.9,1.1,0.9,1.9
		s-0.3,1.5-1,2s-1.6,0.8-2.7,0.8c-1.2,0-2.2-0.3-2.9-0.9s-1-1.3-1-2.1v-0.1h1c0,0.7,0.3,1.3,0.9,1.6c0.6,0.3,1.2,0.5,1.9,0.5
		c0.8,0,1.4-0.2,1.9-0.5C968.3,454.1,968.5,453.7,968.5,453.2z"/>
	<path class="st15" d="M978.2,453.2c0-0.5-0.2-0.9-0.6-1.2c-0.4-0.4-1.1-0.6-2.1-0.9c-1.2-0.3-2.1-0.6-2.7-1c-0.6-0.4-0.9-1-0.9-1.8
		s0.3-1.4,1-2c0.7-0.5,1.5-0.8,2.6-0.8s2,0.3,2.7,0.8c0.7,0.6,1,1.3,1,2.1v0.1h-1c0-0.6-0.2-1-0.7-1.4s-1.1-0.6-1.9-0.6
		c-0.8,0-1.4,0.2-1.8,0.5c-0.4,0.3-0.6,0.8-0.6,1.2c0,0.5,0.2,0.8,0.5,1.2c0.4,0.3,1.1,0.6,2.1,0.8c1.2,0.3,2.1,0.6,2.7,1.1
		c0.6,0.5,0.9,1.1,0.9,1.9s-0.3,1.5-1,2s-1.6,0.8-2.7,0.8c-1.2,0-2.2-0.3-2.9-0.9s-1-1.3-1-2.1v-0.1h1c0,0.7,0.3,1.3,0.9,1.6
		c0.6,0.3,1.2,0.5,1.9,0.5c0.8,0,1.4-0.2,1.9-0.5C978,454.1,978.2,453.7,978.2,453.2z"/>
	<path class="st15" d="M985.7,455.9c-1.3,0-2.3-0.5-3.2-1.4c-0.8-0.9-1.3-2.1-1.3-3.5v-0.5c0-1.4,0.4-2.6,1.2-3.6s1.8-1.4,3-1.4
		s2.2,0.4,2.9,1.2c0.7,0.8,1.1,1.8,1.1,3.1v1h-7.1v0.3c0,1.1,0.3,2.1,0.9,2.9c0.6,0.8,1.4,1.1,2.4,1.1c0.7,0,1.3-0.1,1.8-0.3
		c0.5-0.2,0.9-0.5,1.3-0.8l0.5,0.8c-0.4,0.4-0.9,0.7-1.4,1C987.2,455.8,986.5,455.9,985.7,455.9z M985.6,446.4
		c-0.8,0-1.5,0.3-2.1,0.9s-0.9,1.4-1,2.4l0,0h5.9v-0.3c0-0.9-0.3-1.6-0.8-2.2C987.2,446.7,986.5,446.4,985.6,446.4z"/>
	<path class="st15" d="M1004.1,452h-6.2l-1.4,3.8h-1.2l5.2-13.6h1.1l5.1,13.6h-1.2L1004.1,452z M998.2,451h5.5l-2.7-7.4h-0.1
		L998.2,451z"/>
	<path class="st15" d="M1009.6,455.8h-1.1v-14.6h1.1V455.8z"/>
	<path class="st15" d="M1019.4,454.1c-0.3,0.6-0.8,1-1.3,1.4c-0.5,0.3-1.2,0.5-1.9,0.5c-1.1,0-1.9-0.4-2.5-1.1s-0.9-1.8-0.9-3.4
		v-5.9h1.1v5.9c0,1.2,0.2,2.1,0.6,2.7c0.4,0.5,1,0.8,1.8,0.8s1.5-0.2,2-0.6s0.9-0.9,1.1-1.6v-7.2h1.1v10.1h-1L1019.4,454.1z"/>
	<path class="st15" d="M1024.3,445.6l0.1,1.7c0.3-0.6,0.8-1,1.3-1.4c0.5-0.3,1.2-0.5,1.9-0.5c0.8,0,1.4,0.2,1.9,0.6s0.9,0.9,1.1,1.7
		c0.3-0.7,0.7-1.3,1.3-1.7c0.6-0.4,1.2-0.6,2.1-0.6c1.1,0,1.9,0.4,2.5,1.1s0.9,1.8,0.9,3.3v5.9h-1.1v-5.9c0-1.2-0.2-2.1-0.7-2.6
		c-0.4-0.5-1.1-0.8-1.8-0.8c-0.9,0-1.5,0.3-2,0.8s-0.8,1.2-0.9,2.1c0,0,0,0.1,0,0.2s0,0.1,0,0.2v6.1h-1.1v-5.9
		c0-1.2-0.2-2.1-0.7-2.6s-1.1-0.8-1.8-0.8c-0.8,0-1.4,0.2-1.9,0.6s-0.8,0.9-1,1.6v7.1h-1.1v-10.1h1L1024.3,445.6L1024.3,445.6z"/>
	<path class="st15" d="M1041.6,442.7h-1.1v-1.6h1.1V442.7z M1041.6,455.8h-1.1v-10.1h1.1V455.8z"/>
	<path class="st15" d="M1045.7,445.6l0.1,1.8c0.3-0.6,0.8-1.1,1.3-1.4c0.6-0.3,1.2-0.5,2-0.5c1.1,0,1.9,0.3,2.5,1s0.9,1.7,0.9,3.1
		v6.2h-1.1v-6.2c0-1.2-0.2-2-0.6-2.5s-1-0.7-1.8-0.7s-1.4,0.2-1.9,0.6s-0.9,1-1.1,1.7v7.1h-1.1v-10.1h0.8L1045.7,445.6L1045.7,445.6
		z"/>
	<path class="st15" d="M1056.6,442.7h-1.1v-1.6h1.1V442.7z M1056.6,455.8h-1.1v-10.1h1.1V455.8z"/>
	<path class="st15" d="M1066.3,454.1c-0.3,0.6-0.8,1-1.3,1.4c-0.5,0.3-1.2,0.5-1.9,0.5c-1.1,0-1.9-0.4-2.5-1.1s-0.9-1.8-0.9-3.4
		v-5.9h1.1v5.9c0,1.2,0.2,2.1,0.6,2.7c0.4,0.5,1,0.8,1.8,0.8s1.5-0.2,2-0.6s0.9-0.9,1.1-1.6v-7.2h1.1v10.1h-1L1066.3,454.1z"/>
	<path class="st15" d="M1071.3,445.6l0.1,1.7c0.3-0.6,0.8-1,1.3-1.4c0.5-0.3,1.2-0.5,1.9-0.5c0.8,0,1.4,0.2,1.9,0.6s0.9,0.9,1.1,1.7
		c0.3-0.7,0.7-1.3,1.3-1.7c0.6-0.4,1.2-0.6,2.1-0.6c1.1,0,1.9,0.4,2.5,1.1s0.9,1.8,0.9,3.3v5.9h-1.1v-5.9c0-1.2-0.2-2.1-0.7-2.6
		c-0.4-0.5-1.1-0.8-1.8-0.8c-0.9,0-1.5,0.3-2,0.8s-0.8,1.2-0.9,2.1c0,0,0,0.1,0,0.2s0,0.1,0,0.2v6.1h-1.1v-5.9
		c0-1.2-0.2-2.1-0.7-2.6s-1.1-0.8-1.8-0.8c-0.8,0-1.4,0.2-1.9,0.6s-0.8,0.9-1,1.6v7.1h-1.1v-10.1h1L1071.3,445.6L1071.3,445.6z"/>
</g>
</svg>
