<?xml version="1.0" encoding="utf-8"?>
<!-- Generator: Adobe Illustrator 21.0.0, SVG Export Plug-In . SVG Version: 6.00 Build 0)  -->
<svg version="1.1" id="图层_1" xmlns="http://www.w3.org/2000/svg" xmlns:xlink="http://www.w3.org/1999/xlink" x="0px" y="0px"
	 viewBox="0 0 1440 540" style="enable-background:new 0 0 1440 540;" xml:space="preserve">
<style type="text/css">
	.st0{fill:none;stroke:#18244A;stroke-miterlimit:10;}
	.st1{fill:#B0B0B1;}
	.st2{fill:#EFF6E6;}
	.st3{fill:#8B9294;}
	.st4{fill:#2CA6E0;}
	.st5{fill:#182987;}
	.st6{fill:#19254A;}
	.st7{fill:#137EAB;}
	.st8{fill:#D6AD3C;}
	.st9{fill:#CA9A0C;}
	.st10{fill:#DBDCDC;}
	.st11{fill:#B4B4B5;}
	.st12{fill:#FFF000;}
	.st13{fill:url(#SVGID_1_);}
	.st14{fill:none;}
	.st15{fill:none;stroke:#E5F3F5;stroke-width:0.2;stroke-miterlimit:10;}
	.st16{fill:none;stroke:#B5C9CE;stroke-width:0.2;stroke-miterlimit:10;}
	.st17{fill:url(#SVGID_2_);}
	.st18{fill:none;stroke:#B0B0B1;stroke-width:0.2;stroke-miterlimit:10;}
	.st19{fill:url(#SVGID_3_);}
	.st20{fill:url(#SVGID_4_);}
	.st21{enable-background:new    ;}
	.st22{fill:#18244A;}
</style>
<title>未标题-1</title>
<line class="st0" x1="530.5" y1="76.5" x2="530.5" y2="146.6"/>
<polyline class="st0" points="690.1,416.3 690.1,191.3 666.3,191.3 "/>
<line class="st0" x1="570.8" y1="257.4" x2="570.8" y2="307.6"/>
<line class="st0" x1="387.4" y1="166.5" x2="387.4" y2="231.8"/>
<line class="st0" x1="437.5" y1="303.4" x2="437.5" y2="394.6"/>
<g>
	<path class="st1" d="M411.1,308.7c-5.3,2.3-19.9-10.5-30.7-35.8s-10-44.6-4.6-46.9s19.9,10.5,30.7,35.8
		C417.3,287.1,416.5,306.5,411.1,308.7z"/>
	<path class="st2" d="M409.6,260.5c-10.2-23.9-25.5-40.4-34.5-37.6l1.3,3c5.7-1.1,19.6,11.6,30,35.9s10,43.2,5.2,46.5l1.3,3
		C421.2,306.8,419.9,284.4,409.6,260.5z"/>
	<path class="st3" d="M473.6,267.6c-3.8,1.6-14.4-7.6-22.2-25.9s-7.2-32.3-3.4-33.9s14.4,7.6,22.2,25.9S477.5,266,473.6,267.6z"/>
	<path class="st1" d="M472.8,232.9c-7.4-17.3-18.4-29.2-24.9-27.2l0.9,2.2c4.1-0.8,14.2,8.4,21.7,26s7.2,31.2,3.8,33.7l0.9,2.1
		C481.2,266.4,480.2,250.2,472.8,232.9z"/>
	<g>
		<g>
			<g>
				<path class="st4" d="M313.5,313.1l-4.4-8.1c8.6-4.5,15.3-8.7,21.7-12.8c13.2-8.4,25.6-16.2,51.5-23.8l2.5,8.9
					c-24.5,7.1-35.8,14.3-48.8,22.6C329.3,304,322.5,308.4,313.5,313.1z"/>
				<path class="st4" d="M664.2,210.8c-27.9-0.4-53,0-79.9,8.3l-2.7-8.8c28.2-8.8,54.4-9.2,83.1-8.8L664.2,210.8z"/>
				<path class="st4" d="M487.1,262.1c-30.6,8.9-47.4,9.3-62.2,9.7c-12.4,0.3-23.1,0.5-40.1,5.5l-2.5-8.9
					c18.3-5.3,30.2-5.6,42.7-5.9c14.9-0.4,30.3-0.7,59.6-9.3L487.1,262.1z"/>
				<path class="st5" d="M591.3,232.3c-1,0.3-2.1,0.6-3.2,0.9c-14.8,4-28.1,4.9-42.2,5.9c-17.2,1.2-36.7,2.5-62.5,10
					c-29.3,8.5-42.5,16.5-55.3,24.2c-10.8,6.5-21,12.6-39.3,18c-25.9,7.5-40.6,7.5-56.1,7.5c-7.6,0-15.4,0-25.1,0.8l-0.6-9.2
					c10.1-0.9,18.2-0.9,26-0.9c15.5,0,28.8,0,53.3-7.1c17-5,26.2-10.5,36.9-16.9c12.7-7.7,27.1-16.4,57.7-25.3
					c26.9-7.8,47-9.2,64.7-10.4c13.6-0.9,26.5-1.8,40.3-5.6c27.2-7.3,48.7-20.6,72-35.9l5.3,7.6
					C639.8,211.1,618.3,224.4,591.3,232.3z"/>
				<path class="st4" d="M487.1,262.1l-2.5-8.9c25.8-7.5,43-16.9,58.2-25.1c12.5-6.8,24.2-13.2,38.8-17.7l2.7,8.8
					c-13.7,4.2-25,10.4-37,16.9C531.7,244.6,513.9,254.2,487.1,262.1z"/>
				<path class="st6" d="M661.5,191.3c1.4,2.1,2,4.1,1.3,4.5s-2.4-0.9-3.8-2.9s-2-4.1-1.3-4.5S660,189.3,661.5,191.3z"/>
				<path class="st7" d="M665.9,206.3c-0.2,2.5-1,4.5-1.8,4.5s-1.3-2.1-1.1-4.6s1-4.5,1.8-4.4S666.1,203.8,665.9,206.3z"/>
			</g>
			<g>
				<path class="st8" d="M659.2,190.6L659.2,190.6c-0.2,0.2,0,1,0.7,1.8s1.3,1.3,1.6,1.2l0,0l4.9-3.4l-2.3-3L659.2,190.6z"/>
				<path class="st9" d="M665.6,188.5c0.6,0.8,1,1.6,0.8,1.8s-0.9-0.4-1.5-1.3s-1-1.6-0.8-1.8S665,187.6,665.6,188.5z"/>
			</g>
			<g>
				<path class="st8" d="M664.8,204.4L664.8,204.4c-0.3,0-0.7,0.8-0.8,1.8s0,1.9,0.4,1.9l0,0l5.9,0.4l0.4-3.8L664.8,204.4z"/>
				<path class="st9" d="M671,206.7c-0.1,1-0.4,1.9-0.7,1.9s-0.4-0.9-0.2-1.9s0.4-1.9,0.6-1.9S671,205.6,671,206.7z"/>
			</g>
		</g>
		<g>
			<g>
				<path class="st4" d="M312.8,311l-5.1-7.7c8.2-5.2,14.5-10,20.5-14.6c12.4-9.5,24.1-18.4,49.2-28.2l3.3,8.6
					c-23.8,9.2-34.4,17.4-46.7,26.8C327.8,300.6,321.4,305.5,312.8,311z"/>
				<path class="st4" d="M653.2,178.5c-27.8,2-52.8,4.6-78.9,15.3l-3.5-8.5c27.3-11.2,53.4-13.9,82-16L653.2,178.5z"/>
				<path class="st4" d="M481.2,245c-29.7,11.6-46.4,13.4-61.1,15c-12.3,1.4-23,2.6-39.5,9l-3.3-8.6c17.8-6.9,29.6-8.2,42-9.6
					c14.8-1.6,30.1-3.4,58.6-14.4L481.2,245z"/>
				<path class="st10" d="M582.5,206.3c-1,0.4-2,0.8-3.1,1.2c-14.4,5.3-27.6,7.4-41.6,9.5c-17,2.7-36.4,5.7-61.4,15.4
					c-28.5,11.1-40.9,20.1-53,28.9c-10.2,7.4-19.8,14.4-37.6,21.3c-25.1,9.8-39.7,11-55.2,12.4c-7.5,0.7-15.4,1.3-25,3l-1.4-9.1
					c10-1.8,18.1-2.5,25.8-3.1c15.4-1.3,28.7-2.5,52.4-11.7c16.5-6.4,25.2-12.7,35.2-20.1c12-8.7,25.6-18.6,55.3-30.2
					c26.1-10.1,46-13.2,63.6-16c13.5-2.1,26.2-4.1,39.6-9c26.5-9.6,46.7-24.8,68.6-42.1l5.9,7.1C629,181,608.7,196.1,582.5,206.3z"
					/>
				<path class="st4" d="M481.2,245l-3.3-8.6c25.1-9.7,41.4-20.6,55.8-30.1c11.8-7.8,23-15.2,37.1-21l3.5,8.5
					c-13.2,5.4-24,12.6-35.4,20.1C524.1,223.7,507.3,234.9,481.2,245z"/>
				<path class="st11" d="M648.8,159.3c1.6,1.9,2.3,3.9,1.7,4.4s-2.5-0.6-4-2.5s-2.3-3.9-1.7-4.4S647.2,157.4,648.8,159.3z"/>
				<path class="st7" d="M654.6,173.8c0,2.5-0.6,4.6-1.5,4.6s-1.5-2-1.5-4.4s0.6-4.6,1.5-4.6S654.5,171.3,654.6,173.8z"/>
			</g>
			<g>
				<path class="st8" d="M646.5,158.9L646.5,158.9c-0.2,0.2,0.1,1,0.8,1.8s1.4,1.2,1.7,1.1l0,0l4.6-3.8l-2.5-2.8L646.5,158.9z"/>
				<path class="st9" d="M652.7,156.2c0.7,0.8,1.1,1.6,0.9,1.7s-0.9-0.4-1.6-1.1s-1.1-1.5-0.9-1.7S652,155.4,652.7,156.2z"/>
			</g>
			<g>
				<path class="st8" d="M653.3,172.1L653.3,172.1c-0.3,0-0.6,0.9-0.6,1.9s0.2,1.9,0.5,1.9l0,0l5.9-0.1v-3.8L653.3,172.1z"/>
				<path class="st9" d="M659.6,173.8c0,1.1-0.2,1.9-0.5,1.9s-0.5-0.9-0.4-1.9s0.2-1.9,0.5-1.9S659.6,172.8,659.6,173.8z"/>
			</g>
		</g>
		<g>
			<g>
				<path class="st4" d="M312.5,308.3l-5.7-7.2c7.7-6,13.5-11.3,19.1-16.4c11.5-10.5,22.4-20.4,46.5-32.4l4,8.3
					c-22.9,11.3-32.7,20.3-44.1,30.7C326.6,296.6,320.6,302.1,312.5,308.3z"/>
				<path class="st4" d="M640.2,146.7c-27.5,4.5-52.2,9.2-77.3,22.1l-4.2-8.2c26.2-13.6,51.9-18.5,80.3-23.1L640.2,146.7z"/>
				<path class="st4" d="M474.6,227.9c-28.6,14.1-45,17.4-59.6,20.3c-12.2,2.4-22.6,4.6-38.6,12.4l-4-8.3
					c17.1-8.4,28.8-10.8,41.1-13.2c14.6-2.9,29.7-6,57.1-19.5L474.6,227.9z"/>
				<path class="st12" d="M572.1,180.5c-1,0.5-2,1-3,1.4c-13.9,6.5-26.8,9.7-40.6,13.1c-16.8,4.1-35.7,8.8-59.8,20.7
					c-27.4,13.5-39,23.6-50.3,33.4c-9.5,8.3-18.5,16.1-35.5,24.5c-24.2,11.9-38.6,14.5-54,17.2c-7.5,1.3-15.2,2.7-24.6,5.2l-2.1-9
					c9.8-2.6,17.8-4,25.5-5.4c15.2-2.7,28.3-5,51.2-16.3c15.9-7.8,24-14.9,33.4-23.1c11.2-9.7,23.9-20.8,52.5-34.9
					c25.1-12.4,44.7-17.2,61.9-21.5c13.2-3.3,25.7-6.4,38.7-12.5c25.5-11.9,44.3-28.8,64.7-47.9l6.5,6.5
					C616.2,151.2,597.4,168,572.1,180.5z"/>
				<path class="st4" d="M474.6,227.9l-4-8.3c24.1-11.9,39.4-24.1,52.9-34.9c11.1-8.8,21.5-17.2,35.2-24.2l4.2,8.2
					c-12.7,6.6-22.8,14.6-33.5,23.1C515.5,203,499.7,215.5,474.6,227.9z"/>
				<path class="st8" d="M634.1,128c1.7,1.8,2.7,3.7,2.1,4.2s-2.5-0.4-4.3-2.2s-2.7-3.7-2.1-4.2S632.3,126.2,634.1,128z"/>
				<path class="st7" d="M641.1,141.9c0.2,2.5-0.2,4.6-1,4.7s-1.7-1.8-1.9-4.3s0.2-4.6,1-4.7S640.8,139.4,641.1,141.9z"/>
			</g>
			<g>
				<path class="st8" d="M631.8,127.7L631.8,127.7c-0.2,0.2,0.2,1,1,1.7s1.5,1.1,1.8,0.9l0,0l4.2-4.2l-2.8-2.6L631.8,127.7z"/>
				<path class="st9" d="M637.7,124.4c0.8,0.7,1.2,1.4,1.1,1.6s-0.9-0.3-1.7-1s-1.2-1.4-1.1-1.6S636.9,123.7,637.7,124.4z"/>
			</g>
			<g>
				<path class="st8" d="M639.6,140.3L639.6,140.3c-0.3,0.1-0.5,0.9-0.4,2s0.4,1.8,0.7,1.8l0,0l5.9-0.7l-0.3-3.8L639.6,140.3z"/>
				<path class="st9" d="M646.1,141.5c0.1,1.1-0.1,1.9-0.3,2s-0.5-0.8-0.6-1.9s0.1-1.9,0.3-1.9S646,140.4,646.1,141.5z"/>
			</g>
		</g>
	</g>
	
		<linearGradient id="SVGID_1_" gradientUnits="userSpaceOnUse" x1="12642.1289" y1="-1192.5371" x2="12947.5195" y2="-1169.7871" gradientTransform="matrix(-0.76 0.65 0.65 0.76 11008.0713 -7266.5264)">
		<stop  offset="0.2" style="stop-color:#C3CFD4"/>
		<stop  offset="0.29" style="stop-color:#EDEEEE"/>
		<stop  offset="0.37" style="stop-color:#C3CFD4"/>
		<stop  offset="0.44" style="stop-color:#EFF6E6"/>
		<stop  offset="0.61" style="stop-color:#C3CFD4"/>
	</linearGradient>
	<path class="st13" d="M589.6,121.1c0.3-0.1,0.7,0,1,0.1c0.9,0.4,1.5,1.6,0.8,2.3c-19.1,20.5-49.6,39.7-71.5,52.8
		c-5.2,3.1-9.8,5.9-13.4,8.2c-11.1,7.4-30.7,16.4-49.6,25c-17.3,7.9-33.7,15.4-43.7,21.7c-18,11.1-65.8,40.7-78.5,63.8
		c-0.5,0.9-1.5,1.2-2.4,0.8c-0.8-0.4-1.2-1.4-0.8-2.2c0,0,0-0.1,0.1-0.1c11.7-21.2,48.8-46,79.8-65.2c10.2-6.3,26.7-13.9,44.1-21.9
		c18.8-8.6,38.2-17.5,49.1-24.8c3.7-2.4,8.2-5.1,13.5-8.3c21.6-12.9,53.1-33.6,70.1-51.3C588.5,121.6,589,121.3,589.6,121.1z"/>
	<path class="st14" d="M451.5,241.7c7.8,18.3,18.4,27.5,22.2,25.9c0.1-0.1,0.3-0.2,0.4-0.3l-25.5-59.6c-0.2,0-0.3,0.1-0.5,0.1
		C444.3,209.4,443.6,223.5,451.5,241.7z"/>
	<path class="st15" d="M365.2,241.6c16.8-2.6,34.3,5.7,47.9,15c13.8,9.5,43.3,21.5,57.5,14.7"/>
	<path class="st16" d="M365.8,240.9c16.8-2.6,34.3,5.7,47.9,15c13.8,9.5,43.3,21.5,57.5,14.7"/>
	
		<linearGradient id="SVGID_2_" gradientUnits="userSpaceOnUse" x1="591.5216" y1="2480.0881" x2="591.5216" y2="2549.7764" gradientTransform="matrix(0.9196 -0.3928 -0.3928 -0.9196 713.0865 2865.0127)">
		<stop  offset="0" style="stop-color:#8B9294"/>
		<stop  offset="0.2" style="stop-color:#878888"/>
		<stop  offset="0.6" style="stop-color:#D0D1D1"/>
		<stop  offset="0.73" style="stop-color:#FFFFFF"/>
		<stop  offset="0.94" style="stop-color:#878888"/>
	</linearGradient>
	<path class="st17" d="M449.5,242.9c-7.3-17.2-8.4-33.2-2.5-36.7v-0.1L64,369.6l27.4,64.1l382.9-163.6v-0.1
		C467.7,271.9,456.8,260,449.5,242.9z"/>
	<path class="st14" d="M451.7,241.9c7.8,18.3,18.4,27.5,22.2,25.9c0.1-0.1,0.3-0.2,0.4-0.2l-25.5-59.6c-0.2,0-0.3,0-0.5,0.1
		C444.5,209.6,443.9,223.6,451.7,241.9z"/>
	<path class="st1" d="M473.9,267.8c-3.8,1.6-14.4-7.6-22.2-25.9s-7.2-32.3-3.4-33.9c0.1-0.1,0.3-0.1,0.5-0.1l-0.9-2.2
		c-0.1,0-0.3,0.1-0.4,0.1c-6.5,2.8-5.5,19.3,2,37c7.5,17.7,18.9,29.8,25.4,27.1c0.1-0.1,0.3-0.2,0.4-0.2l-0.9-2.1
		C474.2,267.6,474,267.7,473.9,267.8z"/>
	<g>
		<path class="st15" d="M365.4,241.8c16.8-2.6,34.3,5.7,47.9,15c13.8,9.5,43.3,21.5,57.5,14.7"/>
		<path class="st18" d="M366.1,241.1c16.8-2.6,34.3,5.7,47.9,15c13.8,9.5,43.3,21.5,57.5,14.7"/>
	</g>
	<g>
		<path class="st15" d="M262.6,285.7c16.8-2.5,34.3,5.7,47.9,15c13.8,9.5,43.3,21.5,57.5,14.7"/>
		<path class="st18" d="M263.2,285c16.8-2.6,34.3,5.7,47.9,15c13.8,9.5,43.3,21.5,57.5,14.7"/>
	</g>
	<g>
		<path class="st15" d="M122.7,345.5c16.8-2.5,34.3,5.7,47.8,15c13.8,9.5,43.3,21.5,57.5,14.7"/>
		<path class="st16" d="M123.3,344.8c16.8-2.5,34.3,5.7,47.8,15c13.8,9.5,43.3,21.5,57.5,14.7"/>
	</g>
	
		<linearGradient id="SVGID_3_" gradientUnits="userSpaceOnUse" x1="649.1146" y1="2477.9692" x2="960.4039" y2="2477.9692" gradientTransform="matrix(0.9196 -0.3928 -0.3928 -0.9196 713.0865 2865.0127)">
		<stop  offset="0" style="stop-color:#D0D1D1"/>
		<stop  offset="0.17" style="stop-color:#EDEEEE"/>
		<stop  offset="1" style="stop-color:#BCBFC0"/>
	</linearGradient>
	<path class="st19" d="M332.6,319.7c-0.3,0-0.7-0.2-0.9-0.4c-0.7-0.6-0.7-1.7-0.1-2.3c0,0,0,0,0.1-0.1
		c20.1-20.2,57.6-29.5,82.4-35.6c5.9-1.5,11.1-2.7,15.2-3.9c12.8-3.8,34.1-6.6,54.6-9.3c18.8-2.5,36.6-4.8,48-7.8
		c20.4-5.4,74.8-19.6,94-38.1c0.7-0.7,1.8-0.7,2.5,0c0.7,0.6,0.7,1.7,0,2.4c0,0,0,0-0.1,0.1c-17.7,16.9-60.4,29.7-95.7,39
		c-11.6,3-29.5,5.4-48.5,7.9c-20.4,2.7-41.5,5.5-54.1,9.2c-4.2,1.2-9.4,2.5-15.3,4c-24.4,6-61.2,15.1-80.6,34.6
		C333.8,319.7,333.2,319.8,332.6,319.7z"/>
	
		<linearGradient id="SVGID_4_" gradientUnits="userSpaceOnUse" x1="479.4918" y1="2562.5527" x2="479.4918" y2="2466.2051" gradientTransform="matrix(0.9196 -0.3928 -0.3928 -0.9196 713.0865 2865.0127)">
		<stop  offset="0" style="stop-color:#5F5E5D"/>
		<stop  offset="0.2" style="stop-color:#B0B0B1"/>
		<stop  offset="0.3" style="stop-color:#C2C2C5"/>
		<stop  offset="0.66" style="stop-color:#8B9294"/>
		<stop  offset="0.91" style="stop-color:#5F5E5D"/>
	</linearGradient>
	<path class="st20" d="M377.4,274.3c-10.1-23.8-11.6-46-3.5-50.8v-0.1L-79,416.8l37.8,88.6L411.6,312v-0.1
		C402.6,314.4,387.5,298,377.4,274.3z"/>
	<path class="st14" d="M380.5,272.9c10.8,25.2,25.4,38,30.7,35.8c0.2-0.1,0.4-0.2,0.5-0.4l-35.2-82.5c-0.2,0-0.4,0.1-0.6,0.1
		C370.5,228.3,369.7,247.7,380.5,272.9z"/>
	<path class="st2" d="M411.1,308.7c-5.3,2.3-19.9-10.5-30.7-35.8s-10-44.6-4.6-46.9c0.2-0.1,0.4-0.1,0.6-0.1l-1.3-3
		c-0.2,0.1-0.4,0.1-0.6,0.2c-8.9,3.8-7.7,26.7,2.8,51.2s26.1,41.2,35.1,37.4c0.2-0.1,0.4-0.2,0.5-0.3l-1.3-3
		C411.5,308.5,411.3,308.6,411.1,308.7z"/>
</g>
<g class="st21">
	<path class="st22" d="M412.1,60h-6.6v6.4h-1.1V52.7h8.7v1h-7.6V59h6.6V60z"/>
	<path class="st22" d="M416.3,53.3h-1.1v-1.6h1.1V53.3z M416.3,66.3h-1.1V56.2h1.1V66.3z"/>
	<path class="st22" d="M420.7,66.3h-1.1V51.8h1.1V66.3z"/>
	<path class="st22" d="M428,61.4c0-1.6,0.3-2.9,1-3.9c0.7-1,1.6-1.5,2.9-1.5c0.7,0,1.3,0.1,1.8,0.4c0.5,0.3,0.9,0.7,1.3,1.3v-6h1.1
		v14.6h-1l-0.1-1.5c-0.3,0.5-0.8,0.9-1.3,1.2s-1.2,0.4-1.9,0.4c-1.2,0-2.2-0.5-2.8-1.3c-0.7-0.9-1-2.1-1-3.6V61.4z M429.1,61.6
		c0,1.2,0.2,2.2,0.7,2.9c0.5,0.7,1.2,1.1,2.2,1.1c0.7,0,1.3-0.2,1.8-0.5c0.5-0.3,0.9-0.8,1.1-1.4V59c-0.3-0.6-0.6-1.1-1.1-1.4
		c-0.5-0.4-1.1-0.5-1.8-0.5c-1,0-1.7,0.4-2.2,1.2c-0.5,0.8-0.7,1.9-0.7,3.2V61.6z"/>
	<path class="st22" d="M442.9,66.5c-1.3,0-2.3-0.5-3.2-1.4c-0.8-0.9-1.3-2.1-1.3-3.5v-0.5c0-1.4,0.4-2.6,1.2-3.6
		c0.8-1,1.8-1.4,3-1.4c1.2,0,2.2,0.4,2.9,1.2c0.7,0.8,1.1,1.8,1.1,3.1v1h-7.1v0.3c0,1.1,0.3,2.1,0.9,2.9c0.6,0.8,1.4,1.1,2.4,1.1
		c0.7,0,1.3-0.1,1.8-0.3c0.5-0.2,0.9-0.5,1.3-0.8l0.5,0.8c-0.4,0.4-0.9,0.7-1.4,1C444.4,66.4,443.7,66.5,442.9,66.5z M442.7,57
		c-0.8,0-1.5,0.3-2.1,0.9c-0.6,0.6-0.9,1.4-1,2.4l0,0h5.9v-0.3c0-0.9-0.3-1.6-0.8-2.2C444.3,57.3,443.6,57,442.7,57z"/>
	<path class="st22" d="M457.3,65.6c0.7,0,1.4-0.2,2-0.6c0.6-0.4,0.9-1,0.9-1.8h1l0,0.1c0,0.9-0.3,1.7-1.1,2.3s-1.7,0.9-2.7,0.9
		c-1.4,0-2.4-0.5-3.2-1.4c-0.8-0.9-1.1-2.2-1.1-3.6v-0.4c0-1.5,0.4-2.7,1.1-3.6c0.8-0.9,1.8-1.4,3.2-1.4c1.1,0,2,0.3,2.8,1
		c0.7,0.7,1.1,1.5,1.1,2.6l0,0.1h-1c0-0.8-0.3-1.5-0.8-1.9c-0.5-0.5-1.2-0.7-2-0.7c-1.1,0-1.9,0.4-2.4,1.2c-0.5,0.8-0.8,1.7-0.8,2.9
		v0.4c0,1.2,0.3,2.2,0.8,2.9C455.4,65.2,456.2,65.6,457.3,65.6z"/>
	<path class="st22" d="M462.9,61.1c0-1.5,0.4-2.7,1.2-3.7c0.8-1,1.9-1.4,3.2-1.4c1.4,0,2.4,0.5,3.3,1.4c0.8,1,1.2,2.2,1.2,3.7v0.3
		c0,1.5-0.4,2.7-1.2,3.7c-0.8,1-1.9,1.4-3.2,1.4c-1.4,0-2.4-0.5-3.3-1.4c-0.8-0.9-1.2-2.2-1.2-3.7V61.1z M464,61.4
		c0,1.2,0.3,2.2,0.9,2.9c0.6,0.8,1.4,1.2,2.5,1.2c1,0,1.9-0.4,2.5-1.2c0.6-0.8,0.9-1.8,0.9-2.9v-0.3c0-1.2-0.3-2.1-0.9-2.9
		c-0.6-0.8-1.4-1.2-2.5-1.2s-1.9,0.4-2.5,1.2c-0.6,0.8-0.9,1.8-0.9,2.9V61.4z"/>
	<path class="st22" d="M475.1,56.2l0.1,1.8c0.3-0.6,0.8-1.1,1.3-1.4c0.6-0.3,1.2-0.5,2-0.5c1.1,0,1.9,0.3,2.5,1
		c0.6,0.7,0.9,1.7,0.9,3.1v6.2h-1.1v-6.2c0-1.2-0.2-2-0.6-2.5c-0.4-0.5-1-0.7-1.8-0.7c-0.8,0-1.4,0.2-1.9,0.6
		c-0.5,0.4-0.9,1-1.1,1.7v7.1h-1.1V56.2H475.1z"/>
	<path class="st22" d="M486.6,53.6v2.6h2.2v0.9h-2.2v6.6c0,0.7,0.1,1.1,0.4,1.4s0.6,0.4,1,0.4c0.2,0,0.4,0,0.5,0s0.4,0,0.6-0.1
		l0.2,0.8c-0.2,0.1-0.4,0.1-0.7,0.2c-0.3,0-0.5,0.1-0.8,0.1c-0.7,0-1.3-0.2-1.7-0.7s-0.6-1.2-0.6-2.1v-6.6h-1.7v-0.9h1.7v-2.6H486.6
		z"/>
	<path class="st22" d="M492.4,53.3h-1.1v-1.6h1.1V53.3z M492.4,66.3h-1.1V56.2h1.1V66.3z"/>
	<path class="st22" d="M496.5,56.2l0.1,1.8c0.3-0.6,0.8-1.1,1.3-1.4c0.6-0.3,1.2-0.5,2-0.5c1.1,0,1.9,0.3,2.5,1
		c0.6,0.7,0.9,1.7,0.9,3.1v6.2h-1.1v-6.2c0-1.2-0.2-2-0.6-2.5c-0.4-0.5-1-0.7-1.8-0.7c-0.8,0-1.4,0.2-1.9,0.6
		c-0.5,0.4-0.9,1-1.1,1.7v7.1h-1.1V56.2H496.5z"/>
	<path class="st22" d="M512.8,64.7c-0.3,0.6-0.8,1-1.3,1.4c-0.5,0.3-1.2,0.5-1.9,0.5c-1.1,0-1.9-0.4-2.5-1.1
		c-0.6-0.7-0.9-1.8-0.9-3.4v-5.9h1.1v5.9c0,1.2,0.2,2.1,0.6,2.7c0.4,0.5,1,0.8,1.8,0.8c0.8,0,1.5-0.2,2-0.6c0.5-0.4,0.9-0.9,1.1-1.6
		v-7.2h1.1v10.1h-1L512.8,64.7z"/>
	<path class="st22" d="M518,53.3h-1.1v-1.6h1.1V53.3z M518,66.3h-1.1V56.2h1.1V66.3z"/>
	<path class="st22" d="M522.9,53.6v2.6h2.2v0.9h-2.2v6.6c0,0.7,0.1,1.1,0.4,1.4s0.6,0.4,1,0.4c0.2,0,0.4,0,0.5,0s0.4,0,0.6-0.1
		l0.2,0.8c-0.2,0.1-0.4,0.1-0.7,0.2c-0.3,0-0.5,0.1-0.8,0.1c-0.7,0-1.3-0.2-1.7-0.7s-0.6-1.2-0.6-2.1v-6.6H520v-0.9h1.7v-2.6H522.9z
		"/>
	<path class="st22" d="M531.3,66.5c-1.3,0-2.3-0.5-3.2-1.4c-0.8-0.9-1.3-2.1-1.3-3.5v-0.5c0-1.4,0.4-2.6,1.2-3.6
		c0.8-1,1.8-1.4,3-1.4c1.2,0,2.2,0.4,2.9,1.2c0.7,0.8,1.1,1.8,1.1,3.1v1H528v0.3c0,1.1,0.3,2.1,0.9,2.9c0.6,0.8,1.4,1.1,2.4,1.1
		c0.7,0,1.3-0.1,1.8-0.3c0.5-0.2,0.9-0.5,1.3-0.8l0.5,0.8c-0.4,0.4-0.9,0.7-1.4,1C532.8,66.4,532.1,66.5,531.3,66.5z M531.1,57
		c-0.8,0-1.5,0.3-2.1,0.9c-0.6,0.6-0.9,1.4-1,2.4l0,0h5.9v-0.3c0-0.9-0.3-1.6-0.8-2.2C532.7,57.3,532,57,531.1,57z M532.5,52.3h1.4
		l0,0.1l-2.3,2.4h-1L532.5,52.3z"/>
	<path class="st22" d="M545.7,65.6c0.7,0,1.4-0.2,2-0.6c0.6-0.4,0.9-1,0.9-1.8h1l0,0.1c0,0.9-0.3,1.7-1.1,2.3s-1.7,0.9-2.7,0.9
		c-1.4,0-2.4-0.5-3.2-1.4c-0.8-0.9-1.1-2.2-1.1-3.6v-0.4c0-1.5,0.4-2.7,1.1-3.6c0.8-0.9,1.8-1.4,3.2-1.4c1.1,0,2,0.3,2.8,1
		c0.7,0.7,1.1,1.5,1.1,2.6l0,0.1h-1c0-0.8-0.3-1.5-0.8-1.9c-0.5-0.5-1.2-0.7-2-0.7c-1.1,0-1.9,0.4-2.4,1.2c-0.5,0.8-0.8,1.7-0.8,2.9
		v0.4c0,1.2,0.3,2.2,0.8,2.9C543.8,65.2,544.6,65.6,545.7,65.6z"/>
	<path class="st22" d="M558.5,64.7c-0.3,0.6-0.8,1-1.3,1.4c-0.5,0.3-1.2,0.5-1.9,0.5c-1.1,0-1.9-0.4-2.5-1.1
		c-0.6-0.7-0.9-1.8-0.9-3.4v-5.9h1.1v5.9c0,1.2,0.2,2.1,0.6,2.7c0.4,0.5,1,0.8,1.8,0.8c0.8,0,1.5-0.2,2-0.6c0.5-0.4,0.9-0.9,1.1-1.6
		v-7.2h1.1v10.1h-1L558.5,64.7z"/>
	<path class="st22" d="M563.8,53.3h-1.1v-1.6h1.1V53.3z M563.8,66.3h-1.1V56.2h1.1V66.3z"/>
	<path class="st22" d="M569.8,63.8l0.3,1.2h0.1l0.4-1.2l2.7-7.6h1.2l-3.8,10.1h-0.9l-3.8-10.1h1.2L569.8,63.8z"/>
</g>
<g class="st21">
	<path class="st22" d="M580.9,57.2l-0.8-0.1c-0.7,0-1.3,0.2-1.7,0.6s-0.8,0.9-1,1.6v7h-1.1V56.2h1l0.1,1.7V58
		c0.3-0.6,0.7-1.1,1.2-1.5c0.5-0.3,1.1-0.5,1.8-0.5c0.1,0,0.3,0,0.4,0s0.2,0,0.3,0.1L580.9,57.2z"/>
</g>
<g class="st21">
	<path class="st22" d="M586.4,66.5c-1.3,0-2.3-0.5-3.2-1.4c-0.8-0.9-1.3-2.1-1.3-3.5v-0.5c0-1.4,0.4-2.6,1.2-3.6
		c0.8-1,1.8-1.4,3-1.4c1.2,0,2.2,0.4,2.9,1.2c0.7,0.8,1.1,1.8,1.1,3.1v1h-7.1v0.3c0,1.1,0.3,2.1,0.9,2.9c0.6,0.8,1.4,1.1,2.4,1.1
		c0.7,0,1.3-0.1,1.8-0.3c0.5-0.2,0.9-0.5,1.3-0.8l0.5,0.8c-0.4,0.4-0.9,0.7-1.4,1C587.9,66.4,587.2,66.5,586.4,66.5z M586.3,57
		c-0.8,0-1.5,0.3-2.1,0.9c-0.6,0.6-0.9,1.4-1,2.4l0,0h5.9v-0.3c0-0.9-0.3-1.6-0.8-2.2C587.8,57.3,587.1,57,586.3,57z"/>
	<path class="st22" d="M600.9,66.5c-1.3,0-2.3-0.5-3.2-1.4c-0.8-0.9-1.3-2.1-1.3-3.5v-0.5c0-1.4,0.4-2.6,1.2-3.6
		c0.8-1,1.8-1.4,3-1.4c1.2,0,2.2,0.4,2.9,1.2c0.7,0.8,1.1,1.8,1.1,3.1v1h-7.1v0.3c0,1.1,0.3,2.1,0.9,2.9c0.6,0.8,1.4,1.1,2.4,1.1
		c0.7,0,1.3-0.1,1.8-0.3c0.5-0.2,0.9-0.5,1.3-0.8l0.5,0.8c-0.4,0.4-0.9,0.7-1.4,1C602.4,66.4,601.7,66.5,600.9,66.5z M600.8,57
		c-0.8,0-1.5,0.3-2.1,0.9c-0.6,0.6-0.9,1.4-1,2.4l0,0h5.9v-0.3c0-0.9-0.3-1.6-0.8-2.2C602.3,57.3,601.6,57,600.8,57z M602.1,52.3
		h1.4l0,0.1l-2.3,2.4h-1L602.1,52.3z"/>
	<path class="st22" d="M608.7,53.6v2.6h2.2v0.9h-2.2v6.6c0,0.7,0.1,1.1,0.4,1.4s0.6,0.4,1,0.4c0.2,0,0.4,0,0.5,0s0.4,0,0.6-0.1
		l0.2,0.8c-0.2,0.1-0.4,0.1-0.7,0.2c-0.3,0-0.5,0.1-0.8,0.1c-0.7,0-1.3-0.2-1.7-0.7s-0.6-1.2-0.6-2.1v-6.6h-1.7v-0.9h1.7v-2.6H608.7
		z"/>
	<path class="st22" d="M619.7,66.3c-0.1-0.3-0.1-0.6-0.2-0.9s0-0.5,0-0.8c-0.4,0.5-0.9,1-1.5,1.3c-0.6,0.3-1.3,0.5-2.1,0.5
		c-1,0-1.7-0.3-2.3-0.8c-0.5-0.5-0.8-1.2-0.8-2.1c0-0.9,0.4-1.7,1.2-2.2c0.8-0.6,1.9-0.8,3.3-0.8h2.2v-1.3c0-0.7-0.2-1.3-0.7-1.7
		c-0.5-0.4-1.1-0.6-1.9-0.6c-0.8,0-1.4,0.2-1.9,0.6c-0.5,0.4-0.8,0.9-0.8,1.4l-1,0l0-0.1c0-0.8,0.3-1.4,1-2c0.7-0.6,1.6-0.9,2.8-0.9
		c1.1,0,2,0.3,2.7,0.9s1,1.4,1,2.4v5c0,0.4,0,0.7,0.1,1c0,0.3,0.1,0.7,0.2,1H619.7z M616,65.5c0.8,0,1.5-0.2,2.1-0.6
		c0.6-0.4,1.1-0.9,1.3-1.4v-2.1h-2.3c-1,0-1.8,0.2-2.4,0.6c-0.6,0.4-0.9,1-0.9,1.6c0,0.5,0.2,1,0.6,1.3S615.4,65.5,616,65.5z"/>
	<path class="st22" d="M624.5,56.2l0.1,1.7c0.3-0.6,0.8-1,1.3-1.4c0.5-0.3,1.2-0.5,1.9-0.5c0.8,0,1.4,0.2,1.9,0.6
		c0.5,0.4,0.9,0.9,1.1,1.7c0.3-0.7,0.7-1.3,1.3-1.7c0.6-0.4,1.2-0.6,2.1-0.6c1.1,0,1.9,0.4,2.5,1.1c0.6,0.7,0.9,1.8,0.9,3.3v5.9
		h-1.1v-5.9c0-1.2-0.2-2.1-0.7-2.6S634.8,57,634,57c-0.9,0-1.5,0.3-2,0.8s-0.8,1.2-0.9,2.1c0,0,0,0.1,0,0.2c0,0.1,0,0.1,0,0.2v6.1
		H630v-5.9c0-1.2-0.2-2.1-0.7-2.6s-1.1-0.8-1.8-0.8c-0.8,0-1.4,0.2-1.9,0.6c-0.5,0.4-0.8,0.9-1,1.6v7.1h-1.1V56.2H624.5z"/>
	<path class="st22" d="M644.3,66.5c-1.3,0-2.3-0.5-3.2-1.4c-0.8-0.9-1.3-2.1-1.3-3.5v-0.5c0-1.4,0.4-2.6,1.2-3.6
		c0.8-1,1.8-1.4,3-1.4c1.2,0,2.2,0.4,2.9,1.2c0.7,0.8,1.1,1.8,1.1,3.1v1h-7.1v0.3c0,1.1,0.3,2.1,0.9,2.9c0.6,0.8,1.4,1.1,2.4,1.1
		c0.7,0,1.3-0.1,1.8-0.3c0.5-0.2,0.9-0.5,1.3-0.8l0.5,0.8c-0.4,0.4-0.9,0.7-1.4,1C645.8,66.4,645.2,66.5,644.3,66.5z M644.2,57
		c-0.8,0-1.5,0.3-2.1,0.9c-0.6,0.6-0.9,1.4-1,2.4l0,0h5.9v-0.3c0-0.9-0.3-1.6-0.8-2.2C645.8,57.3,645.1,57,644.2,57z M645.6,52.3
		h1.4l0,0.1l-2.3,2.4h-1L645.6,52.3z"/>
</g>
<g class="st21">
	<path class="st22" d="M372.5,411.1h-6.6v6.4h-1.1v-13.6h8.7v1h-7.6v5.3h6.6V411.1z"/>
	<path class="st22" d="M376.8,404.5h-1.1v-1.6h1.1V404.5z M376.8,417.5h-1.1v-10.1h1.1V417.5z"/>
	<path class="st22" d="M381.1,417.5H380v-14.6h1.1V417.5z"/>
	<path class="st22" d="M388.4,412.5c0-1.6,0.3-2.9,1-3.9c0.7-1,1.6-1.5,2.9-1.5c0.7,0,1.3,0.1,1.8,0.4c0.5,0.3,0.9,0.7,1.3,1.3v-6
		h1.1v14.6h-1l-0.1-1.5c-0.3,0.5-0.8,0.9-1.3,1.2s-1.2,0.4-1.9,0.4c-1.2,0-2.2-0.5-2.8-1.3c-0.7-0.9-1-2.1-1-3.6V412.5z
		 M389.6,412.7c0,1.2,0.2,2.2,0.7,2.9c0.5,0.7,1.2,1.1,2.2,1.1c0.7,0,1.3-0.2,1.8-0.5c0.5-0.3,0.9-0.8,1.1-1.4v-4.8
		c-0.3-0.6-0.6-1.1-1.1-1.4c-0.5-0.4-1.1-0.5-1.8-0.5c-1,0-1.7,0.4-2.2,1.2c-0.5,0.8-0.7,1.9-0.7,3.2V412.7z"/>
	<path class="st22" d="M403.3,417.7c-1.3,0-2.3-0.5-3.2-1.4c-0.8-0.9-1.3-2.1-1.3-3.5v-0.5c0-1.4,0.4-2.6,1.2-3.6
		c0.8-1,1.8-1.4,3-1.4c1.2,0,2.2,0.4,2.9,1.2c0.7,0.8,1.1,1.8,1.1,3.1v1H400v0.3c0,1.1,0.3,2.1,0.9,2.9c0.6,0.8,1.4,1.1,2.4,1.1
		c0.7,0,1.3-0.1,1.8-0.3c0.5-0.2,0.9-0.5,1.3-0.8l0.5,0.8c-0.4,0.4-0.9,0.7-1.4,1C404.8,417.5,404.1,417.7,403.3,417.7z
		 M403.2,408.1c-0.8,0-1.5,0.3-2.1,0.9c-0.6,0.6-0.9,1.4-1,2.4l0,0h5.9v-0.3c0-0.9-0.3-1.6-0.8-2.2
		C404.8,408.4,404.1,408.1,403.2,408.1z"/>
	<path class="st22" d="M413.6,412.5c0-1.6,0.3-2.9,1-3.9c0.7-1,1.6-1.5,2.9-1.5c0.7,0,1.3,0.1,1.8,0.4c0.5,0.3,0.9,0.7,1.3,1.3v-6
		h1.1v14.6h-1l-0.1-1.5c-0.3,0.5-0.8,0.9-1.3,1.2s-1.2,0.4-1.9,0.4c-1.2,0-2.2-0.5-2.8-1.3c-0.7-0.9-1-2.1-1-3.6V412.5z
		 M414.7,412.7c0,1.2,0.2,2.2,0.7,2.9c0.5,0.7,1.2,1.1,2.2,1.1c0.7,0,1.3-0.2,1.8-0.5c0.5-0.3,0.9-0.8,1.1-1.4v-4.8
		c-0.3-0.6-0.6-1.1-1.1-1.4c-0.5-0.4-1.1-0.5-1.8-0.5c-1,0-1.7,0.4-2.2,1.2c-0.5,0.8-0.7,1.9-0.7,3.2V412.7z"/>
	<path class="st22" d="M428.5,417.7c-1.3,0-2.3-0.5-3.2-1.4c-0.8-0.9-1.3-2.1-1.3-3.5v-0.5c0-1.4,0.4-2.6,1.2-3.6
		c0.8-1,1.8-1.4,3-1.4c1.2,0,2.2,0.4,2.9,1.2c0.7,0.8,1.1,1.8,1.1,3.1v1h-7.1v0.3c0,1.1,0.3,2.1,0.9,2.9c0.6,0.8,1.4,1.1,2.4,1.1
		c0.7,0,1.3-0.1,1.8-0.3c0.5-0.2,0.9-0.5,1.3-0.8l0.5,0.8c-0.4,0.4-0.9,0.7-1.4,1C430,417.5,429.3,417.7,428.5,417.7z M428.3,408.1
		c-0.8,0-1.5,0.3-2.1,0.9c-0.6,0.6-0.9,1.4-1,2.4l0,0h5.9v-0.3c0-0.9-0.3-1.6-0.8-2.2C429.9,408.4,429.2,408.1,428.3,408.1z"/>
	<path class="st22" d="M438.3,416.7c0.7,0,1.4-0.2,2-0.6c0.6-0.4,0.9-1,0.9-1.8h1l0,0.1c0,0.9-0.3,1.7-1.1,2.3s-1.7,0.9-2.7,0.9
		c-1.4,0-2.4-0.5-3.2-1.4c-0.8-0.9-1.1-2.2-1.1-3.6v-0.4c0-1.5,0.4-2.7,1.1-3.6c0.8-0.9,1.8-1.4,3.2-1.4c1.1,0,2,0.3,2.8,1
		c0.7,0.7,1.1,1.5,1.1,2.6l0,0.1h-1c0-0.8-0.3-1.5-0.8-1.9c-0.5-0.5-1.2-0.7-2-0.7c-1.1,0-1.9,0.4-2.4,1.2c-0.5,0.8-0.8,1.7-0.8,2.9
		v0.4c0,1.2,0.3,2.2,0.8,2.9C436.4,416.3,437.2,416.7,438.3,416.7z"/>
	<path class="st22" d="M445.6,409.1c0.3-0.6,0.8-1.1,1.3-1.4s1.2-0.5,2-0.5c1.1,0,1.9,0.3,2.5,1s0.9,1.7,0.9,3.1v6.2h-1.1v-6.3
		c0-1.1-0.2-1.9-0.6-2.4c-0.4-0.5-1-0.7-1.8-0.7c-0.8,0-1.4,0.2-1.9,0.6c-0.5,0.4-0.9,0.9-1.1,1.6v7.1h-1.1v-14.6h1.1V409.1z"/>
	<path class="st22" d="M456.3,404.5h-1.1v-1.6h1.1V404.5z M456.3,417.5h-1.1v-10.1h1.1V417.5z"/>
</g>
<g class="st21">
	<path class="st22" d="M464.1,408.3l-0.8-0.1c-0.7,0-1.3,0.2-1.7,0.6s-0.8,0.9-1,1.6v7h-1.1v-10.1h1l0.1,1.7v0.1
		c0.3-0.6,0.7-1.1,1.2-1.5c0.5-0.3,1.1-0.5,1.8-0.5c0.1,0,0.3,0,0.4,0s0.2,0,0.3,0.1L464.1,408.3z"/>
</g>
<g class="st21">
	<path class="st22" d="M469.6,417.7c-1.3,0-2.3-0.5-3.2-1.4c-0.8-0.9-1.3-2.1-1.3-3.5v-0.5c0-1.4,0.4-2.6,1.2-3.6
		c0.8-1,1.8-1.4,3-1.4c1.2,0,2.2,0.4,2.9,1.2c0.7,0.8,1.1,1.8,1.1,3.1v1h-7.1v0.3c0,1.1,0.3,2.1,0.9,2.9c0.6,0.8,1.4,1.1,2.4,1.1
		c0.7,0,1.3-0.1,1.8-0.3c0.5-0.2,0.9-0.5,1.3-0.8l0.5,0.8c-0.4,0.4-0.9,0.7-1.4,1C471.1,417.5,470.4,417.7,469.6,417.7z
		 M469.4,408.1c-0.8,0-1.5,0.3-2.1,0.9c-0.6,0.6-0.9,1.4-1,2.4l0,0h5.9v-0.3c0-0.9-0.3-1.6-0.8-2.2
		C471,408.4,470.3,408.1,469.4,408.1z"/>
	<path class="st22" d="M476.6,407.4l0.1,1.7c0.3-0.6,0.8-1,1.3-1.4c0.5-0.3,1.2-0.5,1.9-0.5c0.8,0,1.4,0.2,1.9,0.6
		c0.5,0.4,0.9,0.9,1.1,1.7c0.3-0.7,0.7-1.3,1.3-1.7c0.6-0.4,1.2-0.6,2.1-0.6c1.1,0,1.9,0.4,2.5,1.1c0.6,0.7,0.9,1.8,0.9,3.3v5.9
		h-1.1v-5.9c0-1.2-0.2-2.1-0.7-2.6s-1.1-0.8-1.8-0.8c-0.9,0-1.5,0.3-2,0.8s-0.8,1.2-0.9,2.1c0,0,0,0.1,0,0.2c0,0.1,0,0.1,0,0.2v6.1
		h-1.1v-5.9c0-1.2-0.2-2.1-0.7-2.6s-1.1-0.8-1.8-0.8c-0.8,0-1.4,0.2-1.9,0.6c-0.5,0.4-0.8,0.9-1,1.6v7.1h-1.1v-10.1H476.6z"/>
	<path class="st22" d="M496.4,417.7c-1.3,0-2.3-0.5-3.2-1.4c-0.8-0.9-1.3-2.1-1.3-3.5v-0.5c0-1.4,0.4-2.6,1.2-3.6
		c0.8-1,1.8-1.4,3-1.4c1.2,0,2.2,0.4,2.9,1.2c0.7,0.8,1.1,1.8,1.1,3.1v1h-7.1v0.3c0,1.1,0.3,2.1,0.9,2.9c0.6,0.8,1.4,1.1,2.4,1.1
		c0.7,0,1.3-0.1,1.8-0.3c0.5-0.2,0.9-0.5,1.3-0.8l0.5,0.8c-0.4,0.4-0.9,0.7-1.4,1C497.9,417.5,497.2,417.7,496.4,417.7z
		 M496.2,408.1c-0.8,0-1.5,0.3-2.1,0.9c-0.6,0.6-0.9,1.4-1,2.4l0,0h5.9v-0.3c0-0.9-0.3-1.6-0.8-2.2
		C497.8,408.4,497.1,408.1,496.2,408.1z"/>
	<path class="st22" d="M503.4,407.4l0.1,1.8c0.3-0.6,0.8-1.1,1.3-1.4c0.6-0.3,1.2-0.5,2-0.5c1.1,0,1.9,0.3,2.5,1
		c0.6,0.7,0.9,1.7,0.9,3.1v6.2H509v-6.2c0-1.2-0.2-2-0.6-2.5c-0.4-0.5-1-0.7-1.8-0.7c-0.8,0-1.4,0.2-1.9,0.6c-0.5,0.4-0.9,1-1.1,1.7
		v7.1h-1.1v-10.1H503.4z"/>
	<path class="st22" d="M514.8,404.8v2.6h2.2v0.9h-2.2v6.6c0,0.7,0.1,1.1,0.4,1.4s0.6,0.4,1,0.4c0.2,0,0.4,0,0.5,0s0.4,0,0.6-0.1
		l0.2,0.8c-0.2,0.1-0.4,0.1-0.7,0.2c-0.3,0-0.5,0.1-0.8,0.1c-0.7,0-1.3-0.2-1.7-0.7s-0.6-1.2-0.6-2.1v-6.6H512v-0.9h1.7v-2.6H514.8z
		"/>
</g>
<line class="st0" x1="316.7" y1="364.4" x2="316.7" y2="434.4"/>
<g class="st21">
	<path class="st22" d="M254.4,145.1v6.1h-1.1v-13.6h4.6c1.5,0,2.6,0.3,3.4,1c0.8,0.6,1.2,1.6,1.2,2.8c0,0.7-0.2,1.4-0.6,1.9
		c-0.4,0.6-1,1-1.8,1.2c0.8,0.2,1.4,0.6,1.8,1.1s0.6,1.2,0.6,2v1.3c0,0.4,0,0.8,0.1,1.1c0.1,0.3,0.3,0.6,0.5,0.8v0.2h-1.1
		c-0.2-0.2-0.4-0.5-0.5-0.9c-0.1-0.4-0.1-0.8-0.1-1.3v-1.2c0-0.8-0.3-1.5-0.8-2c-0.5-0.5-1.3-0.7-2.3-0.7H254.4z M254.4,144.1h3.4
		c1.2,0,2.1-0.2,2.7-0.7c0.6-0.5,0.9-1.2,0.9-2c0-0.9-0.3-1.6-0.8-2.1c-0.6-0.5-1.4-0.7-2.6-0.7h-3.5V144.1z"/>
	<path class="st22" d="M272.2,149.6c-0.3,0.6-0.8,1-1.3,1.4c-0.5,0.3-1.2,0.5-1.9,0.5c-1.1,0-1.9-0.4-2.5-1.1
		c-0.6-0.7-0.9-1.8-0.9-3.4v-5.9h1.1v5.9c0,1.2,0.2,2.1,0.6,2.7c0.4,0.5,1,0.8,1.8,0.8c0.8,0,1.5-0.2,2-0.6c0.5-0.4,0.9-0.9,1.1-1.6
		v-7.2h1.1v10.1h-1L272.2,149.6z"/>
	<path class="st22" d="M284.4,146.5c0,1.5-0.3,2.7-1,3.6c-0.7,0.9-1.6,1.3-2.8,1.3c-0.7,0-1.4-0.1-1.9-0.4c-0.5-0.3-1-0.7-1.3-1.3
		l-0.1,1.5h-1v-14.6h1.1v6.1c0.3-0.6,0.8-1,1.3-1.3c0.5-0.3,1.1-0.5,1.9-0.5c1.2,0,2.2,0.5,2.8,1.5c0.7,1,1,2.3,1,3.9V146.5z
		 M283.3,146.3c0-1.3-0.2-2.3-0.7-3.2c-0.5-0.8-1.2-1.2-2.2-1.2c-0.8,0-1.4,0.2-1.9,0.6c-0.5,0.4-0.8,0.9-1.1,1.5v4.6
		c0.2,0.6,0.6,1.1,1.1,1.4c0.5,0.3,1.1,0.5,1.8,0.5c1,0,1.7-0.4,2.2-1.1c0.5-0.7,0.7-1.7,0.7-2.9V146.3z"/>
	<path class="st22" d="M293.3,151.2c-0.1-0.3-0.1-0.6-0.2-0.9s0-0.5,0-0.8c-0.4,0.5-0.9,1-1.5,1.3c-0.6,0.3-1.3,0.5-2.1,0.5
		c-1,0-1.7-0.3-2.3-0.8c-0.5-0.5-0.8-1.2-0.8-2.1c0-0.9,0.4-1.7,1.2-2.2c0.8-0.6,1.9-0.8,3.3-0.8h2.2v-1.3c0-0.7-0.2-1.3-0.7-1.7
		c-0.5-0.4-1.1-0.6-1.9-0.6c-0.8,0-1.4,0.2-1.9,0.6c-0.5,0.4-0.8,0.9-0.8,1.4l-1,0l0-0.1c0-0.8,0.3-1.4,1-2c0.7-0.6,1.6-0.9,2.8-0.9
		c1.1,0,2,0.3,2.7,0.9s1,1.4,1,2.4v5c0,0.4,0,0.7,0.1,1c0,0.3,0.1,0.7,0.2,1H293.3z M289.7,150.4c0.8,0,1.5-0.2,2.1-0.6
		c0.6-0.4,1.1-0.9,1.3-1.4v-2.1h-2.3c-1,0-1.8,0.2-2.4,0.6c-0.6,0.4-0.9,1-0.9,1.6c0,0.5,0.2,1,0.6,1.3S289,150.4,289.7,150.4z"/>
	<path class="st22" d="M298.2,141.1l0.1,1.8c0.3-0.6,0.8-1.1,1.3-1.4c0.6-0.3,1.2-0.5,2-0.5c1.1,0,1.9,0.3,2.5,1
		c0.6,0.7,0.9,1.7,0.9,3.1v6.2h-1.1v-6.2c0-1.2-0.2-2-0.6-2.5c-0.4-0.5-1-0.7-1.8-0.7c-0.8,0-1.4,0.2-1.9,0.6
		c-0.5,0.4-0.9,1-1.1,1.7v7.1h-1.1v-10.1H298.2z"/>
</g>
<g class="st21">
	<path class="st22" d="M313.9,145.6v5.7h-1.1v-13.6h4.7c1.4,0,2.5,0.4,3.3,1.1c0.8,0.7,1.2,1.7,1.2,2.9c0,1.2-0.4,2.2-1.2,2.9
		c-0.8,0.7-1.9,1.1-3.3,1.1H313.9z M313.9,144.6h3.6c1.1,0,2-0.3,2.5-0.9c0.6-0.6,0.8-1.3,0.8-2.2c0-0.9-0.3-1.6-0.8-2.2
		s-1.4-0.9-2.5-0.9h-3.6V144.6z"/>
</g>
<g class="st21">
	<path class="st22" d="M323.6,146c0-1.5,0.4-2.7,1.2-3.7c0.8-1,1.9-1.4,3.2-1.4c1.4,0,2.4,0.5,3.3,1.4c0.8,1,1.2,2.2,1.2,3.7v0.3
		c0,1.5-0.4,2.7-1.2,3.7c-0.8,1-1.9,1.4-3.2,1.4c-1.4,0-2.4-0.5-3.3-1.4c-0.8-0.9-1.2-2.2-1.2-3.7V146z M324.7,146.3
		c0,1.2,0.3,2.2,0.9,2.9c0.6,0.8,1.4,1.2,2.5,1.2c1,0,1.9-0.4,2.5-1.2c0.6-0.8,0.9-1.8,0.9-2.9V146c0-1.2-0.3-2.1-0.9-2.9
		c-0.6-0.8-1.4-1.2-2.5-1.2s-1.9,0.4-2.5,1.2c-0.6,0.8-0.9,1.8-0.9,2.9V146.3z"/>
	<path class="st22" d="M336.1,151.2H335v-14.6h1.1V151.2z"/>
</g>
<g class="st21">
	<path class="st22" d="M342.1,148.5l0.4,1.2h0.1l3.1-8.6h1.3l-4.4,11.7c-0.3,0.7-0.6,1.3-1,1.7c-0.4,0.5-1,0.7-1.8,0.7
		c-0.1,0-0.3,0-0.5,0c-0.2,0-0.3-0.1-0.4-0.1l0.1-0.9c0.1,0,0.2,0,0.4,0c0.2,0,0.3,0,0.4,0c0.5,0,0.9-0.2,1.2-0.5
		c0.3-0.3,0.5-0.8,0.7-1.3l0.5-1.4l-3.9-10h1.2L342.1,148.5z"/>
</g>
<g class="st21">
	<path class="st22" d="M352.3,151.4c-1.3,0-2.3-0.5-3.2-1.4c-0.8-0.9-1.3-2.1-1.3-3.5V146c0-1.4,0.4-2.6,1.2-3.6
		c0.8-1,1.8-1.4,3-1.4c1.2,0,2.2,0.4,2.9,1.2c0.7,0.8,1.1,1.8,1.1,3.1v1H349v0.3c0,1.1,0.3,2.1,0.9,2.9c0.6,0.8,1.4,1.1,2.4,1.1
		c0.7,0,1.3-0.1,1.8-0.3c0.5-0.2,0.9-0.5,1.3-0.8l0.5,0.8c-0.4,0.4-0.9,0.7-1.4,1C353.8,151.3,353.1,151.4,352.3,151.4z
		 M352.1,141.9c-0.8,0-1.5,0.3-2.1,0.9c-0.6,0.6-0.9,1.4-1,2.4l0,0h5.9V145c0-0.9-0.3-1.6-0.8-2.2S353,141.9,352.1,141.9z"/>
	<path class="st22" d="M364.4,148.7c0-0.5-0.2-0.9-0.6-1.2c-0.4-0.4-1.1-0.6-2.1-0.9c-1.2-0.3-2.1-0.6-2.7-1s-0.9-1-0.9-1.8
		c0-0.8,0.3-1.4,1-2c0.7-0.5,1.5-0.8,2.6-0.8c1.1,0,2,0.3,2.7,0.8c0.7,0.6,1,1.3,1,2.1l0,0.1h-1c0-0.6-0.2-1-0.7-1.4
		c-0.5-0.4-1.1-0.6-1.9-0.6c-0.8,0-1.4,0.2-1.8,0.5c-0.4,0.3-0.6,0.8-0.6,1.2c0,0.5,0.2,0.8,0.5,1.2s1.1,0.6,2.1,0.8
		c1.2,0.3,2.1,0.6,2.7,1.1s0.9,1.1,0.9,1.9c0,0.8-0.3,1.5-1,2s-1.6,0.8-2.7,0.8c-1.2,0-2.2-0.3-2.9-0.9c-0.7-0.6-1-1.3-1-2.1l0-0.1
		h1c0,0.7,0.3,1.3,0.9,1.6c0.6,0.3,1.2,0.5,1.9,0.5c0.8,0,1.4-0.2,1.9-0.5C364.1,149.6,364.4,149.2,364.4,148.7z"/>
	<path class="st22" d="M369.8,138.5v2.6h2.2v0.9h-2.2v6.6c0,0.7,0.1,1.1,0.4,1.4c0.2,0.3,0.6,0.4,1,0.4c0.2,0,0.4,0,0.5,0
		c0.2,0,0.4,0,0.6-0.1l0.2,0.8c-0.2,0.1-0.4,0.1-0.7,0.2c-0.3,0-0.5,0.1-0.8,0.1c-0.7,0-1.3-0.2-1.7-0.7s-0.6-1.2-0.6-2.1V142h-1.7
		v-0.9h1.7v-2.6H369.8z"/>
	<path class="st22" d="M378.2,151.4c-1.3,0-2.3-0.5-3.2-1.4c-0.8-0.9-1.3-2.1-1.3-3.5V146c0-1.4,0.4-2.6,1.2-3.6
		c0.8-1,1.8-1.4,3-1.4c1.2,0,2.2,0.4,2.9,1.2c0.7,0.8,1.1,1.8,1.1,3.1v1h-7.1v0.3c0,1.1,0.3,2.1,0.9,2.9c0.6,0.8,1.4,1.1,2.4,1.1
		c0.7,0,1.3-0.1,1.8-0.3c0.5-0.2,0.9-0.5,1.3-0.8l0.5,0.8c-0.4,0.4-0.9,0.7-1.4,1C379.7,151.3,379,151.4,378.2,151.4z M378.1,141.9
		c-0.8,0-1.5,0.3-2.1,0.9c-0.6,0.6-0.9,1.4-1,2.4l0,0h5.9V145c0-0.9-0.3-1.6-0.8-2.2C379.7,142.2,379,141.9,378.1,141.9z"/>
	<path class="st22" d="M388.9,142.1l-0.8-0.1c-0.7,0-1.3,0.2-1.7,0.6c-0.5,0.4-0.8,0.9-1,1.6v7h-1.1v-10.1h1l0.1,1.7v0.1
		c0.3-0.6,0.7-1.1,1.2-1.5c0.5-0.3,1.1-0.5,1.8-0.5c0.1,0,0.3,0,0.4,0s0.2,0,0.3,0.1L388.9,142.1z"/>
	<path class="st22" d="M390.6,152.4h-1l5.7-14.8h1L390.6,152.4z"/>
	<path class="st22" d="M406,147.4h-6.2l-1.4,3.8h-1.2l5.2-13.6h1.1l5.1,13.6h-1.2L406,147.4z M400.1,146.4h5.5l-2.7-7.4h-0.1
		L400.1,146.4z"/>
	<path class="st22" d="M411.6,151.2h-1.1v-14.6h1.1V151.2z"/>
	<path class="st22" d="M421.3,149.6c-0.3,0.6-0.8,1-1.3,1.4c-0.5,0.3-1.2,0.5-1.9,0.5c-1.1,0-1.9-0.4-2.5-1.1
		c-0.6-0.7-0.9-1.8-0.9-3.4v-5.9h1.1v5.9c0,1.2,0.2,2.1,0.6,2.7c0.4,0.5,1,0.8,1.8,0.8c0.8,0,1.5-0.2,2-0.6c0.5-0.4,0.9-0.9,1.1-1.6
		v-7.2h1.1v10.1h-1L421.3,149.6z"/>
	<path class="st22" d="M426.3,141.1l0.1,1.7c0.3-0.6,0.8-1,1.3-1.4c0.5-0.3,1.2-0.5,1.9-0.5c0.8,0,1.4,0.2,1.9,0.6
		c0.5,0.4,0.9,0.9,1.1,1.7c0.3-0.7,0.7-1.3,1.3-1.7c0.6-0.4,1.2-0.6,2.1-0.6c1.1,0,1.9,0.4,2.5,1.1c0.6,0.7,0.9,1.8,0.9,3.3v5.9
		h-1.1v-5.9c0-1.2-0.2-2.1-0.7-2.6c-0.4-0.5-1.1-0.8-1.8-0.8c-0.9,0-1.5,0.3-2,0.8c-0.5,0.5-0.8,1.2-0.9,2.1c0,0,0,0.1,0,0.2
		s0,0.1,0,0.2v6.1h-1.1v-5.9c0-1.2-0.2-2.1-0.7-2.6s-1.1-0.8-1.8-0.8c-0.8,0-1.4,0.2-1.9,0.6c-0.5,0.4-0.8,0.9-1,1.6v7.1h-1.1v-10.1
		H426.3z"/>
	<path class="st22" d="M443.5,138.2h-1.1v-1.6h1.1V138.2z M443.5,151.2h-1.1v-10.1h1.1V151.2z"/>
	<path class="st22" d="M447.6,141.1l0.1,1.8c0.3-0.6,0.8-1.1,1.3-1.4c0.6-0.3,1.2-0.5,2-0.5c1.1,0,1.9,0.3,2.5,1
		c0.6,0.7,0.9,1.7,0.9,3.1v6.2h-1.1v-6.2c0-1.2-0.2-2-0.6-2.5s-1-0.7-1.8-0.7c-0.8,0-1.4,0.2-1.9,0.6c-0.5,0.4-0.9,1-1.1,1.7v7.1
		h-1.1v-10.1H447.6z"/>
	<path class="st22" d="M458.5,138.2h-1.1v-1.6h1.1V138.2z M458.5,151.2h-1.1v-10.1h1.1V151.2z"/>
	<path class="st22" d="M468.2,149.6c-0.3,0.6-0.8,1-1.3,1.4c-0.5,0.3-1.2,0.5-1.9,0.5c-1.1,0-1.9-0.4-2.5-1.1
		c-0.6-0.7-0.9-1.8-0.9-3.4v-5.9h1.1v5.9c0,1.2,0.2,2.1,0.6,2.7c0.4,0.5,1,0.8,1.8,0.8c0.8,0,1.5-0.2,2-0.6c0.5-0.4,0.9-0.9,1.1-1.6
		v-7.2h1.1v10.1h-1L468.2,149.6z"/>
	<path class="st22" d="M473.2,141.1l0.1,1.7c0.3-0.6,0.8-1,1.3-1.4c0.5-0.3,1.2-0.5,1.9-0.5c0.8,0,1.4,0.2,1.9,0.6
		c0.5,0.4,0.9,0.9,1.1,1.7c0.3-0.7,0.7-1.3,1.3-1.7c0.6-0.4,1.2-0.6,2.1-0.6c1.1,0,1.9,0.4,2.5,1.1c0.6,0.7,0.9,1.8,0.9,3.3v5.9
		h-1.1v-5.9c0-1.2-0.2-2.1-0.7-2.6c-0.4-0.5-1.1-0.8-1.8-0.8c-0.9,0-1.5,0.3-2,0.8c-0.5,0.5-0.8,1.2-0.9,2.1c0,0,0,0.1,0,0.2
		c0,0.1,0,0.1,0,0.2v6.1h-1.1v-5.9c0-1.2-0.2-2.1-0.7-2.6s-1.1-0.8-1.8-0.8c-0.8,0-1.4,0.2-1.9,0.6s-0.8,0.9-1,1.6v7.1h-1.1v-10.1
		H473.2z"/>
</g>
<g class="st21">
	<path class="st22" d="M256.2,465.8c-0.3,0.4-0.9,0.9-1.7,1.2c-0.8,0.4-1.8,0.6-3,0.6c-1.6,0-2.9-0.5-3.9-1.6
		c-1-1.1-1.5-2.5-1.5-4.2v-2.5c0-1.7,0.5-3.1,1.4-4.1c1-1.1,2.2-1.6,3.7-1.6c1.5,0,2.6,0.4,3.4,1.1c0.8,0.7,1.3,1.7,1.4,2.9l0,0.1
		h-1c-0.2-0.9-0.5-1.6-1.1-2.2s-1.5-0.8-2.7-0.8c-1.2,0-2.2,0.4-2.9,1.3c-0.7,0.9-1.1,2-1.1,3.4v2.5c0,1.4,0.4,2.6,1.2,3.5
		s1.8,1.4,3.1,1.4c0.9,0,1.7-0.1,2.3-0.4c0.6-0.3,1.1-0.5,1.3-0.8v-3.5h-3.6v-1h4.7V465.8z"/>
	<path class="st22" d="M265.7,467.4c-0.1-0.3-0.1-0.6-0.2-0.9s0-0.5,0-0.8c-0.4,0.5-0.9,1-1.5,1.3c-0.6,0.3-1.3,0.5-2.1,0.5
		c-1,0-1.7-0.3-2.3-0.8c-0.5-0.5-0.8-1.2-0.8-2.1c0-0.9,0.4-1.7,1.2-2.2c0.8-0.6,1.9-0.8,3.3-0.8h2.2v-1.3c0-0.7-0.2-1.3-0.7-1.7
		c-0.5-0.4-1.1-0.6-1.9-0.6c-0.8,0-1.4,0.2-1.9,0.6c-0.5,0.4-0.8,0.9-0.8,1.4l-1,0l0-0.1c0-0.8,0.3-1.4,1-2c0.7-0.6,1.6-0.9,2.8-0.9
		c1.1,0,2,0.3,2.7,0.9s1,1.4,1,2.4v5c0,0.4,0,0.7,0.1,1c0,0.3,0.1,0.7,0.2,1H265.7z M262,466.6c0.8,0,1.5-0.2,2.1-0.6
		c0.6-0.4,1.1-0.9,1.3-1.4v-2.1h-2.3c-1,0-1.8,0.2-2.4,0.6c-0.6,0.4-0.9,1-0.9,1.6c0,0.5,0.2,1,0.6,1.3S261.3,466.6,262,466.6z"/>
	<path class="st22" d="M270.8,454.4h-1.1v-1.6h1.1V454.4z M270.8,467.4h-1.1v-10.1h1.1V467.4z"/>
	<path class="st22" d="M274.9,457.3l0.1,1.8c0.3-0.6,0.8-1.1,1.3-1.4c0.6-0.3,1.2-0.5,2-0.5c1.1,0,1.9,0.3,2.5,1
		c0.6,0.7,0.9,1.7,0.9,3.1v6.2h-1.1v-6.2c0-1.2-0.2-2-0.6-2.5c-0.4-0.5-1-0.7-1.8-0.7c-0.8,0-1.4,0.2-1.9,0.6
		c-0.5,0.4-0.9,1-1.1,1.7v7.1h-1.1v-10.1H274.9z"/>
	<path class="st22" d="M288.3,467.6c-1.3,0-2.3-0.5-3.2-1.4c-0.8-0.9-1.3-2.1-1.3-3.5v-0.5c0-1.4,0.4-2.6,1.2-3.6
		c0.8-1,1.8-1.4,3-1.4c1.2,0,2.2,0.4,2.9,1.2c0.7,0.8,1.1,1.8,1.1,3.1v1h-7.1v0.3c0,1.1,0.3,2.1,0.9,2.9c0.6,0.8,1.4,1.1,2.4,1.1
		c0.7,0,1.3-0.1,1.8-0.3c0.5-0.2,0.9-0.5,1.3-0.8l0.5,0.8c-0.4,0.4-0.9,0.7-1.4,1C289.8,467.5,289.1,467.6,288.3,467.6z
		 M288.2,458.1c-0.8,0-1.5,0.3-2.1,0.9c-0.6,0.6-0.9,1.4-1,2.4l0,0h5.9v-0.3c0-0.9-0.3-1.6-0.8-2.2
		C289.8,458.4,289.1,458.1,288.2,458.1z"/>
	<path class="st22" d="M300.5,461.8v5.7h-1.1v-13.6h4.7c1.4,0,2.5,0.4,3.3,1.1c0.8,0.7,1.2,1.7,1.2,2.9c0,1.2-0.4,2.2-1.2,2.9
		c-0.8,0.7-1.9,1.1-3.3,1.1H300.5z M300.5,460.8h3.6c1.1,0,2-0.3,2.5-0.9c0.6-0.6,0.8-1.3,0.8-2.2c0-0.9-0.3-1.6-0.8-2.2
		s-1.4-0.9-2.5-0.9h-3.6V460.8z"/>
</g>
<g class="st21">
	<path class="st22" d="M315,465.1l0.3,0.9h0.1l0.3-0.9l4.1-11.3h1.2l-5.1,13.6h-1.1l-5.1-13.6h1.2L315,465.1z"/>
</g>
<g class="st21">
	<path class="st22" d="M332.3,463.2L332.3,463.2c-0.1,1.4-0.6,2.5-1.4,3.3c-0.9,0.8-2,1.2-3.4,1.2c-1.5,0-2.7-0.5-3.7-1.6
		c-0.9-1.1-1.4-2.5-1.4-4.2v-2.2c0-1.7,0.5-3.1,1.4-4.2c0.9-1.1,2.1-1.6,3.7-1.6c1.4,0,2.6,0.4,3.4,1.1c0.8,0.8,1.3,1.8,1.4,3.2
		l0,0.1h-1c-0.1-1.1-0.5-2-1.2-2.6c-0.6-0.6-1.5-0.9-2.7-0.9c-1.2,0-2.1,0.5-2.9,1.4s-1.1,2.1-1.1,3.5v2.2c0,1.5,0.4,2.6,1.1,3.6
		c0.7,0.9,1.7,1.4,2.9,1.4c1.1,0,2-0.3,2.7-0.9c0.6-0.6,1-1.5,1.2-2.6H332.3z"/>
	<path class="st22" d="M349.5,465.8c-0.3,0.4-0.9,0.9-1.7,1.2c-0.8,0.4-1.8,0.6-3,0.6c-1.6,0-2.9-0.5-3.9-1.6
		c-1-1.1-1.5-2.5-1.5-4.2v-2.5c0-1.7,0.5-3.1,1.4-4.1c1-1.1,2.2-1.6,3.7-1.6c1.5,0,2.6,0.4,3.4,1.1c0.8,0.7,1.3,1.7,1.4,2.9l0,0.1
		h-1c-0.2-0.9-0.5-1.6-1.1-2.2s-1.5-0.8-2.7-0.8c-1.2,0-2.2,0.4-2.9,1.3c-0.7,0.9-1.1,2-1.1,3.4v2.5c0,1.4,0.4,2.6,1.2,3.5
		s1.8,1.4,3.1,1.4c0.9,0,1.7-0.1,2.3-0.4c0.6-0.3,1.1-0.5,1.3-0.8v-3.5h-3.6v-1h4.7V465.8z"/>
	<path class="st22" d="M357.2,458.3l-0.8-0.1c-0.7,0-1.3,0.2-1.7,0.6s-0.8,0.9-1,1.6v7h-1.1v-10.1h1l0.1,1.7v0.1
		c0.3-0.6,0.7-1.1,1.2-1.5c0.5-0.3,1.1-0.5,1.8-0.5c0.1,0,0.3,0,0.4,0s0.2,0,0.3,0.1L357.2,458.3z"/>
	<path class="st22" d="M360.3,454.4h-1.1v-1.6h1.1V454.4z M360.3,467.4h-1.1v-10.1h1.1V467.4z"/>
	<path class="st22" d="M369.5,464.8c0-0.5-0.2-0.9-0.6-1.2c-0.4-0.4-1.1-0.6-2.1-0.9c-1.2-0.3-2.1-0.6-2.7-1c-0.6-0.4-0.9-1-0.9-1.8
		c0-0.8,0.3-1.4,1-2s1.5-0.8,2.6-0.8c1.1,0,2,0.3,2.7,0.8s1,1.3,1,2.1l0,0.1h-1c0-0.6-0.2-1-0.7-1.4c-0.5-0.4-1.1-0.6-1.9-0.6
		c-0.8,0-1.4,0.2-1.8,0.5c-0.4,0.3-0.6,0.8-0.6,1.2c0,0.5,0.2,0.8,0.5,1.2c0.4,0.3,1.1,0.6,2.1,0.8c1.2,0.3,2.1,0.6,2.7,1.1
		c0.6,0.5,0.9,1.1,0.9,1.9c0,0.8-0.3,1.5-1,2c-0.7,0.5-1.6,0.8-2.7,0.8c-1.2,0-2.2-0.3-2.9-0.9c-0.7-0.6-1-1.3-1-2.1l0-0.1h1
		c0,0.7,0.3,1.3,0.9,1.6c0.6,0.3,1.2,0.5,1.9,0.5c0.8,0,1.4-0.2,1.9-0.5C369.3,465.8,369.5,465.3,369.5,464.8z"/>
	<path class="st22" d="M377,467.6c-1.3,0-2.3-0.5-3.2-1.4c-0.8-0.9-1.3-2.1-1.3-3.5v-0.5c0-1.4,0.4-2.6,1.2-3.6c0.8-1,1.8-1.4,3-1.4
		c1.2,0,2.2,0.4,2.9,1.2c0.7,0.8,1.1,1.8,1.1,3.1v1h-7.1v0.3c0,1.1,0.3,2.1,0.9,2.9c0.6,0.8,1.4,1.1,2.4,1.1c0.7,0,1.3-0.1,1.8-0.3
		c0.5-0.2,0.9-0.5,1.3-0.8l0.5,0.8c-0.4,0.4-0.9,0.7-1.4,1C378.5,467.5,377.8,467.6,377,467.6z M376.8,458.1c-0.8,0-1.5,0.3-2.1,0.9
		c-0.6,0.6-0.9,1.4-1,2.4l0,0h5.9v-0.3c0-0.9-0.3-1.6-0.8-2.2C378.4,458.4,377.7,458.1,376.8,458.1z"/>
</g>
<g class="st21">
	<path class="st22" d="M484.4,337.4h-1.1v-13.6h1.1V337.4z"/>
	<path class="st22" d="M494,334.9c0-0.5-0.2-0.9-0.6-1.2c-0.4-0.4-1.1-0.6-2.1-0.9c-1.2-0.3-2.1-0.6-2.7-1c-0.6-0.4-0.9-1-0.9-1.8
		c0-0.8,0.3-1.4,1-2s1.5-0.8,2.6-0.8c1.1,0,2,0.3,2.7,0.8s1,1.3,1,2.1l0,0.1h-1c0-0.6-0.2-1-0.7-1.4c-0.5-0.4-1.1-0.6-1.9-0.6
		c-0.8,0-1.4,0.2-1.8,0.5c-0.4,0.3-0.6,0.8-0.6,1.2c0,0.5,0.2,0.8,0.5,1.2c0.4,0.3,1.1,0.6,2.1,0.8c1.2,0.3,2.1,0.6,2.7,1.1
		c0.6,0.5,0.9,1.1,0.9,1.9c0,0.8-0.3,1.5-1,2c-0.7,0.5-1.6,0.8-2.7,0.8c-1.2,0-2.2-0.3-2.9-0.9c-0.7-0.6-1-1.3-1-2.1l0-0.1h1
		c0,0.7,0.3,1.3,0.9,1.6c0.6,0.3,1.2,0.5,1.9,0.5c0.8,0,1.4-0.2,1.9-0.5C493.7,335.8,494,335.4,494,334.9z"/>
	<path class="st22" d="M497,332.2c0-1.5,0.4-2.7,1.2-3.7c0.8-1,1.9-1.4,3.2-1.4c1.4,0,2.4,0.5,3.3,1.4c0.8,1,1.2,2.2,1.2,3.7v0.3
		c0,1.5-0.4,2.7-1.2,3.7c-0.8,1-1.9,1.4-3.2,1.4c-1.4,0-2.4-0.5-3.3-1.4c-0.8-0.9-1.2-2.2-1.2-3.7V332.2z M498.1,332.5
		c0,1.2,0.3,2.2,0.9,2.9c0.6,0.8,1.4,1.2,2.5,1.2c1,0,1.9-0.4,2.5-1.2c0.6-0.8,0.9-1.8,0.9-2.9v-0.3c0-1.2-0.3-2.1-0.9-2.9
		c-0.6-0.8-1.4-1.2-2.5-1.2s-1.9,0.4-2.5,1.2c-0.6,0.8-0.9,1.8-0.9,2.9V332.5z"/>
	<path class="st22" d="M509.5,337.4h-1.1v-14.6h1.1V337.4z"/>
	<path class="st22" d="M519,337.4c-0.1-0.3-0.1-0.6-0.2-0.9s0-0.5,0-0.8c-0.4,0.5-0.9,1-1.5,1.3c-0.6,0.3-1.3,0.5-2.1,0.5
		c-1,0-1.7-0.3-2.3-0.8c-0.5-0.5-0.8-1.2-0.8-2.1c0-0.9,0.4-1.7,1.2-2.2c0.8-0.6,1.9-0.8,3.3-0.8h2.2v-1.3c0-0.7-0.2-1.3-0.7-1.7
		c-0.5-0.4-1.1-0.6-1.9-0.6c-0.8,0-1.4,0.2-1.9,0.6c-0.5,0.4-0.8,0.9-0.8,1.4l-1,0l0-0.1c0-0.8,0.3-1.4,1-2c0.7-0.6,1.6-0.9,2.8-0.9
		c1.1,0,2,0.3,2.7,0.9s1,1.4,1,2.4v5c0,0.4,0,0.7,0.1,1c0,0.3,0.1,0.7,0.2,1H519z M515.4,336.6c0.8,0,1.5-0.2,2.1-0.6
		c0.6-0.4,1.1-0.9,1.3-1.4v-2.1h-2.3c-1,0-1.8,0.2-2.4,0.6c-0.6,0.4-0.9,1-0.9,1.6c0,0.5,0.2,1,0.6,1.3S514.7,336.6,515.4,336.6z"/>
	<path class="st22" d="M523.9,327.3l0.1,1.8c0.3-0.6,0.8-1.1,1.3-1.4c0.6-0.3,1.2-0.5,2-0.5c1.1,0,1.9,0.3,2.5,1
		c0.6,0.7,0.9,1.7,0.9,3.1v6.2h-1.1v-6.2c0-1.2-0.2-2-0.6-2.5c-0.4-0.5-1-0.7-1.8-0.7c-0.8,0-1.4,0.2-1.9,0.6
		c-0.5,0.4-0.9,1-1.1,1.7v7.1h-1.1v-10.1H523.9z"/>
	<path class="st22" d="M535.3,324.7v2.6h2.2v0.9h-2.2v6.6c0,0.7,0.1,1.1,0.4,1.4s0.6,0.4,1,0.4c0.2,0,0.4,0,0.5,0s0.4,0,0.6-0.1
		l0.2,0.8c-0.2,0.1-0.4,0.1-0.7,0.2c-0.3,0-0.5,0.1-0.8,0.1c-0.7,0-1.3-0.2-1.7-0.7s-0.6-1.2-0.6-2.1v-6.6h-1.7v-0.9h1.7v-2.6H535.3
		z"/>
	<path class="st22" d="M541.2,328.9h-1.3v-1.5h1.3V328.9z M541.2,337.4h-1.3v-1.5h1.3V337.4z"/>
</g>
<g class="st21">
	<path class="st22" d="M554.7,331.8v5.7h-1.1v-13.6h4.7c1.4,0,2.5,0.4,3.3,1.1c0.8,0.7,1.2,1.7,1.2,2.9c0,1.2-0.4,2.2-1.2,2.9
		c-0.8,0.7-1.9,1.1-3.3,1.1H554.7z M554.7,330.8h3.6c1.1,0,2-0.3,2.5-0.9c0.6-0.6,0.8-1.3,0.8-2.2c0-0.9-0.3-1.6-0.8-2.2
		s-1.4-0.9-2.5-0.9h-3.6V330.8z"/>
</g>
<g class="st21">
	<path class="st22" d="M564.4,332.2c0-1.5,0.4-2.7,1.2-3.7c0.8-1,1.9-1.4,3.2-1.4c1.4,0,2.4,0.5,3.3,1.4c0.8,1,1.2,2.2,1.2,3.7v0.3
		c0,1.5-0.4,2.7-1.2,3.7c-0.8,1-1.9,1.4-3.2,1.4c-1.4,0-2.4-0.5-3.3-1.4c-0.8-0.9-1.2-2.2-1.2-3.7V332.2z M565.5,332.5
		c0,1.2,0.3,2.2,0.9,2.9c0.6,0.8,1.4,1.2,2.5,1.2c1,0,1.9-0.4,2.5-1.2c0.6-0.8,0.9-1.8,0.9-2.9v-0.3c0-1.2-0.3-2.1-0.9-2.9
		c-0.6-0.8-1.4-1.2-2.5-1.2s-1.9,0.4-2.5,1.2c-0.6,0.8-0.9,1.8-0.9,2.9V332.5z"/>
	<path class="st22" d="M576.9,337.4h-1.1v-14.6h1.1V337.4z"/>
</g>
<g class="st21">
	<path class="st22" d="M582.9,334.7l0.4,1.2h0.1l3.1-8.6h1.3l-4.4,11.7c-0.3,0.7-0.6,1.3-1,1.7c-0.4,0.5-1,0.7-1.8,0.7
		c-0.1,0-0.3,0-0.5,0c-0.2,0-0.3-0.1-0.4-0.1l0.1-0.9c0.1,0,0.2,0,0.4,0c0.2,0,0.3,0,0.4,0c0.5,0,0.9-0.2,1.2-0.5
		c0.3-0.3,0.5-0.8,0.7-1.3l0.5-1.4l-3.9-10h1.2L582.9,334.7z"/>
</g>
<g class="st21">
	<path class="st22" d="M593,337.6c-1.3,0-2.3-0.5-3.2-1.4c-0.8-0.9-1.3-2.1-1.3-3.5v-0.5c0-1.4,0.4-2.6,1.2-3.6c0.8-1,1.8-1.4,3-1.4
		c1.2,0,2.2,0.4,2.9,1.2c0.7,0.8,1.1,1.8,1.1,3.1v1h-7.1v0.3c0,1.1,0.3,2.1,0.9,2.9c0.6,0.8,1.4,1.1,2.4,1.1c0.7,0,1.3-0.1,1.8-0.3
		c0.5-0.2,0.9-0.5,1.3-0.8l0.5,0.8c-0.4,0.4-0.9,0.7-1.4,1C594.5,337.5,593.8,337.6,593,337.6z M592.9,328.1c-0.8,0-1.5,0.3-2.1,0.9
		c-0.6,0.6-0.9,1.4-1,2.4l0,0h5.9v-0.3c0-0.9-0.3-1.6-0.8-2.2C594.5,328.4,593.8,328.1,592.9,328.1z M594.2,323.4h1.4l0,0.1
		l-2.3,2.4h-1L594.2,323.4z"/>
	<path class="st22" d="M600.8,324.7v2.6h2.2v0.9h-2.2v6.6c0,0.7,0.1,1.1,0.4,1.4s0.6,0.4,1,0.4c0.2,0,0.4,0,0.5,0s0.4,0,0.6-0.1
		l0.2,0.8c-0.2,0.1-0.4,0.1-0.7,0.2c-0.3,0-0.5,0.1-0.8,0.1c-0.7,0-1.3-0.2-1.7-0.7s-0.6-1.2-0.6-2.1v-6.6H598v-0.9h1.7v-2.6H600.8z
		"/>
	<path class="st22" d="M606.6,329.1c0.3-0.6,0.8-1.1,1.3-1.4s1.2-0.5,2-0.5c1.1,0,1.9,0.3,2.5,1s0.9,1.7,0.9,3.1v6.2H612v-6.3
		c0-1.1-0.2-1.9-0.6-2.4c-0.4-0.5-1-0.7-1.8-0.7c-0.8,0-1.4,0.2-1.9,0.6c-0.5,0.4-0.9,0.9-1.1,1.6v7.1h-1.1v-14.6h1.1V329.1z"/>
	<path class="st22" d="M618.9,334.7l0.4,1.2h0.1l3.1-8.6h1.3l-4.4,11.7c-0.3,0.7-0.6,1.3-1,1.7c-0.4,0.5-1,0.7-1.8,0.7
		c-0.1,0-0.3,0-0.5,0c-0.2,0-0.3-0.1-0.4-0.1l0.1-0.9c0.1,0,0.2,0,0.4,0c0.2,0,0.3,0,0.4,0c0.5,0,0.9-0.2,1.2-0.5
		c0.3-0.3,0.5-0.8,0.7-1.3l0.5-1.4l-3.9-10h1.2L618.9,334.7z"/>
	<path class="st22" d="M626.7,337.4h-1.1v-14.6h1.1V337.4z"/>
	<path class="st22" d="M633.6,337.6c-1.3,0-2.3-0.5-3.2-1.4c-0.8-0.9-1.3-2.1-1.3-3.5v-0.5c0-1.4,0.4-2.6,1.2-3.6
		c0.8-1,1.8-1.4,3-1.4c1.2,0,2.2,0.4,2.9,1.2c0.7,0.8,1.1,1.8,1.1,3.1v1h-7.1v0.3c0,1.1,0.3,2.1,0.9,2.9c0.6,0.8,1.4,1.1,2.4,1.1
		c0.7,0,1.3-0.1,1.8-0.3c0.5-0.2,0.9-0.5,1.3-0.8l0.5,0.8c-0.4,0.4-0.9,0.7-1.4,1C635.1,337.5,634.4,337.6,633.6,337.6z
		 M633.4,328.1c-0.8,0-1.5,0.3-2.1,0.9c-0.6,0.6-0.9,1.4-1,2.4l0,0h5.9v-0.3c0-0.9-0.3-1.6-0.8-2.2
		C635,328.4,634.3,328.1,633.4,328.1z M634.2,325.8h-1.1l-2.3-2.4l0,0h1.4L634.2,325.8z"/>
	<path class="st22" d="M640.6,327.3l0.1,1.8c0.3-0.6,0.8-1.1,1.3-1.4c0.6-0.3,1.2-0.5,2-0.5c1.1,0,1.9,0.3,2.5,1
		c0.6,0.7,0.9,1.7,0.9,3.1v6.2h-1.1v-6.2c0-1.2-0.2-2-0.6-2.5c-0.4-0.5-1-0.7-1.8-0.7c-0.8,0-1.4,0.2-1.9,0.6
		c-0.5,0.4-0.9,1-1.1,1.7v7.1h-1.1v-10.1H640.6z"/>
	<path class="st22" d="M654.1,337.6c-1.3,0-2.3-0.5-3.2-1.4c-0.8-0.9-1.3-2.1-1.3-3.5v-0.5c0-1.4,0.4-2.6,1.2-3.6
		c0.8-1,1.8-1.4,3-1.4c1.2,0,2.2,0.4,2.9,1.2c0.7,0.8,1.1,1.8,1.1,3.1v1h-7.1v0.3c0,1.1,0.3,2.1,0.9,2.9c0.6,0.8,1.4,1.1,2.4,1.1
		c0.7,0,1.3-0.1,1.8-0.3c0.5-0.2,0.9-0.5,1.3-0.8l0.5,0.8c-0.4,0.4-0.9,0.7-1.4,1C655.6,337.5,654.9,337.6,654.1,337.6z
		 M653.9,328.1c-0.8,0-1.5,0.3-2.1,0.9c-0.6,0.6-0.9,1.4-1,2.4l0,0h5.9v-0.3c0-0.9-0.3-1.6-0.8-2.2
		C655.5,328.4,654.8,328.1,653.9,328.1z"/>
</g>
<g class="st21">
	<path class="st22" d="M598.7,440.7h-6.2l-1.4,3.8h-1.2l5.2-13.6h1.1l5.1,13.6h-1.2L598.7,440.7z M592.9,439.7h5.5l-2.7-7.4h-0.1
		L592.9,439.7z"/>
	<path class="st22" d="M604,434.4l0.1,1.7c0.3-0.6,0.8-1,1.3-1.4c0.5-0.3,1.2-0.5,1.9-0.5c0.8,0,1.4,0.2,1.9,0.6
		c0.5,0.4,0.9,0.9,1.1,1.7c0.3-0.7,0.7-1.3,1.3-1.7c0.6-0.4,1.2-0.6,2.1-0.6c1.1,0,1.9,0.4,2.5,1.1c0.6,0.7,0.9,1.8,0.9,3.3v5.9H616
		v-5.9c0-1.2-0.2-2.1-0.7-2.6s-1.1-0.8-1.8-0.8c-0.9,0-1.5,0.3-2,0.8s-0.8,1.2-0.9,2.1c0,0,0,0.1,0,0.2c0,0.1,0,0.1,0,0.2v6.1h-1.1
		v-5.9c0-1.2-0.2-2.1-0.7-2.6s-1.1-0.8-1.8-0.8c-0.8,0-1.4,0.2-1.9,0.6c-0.5,0.4-0.8,0.9-1,1.6v7.1H603v-10.1H604z"/>
	<path class="st22" d="M623.8,444.7c-1.3,0-2.3-0.5-3.2-1.4c-0.8-0.9-1.3-2.1-1.3-3.5v-0.5c0-1.4,0.4-2.6,1.2-3.6
		c0.8-1,1.8-1.4,3-1.4c1.2,0,2.2,0.4,2.9,1.2c0.7,0.8,1.1,1.8,1.1,3.1v1h-7.1v0.3c0,1.1,0.3,2.1,0.9,2.9c0.6,0.8,1.4,1.1,2.4,1.1
		c0.7,0,1.3-0.1,1.8-0.3c0.5-0.2,0.9-0.5,1.3-0.8l0.5,0.8c-0.4,0.4-0.9,0.7-1.4,1C625.3,444.5,624.6,444.7,623.8,444.7z
		 M623.7,435.1c-0.8,0-1.5,0.3-2.1,0.9c-0.6,0.6-0.9,1.4-1,2.4l0,0h5.9v-0.3c0-0.9-0.3-1.6-0.8-2.2
		C625.3,435.4,624.6,435.1,623.7,435.1z"/>
	<path class="st22" d="M638.3,443.7c0.7,0,1.4-0.2,2-0.6c0.6-0.4,0.9-1,0.9-1.8h1l0,0.1c0,0.9-0.3,1.7-1.1,2.3s-1.7,0.9-2.7,0.9
		c-1.4,0-2.4-0.5-3.2-1.4c-0.8-0.9-1.1-2.2-1.1-3.6v-0.4c0-1.5,0.4-2.7,1.1-3.6c0.8-0.9,1.8-1.4,3.2-1.4c1.1,0,2,0.3,2.8,1
		c0.7,0.7,1.1,1.5,1.1,2.6l0,0.1h-1c0-0.8-0.3-1.5-0.8-1.9c-0.5-0.5-1.2-0.7-2-0.7c-1.1,0-1.9,0.4-2.4,1.2c-0.5,0.8-0.8,1.7-0.8,2.9
		v0.4c0,1.2,0.3,2.2,0.8,2.9C636.4,443.3,637.2,443.7,638.3,443.7z"/>
	<path class="st22" d="M651.1,442.8c-0.3,0.6-0.8,1-1.3,1.4c-0.5,0.3-1.2,0.5-1.9,0.5c-1.1,0-1.9-0.4-2.5-1.1
		c-0.6-0.7-0.9-1.8-0.9-3.4v-5.9h1.1v5.9c0,1.2,0.2,2.1,0.6,2.7c0.4,0.5,1,0.8,1.8,0.8c0.8,0,1.5-0.2,2-0.6c0.5-0.4,0.9-0.9,1.1-1.6
		v-7.2h1.1v10.1h-1L651.1,442.8z"/>
	<path class="st22" d="M656.3,431.5h-1.1v-1.6h1.1V431.5z M656.3,444.5h-1.1v-10.1h1.1V444.5z"/>
	<path class="st22" d="M662.3,441.9l0.3,1.2h0.1l0.4-1.2l2.7-7.6h1.2l-3.8,10.1h-0.9l-3.8-10.1h1.2L662.3,441.9z"/>
</g>
<g class="st21">
	<path class="st22" d="M673.5,435.3l-0.8-0.1c-0.7,0-1.3,0.2-1.7,0.6s-0.8,0.9-1,1.6v7h-1.1v-10.1h1l0.1,1.7v0.1
		c0.3-0.6,0.7-1.1,1.2-1.5c0.5-0.3,1.1-0.5,1.8-0.5c0.1,0,0.3,0,0.4,0s0.2,0,0.3,0.1L673.5,435.3z"/>
</g>
<g class="st21">
	<path class="st22" d="M678.9,444.7c-1.3,0-2.3-0.5-3.2-1.4c-0.8-0.9-1.3-2.1-1.3-3.5v-0.5c0-1.4,0.4-2.6,1.2-3.6
		c0.8-1,1.8-1.4,3-1.4c1.2,0,2.2,0.4,2.9,1.2c0.7,0.8,1.1,1.8,1.1,3.1v1h-7.1v0.3c0,1.1,0.3,2.1,0.9,2.9c0.6,0.8,1.4,1.1,2.4,1.1
		c0.7,0,1.3-0.1,1.8-0.3c0.5-0.2,0.9-0.5,1.3-0.8l0.5,0.8c-0.4,0.4-0.9,0.7-1.4,1C680.4,444.5,679.7,444.7,678.9,444.7z
		 M678.8,435.1c-0.8,0-1.5,0.3-2.1,0.9c-0.6,0.6-0.9,1.4-1,2.4l0,0h5.9v-0.3c0-0.9-0.3-1.6-0.8-2.2
		C680.4,435.4,679.7,435.1,678.8,435.1z"/>
	<path class="st22" d="M690.6,434.4l0.1,1.8c0.3-0.6,0.8-1.1,1.3-1.4c0.6-0.3,1.2-0.5,2-0.5c1.1,0,1.9,0.3,2.5,1
		c0.6,0.7,0.9,1.7,0.9,3.1v6.2h-1.1v-6.2c0-1.2-0.2-2-0.6-2.5c-0.4-0.5-1-0.7-1.8-0.7c-0.8,0-1.4,0.2-1.9,0.6
		c-0.5,0.4-0.9,1-1.1,1.7v7.1h-1.1v-10.1H690.6z"/>
	<path class="st22" d="M706.9,442.8c-0.3,0.6-0.8,1-1.3,1.4c-0.5,0.3-1.2,0.5-1.9,0.5c-1.1,0-1.9-0.4-2.5-1.1
		c-0.6-0.7-0.9-1.8-0.9-3.4v-5.9h1.1v5.9c0,1.2,0.2,2.1,0.6,2.7c0.4,0.5,1,0.8,1.8,0.8c0.8,0,1.5-0.2,2-0.6c0.5-0.4,0.9-0.9,1.1-1.6
		v-7.2h1.1v10.1h-1L706.9,442.8z"/>
	<path class="st22" d="M710.8,445.6h-1l5.7-14.8h1L710.8,445.6z"/>
</g>
<g class="st21">
	<path class="st22" d="M510.3,463.2L510.3,463.2c-0.1,1.4-0.6,2.5-1.4,3.3c-0.9,0.8-2,1.2-3.4,1.2c-1.5,0-2.7-0.5-3.7-1.6
		c-0.9-1.1-1.4-2.5-1.4-4.2v-2.2c0-1.7,0.5-3.1,1.4-4.2c0.9-1.1,2.1-1.6,3.7-1.6c1.4,0,2.6,0.4,3.4,1.1c0.8,0.8,1.3,1.8,1.4,3.2
		l0,0.1h-1c-0.1-1.1-0.5-2-1.2-2.6c-0.6-0.6-1.5-0.9-2.7-0.9c-1.2,0-2.1,0.5-2.9,1.4s-1.1,2.1-1.1,3.5v2.2c0,1.5,0.4,2.6,1.1,3.6
		c0.7,0.9,1.7,1.4,2.9,1.4c1.1,0,2-0.3,2.7-0.9c0.6-0.6,1-1.5,1.2-2.6H510.3z"/>
	<path class="st22" d="M519.5,465.8c-0.3,0.6-0.8,1-1.3,1.4c-0.5,0.3-1.2,0.5-1.9,0.5c-1.1,0-1.9-0.4-2.5-1.1
		c-0.6-0.7-0.9-1.8-0.9-3.4v-5.9h1.1v5.9c0,1.2,0.2,2.1,0.6,2.7c0.4,0.5,1,0.8,1.8,0.8c0.8,0,1.5-0.2,2-0.6c0.5-0.4,0.9-0.9,1.1-1.6
		v-7.2h1.1v10.1h-1L519.5,465.8z"/>
	<path class="st22" d="M524.8,454.4h-1.1v-1.6h1.1V454.4z M524.8,467.4h-1.1v-10.1h1.1V467.4z"/>
	<path class="st22" d="M530.7,464.9l0.3,1.2h0.1l0.4-1.2l2.7-7.6h1.2l-3.8,10.1h-0.9l-3.8-10.1h1.2L530.7,464.9z"/>
</g>
<g class="st21">
	<path class="st22" d="M541.9,458.3l-0.8-0.1c-0.7,0-1.3,0.2-1.7,0.6s-0.8,0.9-1,1.6v7h-1.1v-10.1h1l0.1,1.7v0.1
		c0.3-0.6,0.7-1.1,1.2-1.5c0.5-0.3,1.1-0.5,1.8-0.5c0.1,0,0.3,0,0.4,0s0.2,0,0.3,0.1L541.9,458.3z"/>
</g>
<g class="st21">
	<path class="st22" d="M547.3,467.6c-1.3,0-2.3-0.5-3.2-1.4c-0.8-0.9-1.3-2.1-1.3-3.5v-0.5c0-1.4,0.4-2.6,1.2-3.6
		c0.8-1,1.8-1.4,3-1.4c1.2,0,2.2,0.4,2.9,1.2c0.7,0.8,1.1,1.8,1.1,3.1v1H544v0.3c0,1.1,0.3,2.1,0.9,2.9c0.6,0.8,1.4,1.1,2.4,1.1
		c0.7,0,1.3-0.1,1.8-0.3c0.5-0.2,0.9-0.5,1.3-0.8l0.5,0.8c-0.4,0.4-0.9,0.7-1.4,1C548.8,467.5,548.1,467.6,547.3,467.6z
		 M547.2,458.1c-0.8,0-1.5,0.3-2.1,0.9c-0.6,0.6-0.9,1.4-1,2.4l0,0h5.9v-0.3c0-0.9-0.3-1.6-0.8-2.2
		C548.8,458.4,548.1,458.1,547.2,458.1z"/>
	<path class="st22" d="M565.7,463.6h-6.2l-1.4,3.8h-1.2l5.2-13.6h1.1l5.1,13.6h-1.2L565.7,463.6z M559.8,462.6h5.5l-2.7-7.4h-0.1
		L559.8,462.6z"/>
	<path class="st22" d="M571.2,467.4h-1.1v-14.6h1.1V467.4z"/>
	<path class="st22" d="M581,465.8c-0.3,0.6-0.8,1-1.3,1.4c-0.5,0.3-1.2,0.5-1.9,0.5c-1.1,0-1.9-0.4-2.5-1.1
		c-0.6-0.7-0.9-1.8-0.9-3.4v-5.9h1.1v5.9c0,1.2,0.2,2.1,0.6,2.7c0.4,0.5,1,0.8,1.8,0.8c0.8,0,1.5-0.2,2-0.6c0.5-0.4,0.9-0.9,1.1-1.6
		v-7.2h1.1v10.1h-1L581,465.8z"/>
	<path class="st22" d="M585.9,457.3l0.1,1.7c0.3-0.6,0.8-1,1.3-1.4c0.5-0.3,1.2-0.5,1.9-0.5c0.8,0,1.4,0.2,1.9,0.6
		c0.5,0.4,0.9,0.9,1.1,1.7c0.3-0.7,0.7-1.3,1.3-1.7c0.6-0.4,1.2-0.6,2.1-0.6c1.1,0,1.9,0.4,2.5,1.1c0.6,0.7,0.9,1.8,0.9,3.3v5.9
		h-1.1v-5.9c0-1.2-0.2-2.1-0.7-2.6s-1.1-0.8-1.8-0.8c-0.9,0-1.5,0.3-2,0.8s-0.8,1.2-0.9,2.1c0,0,0,0.1,0,0.2c0,0.1,0,0.1,0,0.2v6.1
		h-1.1v-5.9c0-1.2-0.2-2.1-0.7-2.6s-1.1-0.8-1.8-0.8c-0.8,0-1.4,0.2-1.9,0.6c-0.5,0.4-0.8,0.9-1,1.6v7.1h-1.1v-10.1H585.9z"/>
	<path class="st22" d="M603.2,454.4h-1.1v-1.6h1.1V454.4z M603.2,467.4h-1.1v-10.1h1.1V467.4z"/>
	<path class="st22" d="M607.3,457.3l0.1,1.8c0.3-0.6,0.8-1.1,1.3-1.4c0.6-0.3,1.2-0.5,2-0.5c1.1,0,1.9,0.3,2.5,1
		c0.6,0.7,0.9,1.7,0.9,3.1v6.2h-1.1v-6.2c0-1.2-0.2-2-0.6-2.5c-0.4-0.5-1-0.7-1.8-0.7c-0.8,0-1.4,0.2-1.9,0.6
		c-0.5,0.4-0.9,1-1.1,1.7v7.1h-1.1v-10.1H607.3z"/>
	<path class="st22" d="M618.2,454.4h-1.1v-1.6h1.1V454.4z M618.2,467.4h-1.1v-10.1h1.1V467.4z"/>
	<path class="st22" d="M627.9,465.8c-0.3,0.6-0.8,1-1.3,1.4c-0.5,0.3-1.2,0.5-1.9,0.5c-1.1,0-1.9-0.4-2.5-1.1
		c-0.6-0.7-0.9-1.8-0.9-3.4v-5.9h1.1v5.9c0,1.2,0.2,2.1,0.6,2.7c0.4,0.5,1,0.8,1.8,0.8c0.8,0,1.5-0.2,2-0.6c0.5-0.4,0.9-0.9,1.1-1.6
		v-7.2h1.1v10.1h-1L627.9,465.8z"/>
	<path class="st22" d="M632.9,457.3l0.1,1.7c0.3-0.6,0.8-1,1.3-1.4c0.5-0.3,1.2-0.5,1.9-0.5c0.8,0,1.4,0.2,1.9,0.6
		c0.5,0.4,0.9,0.9,1.1,1.7c0.3-0.7,0.7-1.3,1.3-1.7c0.6-0.4,1.2-0.6,2.1-0.6c1.1,0,1.9,0.4,2.5,1.1c0.6,0.7,0.9,1.8,0.9,3.3v5.9
		h-1.1v-5.9c0-1.2-0.2-2.1-0.7-2.6s-1.1-0.8-1.8-0.8c-0.9,0-1.5,0.3-2,0.8s-0.8,1.2-0.9,2.1c0,0,0,0.1,0,0.2c0,0.1,0,0.1,0,0.2v6.1
		h-1.1v-5.9c0-1.2-0.2-2.1-0.7-2.6s-1.1-0.8-1.8-0.8c-0.8,0-1.4,0.2-1.9,0.6c-0.5,0.4-0.8,0.9-1,1.6v7.1h-1.1v-10.1H632.9z"/>
</g>
<g class="st21">
	<path class="st22" d="M661.1,463.6h-6.2l-1.4,3.8h-1.2l5.2-13.6h1.1l5.1,13.6h-1.2L661.1,463.6z M655.3,462.6h5.5l-2.7-7.4H658
		L655.3,462.6z"/>
</g>
<g class="st21">
	<path class="st22" d="M667.5,463.6l0.4,2.1l0.1,0l0.5-2.1l2.9-9.8h1.1l2.9,9.8l0.5,2.1l0.1,0l0.4-2.1l2.5-9.8h1.1l-3.5,13.6h-1.1
		l-3.1-10.4l-0.4-1.4h-0.1l-0.3,1.4l-3.1,10.4h-1.1l-3.5-13.6h1.1L667.5,463.6z"/>
	<path class="st22" d="M692,465.8c-0.3,0.4-0.9,0.9-1.7,1.2c-0.8,0.4-1.8,0.6-3,0.6c-1.6,0-2.9-0.5-3.9-1.6c-1-1.1-1.5-2.5-1.5-4.2
		v-2.5c0-1.7,0.5-3.1,1.4-4.1c1-1.1,2.2-1.6,3.7-1.6c1.5,0,2.6,0.4,3.4,1.1c0.8,0.7,1.3,1.7,1.4,2.9l0,0.1h-1
		c-0.2-0.9-0.5-1.6-1.1-2.2s-1.5-0.8-2.7-0.8c-1.2,0-2.2,0.4-2.9,1.3c-0.7,0.9-1.1,2-1.1,3.4v2.5c0,1.4,0.4,2.6,1.2,3.5
		s1.8,1.4,3.1,1.4c0.9,0,1.7-0.1,2.3-0.4c0.6-0.3,1.1-0.5,1.3-0.8v-3.5h-3.6v-1h4.7V465.8z"/>
	<path class="st22" d="M708,467.4h-8.4v-0.9l4.5-5c0.8-0.9,1.4-1.7,1.7-2.3c0.3-0.6,0.5-1.2,0.5-1.8c0-0.8-0.2-1.5-0.7-2
		c-0.5-0.5-1.2-0.8-2-0.8c-1,0-1.8,0.3-2.4,0.9c-0.5,0.6-0.8,1.3-0.8,2.3h-1l0-0.1c0-1.1,0.3-2.1,1.1-2.9c0.8-0.8,1.8-1.2,3.1-1.2
		c1.2,0,2.1,0.3,2.8,1c0.7,0.7,1.1,1.6,1.1,2.7c0,0.7-0.2,1.5-0.7,2.3c-0.5,0.8-1.1,1.6-2,2.6l-3.7,4.2l0,0h7V467.4z"/>
	<path class="st22" d="M718.7,462.1c0,1.8-0.4,3.1-1.1,4.1s-1.8,1.4-3.2,1.4c-1.3,0-2.4-0.5-3.2-1.4c-0.8-0.9-1.2-2.3-1.2-4v-3
		c0-1.8,0.4-3.1,1.1-4.1s1.8-1.4,3.2-1.4c1.4,0,2.4,0.5,3.2,1.4c0.8,1,1.1,2.3,1.1,4.1V462.1z M717.6,458.9c0-1.4-0.3-2.5-0.8-3.2
		c-0.5-0.8-1.3-1.1-2.4-1.1s-1.8,0.4-2.4,1.1c-0.5,0.8-0.8,1.8-0.8,3.2v3.4c0,1.4,0.3,2.5,0.8,3.2c0.6,0.8,1.3,1.1,2.4,1.1
		s1.8-0.4,2.4-1.1c0.5-0.8,0.8-1.8,0.8-3.2V458.9z"/>
</g>
</svg>
