<svg id="图层_1" data-name="图层 1" xmlns="http://www.w3.org/2000/svg" xmlns:xlink="http://www.w3.org/1999/xlink" viewBox="0 0 1440 540">
  <defs>
    <style>
      .cls-1, .cls-10, .cls-11, .cls-12, .cls-20 {
        fill: none;
      }

      .cls-2, .cls-4 {
        fill: #b0b0b1;
      }

      .cls-13, .cls-2, .cls-5, .cls-6, .cls-9 {
        fill-rule: evenodd;
      }

      .cls-3 {
        fill: #eff6e6;
      }

      .cls-5 {
        fill: url(#linear-gradient);
      }

      .cls-6 {
        fill: url(#linear-gradient-2);
      }

      .cls-7 {
        fill: url(#linear-gradient-3);
      }

      .cls-8 {
        fill: url(#linear-gradient-4);
      }

      .cls-9 {
        fill: url(#linear-gradient-5);
      }

      .cls-10 {
        stroke: #e5f3f5;
      }

      .cls-10, .cls-11, .cls-12, .cls-20 {
        stroke-miterlimit: 10;
      }

      .cls-10, .cls-11, .cls-12 {
        stroke-width: 0.2px;
      }

      .cls-11 {
        stroke: #b0b0b1;
      }

      .cls-12 {
        stroke: #b5c9ce;
      }

      .cls-13 {
        fill: url(#linear-gradient-6);
      }

      .cls-14 {
        clip-path: url(#clip-path);
      }

      .cls-15 {
        fill: #604c3f;
      }

      .cls-16 {
        font-size: 19.13px;
        fill: #151c51;
        font-family: Roboto-Light, Roboto;
      }

      .cls-17 {
        letter-spacing: -0.01em;
      }

      .cls-18 {
        letter-spacing: -0.01em;
      }

      .cls-19 {
        letter-spacing: -0.01em;
      }

      .cls-20 {
        stroke: #18244a;
      }

      .cls-21 {
        letter-spacing: -0.04em;
      }
    </style>
    <linearGradient id="linear-gradient" x1="12801.46" y1="2235.47" x2="12801.46" y2="2161.09" gradientTransform="matrix(-0.94, -0.35, -0.35, 0.94, 13665.8, 2669.08)" gradientUnits="userSpaceOnUse">
      <stop offset="0" stop-color="#b4b4b5"/>
      <stop offset="0.45" stop-color="#fff"/>
      <stop offset="0.77" stop-color="#fbfbfb"/>
      <stop offset="1" stop-color="#e6e6e6"/>
    </linearGradient>
    <linearGradient id="linear-gradient-2" x1="12846.3" y1="2217.56" x2="12884.85" y2="2179.01" gradientTransform="matrix(-0.94, -0.35, -0.35, 0.94, 13665.8, 2669.08)" gradientUnits="userSpaceOnUse">
      <stop offset="0" stop-color="#b4b4b5"/>
      <stop offset="0.37" stop-color="#e6e6e6"/>
      <stop offset="0.76" stop-color="#fff"/>
      <stop offset="1" stop-color="#eeeeef"/>
    </linearGradient>
    <linearGradient id="linear-gradient-3" x1="12889.44" y1="2208.32" x2="12889.44" y2="2187.31" gradientTransform="matrix(-0.94, -0.35, -0.35, 0.94, 13665.8, 2669.08)" gradientUnits="userSpaceOnUse">
      <stop offset="0" stop-color="#f8f0dc"/>
      <stop offset="0.17" stop-color="#d6ad3c"/>
      <stop offset="0.36" stop-color="#ca9a0c"/>
      <stop offset="0.76" stop-color="#f6e5b5"/>
      <stop offset="0.99" stop-color="#d6ad3c"/>
    </linearGradient>
    <linearGradient id="linear-gradient-4" x1="12909" y1="2201.72" x2="12922.62" y2="2193.35" gradientTransform="matrix(-0.94, -0.35, -0.35, 0.94, 13665.8, 2669.08)" gradientUnits="userSpaceOnUse">
      <stop offset="0" stop-color="#d6ad3c"/>
      <stop offset="0.15" stop-color="#f1dca1"/>
      <stop offset="0.37" stop-color="#ca9a0c"/>
      <stop offset="0.54" stop-color="#d6ad3c"/>
      <stop offset="0.65" stop-color="#f6e5b5"/>
      <stop offset="0.76" stop-color="#d0a429"/>
      <stop offset="0.97" stop-color="#cea120"/>
    </linearGradient>
    <linearGradient id="linear-gradient-5" x1="12561.57" y1="2238.14" x2="12561.57" y2="2158.43" gradientTransform="matrix(-0.94, -0.35, -0.35, 0.94, 13665.8, 2669.08)" gradientUnits="userSpaceOnUse">
      <stop offset="0" stop-color="#8b9294"/>
      <stop offset="0.28" stop-color="#7a7a7a"/>
      <stop offset="0.6" stop-color="#b0b0b1"/>
      <stop offset="0.73" stop-color="#dbe6ec"/>
      <stop offset="0.94" stop-color="#7a7a7a"/>
    </linearGradient>
    <linearGradient id="linear-gradient-6" x1="12373.9" y1="2151.47" x2="12373.9" y2="2246.26" gradientTransform="matrix(-0.94, -0.35, -0.35, 0.94, 13665.8, 2669.08)" gradientUnits="userSpaceOnUse">
      <stop offset="0" stop-color="#cdd3cb"/>
      <stop offset="0.22" stop-color="#eff6e6"/>
      <stop offset="0.31" stop-color="#eff7fa"/>
      <stop offset="0.45" stop-color="#eef2ec"/>
      <stop offset="0.91" stop-color="#c3cfd4"/>
    </linearGradient>
    <clipPath id="clip-path">
      <path class="cls-1" d="M969.53,255.42l0-.09,138.33,51.39,0,.06c.17,0,.35.06.51.12,7.51,2.79,7.4,21.78-.26,42.41s-20,35.09-27.49,32.3a4.42,4.42,0,0,1-.46-.26l0,.08L941.81,330l0-.09c7.56,1.74,19.37-12.43,26.81-32.46S976.4,259,969.53,255.42Z"/>
    </clipPath>
  </defs>
  <title>未标题-1</title>
  <g>
    <path class="cls-2" d="M1079.15,386.35c5.33,2,19.07-11.3,28.47-36.61s7.67-44.34,2.34-46.32-19.06,11.3-28.46,36.62S1073.82,384.37,1079.15,386.35Z"/>
    <path class="cls-3" d="M1078.37,338.88c8.92-24,23.09-40.93,32.07-38.56l-1.11,3c-5.69-.87-18.77,12.31-27.84,36.73s-7.77,42.93-2.89,46l-1.11,3C1069.14,385,1069.46,362.87,1078.37,338.88Z"/>
    <path class="cls-4" d="M887.42,267.33c7.49-20.18,19.42-34.41,27-32.42l-.93,2.52c-4.8-.73-15.78,10.36-23.4,30.88s-6.54,36.1-2.43,38.67l-.93,2.51C879.67,306.07,879.93,287.5,887.42,267.33Z"/>
    <g>
      <path class="cls-5" d="M962.22,255.44v0h.08c4.48,1.66,5.94,17.66-2,38.94s-19.45,32.45-23.93,30.78l-.07,0h0L826.86,284.51l25.9-69.73Z"/>
      <path class="cls-6" d="M827,284.56c4.48,1.66,16-9.49,23.94-30.78s6.43-37.28,2-38.95-16,9.51-23.92,30.79S822.54,282.9,827,284.56Z"/>
    </g>
    <g>
      <path class="cls-7" d="M842.77,239l0,.09c1.62.76,1.34,5.51-.65,10.86s-4.89,9.18-6.61,8.69l0,.06-45.71-17,7.31-19.69Z"/>
      <path class="cls-8" d="M791.08,231c-2,5.44-2.56,10.26-1.28,10.73s4-3.53,6-9,2.57-10.25,1.28-10.72S793.1,225.6,791.08,231Z"/>
    </g>
    <path class="cls-9" d="M914.64,277.44c7.44-20,7.75-38.47.88-42.08l0-.09,446.52,165.87-27.75,74.71L887.8,310l0-.09C895.4,311.64,907.2,297.47,914.64,277.44Z"/>
    <path class="cls-1" d="M912,276.46c-7.91,21.29-19.46,32.45-23.93,30.78a2,2,0,0,1-.45-.27l25.84-69.55a2.21,2.21,0,0,1,.52.09C918.46,239.18,919.92,255.18,912,276.46Z"/>
    <path class="cls-4" d="M888.08,307.25c4.48,1.66,16-9.5,23.93-30.78s6.44-37.28,2-38.94a2.21,2.21,0,0,0-.52-.09l.93-2.52c.16,0,.35.06.51.12,7.52,2.79,7.4,21.78-.26,42.41s-20,35.09-27.49,32.3a4.35,4.35,0,0,1-.46-.25l.93-2.51A2,2,0,0,0,888.08,307.25Z"/>
    <g>
      <path class="cls-10" d="M1010.62,271.59c-19.33-2-38.93,8.39-53.86,19.75-15.26,11.62-48.34,27-64.89,20"/>
      <path class="cls-11" d="M1009.83,270.86c-19.34-2-38.93,8.38-53.86,19.74-15.27,11.62-48.33,27-64.88,20"/>
    </g>
    <g>
      <path class="cls-10" d="M1130.58,316.15c-19.33-2-38.93,8.39-53.86,19.75-15.26,11.62-48.34,27-64.89,20"/>
      <path class="cls-11" d="M1129.79,315.42c-19.34-2-38.93,8.38-53.86,19.74-15.27,11.62-48.33,27-64.88,20"/>
    </g>
    <g>
      <path class="cls-10" d="M1293.74,376.76c-19.32-2-38.91,8.39-53.86,19.75-15.25,11.62-48.33,27-64.88,20"/>
      <path class="cls-12" d="M1292.94,376c-19.32-2-38.92,8.38-53.85,19.75-15.27,11.62-48.33,27-64.89,20"/>
    </g>
    <path class="cls-13" d="M1110.74,350.9c8.85-23.82,9.22-45.75,1.06-50.05l0-.1L1522.5,453.3l-33,88.86L1078.83,389.61l0-.11C1087.86,391.57,1101.89,374.72,1110.74,350.9Z"/>
    <path class="cls-1" d="M1107.61,349.74c-9.4,25.31-23.14,38.59-28.47,36.61a3.73,3.73,0,0,1-.54-.32l30.73-82.72a3,3,0,0,1,.62.11C1115.28,305.4,1117,324.42,1107.61,349.74Z"/>
    <path class="cls-3" d="M1079.15,386.35c5.33,2,19.07-11.3,28.47-36.61s7.67-44.34,2.34-46.32a3,3,0,0,0-.62-.11l1.11-3c.2.06.42.07.61.14,8.94,3.32,8.8,25.9-.32,50.44S1087,392.64,1078,389.32c-.19-.07-.36-.2-.55-.3l1.11-3A3.73,3.73,0,0,0,1079.15,386.35Z"/>
    <g class="cls-14">
      <g>
        <g>
          <polygon class="cls-15" points="1127.51 384.38 1129.14 383.7 1045.73 213.96 1044.11 214.64 1127.51 384.38"/>
          <polygon class="cls-15" points="1121.04 387.16 1122.66 386.47 1039.25 216.72 1037.63 217.4 1121.04 387.16"/>
          <polygon class="cls-15" points="1117.81 388.53 1119.42 387.83 1036.01 218.09 1034.39 218.78 1117.81 388.53"/>
          <polygon class="cls-15" points="1124.28 385.77 1125.9 385.08 1042.49 215.33 1040.88 216.03 1124.28 385.77"/>
        </g>
        <g>
          <polygon class="cls-15" points="1101.08 395.64 1102.7 394.96 1019.28 225.22 1017.67 225.91 1101.08 395.64"/>
          <polygon class="cls-15" points="1094.6 398.41 1096.22 397.72 1012.81 227.97 1011.2 228.67 1094.6 398.41"/>
          <polygon class="cls-15" points="1091.37 399.79 1092.99 399.1 1009.58 229.34 1007.96 230.04 1091.37 399.79"/>
          <polygon class="cls-15" points="1097.85 397.03 1099.46 396.35 1016.05 226.6 1014.42 227.29 1097.85 397.03"/>
        </g>
        <g>
          <polygon class="cls-15" points="1074.64 406.92 1076.27 406.23 992.85 236.49 991.23 237.17 1074.64 406.92"/>
          <polygon class="cls-15" points="1068.16 409.66 1069.79 408.98 986.37 239.24 984.77 239.93 1068.16 409.66"/>
          <polygon class="cls-15" points="1064.93 411.06 1066.55 410.37 983.14 240.62 981.52 241.31 1064.93 411.06"/>
          <polygon class="cls-15" points="1071.41 408.29 1073.03 407.61 989.62 237.87 987.99 238.55 1071.41 408.29"/>
        </g>
        <g>
          <polygon class="cls-15" points="1048.2 418.18 1049.82 417.48 966.41 247.74 964.8 248.44 1048.2 418.18"/>
          <polygon class="cls-15" points="1041.73 420.94 1043.35 420.25 959.94 250.5 958.32 251.18 1041.73 420.94"/>
          <polygon class="cls-15" points="1038.5 422.31 1040.11 421.64 956.7 251.88 955.08 252.57 1038.5 422.31"/>
          <polygon class="cls-15" points="1044.97 419.56 1046.59 418.87 963.18 249.12 961.55 249.81 1044.97 419.56"/>
        </g>
        <g>
          <polygon class="cls-15" points="934.16 312.56 1108.16 238.43 1107.39 236.86 933.38 310.98 934.16 312.56"/>
          <polygon class="cls-15" points="937.26 318.89 1111.27 244.75 1110.49 243.18 936.48 317.31 937.26 318.89"/>
          <polygon class="cls-15" points="938.82 322.04 1112.81 247.91 1112.04 246.34 938.04 320.45 938.82 322.04"/>
          <polygon class="cls-15" points="935.71 315.73 1109.71 241.6 1108.94 240.01 934.93 314.14 935.71 315.73"/>
        </g>
        <g>
          <polygon class="cls-15" points="946.84 338.35 1120.83 264.23 1120.06 262.65 946.06 336.77 946.84 338.35"/>
          <polygon class="cls-15" points="949.94 344.67 1123.94 270.55 1123.16 268.97 949.15 343.09 949.94 344.67"/>
          <polygon class="cls-15" points="951.49 347.83 1125.49 273.7 1124.72 272.12 950.71 346.25 951.49 347.83"/>
          <polygon class="cls-15" points="948.38 341.51 1122.38 267.39 1121.6 265.81 947.61 339.94 948.38 341.51"/>
        </g>
        <g>
          <polygon class="cls-15" points="959.5 364.15 1133.51 290.02 1132.73 288.45 958.73 362.56 959.5 364.15"/>
          <polygon class="cls-15" points="962.61 370.45 1136.6 296.33 1135.84 294.76 961.83 368.88 962.61 370.45"/>
          <polygon class="cls-15" points="964.16 373.62 1138.16 299.5 1137.38 297.92 963.39 372.05 964.16 373.62"/>
          <polygon class="cls-15" points="961.06 367.3 1135.06 293.18 1134.28 291.6 960.29 365.73 961.06 367.3"/>
        </g>
        <g>
          <polygon class="cls-15" points="972.17 389.94 1146.17 315.82 1145.41 314.23 971.4 388.35 972.17 389.94"/>
          <polygon class="cls-15" points="975.28 396.25 1149.29 322.12 1148.51 320.55 974.5 394.67 975.28 396.25"/>
          <polygon class="cls-15" points="976.84 399.41 1150.84 325.29 1150.05 323.7 976.05 397.84 976.84 399.41"/>
          <polygon class="cls-15" points="973.73 393.1 1147.74 318.97 1146.96 317.39 972.95 391.52 973.73 393.1"/>
        </g>
      </g>
    </g>
  </g>
  <text class="cls-16" transform="translate(735.71 358.31)">Ame: cuiv<tspan class="cls-17" x="81.73" y="0">r</tspan><tspan x="88.06" y="0">e acier 1,13mm</tspan></text>
  <text class="cls-16" transform="translate(735.71 91.13)">Diélectrictrique pol<tspan class="cls-18" x="156.64" y="0">y</tspan><tspan x="165.88" y="0">ethylene céllulai</tspan><tspan class="cls-19" x="299.53" y="0">r</tspan><tspan x="305.87" y="0">e</tspan></text>
  <text class="cls-16" transform="translate(920.47 156.16)">Ruban Aluminium/<tspan class="cls-18" x="157.91" y="0">P</tspan><tspan x="169.63" y="0">ol</tspan><tspan class="cls-18" x="184.62" y="0">y</tspan><tspan x="193.86" y="0">ester</tspan></text>
  <text class="cls-16" transform="translate(1027.88 222.06)">Gaine P<tspan class="cls-18" x="64.71" y="0">V</tspan><tspan x="76.39" y="0">C blanche</tspan></text>
  <line class="cls-20" x1="789.46" y1="248.97" x2="789.46" y2="323.35"/>
  <line class="cls-20" x1="994.16" y1="360.19" x2="994.16" y2="434.57"/>
  <line class="cls-20" x1="1132.39" y1="240.4" x2="1132.39" y2="295.92"/>
  <line class="cls-20" x1="881.61" y1="104.59" x2="881.61" y2="201.35"/>
  <line class="cls-20" x1="951.24" y1="163.19" x2="951.24" y2="233.19"/>
  <text class="cls-16" transform="translate(887.63 455.75)"><tspan xml:space="preserve">          </tspan><tspan class="cls-21" x="46.52" y="0">T</tspan><tspan class="cls-19" x="57.15" y="0">r</tspan><tspan x="63.49" y="0">esse Aluminium</tspan></text>
</svg>
