<svg id="图层_1" data-name="图层 1" xmlns="http://www.w3.org/2000/svg" xmlns:xlink="http://www.w3.org/1999/xlink" viewBox="0 0 1440 540">
  <defs>
    <style>
      .cls-1, .cls-36 {
        fill: none;
      }

      .cls-1 {
        stroke: #18244a;
        stroke-miterlimit: 10;
      }

      .cls-2 {
        font-size: 19.13px;
      }

      .cls-2, .cls-9 {
        fill: #18244a;
        font-family: Roboto-Light, Roboto;
      }

      .cls-3 {
        letter-spacing: -0.01em;
      }

      .cls-4 {
        letter-spacing: -0.01em;
      }

      .cls-5 {
        letter-spacing: 0em;
      }

      .cls-6 {
        letter-spacing: -0.01em;
      }

      .cls-7 {
        letter-spacing: -0.01em;
      }

      .cls-8 {
        letter-spacing: -0.03em;
      }

      .cls-9 {
        font-size: 21px;
      }

      .cls-10 {
        letter-spacing: -0.01em;
      }

      .cls-11 {
        letter-spacing: 0em;
      }

      .cls-12 {
        letter-spacing: -0.01em;
      }

      .cls-13 {
        letter-spacing: 0em;
      }

      .cls-14 {
        fill: #b0b0b1;
      }

      .cls-14, .cls-35 {
        fill-rule: evenodd;
      }

      .cls-15 {
        fill: #eff6e6;
      }

      .cls-16 {
        fill: #5f1985;
      }

      .cls-17 {
        fill: url(#linear-gradient);
      }

      .cls-18 {
        fill: #7b1c75;
      }

      .cls-19 {
        fill: #382a54;
      }

      .cls-20 {
        fill: #d6ad3c;
      }

      .cls-21 {
        fill: #ca9a0c;
      }

      .cls-22 {
        fill: #f29600;
      }

      .cls-23 {
        fill: #fff000;
      }

      .cls-24 {
        fill: #b0a117;
      }

      .cls-25 {
        fill: #976024;
      }

      .cls-26 {
        fill: #9e9e9f;
      }

      .cls-27 {
        fill: #dbdcdc;
      }

      .cls-28 {
        fill: #b4b4b5;
      }

      .cls-29 {
        fill: #717071;
      }

      .cls-30 {
        fill: #182987;
      }

      .cls-31 {
        fill: #2ca6e0;
      }

      .cls-32 {
        fill: #137eab;
      }

      .cls-33 {
        fill: #19254a;
      }

      .cls-34 {
        fill: #c8c9ca;
      }

      .cls-35 {
        fill: url(#linear-gradient-2);
      }
    </style>
    <linearGradient id="linear-gradient" x1="10057.09" y1="2272.8" x2="10412.26" y2="2272.8" gradientTransform="matrix(-0.9, -0.43, -0.43, 0.9, 11173.07, 2520.21)" gradientUnits="userSpaceOnUse">
      <stop offset="0.23" stop-color="#9b4f9a"/>
      <stop offset="0.61" stop-color="#9b4f9a"/>
      <stop offset="1" stop-color="#9b4f9a"/>
    </linearGradient>
    <linearGradient id="linear-gradient-2" x1="10273.5" y1="1677.18" x2="10273.5" y2="1769.71" gradientTransform="matrix(-0.96, -0.28, -0.28, 0.96, 11590.63, 1556.94)" gradientUnits="userSpaceOnUse">
      <stop offset="0" stop-color="#cdd3cb"/>
      <stop offset="0.22" stop-color="#eff6e6"/>
      <stop offset="0.31" stop-color="#eff7fa"/>
      <stop offset="0.45" stop-color="#eef2ec"/>
      <stop offset="0.91" stop-color="#c3cfd4"/>
    </linearGradient>
  </defs>
  <title>未标题-1</title>
  <line class="cls-1" x1="1077.93" y1="357.86" x2="1077.93" y2="410.31"/>
  <polyline class="cls-1" points="1006.41 152.13 939.67 152.13 939.67 189.54"/>
  <polyline class="cls-1" points="767.89 362.24 745.91 362.24 745.91 273.42"/>
  <polyline class="cls-1" points="901.32 95.85 804.33 95.85 804.33 137.8"/>
  <text class="cls-2" transform="translate(1008.91 435.29)">Gaine P<tspan class="cls-3" x="64.71" y="0">V</tspan><tspan x="76.39" y="0">C i</tspan><tspan class="cls-4" x="97.65" y="0">v</tspan><tspan class="cls-5" x="106.87" y="0">oi</tspan><tspan class="cls-6" x="121.86" y="0">r</tspan><tspan x="128.2" y="0">e</tspan></text>
  <text class="cls-2" transform="translate(776.66 367.8)">Ame cuiv<tspan class="cls-7" x="77.68" y="0">r</tspan><tspan x="84.01" y="0">e nu/</tspan><tspan x="0" y="22.96">Cuiv</tspan><tspan class="cls-6" x="36.62" y="22.96">r</tspan><tspan x="42.95" y="22.96">e Aluminium </tspan><tspan class="cls-8" x="152.95" y="22.96">A</tspan><tspan x="164.26" y="22.96">WG24</tspan></text>
  <text class="cls-9" transform="translate(1014.37 158.89)">Fil de déchi<tspan class="cls-10" x="104.21" y="0">r</tspan><tspan class="cls-11" x="111.16" y="0">ement</tspan></text>
  <text class="cls-2" transform="translate(915.37 102.57)">Isolant : <tspan class="cls-12" x="70.56" y="0">P</tspan><tspan class="cls-13" x="82.27" y="0">ol</tspan><tspan class="cls-12" x="97.27" y="0">y</tspan><tspan class="cls-13" x="106.5" y="0">éthylène</tspan></text>
  <g>
    <path class="cls-14" d="M1006.5,318.53c5.33,1.55,17.76-12.35,25.12-37.66s4.32-43.7-1-45.25-17.75,12.35-25.11,37.66S1001.18,317,1006.5,318.53Z"/>
    <path class="cls-15" d="M1002.38,272.36c7-24,19.59-41.48,28.5-39.8l-.87,3c-5.6-.44-17.4,13.31-24.5,37.72s-4.52,42.34.44,45l-.87,3C996.67,317.88,995.4,296.35,1002.38,272.36Z"/>
    <g>
      <g>
        <path class="cls-16" d="M1099.74,300.42l5.5-7c-7.53-5.5-13.17-10.43-18.64-15.19-11.2-9.77-21.78-19-45.26-29.82l-3.84,8c22.2,10.24,31.82,18.62,43,28.32C1086.06,289.62,1091.87,294.69,1099.74,300.42Z"/>
        <path class="cls-16" d="M781.56,153.61c26.63,3.64,50.58,7.63,74.92,19.33l4-7.9c-25.48-12.32-50.38-16.46-77.86-20.21Z"/>
        <path class="cls-16" d="M942.33,227.4c27.76,12.8,43.71,15.59,57.78,18,11.78,2.06,21.94,3.83,37.39,11l3.84-8c-16.61-7.66-27.88-9.62-39.81-11.71-14.13-2.48-28.77-5-55.37-17.29Z"/>
        <path class="cls-17" d="M847.69,184.34l2.89,1.3c13.46,5.91,26,8.66,39.34,11.6,16.23,3.58,34.65,7.63,58.05,18.42,26.6,12.27,37.93,21.67,48.88,30.77,9.24,7.68,18,14.92,34.57,22.59,23.48,10.83,37.48,12.94,52.32,15.17,7.23,1.09,14.7,2.21,23.83,4.39l2-8.61c-9.52-2.28-17.21-3.44-24.66-4.56-14.73-2.22-27.46-4.13-49.66-14.37-15.45-7.13-23.33-13.67-32.44-21.24-10.9-9-23.25-19.31-51-32.12-24.39-11.24-43.33-15.39-60-19.08-12.83-2.83-24.95-5.5-37.5-11-24.8-10.8-43.13-26.43-62.95-44.22l-6.24,6.39C804.76,157.42,823.13,173,847.69,184.34Z"/>
        <path class="cls-16" d="M942.33,227.4l3.83-8c-23.41-10.8-38.32-22.11-51.48-32.08-10.78-8.17-21-15.89-34.2-22.3l-4,7.9c12.34,6,22.17,13.43,32.56,21.29C902.59,204.51,917.94,216.16,942.33,227.4Z"/>
        <path class="cls-18" d="M787.28,135.63c-1.67,1.74-2.54,3.55-2,4.07s2.41-.44,4.1-2.16,2.55-3.56,2-4.06S789,133.91,787.28,135.63Z"/>
        <path class="cls-19" d="M780.65,149.07c-.21,2.38.27,4.36,1.06,4.45s1.6-1.77,1.81-4.12-.26-4.38-1-4.44S780.87,146.7,780.65,149.07Z"/>
      </g>
      <g>
        <path class="cls-20" d="M789.55,135.31v0c.19.23-.2.95-.93,1.64s-1.47,1.08-1.71.9h0l-4.11-3.92,2.65-2.54Z"/>
        <path class="cls-21" d="M783.81,132.38c-.73.7-1.19,1.39-1,1.57s.92-.28,1.65-1,1.18-1.4,1-1.56S784.55,131.67,783.81,132.38Z"/>
      </g>
      <g>
        <path class="cls-20" d="M782,147.48v0c.29,0,.48.84.42,1.85s-.35,1.75-.67,1.76h0l-5.7-.51.24-3.62Z"/>
        <path class="cls-21" d="M775.78,148.77c-.06,1,.08,1.82.32,1.86s.49-.79.55-1.78-.08-1.83-.31-1.86S775.86,147.76,775.78,148.77Z"/>
      </g>
    </g>
    <g>
      <g>
        <path class="cls-22" d="M1100.23,304.7l4.56-7.62c-8.15-4.59-14.37-8.84-20.37-12.93-12.34-8.44-24-16.4-48.56-24.44l-2.79,8.38c23.27,7.61,33.84,14.83,46.09,23.21C1085.34,295.53,1091.73,299.9,1100.23,304.7Z"/>
        <path class="cls-22" d="M766.82,195.53c26.81.53,51,1.7,76.58,10.53l2.95-8.34c-26.79-9.31-51.93-10.53-79.59-11.06Z"/>
        <path class="cls-22" d="M935.24,250.28c29.1,9.52,45.22,10.44,59.45,11.24,11.91.69,22.19,1.27,38.38,6.57l2.79-8.38c-17.42-5.69-28.81-6.34-40.87-7-14.3-.81-29.1-1.66-57-10.78Z"/>
        <path class="cls-23" d="M836.15,218.42l3,1c14.08,4.3,26.85,5.6,40.4,7,16.51,1.68,35.23,3.58,59.76,11.61,27.87,9.12,40.28,17.16,52.27,24.95,10.12,6.56,19.68,12.76,37.09,18.46,24.6,8,38.71,8.51,53.68,9,7.29.25,14.82.5,24.13,1.62l.88-8.82c-9.72-1.16-17.46-1.42-25-1.67-14.85-.49-27.68-.91-50.95-8.53-16.19-5.29-24.81-10.89-34.79-17.36-11.94-7.75-25.47-16.52-54.56-26-25.56-8.35-44.82-10.31-61.82-12-13-1.33-25.38-2.57-38.51-6.6-25.9-7.87-46-21.3-67.9-36.71l-5.35,7.09C790.25,196.62,810.42,210,836.15,218.42Z"/>
        <path class="cls-22" d="M935.24,250.28,938,241.9c-24.54-8-40.74-17.55-55-26-11.71-6.89-22.77-13.39-36.66-18.23l-2.95,8.34c13,4.49,23.63,10.78,34.92,17.41C893,232.12,909.68,241.93,935.24,250.28Z"/>
        <path class="cls-24" d="M770.18,176.94c-1.43,1.94-2.06,3.84-1.43,4.3s2.34-.72,3.78-2.64,2.07-3.84,1.43-4.28S771.63,175,770.18,176.94Z"/>
        <path class="cls-25" d="M765.35,191.1c.09,2.4.82,4.34,1.62,4.31s1.36-2,1.27-4.32-.83-4.35-1.59-4.31S765.26,188.71,765.35,191.1Z"/>
      </g>
      <g>
        <path class="cls-20" d="M772.39,176.36v0c.22.2-.07,1-.71,1.74s-1.32,1.24-1.57,1.09h0l-4.57-3.43,2.31-2.83Z"/>
        <path class="cls-21" d="M766.35,174.1c-.64.78-1,1.53-.81,1.68s.86-.38,1.5-1.16,1-1.55.81-1.69S767,173.32,766.35,174.1Z"/>
      </g>
      <g>
        <path class="cls-20" d="M766.51,189.36l0,0c.29,0,.59.79.66,1.79s-.13,1.78-.44,1.83h0l-5.71.16-.22-3.63Z"/>
        <path class="cls-21" d="M760.5,191.38c.06,1,.31,1.8.55,1.79s.4-.82.32-1.83-.32-1.81-.54-1.81S760.44,190.36,760.5,191.38Z"/>
      </g>
    </g>
    <g>
      <g>
        <path class="cls-26" d="M1096.07,325.38l3.08-8.28c-8.82-3.21-15.68-6.38-22.31-9.45-13.62-6.29-26.47-12.23-52-16.12l-1.2,8.77c24.18,3.68,35.86,9.07,49.38,15.33C1079.8,318.78,1086.85,322,1096.07,325.38Z"/>
        <path class="cls-26" d="M749.54,272.65c26.37-3.93,50.28-6.78,76.94-2.29l1.37-8.73c-27.93-4.77-52.79-1.81-80,2.26Z"/>
        <path class="cls-26" d="M924.51,298.91c30.24,4.6,46.21,2.83,60.3,1.27,11.79-1.3,22-2.43,38.79.12l1.2-8.77c-18.09-2.74-29.38-1.49-41.32-.18-14.15,1.58-28.8,3.2-57.77-1.21Z"/>
        <path class="cls-27" d="M821.64,283.82c1,.16,2.09.31,3.13.44,14.56,1.94,27.33,1.1,40.84.21,16.48-1.08,35.16-2.31,60.66,1.55,29,4.4,42.59,10.31,55.75,16,11.12,4.82,21.61,9.38,39.69,12.13,25.57,3.88,39.48,2,54.24,0,7.18-1,14.61-2,23.93-2.43l-.73-8.86c-9.74.47-17.37,1.5-24.76,2.5-14.64,2-27.29,3.68-51.48,0-16.82-2.54-26.28-6.66-37.25-11.41-13.11-5.69-27.95-12.15-58.18-16.74-26.56-4-45.79-2.75-62.77-1.62-13,.84-25.33,1.66-38.91-.15C799,272,776.83,262,752.6,250.4l-4,7.91C772.7,269.85,794.9,279.76,821.64,283.82Z"/>
        <path class="cls-26" d="M924.51,298.91l1.2-8.76c-25.51-3.87-43.1-10.61-58.62-16.54-12.73-4.88-24.75-9.48-39.24-12l-1.37,8.73c13.53,2.31,25.12,6.76,37.38,11.44C879.85,287.94,898,294.88,924.51,298.91Z"/>
        <path class="cls-28" d="M749.46,253.71c-1.06,2.15-1.33,4.15-.63,4.49s2.16-1.11,3.23-3.24,1.33-4.15.62-4.47S750.52,251.58,749.46,253.71Z"/>
        <path class="cls-29" d="M747.3,268.53c.53,2.35,1.59,4.13,2.36,4s1-2.15.45-4.49-1.6-4.15-2.34-4S746.78,266.18,747.3,268.53Z"/>
      </g>
      <g>
        <path class="cls-20" d="M751.52,252.77v0c.26.18.1,1-.38,1.84s-1.07,1.44-1.35,1.35h0l-5.1-2.64,1.74-3.19Z"/>
        <path class="cls-21" d="M745.18,251.53c-.47.89-.69,1.69-.48,1.81s.77-.52,1.25-1.4.69-1.68.48-1.79S745.67,250.65,745.18,251.53Z"/>
      </g>
      <g>
        <path class="cls-20" d="M748.11,266.61l0,0c.29,0,.71.69,1,1.68s.21,1.78-.09,1.87h0l-5.57,1.12-.87-3.56Z"/>
        <path class="cls-21" d="M742.59,269.6c.24,1,.63,1.74.87,1.7s.22-.88,0-1.87-.64-1.74-.85-1.72S742.35,268.62,742.59,269.6Z"/>
      </g>
    </g>
    <g>
      <g>
        <path class="cls-30" d="M1096.11,316.84l4-7.91c-8.45-4.06-14.94-7.89-21.22-11.59-12.9-7.6-25.06-14.78-50.14-21.17l-2.16,8.57c23.72,6.05,34.77,12.57,47.58,20.12C1080.61,308.66,1087.28,312.61,1096.11,316.84Z"/>
        <path class="cls-30" d="M756.21,229.93c26.73-1.26,50.89-1.69,77,5.43l2.33-8.53c-27.34-7.53-52.46-7.06-80-5.76Z"/>
        <path class="cls-30" d="M927.87,273.46c29.66,7.57,45.78,7.41,60,7.28,11.91-.13,22.17-.22,38.69,4l2.16-8.57c-17.75-4.53-29.14-4.42-41.21-4.31-14.29.14-29.08.28-57.5-7Z"/>
        <path class="cls-31" d="M826.9,248.22c1,.26,2,.51,3.07.74,14.32,3.37,27.15,3.82,40.72,4.29,16.56.56,35.33,1.21,60.34,7.6,28.41,7.26,41.36,14.48,53.86,21.46,10.55,5.88,20.52,11.45,38.26,16,25.08,6.4,39.16,5.94,54.1,5.44,7.27-.25,14.79-.5,24.14,0l.23-8.86c-9.76-.51-17.49-.25-25,0-14.83.51-27.62.94-51.34-5.13-16.5-4.21-25.5-9.24-35.91-15-12.45-6.94-26.55-14.82-56.22-22.39-26-6.65-45.37-7.3-62.43-7.89-13.08-.46-25.44-.88-38.81-4-26.36-6.14-47.37-18.23-70.27-32.18l-4.82,7.44C779.61,229.47,800.67,241.52,826.9,248.22Z"/>
        <path class="cls-30" d="M927.87,273.46l2.15-8.58c-25-6.39-41.82-14.83-56.65-22.27-12.16-6.11-23.65-11.88-37.84-15.78l-2.33,8.53c13.24,3.64,24.32,9.21,36,15.08C884.51,258.11,901.82,266.8,927.87,273.46Z"/>
        <path class="cls-32" d="M758.19,211.14c-1.28,2-1.77,4-1.11,4.38s2.28-.88,3.58-2.88,1.78-4,1.11-4.37S759.5,209.14,758.19,211.14Z"/>
        <path class="cls-33" d="M754.42,225.62c.26,2.4,1.13,4.27,1.92,4.22s1.21-2,.95-4.41-1.14-4.27-1.91-4.2S754.15,223.23,754.42,225.62Z"/>
      </g>
      <g>
        <path class="cls-20" d="M760.35,210.41v0c.24.2,0,1-.59,1.78s-1.21,1.33-1.49,1.2h0l-4.79-3.12,2.09-3Z"/>
        <path class="cls-21" d="M754.16,208.56c-.58.83-.88,1.6-.68,1.75s.84-.44,1.42-1.26.87-1.6.68-1.74S754.74,207.73,754.16,208.56Z"/>
      </g>
      <g>
        <path class="cls-20" d="M755.44,223.8l0,0c.3,0,.64.75.77,1.75s0,1.79-.3,1.85h0l-5.68.55-.48-3.62Z"/>
        <path class="cls-21" d="M749.6,226.22c.14,1,.44,1.78.67,1.78s.33-.86.18-1.87-.45-1.79-.67-1.77S749.47,225.2,749.6,226.22Z"/>
      </g>
    </g>
    <path class="cls-34" d="M1078,287.44a1.68,1.68,0,0,0,1-.14,1.57,1.57,0,0,0,.75-2.18c-12.55-23.69-44.6-42.18-65.82-54.42-5.08-2.92-9.47-5.45-12.93-7.67-10.78-6.88-29.71-15.17-48-23.19-16.76-7.33-32.6-14.28-42.27-20-17.39-10.38-63.59-37.93-75.9-59.8a1.79,1.79,0,0,0-2.33-.72,1.58,1.58,0,0,0-.68,2.21C843.14,141.57,879,164.67,909,182.55c9.87,5.89,25.81,12.88,42.67,20.26,18.17,8,37,16.19,47.51,22.93,3.53,2.25,8,4.8,13.07,7.75,20.86,12,52.4,30.21,64.48,53A1.78,1.78,0,0,0,1078,287.44Z"/>
    <path class="cls-35" d="M1034.75,281.78c6.93-23.81,5.74-45.18-2.52-48.79l0-.11,450.45,131-25.84,88.84-450.45-131,0-.1C1015.36,323,1027.82,305.59,1034.75,281.78Z"/>
    <path class="cls-36" d="M1031.62,280.87c-7.36,25.31-19.79,39.21-25.12,37.66a3.3,3.3,0,0,1-.55-.28l24.05-82.7a3,3,0,0,1,.61.07C1035.94,237.17,1039,255.56,1031.62,280.87Z"/>
    <path class="cls-15" d="M1006.5,318.53c5.33,1.55,17.76-12.35,25.12-37.66s4.32-43.7-1-45.25a3,3,0,0,0-.61-.07l.87-3a5.41,5.41,0,0,1,.61.09c8.94,2.6,10.4,24.59,3.26,49.13s-20.17,42.31-29.1,39.71c-.19-.05-.37-.18-.56-.25l.87-3A3.3,3.3,0,0,0,1006.5,318.53Z"/>
  </g>
</svg>
