<svg id="图层_1" data-name="图层 1" xmlns="http://www.w3.org/2000/svg" xmlns:xlink="http://www.w3.org/1999/xlink" viewBox="0 0 1440 540">
  <defs>
    <style>
      .cls-1, .cls-16, .cls-17, .cls-18, .cls-20 {
        fill: none;
      }

      .cls-1 {
        stroke: #18244a;
      }

      .cls-1, .cls-17, .cls-18, .cls-20 {
        stroke-miterlimit: 10;
      }

      .cls-2, .cls-5 {
        fill: #b0b0b1;
      }

      .cls-19, .cls-2, .cls-22, .cls-4 {
        fill-rule: evenodd;
      }

      .cls-3 {
        fill: #eff6e6;
      }

      .cls-4 {
        fill: #8b9294;
      }

      .cls-6 {
        fill: #2ca6e0;
      }

      .cls-7 {
        fill: #182987;
      }

      .cls-8 {
        fill: #19254a;
      }

      .cls-9 {
        fill: #137eab;
      }

      .cls-10 {
        fill: #d6ad3c;
      }

      .cls-11 {
        fill: #ca9a0c;
      }

      .cls-12 {
        fill: #dbdcdc;
      }

      .cls-13 {
        fill: #b4b4b5;
      }

      .cls-14 {
        fill: #fff000;
      }

      .cls-15 {
        fill: url(#linear-gradient);
      }

      .cls-17 {
        stroke: #e5f3f5;
      }

      .cls-17, .cls-18, .cls-20 {
        stroke-width: 0.2px;
      }

      .cls-18 {
        stroke: #b5c9ce;
      }

      .cls-19 {
        fill: url(#linear-gradient-2);
      }

      .cls-20 {
        stroke: #b0b0b1;
      }

      .cls-21 {
        fill: url(#linear-gradient-3);
      }

      .cls-22 {
        fill: url(#linear-gradient-4);
      }

      .cls-23 {
        font-size: 19.13px;
        fill: #18244a;
        font-family: Roboto-Light, Roboto;
      }

      .cls-24 {
        letter-spacing: -0.01em;
      }

      .cls-25 {
        letter-spacing: -0.01em;
      }

      .cls-26 {
        letter-spacing: -0.01em;
      }

      .cls-27 {
        letter-spacing: 0em;
      }

      .cls-28 {
        letter-spacing: -0.01em;
      }

      .cls-29 {
        letter-spacing: -0.03em;
      }
    </style>
    <linearGradient id="linear-gradient" x1="11806.85" y1="1798.39" x2="12112.24" y2="1775.64" gradientTransform="matrix(-0.76, 0.65, -0.65, -0.76, 10714.43, -6316.15)" gradientUnits="userSpaceOnUse">
      <stop offset="0.2" stop-color="#c3cfd4"/>
      <stop offset="0.29" stop-color="#edeeee"/>
      <stop offset="0.37" stop-color="#c3cfd4"/>
      <stop offset="0.44" stop-color="#eff6e6"/>
      <stop offset="0.61" stop-color="#c3cfd4"/>
    </linearGradient>
    <linearGradient id="linear-gradient-2" x1="616.89" y1="-1762.3" x2="616.89" y2="-1831.97" gradientTransform="translate(407.77 2214.89) rotate(-23.13)" gradientUnits="userSpaceOnUse">
      <stop offset="0" stop-color="#8b9294"/>
      <stop offset="0.2" stop-color="#878888"/>
      <stop offset="0.6" stop-color="#d0d1d1"/>
      <stop offset="0.73" stop-color="#fff"/>
      <stop offset="0.94" stop-color="#878888"/>
    </linearGradient>
    <linearGradient id="linear-gradient-3" x1="674.48" y1="-1760.2" x2="985.78" y2="-1760.2" gradientTransform="translate(407.77 2214.89) rotate(-23.13)" gradientUnits="userSpaceOnUse">
      <stop offset="0" stop-color="#d0d1d1"/>
      <stop offset="0.17" stop-color="#edeeee"/>
      <stop offset="1" stop-color="#bcbfc0"/>
    </linearGradient>
    <linearGradient id="linear-gradient-4" x1="504.86" y1="-1844.75" x2="504.86" y2="-1748.4" gradientTransform="translate(407.77 2214.89) rotate(-23.13)" gradientUnits="userSpaceOnUse">
      <stop offset="0" stop-color="#5f5e5d"/>
      <stop offset="0.2" stop-color="#b0b0b1"/>
      <stop offset="0.3" stop-color="#c2c2c5"/>
      <stop offset="0.66" stop-color="#8b9294"/>
      <stop offset="0.91" stop-color="#5f5e5d"/>
    </linearGradient>
  </defs>
  <title>未标题-1</title>
  <line class="cls-1" x1="530.51" y1="76.55" x2="530.51" y2="146.6"/>
  <polyline class="cls-1" points="690.09 416.28 690.09 191.3 666.28 191.3"/>
  <line class="cls-1" x1="570.85" y1="257.39" x2="570.85" y2="307.63"/>
  <line class="cls-1" x1="387.4" y1="166.52" x2="387.4" y2="231.8"/>
  <line class="cls-1" x1="437.47" y1="303.36" x2="437.47" y2="394.58"/>
  <g>
    <path class="cls-2" d="M411.15,308.72c-5.31,2.27-19.91-10.54-30.69-35.78s-9.95-44.64-4.63-46.91,19.9,10.54,30.68,35.79S416.47,306.45,411.15,308.72Z"/>
    <path class="cls-3" d="M409.63,260.48c-10.22-23.93-25.45-40.42-34.45-37.57l1.27,3c5.74-1.15,19.65,11.58,30.05,35.93s10,43.21,5.18,46.55l1.27,3C421.24,306.82,419.85,284.41,409.63,260.48Z"/>
    <path class="cls-4" d="M473.64,267.6c-3.84,1.64-14.39-7.62-22.19-25.88s-7.19-32.28-3.35-33.92,14.39,7.62,22.19,25.88S477.48,266,473.64,267.6Z"/>
    <path class="cls-5" d="M472.81,232.89c-7.39-17.3-18.4-29.23-24.9-27.17l.92,2.16c4.15-.84,14.21,8.38,21.73,26s7.23,31.24,3.75,33.66l.92,2.15C481.2,266.39,480.2,250.19,472.81,232.89Z"/>
    <g>
      <g>
        <g>
          <path class="cls-6" d="M313.47,313.07,309.06,305c8.65-4.51,15.28-8.73,21.68-12.81,13.16-8.36,25.57-16.25,51.45-23.79l2.54,8.85c-24.47,7.12-35.75,14.29-48.82,22.6C329.32,304,322.51,308.38,313.47,313.07Z"/>
          <path class="cls-6" d="M664.2,210.81c-27.87-.37-53,0-79.94,8.33l-2.73-8.79c28.19-8.79,54.37-9.18,83.11-8.78Z"/>
          <path class="cls-6" d="M487.06,262.08c-30.61,8.91-47.39,9.3-62.2,9.66-12.4.29-23.09.55-40.14,5.51l-2.54-8.85c18.31-5.33,30.18-5.62,42.73-5.92,14.88-.35,30.28-.71,59.6-9.25Z"/>
          <path class="cls-7" d="M591.26,232.29c-1,.31-2.1.61-3.16.89-14.79,4-28.12,4.92-42.24,5.88-17.21,1.17-36.72,2.49-62.54,10C454,257.6,440.78,265.57,428,273.26c-10.78,6.49-21,12.63-39.27,18-25.88,7.53-40.56,7.53-56.12,7.53-7.58,0-15.41,0-25.12.83l-.56-9.22c10.14-.86,18.2-.87,26-.86,15.45,0,28.78,0,53.26-7.13,17-5,26.21-10.51,36.85-16.91,12.72-7.66,27.12-16.35,57.73-25.26,26.88-7.83,47-9.18,64.69-10.38,13.6-.93,26.46-1.81,40.26-5.55,27.21-7.31,48.66-20.62,72-35.93l5.28,7.58C639.83,211.14,618.34,224.4,591.26,232.29Z"/>
          <path class="cls-6" d="M487.06,262.08l-2.54-8.85c25.81-7.51,43-16.89,58.19-25.14,12.45-6.78,24.21-13.18,38.83-17.73l2.73,8.79c-13.66,4.24-25,10.43-37,16.95C531.65,244.6,513.94,254.24,487.06,262.08Z"/>
          <path class="cls-8" d="M661.49,191.32c1.4,2.06,2,4.09,1.31,4.53S660.39,195,659,193s-2-4.09-1.31-4.52S660.05,189.29,661.49,191.32Z"/>
          <path class="cls-9" d="M665.92,206.26c-.18,2.5-1,4.48-1.85,4.46s-1.34-2.09-1.14-4.56,1-4.49,1.84-4.44S666.1,203.77,665.92,206.26Z"/>
        </g>
        <g>
          <path class="cls-10" d="M659.22,190.64v0c-.25.21,0,1,.66,1.84s1.31,1.34,1.61,1.2h0l4.87-3.41-2.28-3Z"/>
          <path class="cls-11" d="M665.58,188.49c.63.84,1,1.64.77,1.79s-.88-.43-1.51-1.27-1-1.63-.77-1.77S665,187.65,665.58,188.49Z"/>
        </g>
        <g>
          <path class="cls-10" d="M664.79,204.4l0,0c-.31,0-.65.8-.75,1.84s0,1.87.37,1.92h0l5.92.37.37-3.77Z"/>
          <path class="cls-11" d="M670.95,206.71c-.11,1-.39,1.88-.65,1.88s-.37-.89-.25-1.93.4-1.88.62-1.87S671,205.65,670.95,206.71Z"/>
        </g>
      </g>
      <g>
        <g>
          <path class="cls-6" d="M312.77,311l-5.11-7.67c8.23-5.25,14.46-10,20.49-14.65,12.39-9.48,24.06-18.42,49.18-28.18l3.3,8.6c-23.76,9.23-34.37,17.35-46.66,26.76C327.77,300.58,321.35,305.5,312.77,311Z"/>
          <path class="cls-6" d="M653.24,178.53c-27.79,2-52.82,4.62-78.91,15.26l-3.48-8.52c27.33-11.21,53.36-13.88,82-16Z"/>
          <path class="cls-6" d="M481.25,245c-29.72,11.55-46.4,13.41-61.13,15-12.33,1.37-23,2.56-39.5,9l-3.3-8.6c17.78-6.9,29.57-8.22,42.05-9.61,14.79-1.64,30.09-3.35,58.56-14.41Z"/>
          <path class="cls-12" d="M582.46,206.29c-1,.39-2.05.78-3.08,1.16-14.37,5.28-27.58,7.35-41.56,9.54-17,2.66-36.37,5.69-61.42,15.42-28.47,11.06-40.94,20.15-53,28.93-10.17,7.41-19.78,14.41-37.56,21.32-25.12,9.76-39.74,11-55.24,12.4-7.55.66-15.36,1.34-24.95,3l-1.36-9.13c10-1.75,18.06-2.45,25.82-3.13,15.39-1.34,28.68-2.5,52.44-11.74,16.53-6.43,25.19-12.74,35.23-20.05,12-8.73,25.59-18.65,55.31-30.19,26.1-10.14,46-13.24,63.55-16,13.47-2.11,26.2-4.1,39.62-9,26.48-9.65,46.69-24.78,68.61-42.07l5.91,7.09C629,181,608.74,196.07,582.46,206.29Z"/>
          <path class="cls-6" d="M481.25,245l-3.3-8.59c25.06-9.74,41.39-20.57,55.78-30.12,11.81-7.84,23-15.24,37.13-21l3.48,8.52c-13.23,5.42-24,12.57-35.36,20.1C524.14,223.74,507.34,234.9,481.25,245Z"/>
          <path class="cls-13" d="M648.85,159.35c1.57,1.93,2.33,3.89,1.69,4.4s-2.47-.63-4.05-2.53-2.34-3.9-1.7-4.39S647.24,157.45,648.85,159.35Z"/>
          <path class="cls-9" d="M654.56,173.84c0,2.5-.64,4.55-1.45,4.59s-1.52-2-1.54-4.44.64-4.57,1.45-4.59S654.53,171.35,654.56,173.84Z"/>
        </g>
        <g>
          <path class="cls-10" d="M646.53,158.87v0c-.23.23.12,1,.82,1.77s1.43,1.22,1.69,1.05h0l4.57-3.83-2.54-2.83Z"/>
          <path class="cls-11" d="M652.67,156.17c.7.79,1.11,1.55.93,1.72s-.92-.35-1.62-1.13-1.11-1.54-.92-1.7S652,155.39,652.67,156.17Z"/>
        </g>
        <g>
          <path class="cls-10" d="M653.27,172.1l0,0c-.31,0-.57.86-.58,1.9s.21,1.86.53,1.88h0l5.94-.15,0-3.79Z"/>
          <path class="cls-11" d="M659.61,173.85c0,1.06-.23,1.9-.48,1.92s-.45-.85-.42-1.9.24-1.9.47-1.91S659.61,172.79,659.61,173.85Z"/>
        </g>
      </g>
      <g>
        <g>
          <path class="cls-6" d="M312.52,308.28l-5.74-7.19c7.73-6,13.53-11.26,19.13-16.38,11.51-10.52,22.36-20.44,46.53-32.36l4,8.28c-22.86,11.26-32.72,20.28-44.15,30.73C326.56,296.62,320.6,302.09,312.52,308.28Z"/>
          <path class="cls-6" d="M640.17,146.67c-27.51,4.46-52.22,9.21-77.28,22.08l-4.21-8.19C584.92,147,610.62,142.09,639,137.49Z"/>
          <path class="cls-6" d="M474.61,227.92C446,242,429.56,245.31,415,248.23c-12.16,2.43-22.64,4.55-38.56,12.39l-4-8.28c17.12-8.42,28.75-10.76,41.06-13.24,14.6-2.93,29.69-6,57.1-19.46Z"/>
          <path class="cls-14" d="M572.07,180.49c-1,.48-2,1-3,1.42-13.86,6.51-26.84,9.73-40.58,13.12-16.75,4.15-35.73,8.83-59.84,20.72-27.4,13.5-39,23.64-50.27,33.44-9.49,8.26-18.45,16.07-35.55,24.5-24.17,11.91-38.62,14.47-54,17.18-7.46,1.31-15.18,2.67-24.6,5.17l-2.15-9c9.84-2.62,17.77-4,25.45-5.37,15.21-2.67,28.34-5,51.22-16.26,15.91-7.84,24-14.9,33.35-23.05,11.19-9.74,23.87-20.8,52.47-34.9,25.11-12.37,44.66-17.2,61.92-21.46,13.22-3.28,25.73-6.37,38.67-12.46,25.54-11.92,44.35-28.75,64.68-47.88l6.51,6.54C616.22,151.23,597.36,168,572.07,180.49Z"/>
          <path class="cls-6" d="M474.61,227.92l-4-8.27c24.11-11.89,39.42-24.1,52.94-34.87,11.07-8.83,21.55-17.19,35.16-24.21l4.21,8.19c-12.71,6.55-22.81,14.6-33.48,23.1C515.49,203,499.73,215.54,474.61,227.92Z"/>
          <path class="cls-10" d="M634.11,128c1.74,1.79,2.66,3.67,2.08,4.23s-2.51-.41-4.26-2.16-2.68-3.68-2.08-4.22S632.35,126.2,634.11,128Z"/>
          <path class="cls-9" d="M641.06,141.89c.25,2.49-.23,4.59-1,4.71s-1.69-1.82-1.92-4.29.24-4.6,1-4.69S640.82,139.4,641.06,141.89Z"/>
        </g>
        <g>
          <path class="cls-10" d="M631.75,127.67v0c-.19.25.22,1,1,1.69s1.53,1.09,1.78.9h0l4.21-4.21-2.77-2.6Z"/>
          <path class="cls-11" d="M637.65,124.45c.77.72,1.23,1.45,1.06,1.63s-.94-.27-1.7-1-1.23-1.43-1.06-1.61S636.89,123.73,637.65,124.45Z"/>
        </g>
        <g>
          <path class="cls-10" d="M639.63,140.26v0c-.31.05-.49.9-.42,2s.38,1.82.7,1.83h0l5.9-.67-.28-3.78Z"/>
          <path class="cls-11" d="M646.1,141.46c.07,1.06-.06,1.92-.3,2s-.53-.81-.59-1.86.07-1.92.3-1.95S646,140.41,646.1,141.46Z"/>
        </g>
      </g>
    </g>
    <path class="cls-15" d="M589.58,121.11a1.64,1.64,0,0,1,1,.13c.88.4,1.46,1.56.78,2.29C572.26,144,541.8,163.2,519.86,176.35c-5.24,3.14-9.8,5.86-13.37,8.23-11.14,7.38-30.72,16.35-49.65,25-17.33,7.94-33.72,15.45-43.71,21.66-18,11.14-65.77,40.73-78.5,63.83a1.85,1.85,0,0,1-2.41.78,1.64,1.64,0,0,1-.72-2.3c11.7-21.23,48.79-46,79.8-65.19,10.21-6.31,26.69-13.89,44.13-21.87,18.8-8.63,38.24-17.54,49.14-24.77,3.66-2.41,8.23-5.14,13.52-8.32,21.57-12.93,53.1-33.62,70.11-51.35A2.59,2.59,0,0,1,589.58,121.11Z"/>
    <path class="cls-16" d="M451.45,241.72c7.8,18.25,18.35,27.52,22.19,25.88a1.89,1.89,0,0,0,.39-.26L448.55,207.7a2.12,2.12,0,0,0-.45.1C444.26,209.44,443.65,223.47,451.45,241.72Z"/>
    <path class="cls-17" d="M365.16,241.6c16.79-2.55,34.33,5.69,47.85,15,13.81,9.5,43.33,21.53,57.49,14.72"/>
    <path class="cls-18" d="M365.81,240.93c16.79-2.55,34.34,5.68,47.86,15,13.81,9.5,43.33,21.53,57.48,14.71"/>
    <path class="cls-19" d="M449.47,242.86c-7.34-17.17-8.38-33.25-2.54-36.7l0-.08L64,369.62,91.39,433.7,474.26,270.15l0-.08C467.7,271.91,456.8,260,449.47,242.86Z"/>
    <path class="cls-16" d="M451.73,241.89c7.8,18.25,18.35,27.51,22.19,25.87a1.93,1.93,0,0,0,.39-.25l-25.47-59.64a2,2,0,0,0-.45.1C444.53,209.62,443.93,223.65,451.73,241.89Z"/>
    <path class="cls-5" d="M473.91,267.76c-3.84,1.64-14.39-7.62-22.19-25.87s-7.19-32.27-3.35-33.91a2,2,0,0,1,.45-.1l-.92-2.16a4.4,4.4,0,0,0-.44.12c-6.45,2.75-5.55,19.33,2,37s18.91,29.81,25.36,27.05a3.59,3.59,0,0,0,.39-.25l-.92-2.15A1.93,1.93,0,0,1,473.91,267.76Z"/>
    <g>
      <path class="cls-17" d="M365.44,241.78c16.79-2.55,34.33,5.69,47.85,15,13.81,9.5,43.33,21.53,57.49,14.71"/>
      <path class="cls-20" d="M366.09,241.1c16.8-2.56,34.34,5.69,47.85,15,13.81,9.51,43.32,21.54,57.49,14.72"/>
    </g>
    <g>
      <path class="cls-17" d="M262.57,285.71c16.79-2.55,34.33,5.69,47.85,15,13.81,9.5,43.33,21.53,57.49,14.71"/>
      <path class="cls-20" d="M263.23,285c16.8-2.56,34.34,5.69,47.85,15,13.81,9.51,43.33,21.54,57.49,14.72"/>
    </g>
    <g>
      <path class="cls-17" d="M122.67,345.47c16.78-2.55,34.33,5.69,47.85,15C184.32,370,213.85,382,228,375.17"/>
      <path class="cls-18" d="M123.32,344.8c16.79-2.55,34.34,5.69,47.84,15,13.82,9.5,43.33,21.54,57.49,14.72"/>
    </g>
    <path class="cls-21" d="M332.59,319.71a1.57,1.57,0,0,1-.92-.43,1.66,1.66,0,0,1,0-2.42c20.1-20.22,57.57-29.47,82.37-35.6,5.94-1.45,11.06-2.72,15.19-3.94,12.82-3.78,34.08-6.6,54.64-9.31,18.83-2.49,36.62-4.84,48-7.83,20.44-5.37,74.76-19.62,94-38.06a1.81,1.81,0,0,1,2.51,0,1.67,1.67,0,0,1-.06,2.43c-17.68,16.94-60.4,29.73-95.65,39-11.6,3-29.5,5.42-48.45,7.92-20.41,2.7-41.54,5.49-54.08,9.2-4.2,1.23-9.37,2.5-15.34,4-24.38,6-61.25,15.11-80.6,34.59A1.88,1.88,0,0,1,332.59,319.71Z"/>
    <path class="cls-22" d="M377.35,274.27c-10.14-23.75-11.59-46-3.52-50.76l0-.11L-79,416.81l37.85,88.6L411.64,312l0-.11C402.56,314.44,387.5,298,377.35,274.27Z"/>
    <path class="cls-16" d="M380.47,272.94c10.78,25.24,25.37,38.05,30.69,35.78a3,3,0,0,0,.54-.36l-35.23-82.48a3.37,3.37,0,0,0-.63.14C370.52,228.3,369.68,247.7,380.47,272.94Z"/>
    <path class="cls-3" d="M411.15,308.72c-5.31,2.27-19.91-10.54-30.69-35.78s-9.95-44.64-4.63-46.91a3.37,3.37,0,0,1,.63-.14l-1.27-3c-.2.06-.43.08-.62.17-8.91,3.81-7.67,26.73,2.78,51.2s26.15,41.21,35.06,37.41c.19-.08.36-.22.55-.33l-1.27-3A3,3,0,0,1,411.15,308.72Z"/>
  </g>
  <text class="cls-23" transform="translate(402.59 66.34)">Fil de continuité cuiv<tspan class="cls-24" x="172.21" y="0">r</tspan><tspan x="178.54" y="0">e étamé</tspan></text>
  <text class="cls-23" transform="translate(363.03 417.47)">Fil de dechi<tspan class="cls-24" x="94.94" y="0">r</tspan><tspan x="101.27" y="0">ement</tspan></text>
  <line class="cls-1" x1="316.68" y1="364.41" x2="316.68" y2="434.42"/>
  <text class="cls-23" transform="translate(251.56 151.23)">Ruban <tspan class="cls-25" x="59.48" y="0">P</tspan><tspan x="71.19" y="0">ol</tspan><tspan class="cls-26" x="86.19" y="0">y</tspan><tspan x="95.43" y="0">ester/Aluminium</tspan></text>
  <text class="cls-23" transform="translate(244.71 467.42)">Gaine P<tspan class="cls-25" x="64.71" y="0">V</tspan><tspan x="76.39" y="0">C Grise</tspan></text>
  <text class="cls-23" transform="translate(481.25 337.44)"><tspan xml:space="preserve">Isolant:  </tspan><tspan class="cls-26" x="70.56" y="0">P</tspan><tspan class="cls-27" x="82.27" y="0">ol</tspan><tspan class="cls-26" x="97.27" y="0">y</tspan><tspan class="cls-27" x="106.5" y="0">éthylène</tspan></text>
  <text class="cls-23" transform="translate(589.65 444.46)">Ame cuiv<tspan class="cls-24" x="77.68" y="0">r</tspan><tspan x="84.01" y="0">e Nu/</tspan><tspan x="-90.54" y="22.96">Cuiv</tspan><tspan class="cls-28" x="-53.92" y="22.96">r</tspan><tspan x="-47.59" y="22.96">e Aluminium </tspan><tspan class="cls-29" x="62.41" y="22.96">A</tspan><tspan x="73.72" y="22.96">WG 20</tspan></text>
</svg>
