<?xml version="1.0" encoding="utf-8"?>
<!-- Generator: Adobe Illustrator 21.0.0, SVG Export Plug-In . SVG Version: 6.00 Build 0)  -->
<svg version="1.1" id="图层_1" xmlns="http://www.w3.org/2000/svg" xmlns:xlink="http://www.w3.org/1999/xlink" x="0px" y="0px"
	 viewBox="0 0 1440 540" style="enable-background:new 0 0 1440 540;" xml:space="preserve">
<style type="text/css">
	.st0{fill:none;stroke:#18244A;stroke-miterlimit:10;}
	.st1{enable-background:new    ;}
	.st2{fill:#18244A;}
	.st3{fill:#B0B0B1;}
	.st4{fill:#EFF6E6;}
	.st5{fill:#5F1985;}
	.st6{fill:url(#SVGID_1_);}
	.st7{fill:#7B1C75;}
	.st8{fill:#382A54;}
	.st9{fill:#D6AD3C;}
	.st10{fill:#CA9A0C;}
	.st11{fill:#F29600;}
	.st12{fill:#FFF000;}
	.st13{fill:#B0A117;}
	.st14{fill:#976024;}
	.st15{fill:#9E9E9F;}
	.st16{fill:#DBDCDC;}
	.st17{fill:#B4B4B5;}
	.st18{fill:#717071;}
	.st19{fill:#182987;}
	.st20{fill:#2CA6E0;}
	.st21{fill:#137EAB;}
	.st22{fill:#19254A;}
	.st23{fill:#C8C9CA;}
	.st24{fill:url(#SVGID_2_);}
	.st25{fill:none;}
</style>
<title>未标题-1</title>
<line class="st0" x1="1077.9" y1="357.9" x2="1077.9" y2="410.3"/>
<polyline class="st0" points="1006.4,152.1 939.7,152.1 939.7,189.5 "/>
<polyline class="st0" points="767.9,362.2 745.9,362.2 745.9,273.4 "/>
<polyline class="st0" points="901.3,95.8 804.3,95.8 804.3,137.8 "/>
<g class="st1">
	<path class="st2" d="M1020.4,433.7c-0.3,0.4-0.9,0.9-1.7,1.2c-0.8,0.4-1.8,0.6-3,0.6c-1.6,0-2.9-0.5-3.9-1.6
		c-1-1.1-1.5-2.5-1.5-4.2v-2.5c0-1.7,0.5-3.1,1.4-4.1s2.2-1.6,3.7-1.6c1.5,0,2.6,0.4,3.4,1.1c0.8,0.7,1.3,1.7,1.4,2.9l0,0.1h-1
		c-0.2-0.9-0.5-1.6-1.1-2.2c-0.6-0.6-1.5-0.8-2.7-0.8c-1.2,0-2.2,0.4-2.9,1.3c-0.7,0.9-1.1,2-1.1,3.4v2.5c0,1.4,0.4,2.6,1.2,3.5
		s1.8,1.4,3.1,1.4c0.9,0,1.7-0.1,2.3-0.4c0.6-0.3,1.1-0.5,1.3-0.8v-3.5h-3.6v-1h4.7V433.7z"/>
	<path class="st2" d="M1029.9,435.3c-0.1-0.3-0.1-0.6-0.2-0.9s0-0.5,0-0.8c-0.4,0.5-0.9,1-1.5,1.3c-0.6,0.3-1.3,0.5-2.1,0.5
		c-1,0-1.7-0.3-2.3-0.8c-0.5-0.5-0.8-1.2-0.8-2.1c0-0.9,0.4-1.7,1.2-2.2s1.9-0.8,3.3-0.8h2.2v-1.3c0-0.7-0.2-1.3-0.7-1.7
		c-0.5-0.4-1.1-0.6-1.9-0.6c-0.8,0-1.4,0.2-1.9,0.6c-0.5,0.4-0.8,0.9-0.8,1.4l-1,0l0-0.1c0-0.8,0.3-1.4,1-2s1.6-0.9,2.8-0.9
		c1.1,0,2,0.3,2.7,0.9s1,1.4,1,2.4v5c0,0.4,0,0.7,0.1,1c0,0.3,0.1,0.7,0.2,1H1029.9z M1026.2,434.5c0.8,0,1.5-0.2,2.1-0.6
		c0.6-0.4,1.1-0.9,1.3-1.4v-2.1h-2.3c-1,0-1.8,0.2-2.4,0.6c-0.6,0.4-0.9,1-0.9,1.6c0,0.5,0.2,1,0.6,1.3S1025.5,434.5,1026.2,434.5z"
		/>
	<path class="st2" d="M1035,422.3h-1.1v-1.6h1.1V422.3z M1035,435.3h-1.1v-10.1h1.1V435.3z"/>
	<path class="st2" d="M1039.1,425.2l0.1,1.8c0.3-0.6,0.8-1.1,1.3-1.4c0.6-0.3,1.2-0.5,2-0.5c1.1,0,1.9,0.3,2.5,1
		c0.6,0.7,0.9,1.7,0.9,3.1v6.2h-1.1v-6.2c0-1.2-0.2-2-0.6-2.5s-1-0.7-1.8-0.7c-0.8,0-1.4,0.2-1.9,0.6c-0.5,0.4-0.9,1-1.1,1.7v7.1
		h-1.1v-10.1H1039.1z"/>
	<path class="st2" d="M1052.5,435.5c-1.3,0-2.3-0.5-3.2-1.4c-0.8-0.9-1.3-2.1-1.3-3.5V430c0-1.4,0.4-2.6,1.2-3.6
		c0.8-1,1.8-1.4,3-1.4c1.2,0,2.2,0.4,2.9,1.2c0.7,0.8,1.1,1.8,1.1,3.1v1h-7.1v0.3c0,1.1,0.3,2.1,0.9,2.9c0.6,0.8,1.4,1.1,2.4,1.1
		c0.7,0,1.3-0.1,1.8-0.3c0.5-0.2,0.9-0.5,1.3-0.8l0.5,0.8c-0.4,0.4-0.9,0.7-1.4,1C1054,435.4,1053.3,435.5,1052.5,435.5z
		 M1052.4,425.9c-0.8,0-1.5,0.3-2.1,0.9c-0.6,0.6-0.9,1.4-1,2.4l0,0h5.9V429c0-0.9-0.3-1.6-0.8-2.2
		C1054,426.2,1053.3,425.9,1052.4,425.9z"/>
	<path class="st2" d="M1064.7,429.6v5.7h-1.1v-13.6h4.7c1.4,0,2.5,0.4,3.3,1.1c0.8,0.7,1.2,1.7,1.2,2.9c0,1.2-0.4,2.2-1.2,2.9
		c-0.8,0.7-1.9,1.1-3.3,1.1H1064.7z M1064.7,428.7h3.6c1.1,0,2-0.3,2.5-0.9c0.6-0.6,0.8-1.3,0.8-2.2c0-0.9-0.3-1.6-0.8-2.2
		s-1.4-0.9-2.5-0.9h-3.6V428.7z"/>
</g>
<g class="st1">
	<path class="st2" d="M1079.2,433l0.3,0.9h0.1l0.3-0.9l4.1-11.3h1.2l-5.1,13.6h-1.1l-5.1-13.6h1.2L1079.2,433z"/>
</g>
<g class="st1">
	<path class="st2" d="M1096.5,431L1096.5,431c-0.1,1.4-0.6,2.5-1.4,3.3c-0.9,0.8-2,1.2-3.4,1.2c-1.5,0-2.7-0.5-3.7-1.6
		s-1.4-2.5-1.4-4.2v-2.2c0-1.7,0.5-3.1,1.4-4.2c0.9-1.1,2.1-1.6,3.7-1.6c1.4,0,2.6,0.4,3.4,1.1c0.8,0.8,1.3,1.8,1.4,3.2l0,0.1h-1
		c-0.1-1.1-0.5-2-1.2-2.6c-0.6-0.6-1.5-0.9-2.7-0.9c-1.2,0-2.1,0.5-2.9,1.4c-0.7,0.9-1.1,2.1-1.1,3.5v2.2c0,1.5,0.4,2.6,1.1,3.6
		c0.7,0.9,1.7,1.4,2.9,1.4c1.1,0,2-0.3,2.7-0.9c0.6-0.6,1-1.5,1.2-2.6H1096.5z"/>
	<path class="st2" d="M1104.9,422.3h-1.1v-1.6h1.1V422.3z M1104.9,435.3h-1.1v-10.1h1.1V435.3z"/>
</g>
<g class="st1">
	<path class="st2" d="M1110.9,432.8l0.3,1.2h0.1l0.4-1.2l2.7-7.6h1.2l-3.8,10.1h-0.9l-3.8-10.1h1.2L1110.9,432.8z"/>
</g>
<g class="st1">
	<path class="st2" d="M1116.6,430.1c0-1.5,0.4-2.7,1.2-3.7c0.8-1,1.9-1.4,3.2-1.4c1.4,0,2.4,0.5,3.3,1.4c0.8,1,1.2,2.2,1.2,3.7v0.3
		c0,1.5-0.4,2.7-1.2,3.7c-0.8,1-1.9,1.4-3.2,1.4c-1.4,0-2.4-0.5-3.3-1.4c-0.8-0.9-1.2-2.2-1.2-3.7V430.1z M1117.8,430.4
		c0,1.2,0.3,2.2,0.9,2.9c0.6,0.8,1.4,1.2,2.5,1.2c1,0,1.9-0.4,2.5-1.2c0.6-0.8,0.9-1.8,0.9-2.9v-0.3c0-1.2-0.3-2.1-0.9-2.9
		c-0.6-0.8-1.4-1.2-2.5-1.2c-1,0-1.9,0.4-2.5,1.2c-0.6,0.8-0.9,1.8-0.9,2.9V430.4z"/>
	<path class="st2" d="M1129.2,422.3h-1.1v-1.6h1.1V422.3z M1129.2,435.3h-1.1v-10.1h1.1V435.3z"/>
</g>
<g class="st1">
	<path class="st2" d="M1136.9,426.1l-0.8-0.1c-0.7,0-1.3,0.2-1.7,0.6c-0.5,0.4-0.8,0.9-1,1.6v7h-1.1v-10.1h1l0.1,1.7v0.1
		c0.3-0.6,0.7-1.1,1.2-1.5c0.5-0.3,1.1-0.5,1.8-0.5c0.1,0,0.3,0,0.4,0c0.1,0,0.2,0,0.3,0.1L1136.9,426.1z"/>
</g>
<g class="st1">
	<path class="st2" d="M1142.4,435.5c-1.3,0-2.3-0.5-3.2-1.4c-0.8-0.9-1.3-2.1-1.3-3.5V430c0-1.4,0.4-2.6,1.2-3.6
		c0.8-1,1.8-1.4,3-1.4c1.2,0,2.2,0.4,2.9,1.2c0.7,0.8,1.1,1.8,1.1,3.1v1h-7.1v0.3c0,1.1,0.3,2.1,0.9,2.9c0.6,0.8,1.4,1.1,2.4,1.1
		c0.7,0,1.3-0.1,1.8-0.3c0.5-0.2,0.9-0.5,1.3-0.8l0.5,0.8c-0.4,0.4-0.9,0.7-1.4,1C1143.9,435.4,1143.2,435.5,1142.4,435.5z
		 M1142.2,425.9c-0.8,0-1.5,0.3-2.1,0.9c-0.6,0.6-0.9,1.4-1,2.4l0,0h5.9V429c0-0.9-0.3-1.6-0.8-2.2S1143.1,425.9,1142.2,425.9z"/>
</g>
<g class="st1">
	<path class="st2" d="M785.7,364h-6.2l-1.4,3.8H777l5.2-13.6h1.1l5.1,13.6h-1.2L785.7,364z M779.9,363h5.5l-2.7-7.4h-0.1L779.9,363z
		"/>
	<path class="st2" d="M791,357.7l0.1,1.7c0.3-0.6,0.8-1,1.3-1.4c0.5-0.3,1.2-0.5,1.9-0.5c0.8,0,1.4,0.2,1.9,0.6
		c0.5,0.4,0.9,0.9,1.1,1.7c0.3-0.7,0.7-1.3,1.3-1.7c0.6-0.4,1.2-0.6,2.1-0.6c1.1,0,1.9,0.4,2.5,1.1c0.6,0.7,0.9,1.8,0.9,3.3v5.9H803
		v-5.9c0-1.2-0.2-2.1-0.7-2.6c-0.4-0.5-1.1-0.8-1.8-0.8c-0.9,0-1.5,0.3-2,0.8c-0.5,0.5-0.8,1.2-0.9,2.1c0,0,0,0.1,0,0.2
		c0,0.1,0,0.1,0,0.2v6.1h-1.1v-5.9c0-1.2-0.2-2.1-0.7-2.6s-1.1-0.8-1.8-0.8c-0.8,0-1.4,0.2-1.9,0.6s-0.8,0.9-1,1.6v7.1H790v-10.1
		H791z"/>
	<path class="st2" d="M810.8,368c-1.3,0-2.3-0.5-3.2-1.4c-0.8-0.9-1.3-2.1-1.3-3.5v-0.5c0-1.4,0.4-2.6,1.2-3.6c0.8-1,1.8-1.4,3-1.4
		c1.2,0,2.2,0.4,2.9,1.2c0.7,0.8,1.1,1.8,1.1,3.1v1h-7.1v0.3c0,1.1,0.3,2.1,0.9,2.9c0.6,0.8,1.4,1.1,2.4,1.1c0.7,0,1.3-0.1,1.8-0.3
		c0.5-0.2,0.9-0.5,1.3-0.8l0.5,0.8c-0.4,0.4-0.9,0.7-1.4,1C812.3,367.9,811.6,368,810.8,368z M810.7,358.5c-0.8,0-1.5,0.3-2.1,0.9
		c-0.6,0.6-0.9,1.4-1,2.4l0,0h5.9v-0.3c0-0.9-0.3-1.6-0.8-2.2S811.6,358.5,810.7,358.5z"/>
	<path class="st2" d="M825.3,367c0.7,0,1.4-0.2,2-0.6c0.6-0.4,0.8-1,0.8-1.8h1l0,0.1c0,0.9-0.3,1.7-1.1,2.3s-1.7,0.9-2.7,0.9
		c-1.4,0-2.4-0.5-3.2-1.4c-0.8-0.9-1.1-2.2-1.1-3.6v-0.4c0-1.5,0.4-2.7,1.1-3.6c0.8-0.9,1.8-1.4,3.2-1.4c1.1,0,2,0.3,2.8,1
		c0.7,0.7,1.1,1.5,1.1,2.6l0,0.1h-1c0-0.8-0.3-1.5-0.8-1.9c-0.5-0.5-1.2-0.7-2-0.7c-1.1,0-1.9,0.4-2.4,1.2c-0.5,0.8-0.8,1.7-0.8,2.9
		v0.4c0,1.2,0.3,2.2,0.8,2.9C823.4,366.7,824.2,367,825.3,367z"/>
	<path class="st2" d="M838.1,366.1c-0.3,0.6-0.8,1-1.3,1.4c-0.5,0.3-1.2,0.5-1.9,0.5c-1.1,0-1.9-0.4-2.5-1.1
		c-0.6-0.7-0.9-1.8-0.9-3.4v-5.9h1.1v5.9c0,1.2,0.2,2.1,0.6,2.7c0.4,0.5,1,0.8,1.8,0.8c0.8,0,1.5-0.2,2-0.6c0.5-0.4,0.9-0.9,1.1-1.6
		v-7.2h1.1v10.1h-1L838.1,366.1z"/>
	<path class="st2" d="M843.4,354.8h-1.1v-1.6h1.1V354.8z M843.4,367.8h-1.1v-10.1h1.1V367.8z"/>
	<path class="st2" d="M849.3,365.3l0.3,1.2h0.1l0.4-1.2l2.7-7.6h1.2l-3.8,10.1h-0.9l-3.8-10.1h1.2L849.3,365.3z"/>
</g>
<g class="st1">
	<path class="st2" d="M860.5,358.7l-0.8-0.1c-0.7,0-1.3,0.2-1.7,0.6c-0.5,0.4-0.8,0.9-1,1.6v7h-1.1v-10.1h1l0.1,1.7v0.1
		c0.3-0.6,0.7-1.1,1.2-1.5c0.5-0.3,1.1-0.5,1.8-0.5c0.1,0,0.3,0,0.4,0s0.2,0,0.3,0.1L860.5,358.7z"/>
</g>
<g class="st1">
	<path class="st2" d="M865.9,368c-1.3,0-2.3-0.5-3.2-1.4c-0.8-0.9-1.3-2.1-1.3-3.5v-0.5c0-1.4,0.4-2.6,1.2-3.6c0.8-1,1.8-1.4,3-1.4
		c1.2,0,2.2,0.4,2.9,1.2c0.7,0.8,1.1,1.8,1.1,3.1v1h-7.1v0.3c0,1.1,0.3,2.1,0.9,2.9c0.6,0.8,1.4,1.1,2.4,1.1c0.7,0,1.3-0.1,1.8-0.3
		c0.5-0.2,0.9-0.5,1.3-0.8l0.5,0.8c-0.4,0.4-0.9,0.7-1.4,1C867.4,367.9,866.7,368,865.9,368z M865.8,358.5c-0.8,0-1.5,0.3-2.1,0.9
		c-0.6,0.6-0.9,1.4-1,2.4l0,0h5.9v-0.3c0-0.9-0.3-1.6-0.8-2.2C867.4,358.8,866.7,358.5,865.8,358.5z"/>
	<path class="st2" d="M877.6,357.7l0.1,1.8c0.3-0.6,0.8-1.1,1.3-1.4c0.6-0.3,1.2-0.5,2-0.5c1.1,0,1.9,0.3,2.5,1
		c0.6,0.7,0.9,1.7,0.9,3.1v6.2h-1.1v-6.2c0-1.2-0.2-2-0.6-2.5c-0.4-0.5-1-0.7-1.8-0.7c-0.8,0-1.4,0.2-1.9,0.6
		c-0.5,0.4-0.9,1-1.1,1.7v7.1h-1.1v-10.1H877.6z"/>
	<path class="st2" d="M893.9,366.1c-0.3,0.6-0.8,1-1.3,1.4c-0.5,0.3-1.2,0.5-1.9,0.5c-1.1,0-1.9-0.4-2.5-1.1
		c-0.6-0.7-0.9-1.8-0.9-3.4v-5.9h1.1v5.9c0,1.2,0.2,2.1,0.6,2.7c0.4,0.5,1,0.8,1.8,0.8c0.8,0,1.5-0.2,2-0.6c0.5-0.4,0.9-0.9,1.1-1.6
		v-7.2h1.1v10.1h-1L893.9,366.1z"/>
	<path class="st2" d="M897.8,369h-1l5.7-14.8h1L897.8,369z"/>
</g>
<g class="st1">
	<path class="st2" d="M787.8,386.5L787.8,386.5c-0.1,1.4-0.6,2.5-1.4,3.3c-0.9,0.8-2,1.2-3.4,1.2c-1.5,0-2.7-0.5-3.7-1.6
		c-0.9-1.1-1.4-2.5-1.4-4.2v-2.2c0-1.7,0.5-3.1,1.4-4.2c0.9-1.1,2.1-1.6,3.7-1.6c1.4,0,2.6,0.4,3.4,1.1s1.3,1.8,1.4,3.2l0,0.1h-1
		c-0.1-1.1-0.5-2-1.2-2.6c-0.6-0.6-1.5-0.9-2.7-0.9c-1.2,0-2.1,0.5-2.9,1.4c-0.7,0.9-1.1,2.1-1.1,3.5v2.2c0,1.5,0.4,2.6,1.1,3.6
		c0.7,0.9,1.7,1.4,2.9,1.4c1.1,0,2-0.3,2.7-0.9c0.6-0.6,1-1.5,1.2-2.6H787.8z"/>
	<path class="st2" d="M797,389.1c-0.3,0.6-0.8,1-1.3,1.4c-0.5,0.3-1.2,0.5-1.9,0.5c-1.1,0-1.9-0.4-2.5-1.1c-0.6-0.7-0.9-1.8-0.9-3.4
		v-5.9h1.1v5.9c0,1.2,0.2,2.1,0.6,2.7c0.4,0.5,1,0.8,1.8,0.8c0.8,0,1.5-0.2,2-0.6c0.5-0.4,0.9-0.9,1.1-1.6v-7.2h1.1v10.1h-1
		L797,389.1z"/>
	<path class="st2" d="M802.3,377.8h-1.1v-1.6h1.1V377.8z M802.3,390.8h-1.1v-10.1h1.1V390.8z"/>
	<path class="st2" d="M808.3,388.2l0.3,1.2h0.1l0.4-1.2l2.7-7.6h1.2l-3.8,10.1h-0.9l-3.8-10.1h1.2L808.3,388.2z"/>
</g>
<g class="st1">
	<path class="st2" d="M819.4,381.6l-0.8-0.1c-0.7,0-1.3,0.2-1.7,0.6c-0.5,0.4-0.8,0.9-1,1.6v7h-1.1v-10.1h1l0.1,1.7v0.1
		c0.3-0.6,0.7-1.1,1.2-1.5s1.1-0.5,1.8-0.5c0.1,0,0.3,0,0.4,0s0.2,0,0.3,0.1L819.4,381.6z"/>
</g>
<g class="st1">
	<path class="st2" d="M824.9,391c-1.3,0-2.3-0.5-3.2-1.4c-0.8-0.9-1.3-2.1-1.3-3.5v-0.5c0-1.4,0.4-2.6,1.2-3.6c0.8-1,1.8-1.4,3-1.4
		c1.2,0,2.2,0.4,2.9,1.2c0.7,0.8,1.1,1.8,1.1,3.1v1h-7.1v0.3c0,1.1,0.3,2.1,0.9,2.9c0.6,0.8,1.4,1.1,2.4,1.1c0.7,0,1.3-0.1,1.8-0.3
		c0.5-0.2,0.9-0.5,1.3-0.8l0.5,0.8c-0.4,0.4-0.9,0.7-1.4,1C826.4,390.8,825.7,391,824.9,391z M824.7,381.4c-0.8,0-1.5,0.3-2.1,0.9
		c-0.6,0.6-0.9,1.4-1,2.4l0,0h5.9v-0.3c0-0.9-0.3-1.6-0.8-2.2S825.6,381.4,824.7,381.4z"/>
	<path class="st2" d="M843.2,387H837l-1.4,3.8h-1.2l5.2-13.6h1.1l5.1,13.6h-1.2L843.2,387z M837.3,386h5.5l-2.7-7.4h-0.1L837.3,386z
		"/>
	<path class="st2" d="M848.8,390.8h-1.1v-14.6h1.1V390.8z"/>
	<path class="st2" d="M858.5,389.1c-0.3,0.6-0.8,1-1.3,1.4c-0.5,0.3-1.2,0.5-1.9,0.5c-1.1,0-1.9-0.4-2.5-1.1
		c-0.6-0.7-0.9-1.8-0.9-3.4v-5.9h1.1v5.9c0,1.2,0.2,2.1,0.6,2.7c0.4,0.5,1,0.8,1.8,0.8c0.8,0,1.5-0.2,2-0.6c0.5-0.4,0.9-0.9,1.1-1.6
		v-7.2h1.1v10.1h-1L858.5,389.1z"/>
	<path class="st2" d="M863.5,380.7l0.1,1.7c0.3-0.6,0.8-1,1.3-1.4c0.5-0.3,1.2-0.5,1.9-0.5c0.8,0,1.4,0.2,1.9,0.6
		c0.5,0.4,0.9,0.9,1.1,1.7c0.3-0.7,0.7-1.3,1.3-1.7c0.6-0.4,1.2-0.6,2.1-0.6c1.1,0,1.9,0.4,2.5,1.1c0.6,0.7,0.9,1.8,0.9,3.3v5.9
		h-1.1v-5.9c0-1.2-0.2-2.1-0.7-2.6c-0.4-0.5-1.1-0.8-1.8-0.8c-0.9,0-1.5,0.3-2,0.8c-0.5,0.5-0.8,1.2-0.9,2.1c0,0,0,0.1,0,0.2
		s0,0.1,0,0.2v6.1H869v-5.9c0-1.2-0.2-2.1-0.7-2.6s-1.1-0.8-1.8-0.8c-0.8,0-1.4,0.2-1.9,0.6c-0.5,0.4-0.8,0.9-1,1.6v7.1h-1.1v-10.1
		H863.5z"/>
	<path class="st2" d="M880.7,377.8h-1.1v-1.6h1.1V377.8z M880.7,390.8h-1.1v-10.1h1.1V390.8z"/>
	<path class="st2" d="M884.8,380.7l0.1,1.8c0.3-0.6,0.8-1.1,1.3-1.4c0.6-0.3,1.2-0.5,2-0.5c1.1,0,1.9,0.3,2.5,1
		c0.6,0.7,0.9,1.7,0.9,3.1v6.2h-1.1v-6.2c0-1.2-0.2-2-0.6-2.5c-0.4-0.5-1-0.7-1.8-0.7c-0.8,0-1.4,0.2-1.9,0.6
		c-0.5,0.4-0.9,1-1.1,1.7v7.1h-1.1v-10.1H884.8z"/>
	<path class="st2" d="M895.7,377.8h-1.1v-1.6h1.1V377.8z M895.7,390.8h-1.1v-10.1h1.1V390.8z"/>
	<path class="st2" d="M905.4,389.1c-0.3,0.6-0.8,1-1.3,1.4c-0.5,0.3-1.2,0.5-1.9,0.5c-1.1,0-1.9-0.4-2.5-1.1
		c-0.6-0.7-0.9-1.8-0.9-3.4v-5.9h1.1v5.9c0,1.2,0.2,2.1,0.6,2.7c0.4,0.5,1,0.8,1.8,0.8c0.8,0,1.5-0.2,2-0.6c0.5-0.4,0.9-0.9,1.1-1.6
		v-7.2h1.1v10.1h-1L905.4,389.1z"/>
	<path class="st2" d="M910.4,380.7l0.1,1.7c0.3-0.6,0.8-1,1.3-1.4c0.5-0.3,1.2-0.5,1.9-0.5c0.8,0,1.4,0.2,1.9,0.6
		c0.5,0.4,0.9,0.9,1.1,1.7c0.3-0.7,0.7-1.3,1.3-1.7c0.6-0.4,1.2-0.6,2.1-0.6c1.1,0,1.9,0.4,2.5,1.1c0.6,0.7,0.9,1.8,0.9,3.3v5.9
		h-1.1v-5.9c0-1.2-0.2-2.1-0.7-2.6c-0.4-0.5-1.1-0.8-1.8-0.8c-0.9,0-1.5,0.3-2,0.8c-0.5,0.5-0.8,1.2-0.9,2.1c0,0,0,0.1,0,0.2
		s0,0.1,0,0.2v6.1h-1.1v-5.9c0-1.2-0.2-2.1-0.7-2.6s-1.1-0.8-1.8-0.8c-0.8,0-1.4,0.2-1.9,0.6c-0.5,0.4-0.8,0.9-1,1.6v7.1h-1.1v-10.1
		H910.4z"/>
</g>
<g class="st1">
	<path class="st2" d="M938.7,387h-6.2l-1.4,3.8h-1.2l5.2-13.6h1.1l5.1,13.6h-1.2L938.7,387z M932.8,386h5.5l-2.7-7.4h-0.1L932.8,386
		z"/>
</g>
<g class="st1">
	<path class="st2" d="M945.1,386.9l0.4,2.1l0.1,0l0.5-2.1l2.9-9.8h1.1l2.9,9.8l0.5,2.1l0.1,0l0.4-2.1l2.5-9.8h1.1l-3.5,13.6h-1.1
		l-3.1-10.4l-0.4-1.4h-0.1l-0.3,1.4l-3.1,10.4h-1.1l-3.5-13.6h1.1L945.1,386.9z"/>
	<path class="st2" d="M969.5,389.1c-0.3,0.4-0.9,0.9-1.7,1.2c-0.8,0.4-1.8,0.6-3,0.6c-1.6,0-2.9-0.5-3.9-1.6s-1.5-2.5-1.5-4.2v-2.5
		c0-1.7,0.5-3.1,1.4-4.1c1-1.1,2.2-1.6,3.7-1.6c1.5,0,2.6,0.4,3.4,1.1c0.8,0.7,1.3,1.7,1.4,2.9l0,0.1h-1c-0.2-0.9-0.5-1.6-1.1-2.2
		c-0.6-0.6-1.5-0.8-2.7-0.8c-1.2,0-2.2,0.4-2.9,1.3c-0.7,0.9-1.1,2-1.1,3.4v2.5c0,1.4,0.4,2.6,1.2,3.5s1.8,1.4,3.1,1.4
		c0.9,0,1.7-0.1,2.3-0.4c0.6-0.3,1.1-0.5,1.3-0.8v-3.5h-3.6v-1h4.7V389.1z"/>
	<path class="st2" d="M980.9,390.8h-8.4v-0.9l4.5-5c0.8-0.9,1.4-1.7,1.7-2.3s0.5-1.2,0.5-1.8c0-0.8-0.2-1.5-0.7-2
		c-0.5-0.5-1.2-0.8-2-0.8c-1,0-1.8,0.3-2.4,0.9c-0.5,0.6-0.8,1.3-0.8,2.3h-1l0-0.1c0-1.1,0.3-2.1,1.1-2.9c0.8-0.8,1.8-1.2,3.1-1.2
		c1.2,0,2.1,0.3,2.8,1c0.7,0.7,1.1,1.6,1.1,2.7c0,0.7-0.2,1.5-0.7,2.3c-0.5,0.8-1.1,1.6-2,2.6l-3.7,4.2l0,0h7V390.8z"/>
	<path class="st2" d="M989.9,386.4h2.1v1h-2.1v3.4h-1.1v-3.4h-6.4v-0.6l6.3-9.5h1.2V386.4z M983.7,386.4h5.1v-7.8l-0.1,0l-0.5,1
		L983.7,386.4z"/>
</g>
<g class="st1">
	<path class="st2" d="M1024.8,151.9h-7.3v7h-1.2V144h9.5v1h-8.3v5.8h7.3V151.9z"/>
	<path class="st2" d="M1029.5,144.6h-1.2v-1.7h1.2V144.6z M1029.5,158.9h-1.2v-11.1h1.2V158.9z"/>
	<path class="st2" d="M1034.2,158.9h-1.2v-16h1.2V158.9z"/>
	<path class="st2" d="M1042.3,153.4c0-1.8,0.4-3.2,1.1-4.2c0.7-1.1,1.8-1.6,3.1-1.6c0.8,0,1.4,0.2,2,0.5s1,0.8,1.4,1.4v-6.6h1.2v16
		h-1.1l-0.1-1.6c-0.4,0.6-0.8,1-1.4,1.4c-0.6,0.3-1.3,0.5-2.1,0.5c-1.3,0-2.4-0.5-3.1-1.5c-0.7-1-1.1-2.3-1.1-4V153.4z
		 M1043.5,153.7c0,1.3,0.3,2.4,0.8,3.2c0.5,0.8,1.3,1.2,2.4,1.2c0.8,0,1.5-0.2,2-0.5c0.5-0.4,0.9-0.9,1.2-1.5v-5.2
		c-0.3-0.6-0.7-1.2-1.2-1.6s-1.2-0.6-2-0.6c-1.1,0-1.9,0.4-2.4,1.3c-0.5,0.9-0.8,2-0.8,3.5V153.7z"/>
	<path class="st2" d="M1058.6,159.1c-1.4,0-2.5-0.5-3.5-1.5c-0.9-1-1.4-2.3-1.4-3.9v-0.6c0-1.6,0.5-2.9,1.4-3.9c0.9-1,2-1.6,3.3-1.6
		c1.4,0,2.4,0.4,3.2,1.3s1.2,2,1.2,3.4v1h-7.8v0.3c0,1.2,0.3,2.3,1,3.1s1.5,1.3,2.6,1.3c0.8,0,1.4-0.1,2-0.3s1-0.5,1.4-0.9l0.5,0.8
		c-0.4,0.4-0.9,0.8-1.6,1C1060.2,159,1059.5,159.1,1058.6,159.1z M1058.4,148.6c-0.9,0-1.7,0.3-2.3,1c-0.6,0.7-1,1.6-1.1,2.6l0,0.1
		h6.5V152c0-1-0.3-1.8-0.9-2.4S1059.4,148.6,1058.4,148.6z"/>
	<path class="st2" d="M1069.9,153.4c0-1.8,0.4-3.2,1.1-4.2c0.7-1.1,1.8-1.6,3.1-1.6c0.8,0,1.4,0.2,2,0.5s1,0.8,1.4,1.4v-6.6h1.2v16
		h-1.1l-0.1-1.6c-0.4,0.6-0.8,1-1.4,1.4c-0.6,0.3-1.3,0.5-2.1,0.5c-1.3,0-2.4-0.5-3.1-1.5c-0.7-1-1.1-2.3-1.1-4V153.4z
		 M1071.1,153.7c0,1.3,0.3,2.4,0.8,3.2c0.5,0.8,1.3,1.2,2.4,1.2c0.8,0,1.5-0.2,2-0.5c0.5-0.4,0.9-0.9,1.2-1.5v-5.2
		c-0.3-0.6-0.7-1.2-1.2-1.6s-1.2-0.6-2-0.6c-1.1,0-1.9,0.4-2.4,1.3c-0.5,0.9-0.8,2-0.8,3.5V153.7z"/>
	<path class="st2" d="M1086.2,159.1c-1.4,0-2.5-0.5-3.5-1.5c-0.9-1-1.4-2.3-1.4-3.9v-0.6c0-1.6,0.5-2.9,1.4-3.9c0.9-1,2-1.6,3.3-1.6
		c1.4,0,2.4,0.4,3.2,1.3s1.2,2,1.2,3.4v1h-7.8v0.3c0,1.2,0.3,2.3,1,3.1s1.5,1.3,2.6,1.3c0.8,0,1.4-0.1,2-0.3s1-0.5,1.4-0.9l0.5,0.8
		c-0.4,0.4-0.9,0.8-1.6,1C1087.9,159,1087.1,159.1,1086.2,159.1z M1086.1,148.6c-0.9,0-1.7,0.3-2.3,1c-0.6,0.7-1,1.6-1.1,2.6l0,0.1
		h6.5V152c0-1-0.3-1.8-0.9-2.4S1087,148.6,1086.1,148.6z M1087.5,143.5h1.5l0,0.1l-2.6,2.7h-1.1L1087.5,143.5z"/>
	<path class="st2" d="M1097,158.1c0.8,0,1.5-0.2,2.2-0.7s0.9-1.1,0.9-1.9h1.1l0,0.1c0,1-0.4,1.9-1.2,2.6s-1.8,1-3,1
		c-1.5,0-2.7-0.5-3.5-1.6c-0.8-1-1.2-2.4-1.2-4v-0.4c0-1.6,0.4-2.9,1.2-4s2-1.6,3.5-1.6c1.2,0,2.2,0.4,3,1.1
		c0.8,0.7,1.2,1.7,1.2,2.8l0,0.1h-1.1c0-0.9-0.3-1.6-0.9-2.1c-0.6-0.5-1.3-0.8-2.2-0.8c-1.2,0-2.1,0.4-2.6,1.3
		c-0.6,0.8-0.9,1.9-0.9,3.2v0.4c0,1.3,0.3,2.4,0.9,3.2S1095.8,158.1,1097,158.1z"/>
	<path class="st2" d="M1105,149.7c0.4-0.7,0.9-1.2,1.5-1.5s1.3-0.6,2.2-0.6c1.2,0,2.1,0.4,2.7,1.1c0.6,0.7,0.9,1.8,0.9,3.4v6.8h-1.2
		V152c0-1.2-0.2-2.1-0.7-2.6c-0.5-0.5-1.1-0.8-2-0.8c-0.8,0-1.5,0.2-2.1,0.7c-0.6,0.4-1,1-1.2,1.8v7.8h-1.2v-16h1.2V149.7z"/>
	<path class="st2" d="M1116.8,144.6h-1.2v-1.7h1.2V144.6z M1116.8,158.9h-1.2v-11.1h1.2V158.9z"/>
</g>
<g class="st1">
	<path class="st2" d="M1125.3,148.9l-0.9-0.1c-0.8,0-1.4,0.2-1.9,0.7c-0.5,0.4-0.8,1-1.1,1.8v7.7h-1.2v-11.1h1.1l0.2,1.8v0.1
		c0.3-0.7,0.8-1.2,1.3-1.6s1.2-0.6,1.9-0.6c0.2,0,0.3,0,0.5,0c0.1,0,0.3,0,0.4,0.1L1125.3,148.9z"/>
</g>
<g class="st1">
	<path class="st2" d="M1131.3,159.1c-1.4,0-2.5-0.5-3.5-1.5c-0.9-1-1.4-2.3-1.4-3.9v-0.6c0-1.6,0.5-2.9,1.4-3.9c0.9-1,2-1.6,3.3-1.6
		c1.4,0,2.4,0.4,3.2,1.3s1.2,2,1.2,3.4v1h-7.8v0.3c0,1.2,0.3,2.3,1,3.1s1.5,1.3,2.6,1.3c0.8,0,1.4-0.1,2-0.3s1-0.5,1.4-0.9l0.5,0.8
		c-0.4,0.4-0.9,0.8-1.6,1C1133,159,1132.2,159.1,1131.3,159.1z M1131.2,148.6c-0.9,0-1.7,0.3-2.3,1c-0.6,0.7-1,1.6-1.1,2.6l0,0.1
		h6.5V152c0-1-0.3-1.8-0.9-2.4S1132.1,148.6,1131.2,148.6z"/>
	<path class="st2" d="M1139,147.8l0.1,1.8c0.4-0.6,0.8-1.2,1.4-1.5c0.6-0.4,1.3-0.5,2.1-0.5c0.8,0,1.6,0.2,2.1,0.6
		c0.6,0.4,1,1,1.2,1.9c0.3-0.8,0.8-1.4,1.4-1.8c0.6-0.4,1.4-0.7,2.3-0.7c1.2,0,2.1,0.4,2.7,1.2c0.6,0.8,1,2,1,3.7v6.5h-1.2v-6.5
		c0-1.4-0.2-2.3-0.7-2.9c-0.5-0.6-1.2-0.8-2-0.8c-1,0-1.7,0.3-2.2,0.9c-0.5,0.6-0.8,1.4-1,2.3c0,0,0,0.1,0,0.2c0,0.1,0,0.2,0,0.2
		v6.7h-1.2v-6.5c0-1.3-0.2-2.3-0.7-2.9c-0.5-0.6-1.2-0.9-2-0.9c-0.9,0-1.6,0.2-2.1,0.7c-0.5,0.4-0.9,1-1.1,1.8v7.8h-1.2v-11.1H1139z
		"/>
	<path class="st2" d="M1160.7,159.1c-1.4,0-2.5-0.5-3.5-1.5c-0.9-1-1.4-2.3-1.4-3.9v-0.6c0-1.6,0.5-2.9,1.4-3.9c0.9-1,2-1.6,3.3-1.6
		c1.4,0,2.4,0.4,3.2,1.3s1.2,2,1.2,3.4v1h-7.8v0.3c0,1.2,0.3,2.3,1,3.1s1.5,1.3,2.6,1.3c0.8,0,1.4-0.1,2-0.3s1-0.5,1.4-0.9l0.5,0.8
		c-0.4,0.4-0.9,0.8-1.6,1C1162.4,159,1161.6,159.1,1160.7,159.1z M1160.6,148.6c-0.9,0-1.7,0.3-2.3,1c-0.6,0.7-1,1.6-1.1,2.6l0,0.1
		h6.5V152c0-1-0.3-1.8-0.9-2.4S1161.6,148.6,1160.6,148.6z"/>
	<path class="st2" d="M1168.5,147.8l0.1,1.9c0.4-0.7,0.8-1.2,1.4-1.6c0.6-0.4,1.3-0.6,2.1-0.6c1.2,0,2.1,0.4,2.7,1.1
		c0.6,0.7,0.9,1.9,0.9,3.4v6.8h-1.2v-6.8c0-1.3-0.2-2.2-0.7-2.7c-0.5-0.5-1.2-0.8-2-0.8c-0.9,0-1.6,0.2-2.1,0.7
		c-0.5,0.5-0.9,1.1-1.2,1.8v7.8h-1.2v-11.1H1168.5z"/>
	<path class="st2" d="M1181,145v2.8h2.4v1h-2.4v7.2c0,0.7,0.1,1.2,0.4,1.5c0.3,0.3,0.6,0.5,1.1,0.5c0.2,0,0.4,0,0.6,0
		c0.2,0,0.4,0,0.7-0.1l0.2,0.9c-0.2,0.1-0.5,0.2-0.7,0.2s-0.6,0.1-0.9,0.1c-0.8,0-1.4-0.2-1.8-0.7c-0.4-0.5-0.7-1.3-0.7-2.3v-7.2
		h-1.9v-1h1.9V145H1181z"/>
</g>
<g class="st1">
	<path class="st2" d="M918.5,102.6h-1.1V89h1.1V102.6z"/>
	<path class="st2" d="M928.1,100c0-0.5-0.2-0.9-0.6-1.2c-0.4-0.4-1.1-0.6-2.1-0.9c-1.2-0.3-2.1-0.6-2.7-1s-0.9-1-0.9-1.8
		c0-0.8,0.3-1.4,1-2c0.7-0.5,1.5-0.8,2.6-0.8c1.1,0,2,0.3,2.7,0.8c0.7,0.6,1,1.3,1,2.1l0,0.1h-1c0-0.6-0.2-1-0.7-1.4
		c-0.5-0.4-1.1-0.6-1.9-0.6c-0.8,0-1.4,0.2-1.8,0.5c-0.4,0.3-0.6,0.8-0.6,1.2c0,0.5,0.2,0.8,0.5,1.2s1.1,0.6,2.1,0.8
		c1.2,0.3,2.1,0.6,2.7,1.1s0.9,1.1,0.9,1.9c0,0.8-0.3,1.5-1,2s-1.6,0.8-2.7,0.8c-1.2,0-2.2-0.3-2.9-0.9c-0.7-0.6-1-1.3-1-2.1l0-0.1
		h1c0,0.7,0.3,1.3,0.9,1.6c0.6,0.3,1.2,0.5,1.9,0.5c0.8,0,1.4-0.2,1.9-0.5C927.8,100.9,928.1,100.5,928.1,100z"/>
	<path class="st2" d="M931.1,97.4c0-1.5,0.4-2.7,1.2-3.7c0.8-1,1.9-1.4,3.2-1.4c1.4,0,2.4,0.5,3.2,1.4c0.8,1,1.2,2.2,1.2,3.7v0.3
		c0,1.5-0.4,2.7-1.2,3.7c-0.8,1-1.9,1.4-3.2,1.4c-1.4,0-2.4-0.5-3.3-1.4c-0.8-0.9-1.2-2.2-1.2-3.7V97.4z M932.3,97.7
		c0,1.2,0.3,2.2,0.9,2.9c0.6,0.8,1.4,1.2,2.5,1.2c1,0,1.9-0.4,2.5-1.2c0.6-0.8,0.9-1.8,0.9-2.9v-0.3c0-1.2-0.3-2.1-0.9-2.9
		c-0.6-0.8-1.4-1.2-2.5-1.2c-1,0-1.9,0.4-2.5,1.2c-0.6,0.8-0.9,1.8-0.9,2.9V97.7z"/>
	<path class="st2" d="M943.7,102.6h-1.1V88h1.1V102.6z"/>
	<path class="st2" d="M953.2,102.6c-0.1-0.3-0.1-0.6-0.2-0.9s0-0.5,0-0.8c-0.4,0.5-0.9,1-1.5,1.3s-1.3,0.5-2.1,0.5
		c-1,0-1.7-0.3-2.3-0.8c-0.5-0.5-0.8-1.2-0.8-2.1c0-0.9,0.4-1.7,1.2-2.2c0.8-0.6,1.9-0.8,3.3-0.8h2.2v-1.3c0-0.7-0.2-1.3-0.7-1.7
		s-1.1-0.6-1.9-0.6c-0.8,0-1.4,0.2-1.9,0.6c-0.5,0.4-0.8,0.9-0.8,1.4l-1,0l0-0.1c0-0.8,0.3-1.4,1-2c0.7-0.6,1.6-0.9,2.8-0.9
		c1.1,0,2,0.3,2.7,0.9s1,1.4,1,2.4v5c0,0.4,0,0.7,0.1,1c0,0.3,0.1,0.7,0.2,1H953.2z M949.5,101.8c0.8,0,1.5-0.2,2.1-0.6
		c0.6-0.4,1.1-0.9,1.3-1.4v-2.1h-2.3c-1,0-1.8,0.2-2.4,0.6c-0.6,0.4-0.9,1-0.9,1.6c0,0.5,0.2,1,0.6,1.3S948.8,101.8,949.5,101.8z"/>
	<path class="st2" d="M958,92.5l0.1,1.8c0.3-0.6,0.8-1.1,1.3-1.4c0.6-0.3,1.2-0.5,2-0.5c1.1,0,1.9,0.3,2.5,1
		c0.6,0.7,0.9,1.7,0.9,3.1v6.2h-1.1v-6.2c0-1.2-0.2-2-0.6-2.5c-0.4-0.5-1-0.7-1.8-0.7c-0.8,0-1.4,0.2-1.9,0.6
		c-0.5,0.4-0.9,1-1.1,1.7v7.1H957V92.5H958z"/>
	<path class="st2" d="M969.4,89.9v2.6h2.2v0.9h-2.2v6.6c0,0.7,0.1,1.1,0.4,1.4c0.2,0.3,0.6,0.4,1,0.4c0.2,0,0.4,0,0.5,0
		c0.2,0,0.4,0,0.6-0.1l0.2,0.8c-0.2,0.1-0.4,0.1-0.7,0.2c-0.3,0-0.5,0.1-0.8,0.1c-0.7,0-1.3-0.2-1.7-0.7s-0.6-1.2-0.6-2.1v-6.6h-1.7
		v-0.9h1.7v-2.6H969.4z"/>
	<path class="st2" d="M979.9,94h-1.3v-1.5h1.3V94z M979.9,102.6h-1.3V101h1.3V102.6z"/>
</g>
<g class="st1">
	<path class="st2" d="M988.8,96.9v5.7h-1.1V89h4.7c1.4,0,2.5,0.4,3.3,1.1s1.2,1.7,1.2,2.9c0,1.2-0.4,2.2-1.2,2.9
		c-0.8,0.7-1.9,1.1-3.3,1.1H988.8z M988.8,96h3.6c1.1,0,2-0.3,2.5-0.9c0.6-0.6,0.8-1.3,0.8-2.2c0-0.9-0.3-1.6-0.8-2.2
		s-1.4-0.9-2.5-0.9h-3.6V96z"/>
</g>
<g class="st1">
	<path class="st2" d="M998.5,97.4c0-1.5,0.4-2.7,1.2-3.7c0.8-1,1.9-1.4,3.2-1.4c1.4,0,2.4,0.5,3.2,1.4c0.8,1,1.2,2.2,1.2,3.7v0.3
		c0,1.5-0.4,2.7-1.2,3.7c-0.8,1-1.9,1.4-3.2,1.4c-1.4,0-2.4-0.5-3.3-1.4c-0.8-0.9-1.2-2.2-1.2-3.7V97.4z M999.6,97.7
		c0,1.2,0.3,2.2,0.9,2.9c0.6,0.8,1.4,1.2,2.5,1.2c1,0,1.9-0.4,2.5-1.2c0.6-0.8,0.9-1.8,0.9-2.9v-0.3c0-1.2-0.3-2.1-0.9-2.9
		c-0.6-0.8-1.4-1.2-2.5-1.2c-1,0-1.9,0.4-2.5,1.2c-0.6,0.8-0.9,1.8-0.9,2.9V97.7z"/>
	<path class="st2" d="M1011,102.6h-1.1V88h1.1V102.6z"/>
</g>
<g class="st1">
	<path class="st2" d="M1017,99.8l0.4,1.2h0.1l3.1-8.6h1.3l-4.4,11.7c-0.3,0.7-0.6,1.3-1,1.7s-1,0.7-1.8,0.7c-0.1,0-0.3,0-0.5,0
		c-0.2,0-0.3-0.1-0.4-0.1l0.1-0.9c0.1,0,0.2,0,0.4,0c0.2,0,0.3,0,0.4,0c0.5,0,0.9-0.2,1.2-0.5c0.3-0.3,0.5-0.8,0.7-1.3l0.5-1.4
		l-3.9-10h1.2L1017,99.8z"/>
</g>
<g class="st1">
	<path class="st2" d="M1027.1,102.8c-1.3,0-2.3-0.5-3.2-1.4c-0.8-0.9-1.3-2.1-1.3-3.5v-0.5c0-1.4,0.4-2.6,1.2-3.6
		c0.8-1,1.8-1.4,3-1.4c1.2,0,2.2,0.4,2.9,1.2c0.7,0.8,1.1,1.8,1.1,3.1v1h-7.1v0.3c0,1.1,0.3,2.1,0.9,2.9c0.6,0.8,1.4,1.1,2.4,1.1
		c0.7,0,1.3-0.1,1.8-0.3c0.5-0.2,0.9-0.5,1.3-0.8l0.5,0.8c-0.4,0.4-0.9,0.7-1.4,1C1028.6,102.6,1027.9,102.8,1027.1,102.8z
		 M1027,93.2c-0.8,0-1.5,0.3-2.1,0.9c-0.6,0.6-0.9,1.4-1,2.4l0,0h5.9v-0.3c0-0.9-0.3-1.6-0.8-2.2S1027.9,93.2,1027,93.2z
		 M1028.4,88.5h1.4l0,0.1l-2.3,2.4h-1L1028.4,88.5z"/>
	<path class="st2" d="M1035,89.9v2.6h2.2v0.9h-2.2v6.6c0,0.7,0.1,1.1,0.4,1.4c0.2,0.3,0.6,0.4,1,0.4c0.2,0,0.4,0,0.5,0
		c0.2,0,0.4,0,0.6-0.1l0.2,0.8c-0.2,0.1-0.4,0.1-0.7,0.2c-0.3,0-0.5,0.1-0.8,0.1c-0.7,0-1.3-0.2-1.7-0.7s-0.6-1.2-0.6-2.1v-6.6h-1.7
		v-0.9h1.7v-2.6H1035z"/>
	<path class="st2" d="M1040.7,94.2c0.3-0.6,0.8-1.1,1.3-1.4s1.2-0.5,2-0.5c1.1,0,1.9,0.3,2.5,1c0.6,0.7,0.9,1.7,0.9,3.1v6.2h-1.1
		v-6.3c0-1.1-0.2-1.9-0.6-2.4c-0.4-0.5-1-0.7-1.8-0.7c-0.8,0-1.4,0.2-1.9,0.6s-0.9,0.9-1.1,1.6v7.1h-1.1V88h1.1V94.2z"/>
	<path class="st2" d="M1053.1,99.8l0.4,1.2h0.1l3.1-8.6h1.3l-4.4,11.7c-0.3,0.7-0.6,1.3-1,1.7s-1,0.7-1.8,0.7c-0.1,0-0.3,0-0.5,0
		c-0.2,0-0.3-0.1-0.4-0.1l0.1-0.9c0.1,0,0.2,0,0.4,0c0.2,0,0.3,0,0.4,0c0.5,0,0.9-0.2,1.2-0.5c0.3-0.3,0.5-0.8,0.7-1.3l0.5-1.4
		l-3.9-10h1.2L1053.1,99.8z"/>
	<path class="st2" d="M1060.8,102.6h-1.1V88h1.1V102.6z"/>
	<path class="st2" d="M1067.7,102.8c-1.3,0-2.3-0.5-3.2-1.4c-0.8-0.9-1.3-2.1-1.3-3.5v-0.5c0-1.4,0.4-2.6,1.2-3.6
		c0.8-1,1.8-1.4,3-1.4c1.2,0,2.2,0.4,2.9,1.2c0.7,0.8,1.1,1.8,1.1,3.1v1h-7.1v0.3c0,1.1,0.3,2.1,0.9,2.9c0.6,0.8,1.4,1.1,2.4,1.1
		c0.7,0,1.3-0.1,1.8-0.3c0.5-0.2,0.9-0.5,1.3-0.8l0.5,0.8c-0.4,0.4-0.9,0.7-1.4,1C1069.2,102.6,1068.5,102.8,1067.7,102.8z
		 M1067.6,93.2c-0.8,0-1.5,0.3-2.1,0.9c-0.6,0.6-0.9,1.4-1,2.4l0,0h5.9v-0.3c0-0.9-0.3-1.6-0.8-2.2S1068.4,93.2,1067.6,93.2z
		 M1068.3,91h-1.1l-2.3-2.4l0,0h1.4L1068.3,91z"/>
	<path class="st2" d="M1074.7,92.5l0.1,1.8c0.3-0.6,0.8-1.1,1.3-1.4c0.6-0.3,1.2-0.5,2-0.5c1.1,0,1.9,0.3,2.5,1
		c0.6,0.7,0.9,1.7,0.9,3.1v6.2h-1.1v-6.2c0-1.2-0.2-2-0.6-2.5c-0.4-0.5-1-0.7-1.8-0.7c-0.8,0-1.4,0.2-1.9,0.6
		c-0.5,0.4-0.9,1-1.1,1.7v7.1h-1.1V92.5H1074.7z"/>
	<path class="st2" d="M1088.2,102.8c-1.3,0-2.3-0.5-3.2-1.4c-0.8-0.9-1.3-2.1-1.3-3.5v-0.5c0-1.4,0.4-2.6,1.2-3.6
		c0.8-1,1.8-1.4,3-1.4c1.2,0,2.2,0.4,2.9,1.2c0.7,0.8,1.1,1.8,1.1,3.1v1h-7.1v0.3c0,1.1,0.3,2.1,0.9,2.9c0.6,0.8,1.4,1.1,2.4,1.1
		c0.7,0,1.3-0.1,1.8-0.3c0.5-0.2,0.9-0.5,1.3-0.8l0.5,0.8c-0.4,0.4-0.9,0.7-1.4,1C1089.7,102.6,1089,102.8,1088.2,102.8z
		 M1088.1,93.2c-0.8,0-1.5,0.3-2.1,0.9c-0.6,0.6-0.9,1.4-1,2.4l0,0h5.9v-0.3c0-0.9-0.3-1.6-0.8-2.2
		C1089.6,93.5,1088.9,93.2,1088.1,93.2z"/>
</g>
<g>
	<path class="st3" d="M1006.5,318.5c5.3,1.5,17.8-12.4,25.1-37.7s4.3-43.7-1-45.3s-17.8,12.4-25.1,37.7S1001.2,317,1006.5,318.5z"/>
	<path class="st4" d="M1002.4,272.4c7-24,19.6-41.5,28.5-39.8l-0.9,3c-5.6-0.4-17.4,13.3-24.5,37.7c-7.1,24.4-4.5,42.3,0.4,45
		l-0.9,3C996.7,317.9,995.4,296.4,1002.4,272.4z"/>
	<g>
		<g>
			<path class="st5" d="M1099.7,300.4l5.5-7c-7.5-5.5-13.2-10.4-18.6-15.2c-11.2-9.8-21.8-19-45.3-29.8l-3.8,8
				c22.2,10.2,31.8,18.6,43,28.3C1086.1,289.6,1091.9,294.7,1099.7,300.4z"/>
			<path class="st5" d="M781.6,153.6c26.6,3.6,50.6,7.6,74.9,19.3l4-7.9c-25.5-12.3-50.4-16.5-77.9-20.2L781.6,153.6z"/>
			<path class="st5" d="M942.3,227.4c27.8,12.8,43.7,15.6,57.8,18c11.8,2.1,21.9,3.8,37.4,11l3.8-8c-16.6-7.7-27.9-9.6-39.8-11.7
				c-14.1-2.5-28.8-5-55.4-17.3L942.3,227.4z"/>
			
				<linearGradient id="SVGID_1_" gradientUnits="userSpaceOnUse" x1="10795.5742" y1="-1964.3794" x2="11150.7441" y2="-1964.3794" gradientTransform="matrix(-0.9 -0.43 0.43 -0.9 11677.7871 3172.4709)">
				<stop  offset="0.23" style="stop-color:#9B4F9A"/>
				<stop  offset="0.61" style="stop-color:#9B4F9A"/>
				<stop  offset="1" style="stop-color:#9B4F9A"/>
			</linearGradient>
			<path class="st6" d="M847.7,184.3l2.9,1.3c13.5,5.9,26,8.7,39.3,11.6c16.2,3.6,34.7,7.6,58,18.4c26.6,12.3,37.9,21.7,48.9,30.8
				c9.2,7.7,18,14.9,34.6,22.6c23.5,10.8,37.5,12.9,52.3,15.2c7.2,1.1,14.7,2.2,23.8,4.4l2-8.6c-9.5-2.3-17.2-3.4-24.7-4.6
				c-14.7-2.2-27.5-4.1-49.7-14.4c-15.5-7.1-23.3-13.7-32.4-21.2c-10.9-9-23.2-19.3-51-32.1c-24.4-11.2-43.3-15.4-60-19.1
				c-12.8-2.8-25-5.5-37.5-11c-24.8-10.8-43.1-26.4-63-44.2l-6.2,6.4C804.8,157.4,823.1,173,847.7,184.3z"/>
			<path class="st5" d="M942.3,227.4l3.8-8c-23.4-10.8-38.3-22.1-51.5-32.1c-10.8-8.2-21-15.9-34.2-22.3l-4,7.9
				c12.3,6,22.2,13.4,32.6,21.3C902.6,204.5,917.9,216.2,942.3,227.4z"/>
			<path class="st7" d="M787.3,135.6c-1.7,1.7-2.5,3.6-2,4.1s2.4-0.4,4.1-2.2s2.5-3.6,2-4.1S789,133.9,787.3,135.6z"/>
			<path class="st8" d="M780.7,149.1c-0.2,2.4,0.3,4.4,1.1,4.4s1.6-1.8,1.8-4.1s-0.3-4.4-1-4.4S780.9,146.7,780.7,149.1z"/>
		</g>
		<g>
			<path class="st9" d="M789.5,135.3L789.5,135.3c0.2,0.2-0.2,0.9-0.9,1.6s-1.5,1.1-1.7,0.9l0,0l-4.1-3.9l2.7-2.5L789.5,135.3z"/>
			<path class="st10" d="M783.8,132.4c-0.7,0.7-1.2,1.4-1,1.6s0.9-0.3,1.7-1s1.2-1.4,1-1.6S784.5,131.7,783.8,132.4z"/>
		</g>
		<g>
			<path class="st9" d="M782,147.5L782,147.5c0.3,0,0.5,0.8,0.4,1.9s-0.3,1.8-0.7,1.8l0,0l-5.7-0.5l0.2-3.6L782,147.5z"/>
			<path class="st10" d="M775.8,148.8c-0.1,1,0.1,1.8,0.3,1.9s0.5-0.8,0.5-1.8s-0.1-1.8-0.3-1.9S775.9,147.8,775.8,148.8z"/>
		</g>
	</g>
	<g>
		<g>
			<path class="st11" d="M1100.2,304.7l4.6-7.6c-8.2-4.6-14.4-8.8-20.4-12.9c-12.3-8.4-24-16.4-48.6-24.4l-2.8,8.4
				c23.3,7.6,33.8,14.8,46.1,23.2C1085.3,295.5,1091.7,299.9,1100.2,304.7z"/>
			<path class="st11" d="M766.8,195.5c26.8,0.5,51,1.7,76.6,10.5l3-8.3c-26.8-9.3-51.9-10.5-79.6-11.1L766.8,195.5z"/>
			<path class="st11" d="M935.2,250.3c29.1,9.5,45.2,10.4,59.5,11.2c11.9,0.7,22.2,1.3,38.4,6.6l2.8-8.4c-17.4-5.7-28.8-6.3-40.9-7
				c-14.3-0.8-29.1-1.7-57-10.8L935.2,250.3z"/>
			<path class="st12" d="M836.2,218.4l3,1c14.1,4.3,26.8,5.6,40.4,7c16.5,1.7,35.2,3.6,59.8,11.6c27.9,9.1,40.3,17.2,52.3,25
				c10.1,6.6,19.7,12.8,37.1,18.5c24.6,8,38.7,8.5,53.7,9c7.3,0.2,14.8,0.5,24.1,1.6l0.9-8.8c-9.7-1.2-17.5-1.4-25-1.7
				c-14.8-0.5-27.7-0.9-50.9-8.5c-16.2-5.3-24.8-10.9-34.8-17.4c-11.9-7.8-25.5-16.5-54.6-26c-25.6-8.4-44.8-10.3-61.8-12
				c-13-1.3-25.4-2.6-38.5-6.6c-25.9-7.9-46-21.3-67.9-36.7l-5.3,7.1C790.2,196.6,810.4,210,836.2,218.4z"/>
			<path class="st11" d="M935.2,250.3l2.8-8.4c-24.5-8-40.7-17.6-55-26c-11.7-6.9-22.8-13.4-36.7-18.2l-3,8.3
				c13,4.5,23.6,10.8,34.9,17.4C893,232.1,909.7,241.9,935.2,250.3z"/>
			<path class="st13" d="M770.2,176.9c-1.4,1.9-2.1,3.8-1.4,4.3s2.3-0.7,3.8-2.6s2.1-3.8,1.4-4.3S771.6,175,770.2,176.9z"/>
			<path class="st14" d="M765.3,191.1c0.1,2.4,0.8,4.3,1.6,4.3s1.4-2,1.3-4.3s-0.8-4.4-1.6-4.3S765.3,188.7,765.3,191.1z"/>
		</g>
		<g>
			<path class="st9" d="M772.4,176.4L772.4,176.4c0.2,0.2-0.1,1-0.7,1.7s-1.3,1.2-1.6,1.1l0,0l-4.6-3.4l2.3-2.8L772.4,176.4z"/>
			<path class="st10" d="M766.3,174.1c-0.6,0.8-1,1.5-0.8,1.7s0.9-0.4,1.5-1.2s1-1.6,0.8-1.7S767,173.3,766.3,174.1z"/>
		</g>
		<g>
			<path class="st9" d="M766.5,189.4L766.5,189.4c0.3,0,0.6,0.8,0.7,1.8s-0.1,1.8-0.4,1.8l0,0l-5.7,0.2l-0.2-3.6L766.5,189.4z"/>
			<path class="st10" d="M760.5,191.4c0.1,1,0.3,1.8,0.5,1.8s0.4-0.8,0.3-1.8s-0.3-1.8-0.5-1.8S760.4,190.4,760.5,191.4z"/>
		</g>
	</g>
	<g>
		<g>
			<path class="st15" d="M1096.1,325.4l3.1-8.3c-8.8-3.2-15.7-6.4-22.3-9.5c-13.6-6.3-26.5-12.2-52-16.1l-1.2,8.8
				c24.2,3.7,35.9,9.1,49.4,15.3C1079.8,318.8,1086.8,322,1096.1,325.4z"/>
			<path class="st15" d="M749.5,272.6c26.4-3.9,50.3-6.8,76.9-2.3l1.4-8.7c-27.9-4.8-52.8-1.8-80,2.3L749.5,272.6z"/>
			<path class="st15" d="M924.5,298.9c30.2,4.6,46.2,2.8,60.3,1.3c11.8-1.3,22-2.4,38.8,0.1l1.2-8.8c-18.1-2.7-29.4-1.5-41.3-0.2
				c-14.2,1.6-28.8,3.2-57.8-1.2L924.5,298.9z"/>
			<path class="st16" d="M821.6,283.8c1,0.2,2.1,0.3,3.1,0.4c14.6,1.9,27.3,1.1,40.8,0.2c16.5-1.1,35.2-2.3,60.7,1.5
				c29,4.4,42.6,10.3,55.8,16c11.1,4.8,21.6,9.4,39.7,12.1c25.6,3.9,39.5,2,54.2,0c7.2-1,14.6-2,23.9-2.4l-0.7-8.9
				c-9.7,0.5-17.4,1.5-24.8,2.5c-14.6,2-27.3,3.7-51.5,0c-16.8-2.5-26.3-6.7-37.2-11.4c-13.1-5.7-28-12.1-58.2-16.7
				c-26.6-4-45.8-2.8-62.8-1.6c-13,0.8-25.3,1.7-38.9-0.1c-26.8-3.4-49-13.4-73.2-25l-4,7.9C772.7,269.9,794.9,279.8,821.6,283.8z"
				/>
			<path class="st15" d="M924.5,298.9l1.2-8.8c-25.5-3.9-43.1-10.6-58.6-16.5c-12.7-4.9-24.8-9.5-39.2-12l-1.4,8.7
				c13.5,2.3,25.1,6.8,37.4,11.4C879.8,287.9,898,294.9,924.5,298.9z"/>
			<path class="st17" d="M749.5,253.7c-1.1,2.1-1.3,4.2-0.6,4.5s2.2-1.1,3.2-3.2c1.1-2.1,1.3-4.1,0.6-4.5S750.5,251.6,749.5,253.7z"
				/>
			<path class="st18" d="M747.3,268.5c0.5,2.4,1.6,4.1,2.4,4s1-2.1,0.5-4.5s-1.6-4.1-2.3-4S746.8,266.2,747.3,268.5z"/>
		</g>
		<g>
			<path class="st9" d="M751.5,252.8L751.5,252.8c0.3,0.2,0.1,1-0.4,1.8s-1.1,1.4-1.3,1.4l0,0l-5.1-2.6l1.7-3.2L751.5,252.8z"/>
			<path class="st10" d="M745.2,251.5c-0.5,0.9-0.7,1.7-0.5,1.8s0.8-0.5,1.2-1.4s0.7-1.7,0.5-1.8S745.7,250.6,745.2,251.5z"/>
		</g>
		<g>
			<path class="st9" d="M748.1,266.6L748.1,266.6c0.3,0,0.7,0.7,1,1.7s0.2,1.8-0.1,1.9l0,0l-5.6,1.1l-0.9-3.6L748.1,266.6z"/>
			<path class="st10" d="M742.6,269.6c0.2,1,0.6,1.7,0.9,1.7s0.2-0.9,0-1.9s-0.6-1.7-0.8-1.7S742.3,268.6,742.6,269.6z"/>
		</g>
	</g>
	<g>
		<g>
			<path class="st19" d="M1096.1,316.8l4-7.9c-8.4-4.1-14.9-7.9-21.2-11.6c-12.9-7.6-25.1-14.8-50.1-21.2l-2.2,8.6
				c23.7,6,34.8,12.6,47.6,20.1C1080.6,308.7,1087.3,312.6,1096.1,316.8z"/>
			<path class="st19" d="M756.2,229.9c26.7-1.3,50.9-1.7,77,5.4l2.3-8.5c-27.3-7.5-52.5-7.1-80-5.8L756.2,229.9z"/>
			<path class="st19" d="M927.9,273.5c29.7,7.6,45.8,7.4,60,7.3c11.9-0.1,22.2-0.2,38.7,4l2.2-8.6c-17.8-4.5-29.1-4.4-41.2-4.3
				c-14.3,0.1-29.1,0.3-57.5-7L927.9,273.5z"/>
			<path class="st20" d="M826.9,248.2c1,0.3,2,0.5,3.1,0.7c14.3,3.4,27.2,3.8,40.7,4.3c16.6,0.6,35.3,1.2,60.3,7.6
				c28.4,7.3,41.4,14.5,53.9,21.5c10.5,5.9,20.5,11.5,38.3,16c25.1,6.4,39.2,5.9,54.1,5.4c7.3-0.2,14.8-0.5,24.1,0l0.2-8.9
				c-9.8-0.5-17.5-0.2-25,0c-14.8,0.5-27.6,0.9-51.3-5.1c-16.5-4.2-25.5-9.2-35.9-15c-12.5-6.9-26.5-14.8-56.2-22.4
				c-26-6.6-45.4-7.3-62.4-7.9c-13.1-0.5-25.4-0.9-38.8-4c-26.4-6.1-47.4-18.2-70.3-32.2l-4.8,7.4
				C779.6,229.5,800.7,241.5,826.9,248.2z"/>
			<path class="st19" d="M927.9,273.5l2.2-8.6c-25-6.4-41.8-14.8-56.7-22.3c-12.2-6.1-23.7-11.9-37.8-15.8l-2.3,8.5
				c13.2,3.6,24.3,9.2,36,15.1C884.5,258.1,901.8,266.8,927.9,273.5z"/>
			<path class="st21" d="M758.2,211.1c-1.3,2-1.8,4-1.1,4.4s2.3-0.9,3.6-2.9s1.8-4,1.1-4.4S759.5,209.1,758.2,211.1z"/>
			<path class="st22" d="M754.4,225.6c0.3,2.4,1.1,4.3,1.9,4.2s1.2-2,1-4.4s-1.1-4.3-1.9-4.2S754.2,223.2,754.4,225.6z"/>
		</g>
		<g>
			<path class="st9" d="M760.3,210.4L760.3,210.4c0.2,0.2,0,1-0.6,1.8s-1.2,1.3-1.5,1.2l0,0l-4.8-3.1l2.1-3L760.3,210.4z"/>
			<path class="st10" d="M754.2,208.6c-0.6,0.8-0.9,1.6-0.7,1.8s0.8-0.4,1.4-1.3s0.9-1.6,0.7-1.7S754.7,207.7,754.2,208.6z"/>
		</g>
		<g>
			<path class="st9" d="M755.4,223.8L755.4,223.8c0.3,0,0.6,0.8,0.8,1.8s0,1.8-0.3,1.9l0,0l-5.7,0.6l-0.5-3.6L755.4,223.8z"/>
			<path class="st10" d="M749.6,226.2c0.1,1,0.4,1.8,0.7,1.8s0.3-0.9,0.2-1.9s-0.5-1.8-0.7-1.8S749.5,225.2,749.6,226.2z"/>
		</g>
	</g>
	<path class="st23" d="M1078,287.4c0.3,0.1,0.7,0,1-0.1c0.8-0.3,1.2-1.3,0.8-2.1c0,0,0-0.1-0.1-0.1c-12.6-23.7-44.6-42.2-65.8-54.4
		c-5.1-2.9-9.5-5.4-12.9-7.7c-10.8-6.9-29.7-15.2-48-23.2c-16.8-7.3-32.6-14.3-42.3-20c-17.4-10.4-63.6-37.9-75.9-59.8
		c-0.5-0.8-1.5-1.1-2.3-0.7c-0.8,0.4-1.1,1.3-0.7,2.1c0,0,0,0.1,0.1,0.1c11.3,20,47.2,43.1,77.2,61c9.9,5.9,25.8,12.9,42.7,20.3
		c18.2,8,37,16.2,47.5,22.9c3.5,2.2,8,4.8,13.1,7.8c20.9,12,52.4,30.2,64.5,53C1077,287,1077.5,287.3,1078,287.4z"/>
	
		<linearGradient id="SVGID_2_" gradientUnits="userSpaceOnUse" x1="11057.0508" y1="-1249.41" x2="11057.0508" y2="-1341.9399" gradientTransform="matrix(-0.96 -0.28 0.28 -0.96 12224.3008 2187.3542)">
		<stop  offset="0" style="stop-color:#CDD3CB"/>
		<stop  offset="0.22" style="stop-color:#EFF6E6"/>
		<stop  offset="0.31" style="stop-color:#EFF7FA"/>
		<stop  offset="0.45" style="stop-color:#EEF2EC"/>
		<stop  offset="0.91" style="stop-color:#C3CFD4"/>
	</linearGradient>
	<path class="st24" d="M1034.8,281.8c6.9-23.8,5.7-45.2-2.5-48.8v-0.1l450.4,131l-25.8,88.8l-450.5-131v-0.1
		C1015.4,323,1027.8,305.6,1034.8,281.8z"/>
	<path class="st25" d="M1031.6,280.9c-7.4,25.3-19.8,39.2-25.1,37.7c-0.2-0.1-0.4-0.2-0.5-0.3l24-82.7c0.2,0,0.4,0,0.6,0.1
		C1035.9,237.2,1039,255.6,1031.6,280.9z"/>
	<path class="st4" d="M1006.5,318.5c5.3,1.5,17.8-12.4,25.1-37.7s4.3-43.7-1-45.3c-0.2,0-0.4-0.1-0.6-0.1l0.9-3c0.2,0,0.4,0,0.6,0.1
		c8.9,2.6,10.4,24.6,3.3,49.1s-20.2,42.3-29.1,39.7c-0.2,0-0.4-0.2-0.6-0.2l0.9-3C1006.1,318.3,1006.3,318.4,1006.5,318.5z"/>
</g>
</svg>
