<?xml version="1.0" encoding="utf-8"?>
<!-- Generator: Adobe Illustrator 21.0.0, SVG Export Plug-In . SVG Version: 6.00 Build 0)  -->
<svg version="1.1" id="图层_1" xmlns="http://www.w3.org/2000/svg" xmlns:xlink="http://www.w3.org/1999/xlink" x="0px" y="0px"
	 viewBox="0 0 1440 540" style="enable-background:new 0 0 1440 540;" xml:space="preserve">
<style type="text/css">
	.st0{fill:#B0B0B1;}
	.st1{fill:#EFF6E6;}
	.st2{fill:#8B9294;}
	.st3{fill:#C9E0E6;}
	.st4{fill:#E50012;}
	.st5{fill:#182987;}
	.st6{fill:#19254A;}
	.st7{fill:#B31D23;}
	.st8{fill:#D6AD3C;}
	.st9{fill:#CA9A0C;}
	.st10{fill:#2CA6E0;}
	.st11{fill:#DBDCDC;}
	.st12{fill:#B4B4B5;}
	.st13{fill:#137EAB;}
	.st14{fill:url(#SVGID_1_);}
	.st15{fill:url(#SVGID_2_);}
	.st16{fill:none;}
	.st17{fill:none;stroke:#E5F3F5;stroke-width:0.2;stroke-miterlimit:10;}
	.st18{fill:none;stroke:#B5C9CE;stroke-width:0.2;stroke-miterlimit:10;}
	.st19{fill:url(#SVGID_3_);}
	.st20{fill:url(#SVGID_4_);}
	.st21{enable-background:new    ;}
	.st22{fill:#18244A;}
	.st23{fill:none;stroke:#18244A;stroke-miterlimit:10;}
</style>
<title>未标题-1</title>
<g>
	<path class="st0" d="M1046.3,332.5c5.9,2.6,22.6-11.7,35.3-40.2s12.2-50.5,6.3-53.1s-22.6,11.7-35.3,40.2
		C1039.9,307.8,1040.4,329.8,1046.3,332.5z"/>
	<path class="st1" d="M1049.1,277.8c12-27,29.6-45.5,39.6-42.1l-1.5,3.4c-6.4-1.4-22.4,12.9-34.6,40.3s-12.2,48.8-6.9,52.7l-1.5,3.4
		C1035,330.2,1037.1,304.8,1049.1,277.8z"/>
	<path class="st2" d="M977,285c4.3,1.9,16.3-8.5,25.5-29s8.8-36.5,4.6-38.4s-16.3,8.5-25.5,29C972.4,267.1,972.8,283.1,977,285z"/>
	<path class="st3" d="M979.1,245.5c8.7-19.5,21.4-32.9,28.6-30.5l-1.1,2.4c-4.7-1-16.2,9.3-25,29.2s-8.8,35.3-5,38.1l-1.1,2.4
		C968.8,283.4,970.4,265,979.1,245.5z"/>
	<g>
		<g>
			<g>
				<path class="st4" d="M1158.4,335.3l6.5-8.2c-8.7-6.7-15.2-12.6-21.5-18.4c-12.9-11.8-25.1-23-52.3-36.3l-4.6,9.4
					c25.7,12.6,36.8,22.7,49.6,34.4C1142.7,322.2,1149.3,328.3,1158.4,335.3z"/>
				<path class="st4" d="M790.2,155.1c30.9,4.8,58.7,10,86.9,24.3l4.7-9.3c-29.5-15.1-58.4-20.5-90.3-25.4L790.2,155.1z"/>
				<path class="st4" d="M976.3,245.7c32.1,15.7,50.6,19.3,67,22.5c13.7,2.6,25.5,5,43.3,13.7l4.6-9.4
					c-19.2-9.4-32.3-11.9-46.2-14.6c-16.4-3.2-33.4-6.5-64.2-21.5L976.3,245.7z"/>
				<path class="st5" d="M866.8,192.8c1.1,0.5,2.2,1.1,3.3,1.6c15.6,7.2,30.2,10.8,45.6,14.5c18.8,4.5,40.2,9.7,67.2,22.9
					c30.8,15.1,43.9,26.4,56.5,37.5c10.7,9.3,20.7,18,39.9,27.5c27.2,13.3,43.4,16,60.6,19c8.4,1.4,17.1,2.9,27.7,5.6l2.4-10.2
					c-11-2.9-20-4.4-28.6-5.9c-17.1-2.9-31.9-5.4-57.6-18c-17.9-8.8-27-16.7-37.5-25.8c-12.6-11-26.8-23.4-58.9-39.1
					c-28.2-13.8-50.2-19.1-69.6-23.8c-14.9-3.6-28.9-7-43.5-13.8c-28.7-13.3-49.8-32.2-72.7-53.7l-7.3,7.5
					C817.1,160,838.3,178.9,866.8,192.8z"/>
				<path class="st4" d="M976.3,245.7l4.5-9.4c-27.1-13.2-44.3-27-59.5-39c-12.5-9.9-24.2-19.3-39.5-27.1l-4.7,9.3
					c14.3,7.3,25.6,16.4,37.6,25.9C930.3,217.7,948,231.9,976.3,245.7z"/>
				<path class="st6" d="M797,133.8c-2,2-3,4.2-2.3,4.8s2.8-0.5,4.8-2.5s3-4.2,2.3-4.8S799,131.8,797,133.8z"/>
				<path class="st7" d="M789.2,149.7c-0.3,2.8,0.3,5.2,1.2,5.3s1.9-2.1,2.2-4.9s-0.3-5.2-1.2-5.3S789.5,146.8,789.2,149.7z"/>
			</g>
			<g>
				<path class="st8" d="M799.7,133.5L799.7,133.5c0.2,0.3-0.2,1.1-1.1,1.9s-1.7,1.2-2,1l0,0l-4.7-4.7l3.1-3L799.7,133.5z"/>
				<path class="st9" d="M793.1,129.9c-0.9,0.8-1.4,1.7-1.2,1.9s1.1-0.3,1.9-1.1s1.4-1.6,1.2-1.8S793.9,129,793.1,129.9z"/>
			</g>
			<g>
				<path class="st8" d="M790.8,147.8L790.8,147.8c0.3,0,0.6,1,0.5,2.2s-0.4,2.1-0.8,2.1l0,0l-6.6-0.7l0.3-4.3L790.8,147.8z"/>
				<path class="st9" d="M783.6,149.2c-0.1,1.2,0.1,2.2,0.3,2.2s0.6-0.9,0.7-2.1s-0.1-2.2-0.3-2.2S783.7,148,783.6,149.2z"/>
			</g>
		</g>
		<g>
			<g>
				<path class="st10" d="M1157.3,339.6l5.6-8.9c-9.4-5.7-16.5-10.9-23.4-15.9c-14.2-10.3-27.5-20-56-30.2l-3.5,9.9
					c26.9,9.6,39.1,18.4,53.1,28.6C1140.2,328.4,1147.5,333.7,1157.3,339.6z"/>
				<path class="st10" d="M771.2,201.8c31.3,1.3,59.5,3.3,89.1,14.5l3.7-9.8c-31-11.7-60.3-13.8-92.6-15.2L771.2,201.8z"/>
				<path class="st10" d="M966.3,271c33.7,12,52.5,13.5,69.1,14.8c13.9,1.1,25.9,2.1,44.6,8.8l3.5-9.9c-20.2-7.2-33.4-8.2-47.5-9.4
					c-16.7-1.3-33.9-2.7-66.2-14.2L966.3,271z"/>
				<path class="st11" d="M851.5,230.7c1.1,0.4,2.3,0.8,3.5,1.2c16.3,5.5,31.2,7.3,47,9.3c19.2,2.4,41,5.1,69.4,15.3
					c32.3,11.5,46.5,21.4,60.3,30.9c11.6,8,22.6,15.6,42.8,22.8c28.5,10.2,45,11.1,62.4,12.1c8.5,0.5,17.3,1,28.1,2.5l1.3-10.4
					c-11.3-1.6-20.4-2.1-29.1-2.6c-17.3-1-32.3-1.8-59.2-11.4c-18.7-6.7-28.6-13.5-40.1-21.5c-13.7-9.5-29.2-20.2-63-32.2
					c-29.6-10.6-52-13.4-71.8-15.8c-15.2-1.9-29.5-3.7-44.8-8.8c-30-10-53.1-26.4-78.2-45.2l-6.5,8.2
					C798.5,203.7,821.7,220.1,851.5,230.7z"/>
				<path class="st10" d="M966.3,271l3.5-9.9c-28.4-10.1-47-21.8-63.5-32.1c-13.5-8.4-26.2-16.4-42.3-22.5l-3.7,9.8
					c15,5.7,27.3,13.4,40.3,21.5C917.5,248.4,936.7,260.4,966.3,271z"/>
				<path class="st12" d="M775.7,179.9c-1.7,2.2-2.5,4.5-1.8,5s2.8-0.8,4.5-3s2.5-4.5,1.8-5S777.4,177.7,775.7,179.9z"/>
				<path class="st13" d="M769.6,196.6c0,2.8,0.8,5.1,1.8,5.2s1.6-2.3,1.6-5.1s-0.8-5.1-1.7-5.1S769.6,193.7,769.6,196.6z"/>
			</g>
			<g>
				<path class="st8" d="M778.3,179.3L778.3,179.3c0.3,0.3-0.1,1.1-0.9,2s-1.6,1.4-1.9,1.2l0,0l-5.2-4.2l2.8-3.3L778.3,179.3z"/>
				<path class="st9" d="M771.3,176.5c-0.8,0.9-1.2,1.8-1,2s1-0.4,1.8-1.3s1.2-1.8,1-2S772.1,175.6,771.3,176.5z"/>
			</g>
			<g>
				<path class="st8" d="M771,194.5L771,194.5c0.3,0,0.7,0.9,0.7,2.1s-0.2,2.1-0.6,2.1l0,0l-6.7,0.1l-0.1-4.3L771,194.5z"/>
				<path class="st9" d="M764,196.7c0,1.2,0.3,2.2,0.6,2.2s0.5-1,0.4-2.2s-0.3-2.1-0.6-2.1S763.9,195.5,764,196.7z"/>
			</g>
		</g>
	</g>
	
		<linearGradient id="SVGID_1_" gradientUnits="userSpaceOnUse" x1="1435.9607" y1="7799.8574" x2="1778.7808" y2="7825.3877" gradientTransform="matrix(0.79 0.61 -0.61 0.79 4424.103 -6988.623)">
		<stop  offset="0.2" style="stop-color:#C3CFD4"/>
		<stop  offset="0.29" style="stop-color:#EDEEEE"/>
		<stop  offset="0.37" style="stop-color:#C3CFD4"/>
		<stop  offset="0.44" style="stop-color:#EFF6E6"/>
		<stop  offset="0.61" style="stop-color:#C3CFD4"/>
	</linearGradient>
	<path class="st14" d="M840.3,130.7c-0.4-0.1-0.8,0-1.1,0.2c-1,0.5-1.5,1.9-0.8,2.6c22.7,21.9,58,41.4,83.5,54.7
		c6.1,3.2,11.3,5.9,15.5,8.4c13,7.6,35.5,16.3,57.2,24.8c20,7.8,38.8,15.1,50.4,21.4c20.9,11.3,76.3,41.4,92,66.7
		c0.6,0.9,1.8,1.2,2.8,0.7c0.9-0.5,1.2-1.6,0.7-2.5c0,0,0-0.1-0.1-0.1c-14.4-23.2-57.5-48.6-93.5-68.1
		c-11.9-6.5-30.8-13.8-50.9-21.6c-21.6-8.4-44-17.1-56.7-24.6c-4.2-2.5-9.5-5.2-15.7-8.4c-25-13.1-61.6-34.3-81.8-53.1
		C841.5,131.2,840.9,130.8,840.3,130.7z"/>
	
		<linearGradient id="SVGID_2_" gradientUnits="userSpaceOnUse" x1="13517.1855" y1="-2057.4341" x2="13517.1855" y2="-1978.2942" gradientTransform="matrix(-0.91 -0.41 0.41 -0.91 14354.4648 4007.05)">
		<stop  offset="0" style="stop-color:#547B8A"/>
		<stop  offset="0.28" style="stop-color:#7D9CAD"/>
		<stop  offset="0.6" style="stop-color:#B7CCD0"/>
		<stop  offset="0.73" style="stop-color:#DBE6EC"/>
		<stop  offset="0.94" style="stop-color:#6F94AA"/>
	</linearGradient>
	<path class="st15" d="M1005.1,257.1c8.7-19.4,10.2-37.6,3.7-41.6v-0.1l426.7,190.4l-32.2,72.3L976.6,287.7v-0.1
		C983.9,289.8,996.4,276.5,1005.1,257.1z"/>
	<path class="st16" d="M1002.6,256c-9.2,20.6-21.3,31-25.5,29c-0.1-0.1-0.3-0.2-0.4-0.3l30-67.3c0.2,0,0.3,0.1,0.5,0.1
		C1011.4,219.5,1011.8,235.4,1002.6,256z"/>
	<path class="st3" d="M977,285c4.3,1.9,16.3-8.5,25.5-29s8.8-36.5,4.6-38.4c-0.2-0.1-0.3-0.1-0.5-0.1l1.1-2.4
		c0.2,0.1,0.3,0.1,0.5,0.1c7.2,3.2,5.8,22-3.1,42s-22,33.5-29.1,30.3c-0.1-0.1-0.3-0.2-0.4-0.3l1.1-2.4
		C976.7,284.8,976.9,284.9,977,285z"/>
	<path class="st17" d="M1099.6,257c-18.8-3.1-38.7,6-54.1,16.4c-15.8,10.6-49.2,23.9-65,15.9"/>
	<path class="st18" d="M1098.9,256.2c-18.8-3.1-38.7,6-54.1,16.4c-15.8,10.6-49.2,23.8-65,15.9"/>
	
		<linearGradient id="SVGID_3_" gradientUnits="userSpaceOnUse" x1="13566.3193" y1="-2111.1416" x2="13915.6191" y2="-2111.1416" gradientTransform="matrix(-0.91 -0.41 0.41 -0.91 14354.4648 4007.05)">
		<stop  offset="0" style="stop-color:#D0D1D1"/>
		<stop  offset="0.17" style="stop-color:#EDEEEE"/>
		<stop  offset="1" style="stop-color:#BCBFC0"/>
	</linearGradient>
	<path class="st19" d="M1134.4,346c0.4,0,0.7-0.2,1-0.5c0.8-0.7,0.9-1.9,0.2-2.7c0,0-0.1-0.1-0.1-0.1c-22.1-23.2-64-34.2-91.8-41.4
		c-6.6-1.7-12.4-3.2-17-4.7c-14.3-4.5-38.2-7.9-61.2-11.3c-21.1-3.1-41-6-53.8-9.5c-22.8-6.4-83.6-23.2-104.8-44.4
		c-0.8-0.8-2-0.8-2.8-0.1c-0.8,0.7-0.8,1.9,0,2.7c0,0,0,0,0,0c19.5,19.4,67.2,34.5,106.6,45.4c13,3.6,33,6.5,54.3,9.6
		c22.9,3.3,46.6,6.8,60.6,11.1c4.7,1.5,10.5,3,17.2,4.7c27.3,7.1,68.5,17.9,89.8,40.3C1133,345.9,1133.7,346.1,1134.4,346z"/>
	
		<linearGradient id="SVGID_4_" gradientUnits="userSpaceOnUse" x1="13390.5283" y1="-1964.0742" x2="13390.5283" y2="-2073.5142" gradientTransform="matrix(-0.91 -0.41 0.41 -0.91 14354.4648 4007.05)">
		<stop  offset="0" style="stop-color:#CDD3CB"/>
		<stop  offset="0.22" style="stop-color:#EFF6E6"/>
		<stop  offset="0.31" style="stop-color:#EFF7FA"/>
		<stop  offset="0.45" style="stop-color:#EEF2EC"/>
		<stop  offset="0.91" style="stop-color:#C3CFD4"/>
	</linearGradient>
	<path class="st20" d="M1085.1,293.9c12-26.8,14.1-52,5.1-57.5l0.1-0.1l506.1,225.9l-44.6,99.9l-506.1-225.9l0.1-0.1
		C1055.8,339.1,1073.2,320.6,1085.1,293.9z"/>
	<path class="st16" d="M1081.6,292.3c-12.7,28.5-29.4,42.8-35.3,40.2c-0.2-0.1-0.4-0.3-0.6-0.4l41.5-93c0.2,0,0.5,0.1,0.7,0.2
		C1093.9,241.8,1094.3,263.8,1081.6,292.3z"/>
	<path class="st1" d="M1046.3,332.5c5.9,2.6,22.6-11.7,35.3-40.2s12.2-50.5,6.3-53.1c-0.2-0.1-0.5-0.1-0.7-0.2l1.5-3.4
		c0.2,0.1,0.5,0.1,0.7,0.2c9.9,4.4,8,30.4-4.3,58s-30.3,46.4-40.3,41.9c-0.2-0.1-0.4-0.2-0.6-0.4l1.5-3.4
		C1045.9,332.2,1046.1,332.3,1046.3,332.5z"/>
</g>
<g class="st21">
	<path class="st22" d="M1067.9,467.6c-0.3,0.4-0.9,0.9-1.7,1.2c-0.8,0.4-1.8,0.6-3,0.6c-1.6,0-2.9-0.5-3.9-1.6s-1.5-2.5-1.5-4.2
		v-2.5c0-1.7,0.5-3.1,1.4-4.1c1-1.1,2.2-1.6,3.7-1.6c1.5,0,2.6,0.4,3.4,1.1c0.8,0.7,1.3,1.7,1.4,2.9l0,0.1h-1
		c-0.2-0.9-0.5-1.6-1.1-2.2c-0.6-0.6-1.5-0.8-2.7-0.8c-1.2,0-2.2,0.4-2.9,1.3c-0.7,0.9-1.1,2-1.1,3.4v2.5c0,1.4,0.4,2.6,1.2,3.5
		s1.8,1.4,3.1,1.4c0.9,0,1.7-0.1,2.3-0.4c0.6-0.3,1.1-0.5,1.3-0.8v-3.5h-3.6v-1h4.7V467.6z"/>
	<path class="st22" d="M1077.4,469.2c-0.1-0.3-0.1-0.6-0.2-0.9s0-0.5,0-0.8c-0.4,0.5-0.9,1-1.5,1.3s-1.3,0.5-2.1,0.5
		c-1,0-1.7-0.3-2.3-0.8c-0.5-0.5-0.8-1.2-0.8-2.1c0-0.9,0.4-1.7,1.2-2.2c0.8-0.6,1.9-0.8,3.3-0.8h2.2v-1.3c0-0.7-0.2-1.3-0.7-1.7
		s-1.1-0.6-1.9-0.6c-0.8,0-1.4,0.2-1.9,0.6c-0.5,0.4-0.8,0.9-0.8,1.4l-1,0l0-0.1c0-0.8,0.3-1.4,1-2c0.7-0.6,1.6-0.9,2.8-0.9
		c1.1,0,2,0.3,2.7,0.9s1,1.4,1,2.4v5c0,0.4,0,0.7,0.1,1c0,0.3,0.1,0.7,0.2,1H1077.4z M1073.7,468.4c0.8,0,1.5-0.2,2.1-0.6
		c0.6-0.4,1.1-0.9,1.3-1.4v-2.1h-2.3c-1,0-1.8,0.2-2.4,0.6c-0.6,0.4-0.9,1-0.9,1.6c0,0.5,0.2,1,0.6,1.3S1073,468.4,1073.7,468.4z"/>
	<path class="st22" d="M1082.5,456.2h-1.1v-1.6h1.1V456.2z M1082.5,469.2h-1.1v-10.1h1.1V469.2z"/>
	<path class="st22" d="M1086.6,459.1l0.1,1.8c0.3-0.6,0.8-1.1,1.3-1.4c0.6-0.3,1.2-0.5,2-0.5c1.1,0,1.9,0.3,2.5,1
		c0.6,0.7,0.9,1.7,0.9,3.1v6.2h-1.1v-6.2c0-1.2-0.2-2-0.6-2.5c-0.4-0.5-1-0.7-1.8-0.7c-0.8,0-1.4,0.2-1.9,0.6
		c-0.5,0.4-0.9,1-1.1,1.7v7.1h-1.1v-10.1H1086.6z"/>
	<path class="st22" d="M1100.1,469.4c-1.3,0-2.3-0.5-3.2-1.4c-0.8-0.9-1.3-2.1-1.3-3.5V464c0-1.4,0.4-2.6,1.2-3.6
		c0.8-1,1.8-1.4,3-1.4c1.2,0,2.2,0.4,2.9,1.2c0.7,0.8,1.1,1.8,1.1,3.1v1h-7.1v0.3c0,1.1,0.3,2.1,0.9,2.9c0.6,0.8,1.4,1.1,2.4,1.1
		c0.7,0,1.3-0.1,1.8-0.3c0.5-0.2,0.9-0.5,1.3-0.8l0.5,0.8c-0.4,0.4-0.9,0.7-1.4,1C1101.5,469.3,1100.9,469.4,1100.1,469.4z
		 M1099.9,459.9c-0.8,0-1.5,0.3-2.1,0.9c-0.6,0.6-0.9,1.4-1,2.4l0,0h5.9V463c0-0.9-0.3-1.6-0.8-2.2S1100.8,459.9,1099.9,459.9z"/>
	<path class="st22" d="M1112.2,463.6v5.7h-1.1v-13.6h4.7c1.4,0,2.5,0.4,3.3,1.1s1.2,1.7,1.2,2.9c0,1.2-0.4,2.2-1.2,2.9
		c-0.8,0.7-1.9,1.1-3.3,1.1H1112.2z M1112.2,462.6h3.6c1.1,0,2-0.3,2.5-0.9c0.6-0.6,0.8-1.3,0.8-2.2c0-0.9-0.3-1.6-0.8-2.2
		s-1.4-0.9-2.5-0.9h-3.6V462.6z"/>
</g>
<g class="st21">
	<path class="st22" d="M1126.7,466.9l0.3,0.9h0.1l0.3-0.9l4.1-11.3h1.2l-5.1,13.6h-1.1l-5.1-13.6h1.2L1126.7,466.9z"/>
</g>
<g class="st21">
	<path class="st22" d="M1144,465L1144,465c-0.1,1.4-0.6,2.5-1.4,3.3c-0.9,0.8-2,1.2-3.4,1.2c-1.5,0-2.7-0.5-3.7-1.6
		c-0.9-1.1-1.4-2.5-1.4-4.2v-2.2c0-1.7,0.5-3.1,1.4-4.2c0.9-1.1,2.1-1.6,3.7-1.6c1.4,0,2.6,0.4,3.4,1.1c0.8,0.8,1.3,1.8,1.4,3.2
		l0,0.1h-1c-0.1-1.1-0.5-2-1.2-2.6c-0.6-0.6-1.5-0.9-2.7-0.9c-1.2,0-2.1,0.5-2.9,1.4s-1.1,2.1-1.1,3.5v2.2c0,1.5,0.4,2.6,1.1,3.6
		c0.7,0.9,1.7,1.4,2.9,1.4c1.1,0,2-0.3,2.7-0.9c0.6-0.6,1-1.5,1.2-2.6H1144z"/>
	<path class="st22" d="M1152.5,456.2h-1.1v-1.6h1.1V456.2z M1152.5,469.2h-1.1v-10.1h1.1V469.2z"/>
</g>
<g class="st21">
	<path class="st22" d="M1158.4,466.7l0.3,1.2h0.1l0.4-1.2l2.7-7.6h1.2l-3.8,10.1h-0.9l-3.8-10.1h1.2L1158.4,466.7z"/>
</g>
<g class="st21">
	<path class="st22" d="M1164.1,464c0-1.5,0.4-2.7,1.2-3.7c0.8-1,1.9-1.4,3.2-1.4c1.4,0,2.4,0.5,3.2,1.4c0.8,1,1.2,2.2,1.2,3.7v0.3
		c0,1.5-0.4,2.7-1.2,3.7c-0.8,1-1.9,1.4-3.2,1.4c-1.4,0-2.4-0.5-3.3-1.4c-0.8-0.9-1.2-2.2-1.2-3.7V464z M1165.3,464.3
		c0,1.2,0.3,2.2,0.9,2.9c0.6,0.8,1.4,1.2,2.5,1.2c1,0,1.9-0.4,2.5-1.2c0.6-0.8,0.9-1.8,0.9-2.9V464c0-1.2-0.3-2.1-0.9-2.9
		c-0.6-0.8-1.4-1.2-2.5-1.2c-1,0-1.9,0.4-2.5,1.2c-0.6,0.8-0.9,1.8-0.9,2.9V464.3z"/>
	<path class="st22" d="M1176.7,456.2h-1.1v-1.6h1.1V456.2z M1176.7,469.2h-1.1v-10.1h1.1V469.2z"/>
</g>
<g class="st21">
	<path class="st22" d="M1184.4,460.1l-0.8-0.1c-0.7,0-1.3,0.2-1.7,0.6c-0.5,0.4-0.8,0.9-1,1.6v7h-1.1v-10.1h1l0.1,1.7v0.1
		c0.3-0.6,0.7-1.1,1.2-1.5s1.1-0.5,1.8-0.5c0.1,0,0.3,0,0.4,0s0.2,0,0.3,0.1L1184.4,460.1z"/>
</g>
<g class="st21">
	<path class="st22" d="M1189.9,469.4c-1.3,0-2.3-0.5-3.2-1.4c-0.8-0.9-1.3-2.1-1.3-3.5V464c0-1.4,0.4-2.6,1.2-3.6
		c0.8-1,1.8-1.4,3-1.4c1.2,0,2.2,0.4,2.9,1.2c0.7,0.8,1.1,1.8,1.1,3.1v1h-7.1v0.3c0,1.1,0.3,2.1,0.9,2.9c0.6,0.8,1.4,1.1,2.4,1.1
		c0.7,0,1.3-0.1,1.8-0.3c0.5-0.2,0.9-0.5,1.3-0.8l0.5,0.8c-0.4,0.4-0.9,0.7-1.4,1C1191.4,469.3,1190.7,469.4,1189.9,469.4z
		 M1189.7,459.9c-0.8,0-1.5,0.3-2.1,0.9c-0.6,0.6-0.9,1.4-1,2.4l0,0h5.9V463c0-0.9-0.3-1.6-0.8-2.2S1190.6,459.9,1189.7,459.9z"/>
</g>
<g class="st21">
	<path class="st22" d="M954.8,148.8v6.1h-1.1v-13.6h4.6c1.5,0,2.6,0.3,3.4,1c0.8,0.6,1.2,1.6,1.2,2.8c0,0.7-0.2,1.4-0.6,1.9
		c-0.4,0.6-1,1-1.8,1.2c0.8,0.2,1.4,0.6,1.8,1.1c0.4,0.5,0.6,1.2,0.6,2v1.3c0,0.4,0,0.8,0.1,1.1c0.1,0.3,0.3,0.6,0.5,0.8v0.2h-1.1
		c-0.2-0.2-0.4-0.5-0.5-0.9c-0.1-0.4-0.1-0.8-0.1-1.3v-1.2c0-0.8-0.3-1.5-0.8-2c-0.5-0.5-1.3-0.7-2.3-0.7H954.8z M954.8,147.9h3.4
		c1.2,0,2.1-0.2,2.7-0.7c0.6-0.5,0.8-1.2,0.8-2c0-0.9-0.3-1.6-0.8-2.1c-0.6-0.5-1.4-0.7-2.6-0.7h-3.5V147.9z"/>
	<path class="st22" d="M972.6,153.3c-0.3,0.6-0.8,1-1.3,1.4c-0.5,0.3-1.2,0.5-1.9,0.5c-1.1,0-1.9-0.4-2.5-1.1
		c-0.6-0.7-0.9-1.8-0.9-3.4v-5.9h1.1v5.9c0,1.2,0.2,2.1,0.6,2.7c0.4,0.5,1,0.8,1.8,0.8c0.8,0,1.5-0.2,2-0.6c0.5-0.4,0.9-0.9,1.1-1.6
		v-7.2h1.1V155h-1L972.6,153.3z"/>
	<path class="st22" d="M984.8,150.2c0,1.5-0.3,2.7-1,3.6c-0.7,0.9-1.6,1.3-2.8,1.3c-0.7,0-1.4-0.1-1.9-0.4c-0.5-0.3-1-0.7-1.3-1.3
		l-0.1,1.5h-1v-14.6h1.1v6.1c0.3-0.6,0.8-1,1.3-1.3c0.5-0.3,1.1-0.5,1.9-0.5c1.2,0,2.2,0.5,2.8,1.5c0.7,1,1,2.3,1,3.9V150.2z
		 M983.6,150c0-1.3-0.2-2.3-0.7-3.2c-0.5-0.8-1.2-1.2-2.2-1.2c-0.8,0-1.4,0.2-1.9,0.6c-0.5,0.4-0.8,0.9-1.1,1.5v4.6
		c0.2,0.6,0.6,1.1,1.1,1.4c0.5,0.3,1.1,0.5,1.8,0.5c1,0,1.7-0.4,2.2-1.1s0.7-1.7,0.7-2.9V150z"/>
	<path class="st22" d="M993.7,155c-0.1-0.3-0.1-0.6-0.2-0.9s0-0.5,0-0.8c-0.4,0.5-0.9,1-1.5,1.3s-1.3,0.5-2.1,0.5
		c-1,0-1.7-0.3-2.3-0.8c-0.5-0.5-0.8-1.2-0.8-2.1c0-0.9,0.4-1.7,1.2-2.2c0.8-0.6,1.9-0.8,3.3-0.8h2.2V148c0-0.7-0.2-1.3-0.7-1.7
		s-1.1-0.6-1.9-0.6c-0.8,0-1.4,0.2-1.9,0.6c-0.5,0.4-0.8,0.9-0.8,1.4l-1,0l0-0.1c0-0.8,0.3-1.4,1-2c0.7-0.6,1.6-0.9,2.8-0.9
		c1.1,0,2,0.3,2.7,0.9s1,1.4,1,2.4v5c0,0.4,0,0.7,0.1,1c0,0.3,0.1,0.7,0.2,1H993.7z M990,154.2c0.8,0,1.5-0.2,2.1-0.6
		c0.6-0.4,1.1-0.9,1.3-1.4v-2.1h-2.3c-1,0-1.8,0.2-2.4,0.6c-0.6,0.4-0.9,1-0.9,1.6c0,0.5,0.2,1,0.6,1.3S989.3,154.2,990,154.2z"/>
	<path class="st22" d="M998.5,144.9l0.1,1.8c0.3-0.6,0.8-1.1,1.3-1.4c0.6-0.3,1.2-0.5,2-0.5c1.1,0,1.9,0.3,2.5,1
		c0.6,0.7,0.9,1.7,0.9,3.1v6.2h-1.1v-6.2c0-1.2-0.2-2-0.6-2.5c-0.4-0.5-1-0.7-1.8-0.7c-0.8,0-1.4,0.2-1.9,0.6
		c-0.5,0.4-0.9,1-1.1,1.7v7.1h-1.1v-10.1H998.5z"/>
</g>
<g class="st21">
	<path class="st22" d="M1014.3,149.3v5.7h-1.1v-13.6h4.7c1.4,0,2.5,0.4,3.3,1.1s1.2,1.7,1.2,2.9c0,1.2-0.4,2.2-1.2,2.9
		c-0.8,0.7-1.9,1.1-3.3,1.1H1014.3z M1014.3,148.4h3.6c1.1,0,2-0.3,2.5-0.9c0.6-0.6,0.8-1.3,0.8-2.2c0-0.9-0.3-1.6-0.8-2.2
		s-1.4-0.9-2.5-0.9h-3.6V148.4z"/>
</g>
<g class="st21">
	<path class="st22" d="M1023.9,149.8c0-1.5,0.4-2.7,1.2-3.7c0.8-1,1.9-1.4,3.2-1.4c1.4,0,2.4,0.5,3.2,1.4c0.8,1,1.2,2.2,1.2,3.7v0.3
		c0,1.5-0.4,2.7-1.2,3.7c-0.8,1-1.9,1.4-3.2,1.4c-1.4,0-2.4-0.5-3.3-1.4c-0.8-0.9-1.2-2.2-1.2-3.7V149.8z M1025.1,150.1
		c0,1.2,0.3,2.2,0.9,2.9c0.6,0.8,1.4,1.2,2.5,1.2c1,0,1.9-0.4,2.5-1.2c0.6-0.8,0.9-1.8,0.9-2.9v-0.3c0-1.2-0.3-2.1-0.9-2.9
		c-0.6-0.8-1.4-1.2-2.5-1.2c-1,0-1.9,0.4-2.5,1.2c-0.6,0.8-0.9,1.8-0.9,2.9V150.1z"/>
	<path class="st22" d="M1036.5,155h-1.1v-14.6h1.1V155z"/>
</g>
<g class="st21">
	<path class="st22" d="M1042.4,152.3l0.4,1.2h0.1l3.1-8.6h1.3l-4.4,11.7c-0.3,0.7-0.6,1.3-1,1.7s-1,0.7-1.8,0.7c-0.1,0-0.3,0-0.5,0
		c-0.2,0-0.3-0.1-0.4-0.1l0.1-0.9c0.1,0,0.2,0,0.4,0c0.2,0,0.3,0,0.4,0c0.5,0,0.9-0.2,1.2-0.5c0.3-0.3,0.5-0.8,0.7-1.3l0.5-1.4
		l-3.9-10h1.2L1042.4,152.3z"/>
</g>
<g class="st21">
	<path class="st22" d="M1052.6,155.2c-1.3,0-2.3-0.5-3.2-1.4c-0.8-0.9-1.3-2.1-1.3-3.5v-0.5c0-1.4,0.4-2.6,1.2-3.6
		c0.8-1,1.8-1.4,3-1.4c1.2,0,2.2,0.4,2.9,1.2c0.7,0.8,1.1,1.8,1.1,3.1v1h-7.1v0.3c0,1.1,0.3,2.1,0.9,2.9c0.6,0.8,1.4,1.1,2.4,1.1
		c0.7,0,1.3-0.1,1.8-0.3c0.5-0.2,0.9-0.5,1.3-0.8l0.5,0.8c-0.4,0.4-0.9,0.7-1.4,1C1054.1,155.1,1053.4,155.2,1052.6,155.2z
		 M1052.5,145.6c-0.8,0-1.5,0.3-2.1,0.9c-0.6,0.6-0.9,1.4-1,2.4l0,0h5.9v-0.3c0-0.9-0.3-1.6-0.8-2.2
		C1054,145.9,1053.3,145.6,1052.5,145.6z"/>
	<path class="st22" d="M1064.7,152.4c0-0.5-0.2-0.9-0.6-1.2c-0.4-0.4-1.1-0.6-2.1-0.9c-1.2-0.3-2.1-0.6-2.7-1
		c-0.6-0.4-0.9-1-0.9-1.8c0-0.8,0.3-1.4,1-2s1.5-0.8,2.6-0.8c1.1,0,2,0.3,2.7,0.8c0.7,0.6,1,1.3,1,2.1l0,0.1h-1c0-0.6-0.2-1-0.7-1.4
		c-0.5-0.4-1.1-0.6-1.9-0.6c-0.8,0-1.4,0.2-1.8,0.5c-0.4,0.3-0.6,0.8-0.6,1.2c0,0.5,0.2,0.8,0.5,1.2c0.4,0.3,1.1,0.6,2.1,0.8
		c1.2,0.3,2.1,0.6,2.7,1.1s0.9,1.1,0.9,1.9c0,0.8-0.3,1.5-1,2c-0.7,0.5-1.6,0.8-2.7,0.8c-1.2,0-2.2-0.3-2.9-0.9
		c-0.7-0.6-1-1.3-1-2.1l0-0.1h1c0,0.7,0.3,1.3,0.9,1.6c0.6,0.3,1.2,0.5,1.9,0.5c0.8,0,1.4-0.2,1.9-0.5
		C1064.5,153.3,1064.7,152.9,1064.7,152.4z"/>
	<path class="st22" d="M1070.2,142.3v2.6h2.2v0.9h-2.2v6.6c0,0.7,0.1,1.1,0.4,1.4s0.6,0.4,1,0.4c0.2,0,0.4,0,0.5,0s0.4,0,0.6-0.1
		l0.2,0.8c-0.2,0.1-0.4,0.1-0.7,0.2c-0.3,0-0.5,0.1-0.8,0.1c-0.7,0-1.3-0.2-1.7-0.7s-0.6-1.2-0.6-2.1v-6.6h-1.7v-0.9h1.7v-2.6
		H1070.2z"/>
	<path class="st22" d="M1078.5,155.2c-1.3,0-2.3-0.5-3.2-1.4c-0.8-0.9-1.3-2.1-1.3-3.5v-0.5c0-1.4,0.4-2.6,1.2-3.6
		c0.8-1,1.8-1.4,3-1.4c1.2,0,2.2,0.4,2.9,1.2c0.7,0.8,1.1,1.8,1.1,3.1v1h-7.1v0.3c0,1.1,0.3,2.1,0.9,2.9c0.6,0.8,1.4,1.1,2.4,1.1
		c0.7,0,1.3-0.1,1.8-0.3c0.5-0.2,0.9-0.5,1.3-0.8l0.5,0.8c-0.4,0.4-0.9,0.7-1.4,1C1080,155.1,1079.3,155.2,1078.5,155.2z
		 M1078.4,145.6c-0.8,0-1.5,0.3-2.1,0.9c-0.6,0.6-0.9,1.4-1,2.4l0,0h5.9v-0.3c0-0.9-0.3-1.6-0.8-2.2S1079.3,145.6,1078.4,145.6z"/>
	<path class="st22" d="M1089.3,145.8l-0.8-0.1c-0.7,0-1.3,0.2-1.7,0.6c-0.5,0.4-0.8,0.9-1,1.6v7h-1.1v-10.1h1l0.1,1.7v0.1
		c0.3-0.6,0.7-1.1,1.2-1.5c0.5-0.3,1.1-0.5,1.8-0.5c0.1,0,0.3,0,0.4,0c0.1,0,0.2,0,0.3,0.1L1089.3,145.8z"/>
	<path class="st22" d="M1090.9,156.2h-1l5.7-14.8h1L1090.9,156.2z"/>
	<path class="st22" d="M1106.3,151.2h-6.2l-1.4,3.8h-1.2l5.2-13.6h1.1l5.1,13.6h-1.2L1106.3,151.2z M1100.5,150.2h5.5l-2.7-7.4h-0.1
		L1100.5,150.2z"/>
	<path class="st22" d="M1111.9,155h-1.1v-14.6h1.1V155z"/>
	<path class="st22" d="M1121.6,153.3c-0.3,0.6-0.8,1-1.3,1.4c-0.5,0.3-1.2,0.5-1.9,0.5c-1.1,0-1.9-0.4-2.5-1.1
		c-0.6-0.7-0.9-1.8-0.9-3.4v-5.9h1.1v5.9c0,1.2,0.2,2.1,0.6,2.7c0.4,0.5,1,0.8,1.8,0.8c0.8,0,1.5-0.2,2-0.6c0.5-0.4,0.9-0.9,1.1-1.6
		v-7.2h1.1V155h-1L1121.6,153.3z"/>
	<path class="st22" d="M1126.6,144.9l0.1,1.7c0.3-0.6,0.8-1,1.3-1.4c0.5-0.3,1.2-0.5,1.9-0.5c0.8,0,1.4,0.2,1.9,0.6
		c0.5,0.4,0.9,0.9,1.1,1.7c0.3-0.7,0.7-1.3,1.3-1.7c0.6-0.4,1.2-0.6,2.1-0.6c1.1,0,1.9,0.4,2.5,1.1c0.6,0.7,0.9,1.8,0.9,3.3v5.9
		h-1.1v-5.9c0-1.2-0.2-2.1-0.7-2.6c-0.4-0.5-1.1-0.8-1.8-0.8c-0.9,0-1.5,0.3-2,0.8c-0.5,0.5-0.8,1.2-0.9,2.1c0,0,0,0.1,0,0.2
		s0,0.1,0,0.2v6.1h-1.1v-5.9c0-1.2-0.2-2.1-0.7-2.6s-1.1-0.8-1.8-0.8c-0.8,0-1.4,0.2-1.9,0.6c-0.5,0.4-0.8,0.9-1,1.6v7.1h-1.1v-10.1
		H1126.6z"/>
	<path class="st22" d="M1143.9,142h-1.1v-1.6h1.1V142z M1143.9,155h-1.1v-10.1h1.1V155z"/>
	<path class="st22" d="M1147.9,144.9l0.1,1.8c0.3-0.6,0.8-1.1,1.3-1.4c0.6-0.3,1.2-0.5,2-0.5c1.1,0,1.9,0.3,2.5,1
		c0.6,0.7,0.9,1.7,0.9,3.1v6.2h-1.1v-6.2c0-1.2-0.2-2-0.6-2.5c-0.4-0.5-1-0.7-1.8-0.7c-0.8,0-1.4,0.2-1.9,0.6
		c-0.5,0.4-0.9,1-1.1,1.7v7.1h-1.1v-10.1H1147.9z"/>
	<path class="st22" d="M1158.8,142h-1.1v-1.6h1.1V142z M1158.8,155h-1.1v-10.1h1.1V155z"/>
	<path class="st22" d="M1168.6,153.3c-0.3,0.6-0.8,1-1.3,1.4c-0.5,0.3-1.2,0.5-1.9,0.5c-1.1,0-1.9-0.4-2.5-1.1
		c-0.6-0.7-0.9-1.8-0.9-3.4v-5.9h1.1v5.9c0,1.2,0.2,2.1,0.6,2.7c0.4,0.5,1,0.8,1.8,0.8c0.8,0,1.5-0.2,2-0.6c0.5-0.4,0.9-0.9,1.1-1.6
		v-7.2h1.1V155h-1L1168.6,153.3z"/>
	<path class="st22" d="M1173.5,144.9l0.1,1.7c0.3-0.6,0.8-1,1.3-1.4c0.5-0.3,1.2-0.5,1.9-0.5c0.8,0,1.4,0.2,1.9,0.6
		c0.5,0.4,0.9,0.9,1.1,1.7c0.3-0.7,0.7-1.3,1.3-1.7c0.6-0.4,1.2-0.6,2.1-0.6c1.1,0,1.9,0.4,2.5,1.1c0.6,0.7,0.9,1.8,0.9,3.3v5.9
		h-1.1v-5.9c0-1.2-0.2-2.1-0.7-2.6s-1.1-0.8-1.8-0.8c-0.9,0-1.5,0.3-2,0.8s-0.8,1.2-0.9,2.1c0,0,0,0.1,0,0.2c0,0.1,0,0.1,0,0.2v6.1
		h-1.1v-5.9c0-1.2-0.2-2.1-0.7-2.6s-1.1-0.8-1.8-0.8c-0.8,0-1.4,0.2-1.9,0.6s-0.8,0.9-1,1.6v7.1h-1.1v-10.1H1173.5z"/>
</g>
<g class="st21">
	<path class="st22" d="M985.5,171.8v6.1h-1.1v-13.6h4.6c1.5,0,2.6,0.3,3.4,1c0.8,0.6,1.2,1.6,1.2,2.8c0,0.7-0.2,1.4-0.6,1.9
		c-0.4,0.6-1,1-1.8,1.2c0.8,0.2,1.4,0.6,1.8,1.1c0.4,0.5,0.6,1.2,0.6,2v1.3c0,0.4,0,0.8,0.1,1.1c0.1,0.3,0.3,0.6,0.5,0.8v0.2H993
		c-0.2-0.2-0.4-0.5-0.5-0.9c-0.1-0.4-0.1-0.8-0.1-1.3v-1.2c0-0.8-0.3-1.5-0.8-2c-0.5-0.5-1.3-0.7-2.3-0.7H985.5z M985.5,170.9h3.4
		c1.2,0,2.1-0.2,2.7-0.7c0.6-0.5,0.8-1.2,0.8-2c0-0.9-0.3-1.6-0.8-2.1c-0.6-0.5-1.4-0.7-2.6-0.7h-3.5V170.9z"/>
	<path class="st22" d="M1000.5,178.1c-1.3,0-2.3-0.5-3.2-1.4c-0.8-0.9-1.3-2.1-1.3-3.5v-0.5c0-1.4,0.4-2.6,1.2-3.6
		c0.8-1,1.8-1.4,3-1.4c1.2,0,2.2,0.4,2.9,1.2c0.7,0.8,1.1,1.8,1.1,3.1v1h-7.1v0.3c0,1.1,0.3,2.1,0.9,2.9c0.6,0.8,1.4,1.1,2.4,1.1
		c0.7,0,1.3-0.1,1.8-0.3c0.5-0.2,0.9-0.5,1.3-0.8l0.5,0.8c-0.4,0.4-0.9,0.7-1.4,1C1002,178,1001.3,178.1,1000.5,178.1z
		 M1000.3,168.6c-0.8,0-1.5,0.3-2.1,0.9c-0.6,0.6-0.9,1.4-1,2.4l0,0h5.9v-0.3c0-0.9-0.3-1.6-0.8-2.2
		C1001.9,168.9,1001.2,168.6,1000.3,168.6z"/>
	<path class="st22" d="M1010.3,177.2c0.7,0,1.4-0.2,2-0.6c0.6-0.4,0.8-1,0.8-1.8h1l0,0.1c0,0.9-0.3,1.7-1.1,2.3s-1.7,0.9-2.7,0.9
		c-1.4,0-2.4-0.5-3.2-1.4c-0.8-0.9-1.1-2.2-1.1-3.6v-0.4c0-1.5,0.4-2.7,1.1-3.6c0.8-0.9,1.8-1.4,3.2-1.4c1.1,0,2,0.3,2.8,1
		c0.7,0.7,1.1,1.5,1.1,2.6l0,0.1h-1c0-0.8-0.3-1.5-0.8-1.9c-0.5-0.5-1.2-0.7-2-0.7c-1.1,0-1.9,0.4-2.4,1.2c-0.5,0.8-0.8,1.7-0.8,2.9
		v0.4c0,1.2,0.3,2.2,0.8,2.9C1008.4,176.8,1009.2,177.2,1010.3,177.2z"/>
	<path class="st22" d="M1015.8,172.7c0-1.5,0.4-2.7,1.2-3.7c0.8-1,1.9-1.4,3.2-1.4c1.4,0,2.4,0.5,3.3,1.4c0.8,1,1.2,2.2,1.2,3.7v0.3
		c0,1.5-0.4,2.7-1.2,3.7c-0.8,1-1.9,1.4-3.2,1.4c-1.4,0-2.4-0.5-3.3-1.4c-0.8-0.9-1.2-2.2-1.2-3.7V172.7z M1016.9,173.1
		c0,1.2,0.3,2.2,0.9,2.9c0.6,0.8,1.4,1.2,2.5,1.2c1,0,1.9-0.4,2.5-1.2c0.6-0.8,0.9-1.8,0.9-2.9v-0.3c0-1.2-0.3-2.1-0.9-2.9
		c-0.6-0.8-1.4-1.2-2.5-1.2c-1,0-1.9,0.4-2.5,1.2c-0.6,0.8-0.9,1.8-0.9,2.9V173.1z"/>
	<path class="st22" d="M1033.7,176.3c-0.3,0.6-0.8,1-1.3,1.4c-0.5,0.3-1.2,0.5-1.9,0.5c-1.1,0-1.9-0.4-2.5-1.1
		c-0.6-0.7-0.9-1.8-0.9-3.4v-5.9h1.1v5.9c0,1.2,0.2,2.1,0.6,2.7c0.4,0.5,1,0.8,1.8,0.8c0.8,0,1.5-0.2,2-0.6c0.5-0.4,0.9-0.9,1.1-1.6
		v-7.2h1.1V178h-1L1033.7,176.3z"/>
	<path class="st22" d="M1040.6,175.4l0.3,1.2h0.1l0.4-1.2l2.7-7.6h1.2l-3.8,10.1h-0.9l-3.8-10.1h1.2L1040.6,175.4z"/>
</g>
<g class="st21">
	<path class="st22" d="M1051.8,168.8l-0.8-0.1c-0.7,0-1.3,0.2-1.7,0.6c-0.5,0.4-0.8,0.9-1,1.6v7h-1.1v-10.1h1l0.1,1.7v0.1
		c0.3-0.6,0.7-1.1,1.2-1.5c0.5-0.3,1.1-0.5,1.8-0.5c0.1,0,0.3,0,0.4,0s0.2,0,0.3,0.1L1051.8,168.8z"/>
</g>
<g class="st21">
	<path class="st22" d="M1057.2,178.1c-1.3,0-2.3-0.5-3.2-1.4c-0.8-0.9-1.3-2.1-1.3-3.5v-0.5c0-1.4,0.4-2.6,1.2-3.6
		c0.8-1,1.8-1.4,3-1.4c1.2,0,2.2,0.4,2.9,1.2c0.7,0.8,1.1,1.8,1.1,3.1v1h-7.1v0.3c0,1.1,0.3,2.1,0.9,2.9c0.6,0.8,1.4,1.1,2.4,1.1
		c0.7,0,1.3-0.1,1.8-0.3c0.5-0.2,0.9-0.5,1.3-0.8l0.5,0.8c-0.4,0.4-0.9,0.7-1.4,1C1058.7,178,1058.1,178.1,1057.2,178.1z
		 M1057.1,168.6c-0.8,0-1.5,0.3-2.1,0.9c-0.6,0.6-0.9,1.4-1,2.4l0,0h5.9v-0.3c0-0.9-0.3-1.6-0.8-2.2S1058,168.6,1057.1,168.6z"/>
	<path class="st22" d="M1064.3,167.8l0.1,1.7c0.3-0.6,0.8-1,1.3-1.4c0.5-0.3,1.2-0.5,1.9-0.5c0.8,0,1.4,0.2,1.9,0.6
		c0.5,0.4,0.9,0.9,1.1,1.7c0.3-0.7,0.7-1.3,1.3-1.7c0.6-0.4,1.2-0.6,2.1-0.6c1.1,0,1.9,0.4,2.5,1.1c0.6,0.7,0.9,1.8,0.9,3.3v5.9
		h-1.1V172c0-1.2-0.2-2.1-0.7-2.6s-1.1-0.8-1.8-0.8c-0.9,0-1.5,0.3-2,0.8s-0.8,1.2-0.9,2.1c0,0,0,0.1,0,0.2c0,0.1,0,0.1,0,0.2v6.1
		h-1.1V172c0-1.2-0.2-2.1-0.7-2.6s-1.1-0.8-1.8-0.8c-0.8,0-1.4,0.2-1.9,0.6c-0.5,0.4-0.8,0.9-1,1.6v7.1h-1.1v-10.1H1064.3z"/>
	<path class="st22" d="M1084.1,178.1c-1.3,0-2.3-0.5-3.2-1.4c-0.8-0.9-1.3-2.1-1.3-3.5v-0.5c0-1.4,0.4-2.6,1.2-3.6
		c0.8-1,1.8-1.4,3-1.4c1.2,0,2.2,0.4,2.9,1.2c0.7,0.8,1.1,1.8,1.1,3.1v1h-7.1v0.3c0,1.1,0.3,2.1,0.9,2.9c0.6,0.8,1.4,1.1,2.4,1.1
		c0.7,0,1.3-0.1,1.8-0.3c0.5-0.2,0.9-0.5,1.3-0.8l0.5,0.8c-0.4,0.4-0.9,0.7-1.4,1C1085.6,178,1084.9,178.1,1084.1,178.1z
		 M1083.9,168.6c-0.8,0-1.5,0.3-2.1,0.9c-0.6,0.6-0.9,1.4-1,2.4l0,0h5.9v-0.3c0-0.9-0.3-1.6-0.8-2.2
		C1085.5,168.9,1084.8,168.6,1083.9,168.6z"/>
	<path class="st22" d="M1091.1,167.8l0.1,1.8c0.3-0.6,0.8-1.1,1.3-1.4c0.6-0.3,1.2-0.5,2-0.5c1.1,0,1.9,0.3,2.5,1
		c0.6,0.7,0.9,1.7,0.9,3.1v6.2h-1.1v-6.2c0-1.2-0.2-2-0.6-2.5s-1-0.7-1.8-0.7c-0.8,0-1.4,0.2-1.9,0.6c-0.5,0.4-0.9,1-1.1,1.7v7.1
		h-1.1v-10.1H1091.1z"/>
	<path class="st22" d="M1102.5,165.3v2.6h2.2v0.9h-2.2v6.6c0,0.7,0.1,1.1,0.4,1.4c0.2,0.3,0.6,0.4,1,0.4c0.2,0,0.4,0,0.5,0
		c0.2,0,0.4,0,0.6-0.1l0.2,0.8c-0.2,0.1-0.4,0.1-0.7,0.2c-0.3,0-0.5,0.1-0.8,0.1c-0.7,0-1.3-0.2-1.7-0.7c-0.4-0.4-0.6-1.2-0.6-2.1
		v-6.6h-1.7v-0.9h1.7v-2.6H1102.5z"/>
	<path class="st22" d="M1116.6,178h-1.1v-12.5l-3.5,0.4v-0.8l4.6-0.8V178z"/>
	<path class="st22" d="M1130.8,172.7c0,1.8-0.4,3.1-1.1,4.1s-1.8,1.4-3.2,1.4c-1.3,0-2.4-0.5-3.2-1.4c-0.8-0.9-1.2-2.3-1.2-4v-3
		c0-1.8,0.4-3.1,1.1-4.1s1.8-1.4,3.2-1.4c1.4,0,2.4,0.5,3.2,1.4c0.8,1,1.1,2.3,1.1,4.1V172.7z M1129.7,169.4c0-1.4-0.3-2.5-0.8-3.2
		c-0.5-0.8-1.3-1.1-2.4-1.1c-1,0-1.8,0.4-2.4,1.1s-0.8,1.8-0.8,3.2v3.4c0,1.4,0.3,2.5,0.8,3.2c0.6,0.8,1.3,1.1,2.4,1.1
		s1.8-0.4,2.4-1.1c0.5-0.8,0.8-1.8,0.8-3.2V169.4z"/>
	<path class="st22" d="M1141.9,172.7c0,1.8-0.4,3.1-1.1,4.1s-1.8,1.4-3.2,1.4c-1.3,0-2.4-0.5-3.2-1.4c-0.8-0.9-1.2-2.3-1.2-4v-3
		c0-1.8,0.4-3.1,1.1-4.1s1.8-1.4,3.2-1.4c1.4,0,2.4,0.5,3.2,1.4c0.8,1,1.1,2.3,1.1,4.1V172.7z M1140.8,169.4c0-1.4-0.3-2.5-0.8-3.2
		c-0.5-0.8-1.3-1.1-2.4-1.1s-1.8,0.4-2.4,1.1c-0.5,0.8-0.8,1.8-0.8,3.2v3.4c0,1.4,0.3,2.5,0.8,3.2c0.6,0.8,1.3,1.1,2.4,1.1
		c1,0,1.8-0.4,2.4-1.1c0.5-0.8,0.8-1.8,0.8-3.2V169.4z"/>
	<path class="st22" d="M1144.2,167c0-0.8,0.2-1.5,0.7-2c0.5-0.5,1.1-0.8,1.9-0.8c0.8,0,1.4,0.3,1.9,0.8c0.5,0.5,0.7,1.2,0.7,2v0.7
		c0,0.8-0.2,1.4-0.7,2c-0.5,0.5-1.1,0.8-1.9,0.8c-0.8,0-1.5-0.3-1.9-0.8c-0.5-0.5-0.7-1.2-0.7-2V167z M1145.1,167.7
		c0,0.5,0.2,1,0.5,1.4c0.3,0.4,0.7,0.6,1.3,0.6c0.6,0,1-0.2,1.3-0.6c0.3-0.4,0.5-0.9,0.5-1.4V167c0-0.5-0.2-1-0.5-1.4
		c-0.3-0.4-0.7-0.6-1.3-0.6c-0.6,0-1,0.2-1.3,0.6c-0.3,0.4-0.5,0.9-0.5,1.4V167.7z M1147.5,176.8l-0.7-0.4l6.6-10.6l0.7,0.4
		L1147.5,176.8z M1151.1,174.6c0-0.8,0.2-1.4,0.7-2c0.5-0.5,1.1-0.8,1.9-0.8c0.8,0,1.4,0.3,1.9,0.8c0.5,0.5,0.7,1.2,0.7,2v0.7
		c0,0.8-0.2,1.4-0.7,2c-0.5,0.5-1.1,0.8-1.9,0.8c-0.8,0-1.5-0.3-1.9-0.8c-0.5-0.5-0.7-1.2-0.7-2V174.6z M1152,175.4
		c0,0.5,0.2,1,0.5,1.4c0.3,0.4,0.7,0.6,1.3,0.6c0.6,0,1-0.2,1.3-0.6c0.3-0.4,0.5-0.9,0.5-1.4v-0.7c0-0.6-0.2-1-0.5-1.4
		s-0.7-0.6-1.3-0.6c-0.6,0-1,0.2-1.3,0.6s-0.5,0.9-0.5,1.4V175.4z"/>
</g>
<g class="st21">
	<path class="st22" d="M891.3,392.8h-6.6v6.4h-1.1v-13.6h8.7v1h-7.6v5.3h6.6V392.8z"/>
	<path class="st22" d="M895.6,386.1h-1.1v-1.6h1.1V386.1z M895.6,399.1h-1.1V389h1.1V399.1z"/>
	<path class="st22" d="M899.9,399.1h-1.1v-14.6h1.1V399.1z"/>
	<path class="st22" d="M907.2,394.2c0-1.6,0.3-2.9,1-3.9c0.7-1,1.6-1.5,2.9-1.5c0.7,0,1.3,0.1,1.8,0.4c0.5,0.3,0.9,0.7,1.3,1.3v-6
		h1.1v14.6h-1l-0.1-1.5c-0.3,0.5-0.8,0.9-1.3,1.2s-1.2,0.4-1.9,0.4c-1.2,0-2.2-0.5-2.8-1.3c-0.7-0.9-1-2.1-1-3.6V394.2z
		 M908.4,394.4c0,1.2,0.2,2.2,0.7,2.9s1.2,1.1,2.2,1.1c0.7,0,1.3-0.2,1.8-0.5s0.9-0.8,1.1-1.4v-4.8c-0.3-0.6-0.6-1.1-1.1-1.4
		s-1.1-0.5-1.8-0.5c-1,0-1.7,0.4-2.2,1.2c-0.5,0.8-0.7,1.9-0.7,3.2V394.4z"/>
	<path class="st22" d="M922.1,399.3c-1.3,0-2.3-0.5-3.2-1.4c-0.8-0.9-1.3-2.1-1.3-3.5v-0.5c0-1.4,0.4-2.6,1.2-3.6
		c0.8-1,1.8-1.4,3-1.4c1.2,0,2.2,0.4,2.9,1.2c0.7,0.8,1.1,1.8,1.1,3.1v1h-7.1v0.3c0,1.1,0.3,2.1,0.9,2.9c0.6,0.8,1.4,1.1,2.4,1.1
		c0.7,0,1.3-0.1,1.8-0.3c0.5-0.2,0.9-0.5,1.3-0.8l0.5,0.8c-0.4,0.4-0.9,0.7-1.4,1C923.6,399.2,922.9,399.3,922.1,399.3z M922,389.8
		c-0.8,0-1.5,0.3-2.1,0.9c-0.6,0.6-0.9,1.4-1,2.4l0,0h5.9v-0.3c0-0.9-0.3-1.6-0.8-2.2S922.9,389.8,922,389.8z"/>
	<path class="st22" d="M932.4,394.2c0-1.6,0.3-2.9,1-3.9c0.7-1,1.6-1.5,2.9-1.5c0.7,0,1.3,0.1,1.8,0.4c0.5,0.3,0.9,0.7,1.3,1.3v-6
		h1.1v14.6h-1l-0.1-1.5c-0.3,0.5-0.8,0.9-1.3,1.2s-1.2,0.4-1.9,0.4c-1.2,0-2.2-0.5-2.8-1.3c-0.7-0.9-1-2.1-1-3.6V394.2z
		 M933.5,394.4c0,1.2,0.2,2.2,0.7,2.9c0.5,0.7,1.2,1.1,2.2,1.1c0.7,0,1.3-0.2,1.8-0.5c0.5-0.3,0.9-0.8,1.1-1.4v-4.8
		c-0.3-0.6-0.6-1.1-1.1-1.4c-0.5-0.4-1.1-0.5-1.8-0.5c-1,0-1.7,0.4-2.2,1.2c-0.5,0.8-0.7,1.9-0.7,3.2V394.4z"/>
	<path class="st22" d="M947.3,399.3c-1.3,0-2.3-0.5-3.2-1.4c-0.8-0.9-1.3-2.1-1.3-3.5v-0.5c0-1.4,0.4-2.6,1.2-3.6
		c0.8-1,1.8-1.4,3-1.4c1.2,0,2.2,0.4,2.9,1.2c0.7,0.8,1.1,1.8,1.1,3.1v1H944v0.3c0,1.1,0.3,2.1,0.9,2.9c0.6,0.8,1.4,1.1,2.4,1.1
		c0.7,0,1.3-0.1,1.8-0.3c0.5-0.2,0.9-0.5,1.3-0.8l0.5,0.8c-0.4,0.4-0.9,0.7-1.4,1C948.8,399.2,948.1,399.3,947.3,399.3z
		 M947.1,389.8c-0.8,0-1.5,0.3-2.1,0.9c-0.6,0.6-0.9,1.4-1,2.4l0,0h5.9v-0.3c0-0.9-0.3-1.6-0.8-2.2
		C948.7,390.1,948,389.8,947.1,389.8z"/>
	<path class="st22" d="M957.1,398.4c0.7,0,1.4-0.2,2-0.6c0.6-0.4,0.8-1,0.8-1.8h1l0,0.1c0,0.9-0.3,1.7-1.1,2.3s-1.7,0.9-2.7,0.9
		c-1.4,0-2.4-0.5-3.2-1.4c-0.8-0.9-1.1-2.2-1.1-3.6v-0.4c0-1.5,0.4-2.7,1.1-3.6c0.8-0.9,1.8-1.4,3.2-1.4c1.1,0,2,0.3,2.8,1
		c0.7,0.7,1.1,1.5,1.1,2.6l0,0.1h-1c0-0.8-0.3-1.5-0.8-1.9c-0.5-0.5-1.2-0.7-2-0.7c-1.1,0-1.9,0.4-2.4,1.2c-0.5,0.8-0.8,1.7-0.8,2.9
		v0.4c0,1.2,0.3,2.2,0.8,2.9C955.2,398,956,398.4,957.1,398.4z"/>
	<path class="st22" d="M964.4,390.8c0.3-0.6,0.8-1.1,1.3-1.4s1.2-0.5,2-0.5c1.1,0,1.9,0.3,2.5,1c0.6,0.7,0.9,1.7,0.9,3.1v6.2h-1.1
		v-6.3c0-1.1-0.2-1.9-0.6-2.4c-0.4-0.5-1-0.7-1.8-0.7c-0.8,0-1.4,0.2-1.9,0.6s-0.9,0.9-1.1,1.6v7.1h-1.1v-14.6h1.1V390.8z"/>
	<path class="st22" d="M975.1,386.1H974v-1.6h1.1V386.1z M975.1,399.1H974V389h1.1V399.1z"/>
</g>
<g class="st21">
	<path class="st22" d="M982.9,390l-0.8-0.1c-0.7,0-1.3,0.2-1.7,0.6c-0.5,0.4-0.8,0.9-1,1.6v7h-1.1V389h1l0.1,1.7v0.1
		c0.3-0.6,0.7-1.1,1.2-1.5c0.5-0.3,1.1-0.5,1.8-0.5c0.1,0,0.3,0,0.4,0c0.1,0,0.2,0,0.3,0.1L982.9,390z"/>
</g>
<g class="st21">
	<path class="st22" d="M988.4,399.3c-1.3,0-2.3-0.5-3.2-1.4c-0.8-0.9-1.3-2.1-1.3-3.5v-0.5c0-1.4,0.4-2.6,1.2-3.6
		c0.8-1,1.8-1.4,3-1.4c1.2,0,2.2,0.4,2.9,1.2c0.7,0.8,1.1,1.8,1.1,3.1v1h-7.1v0.3c0,1.1,0.3,2.1,0.9,2.9c0.6,0.8,1.4,1.1,2.4,1.1
		c0.7,0,1.3-0.1,1.8-0.3c0.5-0.2,0.9-0.5,1.3-0.8l0.5,0.8c-0.4,0.4-0.9,0.7-1.4,1C989.9,399.2,989.2,399.3,988.4,399.3z
		 M988.2,389.8c-0.8,0-1.5,0.3-2.1,0.9c-0.6,0.6-0.9,1.4-1,2.4l0,0h5.9v-0.3c0-0.9-0.3-1.6-0.8-2.2
		C989.8,390.1,989.1,389.8,988.2,389.8z"/>
	<path class="st22" d="M995.4,389l0.1,1.7c0.3-0.6,0.8-1,1.3-1.4c0.5-0.3,1.2-0.5,1.9-0.5c0.8,0,1.4,0.2,1.9,0.6
		c0.5,0.4,0.9,0.9,1.1,1.7c0.3-0.7,0.7-1.3,1.3-1.7c0.6-0.4,1.2-0.6,2.1-0.6c1.1,0,1.9,0.4,2.5,1.1c0.6,0.7,0.9,1.8,0.9,3.3v5.9
		h-1.1v-5.9c0-1.2-0.2-2.1-0.7-2.6c-0.4-0.5-1.1-0.8-1.8-0.8c-0.9,0-1.5,0.3-2,0.8c-0.5,0.5-0.8,1.2-0.9,2.1c0,0,0,0.1,0,0.2
		c0,0.1,0,0.1,0,0.2v6.1h-1.1v-5.9c0-1.2-0.2-2.1-0.7-2.6s-1.1-0.8-1.8-0.8c-0.8,0-1.4,0.2-1.9,0.6s-0.8,0.9-1,1.6v7.1h-1.1V389
		H995.4z"/>
	<path class="st22" d="M1015.2,399.3c-1.3,0-2.3-0.5-3.2-1.4c-0.8-0.9-1.3-2.1-1.3-3.5v-0.5c0-1.4,0.4-2.6,1.2-3.6
		c0.8-1,1.8-1.4,3-1.4c1.2,0,2.2,0.4,2.9,1.2c0.7,0.8,1.1,1.8,1.1,3.1v1h-7.1v0.3c0,1.1,0.3,2.1,0.9,2.9c0.6,0.8,1.4,1.1,2.4,1.1
		c0.7,0,1.3-0.1,1.8-0.3c0.5-0.2,0.9-0.5,1.3-0.8l0.5,0.8c-0.4,0.4-0.9,0.7-1.4,1C1016.7,399.2,1016,399.3,1015.2,399.3z
		 M1015,389.8c-0.8,0-1.5,0.3-2.1,0.9c-0.6,0.6-0.9,1.4-1,2.4l0,0h5.9v-0.3c0-0.9-0.3-1.6-0.8-2.2S1015.9,389.8,1015,389.8z"/>
	<path class="st22" d="M1022.2,389l0.1,1.8c0.3-0.6,0.8-1.1,1.3-1.4c0.6-0.3,1.2-0.5,2-0.5c1.1,0,1.9,0.3,2.5,1
		c0.6,0.7,0.9,1.7,0.9,3.1v6.2h-1.1V393c0-1.2-0.2-2-0.6-2.5c-0.4-0.5-1-0.7-1.8-0.7c-0.8,0-1.4,0.2-1.9,0.6c-0.5,0.4-0.9,1-1.1,1.7
		v7.1h-1.1V389H1022.2z"/>
	<path class="st22" d="M1033.6,386.5v2.6h2.2v0.9h-2.2v6.6c0,0.7,0.1,1.1,0.4,1.4c0.2,0.3,0.6,0.4,1,0.4c0.2,0,0.4,0,0.5,0
		c0.2,0,0.4,0,0.6-0.1l0.2,0.8c-0.2,0.1-0.4,0.1-0.7,0.2c-0.3,0-0.5,0.1-0.8,0.1c-0.7,0-1.3-0.2-1.7-0.7s-0.6-1.2-0.6-2.1V390h-1.7
		V389h1.7v-2.6H1033.6z"/>
</g>
<g class="st21">
	<path class="st22" d="M736.3,317.5h-6.2l-1.4,3.8h-1.2l5.2-13.6h1.1l5.1,13.6h-1.2L736.3,317.5z M730.4,316.5h5.5l-2.7-7.4h-0.1
		L730.4,316.5z"/>
	<path class="st22" d="M741.6,311.2l0.1,1.7c0.3-0.6,0.8-1,1.3-1.4c0.5-0.3,1.2-0.5,1.9-0.5c0.8,0,1.4,0.2,1.9,0.6
		c0.5,0.4,0.9,0.9,1.1,1.7c0.3-0.7,0.7-1.3,1.3-1.7c0.6-0.4,1.2-0.6,2.1-0.6c1.1,0,1.9,0.4,2.5,1.1c0.6,0.7,0.9,1.8,0.9,3.3v5.9
		h-1.1v-5.9c0-1.2-0.2-2.1-0.7-2.6c-0.4-0.5-1.1-0.8-1.8-0.8c-0.9,0-1.5,0.3-2,0.8c-0.5,0.5-0.8,1.2-0.9,2.1c0,0,0,0.1,0,0.2
		c0,0.1,0,0.1,0,0.2v6.1h-1.1v-5.9c0-1.2-0.2-2.1-0.7-2.6s-1.1-0.8-1.8-0.8c-0.8,0-1.4,0.2-1.9,0.6s-0.8,0.9-1,1.6v7.1h-1.1v-10.1
		H741.6z"/>
	<path class="st22" d="M761.4,321.5c-1.3,0-2.3-0.5-3.2-1.4c-0.8-0.9-1.3-2.1-1.3-3.5v-0.5c0-1.4,0.4-2.6,1.2-3.6
		c0.8-1,1.8-1.4,3-1.4c1.2,0,2.2,0.4,2.9,1.2c0.7,0.8,1.1,1.8,1.1,3.1v1h-7.1v0.3c0,1.1,0.3,2.1,0.9,2.9c0.6,0.8,1.4,1.1,2.4,1.1
		c0.7,0,1.3-0.1,1.8-0.3c0.5-0.2,0.9-0.5,1.3-0.8l0.5,0.8c-0.4,0.4-0.9,0.7-1.4,1C762.9,321.4,762.2,321.5,761.4,321.5z M761.2,312
		c-0.8,0-1.5,0.3-2.1,0.9c-0.6,0.6-0.9,1.4-1,2.4l0,0h5.9v-0.3c0-0.9-0.3-1.6-0.8-2.2S762.1,312,761.2,312z"/>
	<path class="st22" d="M773,311.2l0.1,1.7c0.3-0.6,0.8-1,1.3-1.4c0.5-0.3,1.2-0.5,1.9-0.5c0.8,0,1.4,0.2,1.9,0.6
		c0.5,0.4,0.9,0.9,1.1,1.7c0.3-0.7,0.7-1.3,1.3-1.7c0.6-0.4,1.2-0.6,2.1-0.6c1.1,0,1.9,0.4,2.5,1.1c0.6,0.7,0.9,1.8,0.9,3.3v5.9H785
		v-5.9c0-1.2-0.2-2.1-0.7-2.6c-0.4-0.5-1.1-0.8-1.8-0.8c-0.9,0-1.5,0.3-2,0.8c-0.5,0.5-0.8,1.2-0.9,2.1c0,0,0,0.1,0,0.2
		c0,0.1,0,0.1,0,0.2v6.1h-1.1v-5.9c0-1.2-0.2-2.1-0.7-2.6s-1.1-0.8-1.8-0.8c-0.8,0-1.4,0.2-1.9,0.6s-0.8,0.9-1,1.6v7.1H772v-10.1
		H773z"/>
	<path class="st22" d="M795.4,321.3c-0.1-0.3-0.1-0.6-0.2-0.9s0-0.5,0-0.8c-0.4,0.5-0.9,1-1.5,1.3s-1.3,0.5-2.1,0.5
		c-1,0-1.7-0.3-2.3-0.8c-0.5-0.5-0.8-1.2-0.8-2.1c0-0.9,0.4-1.7,1.2-2.2c0.8-0.6,1.9-0.8,3.3-0.8h2.2v-1.3c0-0.7-0.2-1.3-0.7-1.7
		s-1.1-0.6-1.9-0.6c-0.8,0-1.4,0.2-1.9,0.6c-0.5,0.4-0.8,0.9-0.8,1.4l-1,0l0-0.1c0-0.8,0.3-1.4,1-2c0.7-0.6,1.6-0.9,2.8-0.9
		c1.1,0,2,0.3,2.7,0.9s1,1.4,1,2.4v5c0,0.4,0,0.7,0.1,1c0,0.3,0.1,0.7,0.2,1H795.4z M791.8,320.5c0.8,0,1.5-0.2,2.1-0.6
		c0.6-0.4,1.1-0.9,1.3-1.4v-2.1H793c-1,0-1.8,0.2-2.4,0.6c-0.6,0.4-0.9,1-0.9,1.6c0,0.5,0.2,1,0.6,1.3S791.1,320.5,791.8,320.5z"/>
	<path class="st22" d="M805.4,318.8c0-0.5-0.2-0.9-0.6-1.2c-0.4-0.4-1.1-0.6-2.1-0.9c-1.2-0.3-2.1-0.6-2.7-1s-0.9-1-0.9-1.8
		c0-0.8,0.3-1.4,1-2c0.7-0.5,1.5-0.8,2.6-0.8c1.1,0,2,0.3,2.7,0.8c0.7,0.6,1,1.3,1,2.1l0,0.1h-1c0-0.6-0.2-1-0.7-1.4
		c-0.5-0.4-1.1-0.6-1.9-0.6c-0.8,0-1.4,0.2-1.8,0.5c-0.4,0.3-0.6,0.8-0.6,1.2c0,0.5,0.2,0.8,0.5,1.2s1.1,0.6,2.1,0.8
		c1.2,0.3,2.1,0.6,2.7,1.1s0.9,1.1,0.9,1.9c0,0.8-0.3,1.5-1,2s-1.6,0.8-2.7,0.8c-1.2,0-2.2-0.3-2.9-0.9c-0.7-0.6-1-1.3-1-2.1l0-0.1
		h1c0,0.7,0.3,1.3,0.9,1.6c0.6,0.3,1.2,0.5,1.9,0.5c0.8,0,1.4-0.2,1.9-0.5C805.1,319.7,805.4,319.3,805.4,318.8z"/>
	<path class="st22" d="M815.1,318.8c0-0.5-0.2-0.9-0.6-1.2c-0.4-0.4-1.1-0.6-2.1-0.9c-1.2-0.3-2.1-0.6-2.7-1c-0.6-0.4-0.9-1-0.9-1.8
		c0-0.8,0.3-1.4,1-2c0.7-0.5,1.5-0.8,2.6-0.8c1.1,0,2,0.3,2.7,0.8c0.7,0.6,1,1.3,1,2.1l0,0.1h-1c0-0.6-0.2-1-0.7-1.4
		c-0.5-0.4-1.1-0.6-1.9-0.6c-0.8,0-1.4,0.2-1.8,0.5c-0.4,0.3-0.6,0.8-0.6,1.2c0,0.5,0.2,0.8,0.5,1.2c0.4,0.3,1.1,0.6,2.1,0.8
		c1.2,0.3,2.1,0.6,2.7,1.1c0.6,0.5,0.9,1.1,0.9,1.9c0,0.8-0.3,1.5-1,2c-0.7,0.5-1.6,0.8-2.7,0.8c-1.2,0-2.2-0.3-2.9-0.9
		c-0.7-0.6-1-1.3-1-2.1l0-0.1h1c0,0.7,0.3,1.3,0.9,1.6c0.6,0.3,1.2,0.5,1.9,0.5c0.8,0,1.4-0.2,1.9-0.5
		C814.9,319.7,815.1,319.3,815.1,318.8z"/>
	<path class="st22" d="M820.1,308.3h-1.1v-1.6h1.1V308.3z M820.1,321.3h-1.1v-10.1h1.1V321.3z"/>
</g>
<g class="st21">
	<path class="st22" d="M826,318.8l0.3,1.2h0.1l0.4-1.2l2.7-7.6h1.2l-3.8,10.1h-0.9l-3.8-10.1h1.2L826,318.8z"/>
</g>
<g class="st21">
	<path class="st22" d="M836.2,321.5c-1.3,0-2.3-0.5-3.2-1.4c-0.8-0.9-1.3-2.1-1.3-3.5v-0.5c0-1.4,0.4-2.6,1.2-3.6
		c0.8-1,1.8-1.4,3-1.4c1.2,0,2.2,0.4,2.9,1.2c0.7,0.8,1.1,1.8,1.1,3.1v1h-7.1v0.3c0,1.1,0.3,2.1,0.9,2.9c0.6,0.8,1.4,1.1,2.4,1.1
		c0.7,0,1.3-0.1,1.8-0.3c0.5-0.2,0.9-0.5,1.3-0.8l0.5,0.8c-0.4,0.4-0.9,0.7-1.4,1C837.7,321.4,837,321.5,836.2,321.5z M836,312
		c-0.8,0-1.5,0.3-2.1,0.9c-0.6,0.6-0.9,1.4-1,2.4l0,0h5.9v-0.3c0-0.9-0.3-1.6-0.8-2.2C837.6,312.3,836.9,312,836,312z"/>
	<path class="st22" d="M850.6,320.6c0.7,0,1.4-0.2,2-0.6s0.9-1,0.9-1.8h1l0,0.1c0,0.9-0.3,1.7-1.1,2.3s-1.7,0.9-2.7,0.9
		c-1.4,0-2.4-0.5-3.2-1.4s-1.1-2.2-1.1-3.6v-0.4c0-1.5,0.4-2.7,1.1-3.6c0.8-0.9,1.8-1.4,3.2-1.4c1.1,0,2,0.3,2.8,1
		c0.7,0.7,1.1,1.5,1.1,2.6l0,0.1h-1c0-0.8-0.3-1.5-0.8-1.9c-0.5-0.5-1.2-0.7-2-0.7c-1.1,0-1.9,0.4-2.4,1.2s-0.8,1.7-0.8,2.9v0.4
		c0,1.2,0.3,2.2,0.8,2.9C848.7,320.2,849.6,320.6,850.6,320.6z"/>
	<path class="st22" d="M863.4,319.7c-0.3,0.6-0.8,1-1.3,1.4c-0.5,0.3-1.2,0.5-1.9,0.5c-1.1,0-1.9-0.4-2.5-1.1
		c-0.6-0.7-0.9-1.8-0.9-3.4v-5.9h1.1v5.9c0,1.2,0.2,2.1,0.6,2.7c0.4,0.5,1,0.8,1.8,0.8c0.8,0,1.5-0.2,2-0.6c0.5-0.4,0.9-0.9,1.1-1.6
		v-7.2h1.1v10.1h-1L863.4,319.7z"/>
	<path class="st22" d="M868.7,308.3h-1.1v-1.6h1.1V308.3z M868.7,321.3h-1.1v-10.1h1.1V321.3z"/>
	<path class="st22" d="M874.7,318.8l0.3,1.2h0.1l0.4-1.2l2.7-7.6h1.2l-3.8,10.1h-0.9l-3.8-10.1h1.2L874.7,318.8z"/>
</g>
<g class="st21">
	<path class="st22" d="M885.8,312.2l-0.8-0.1c-0.7,0-1.3,0.2-1.7,0.6c-0.5,0.4-0.8,0.9-1,1.6v7h-1.1v-10.1h1l0.1,1.7v0.1
		c0.3-0.6,0.7-1.1,1.2-1.5s1.1-0.5,1.8-0.5c0.1,0,0.3,0,0.4,0s0.2,0,0.3,0.1L885.8,312.2z"/>
</g>
<g class="st21">
	<path class="st22" d="M891.3,321.5c-1.3,0-2.3-0.5-3.2-1.4c-0.8-0.9-1.3-2.1-1.3-3.5v-0.5c0-1.4,0.4-2.6,1.2-3.6
		c0.8-1,1.8-1.4,3-1.4c1.2,0,2.2,0.4,2.9,1.2c0.7,0.8,1.1,1.8,1.1,3.1v1H888v0.3c0,1.1,0.3,2.1,0.9,2.9c0.6,0.8,1.4,1.1,2.4,1.1
		c0.7,0,1.3-0.1,1.8-0.3c0.5-0.2,0.9-0.5,1.3-0.8l0.5,0.8c-0.4,0.4-0.9,0.7-1.4,1C892.8,321.4,892.1,321.5,891.3,321.5z M891.2,312
		c-0.8,0-1.5,0.3-2.1,0.9c-0.6,0.6-0.9,1.4-1,2.4l0,0h5.9v-0.3c0-0.9-0.3-1.6-0.8-2.2S892,312,891.2,312z"/>
	<path class="st22" d="M903,311.2l0.1,1.8c0.3-0.6,0.8-1.1,1.3-1.4c0.6-0.3,1.2-0.5,2-0.5c1.1,0,1.9,0.3,2.5,1
		c0.6,0.7,0.9,1.7,0.9,3.1v6.2h-1.1v-6.2c0-1.2-0.2-2-0.6-2.5s-1-0.7-1.8-0.7c-0.8,0-1.4,0.2-1.9,0.6c-0.5,0.4-0.9,1-1.1,1.7v7.1
		H902v-10.1H903z"/>
	<path class="st22" d="M919.3,319.7c-0.3,0.6-0.8,1-1.3,1.4c-0.5,0.3-1.2,0.5-1.9,0.5c-1.1,0-1.9-0.4-2.5-1.1
		c-0.6-0.7-0.9-1.8-0.9-3.4v-5.9h1.1v5.9c0,1.2,0.2,2.1,0.6,2.7c0.4,0.5,1,0.8,1.8,0.8c0.8,0,1.5-0.2,2-0.6c0.5-0.4,0.9-0.9,1.1-1.6
		v-7.2h1.1v10.1h-1L919.3,319.7z"/>
</g>
<g class="st21">
	<path class="st22" d="M873.5,82.6h-6.6V89h-1.1V75.4h8.7v1h-7.6v5.3h6.6V82.6z"/>
	<path class="st22" d="M877.8,76h-1.1v-1.6h1.1V76z M877.8,89h-1.1V78.9h1.1V89z"/>
	<path class="st22" d="M882.1,89H881V74.4h1.1V89z"/>
	<path class="st22" d="M889.4,84c0-1.6,0.3-2.9,1-3.9c0.7-1,1.6-1.5,2.9-1.5c0.7,0,1.3,0.1,1.8,0.4c0.5,0.3,0.9,0.7,1.3,1.3v-6h1.1
		V89h-1l-0.1-1.5c-0.3,0.5-0.8,0.9-1.3,1.2s-1.2,0.4-1.9,0.4c-1.2,0-2.2-0.5-2.8-1.3c-0.7-0.9-1-2.1-1-3.6V84z M890.5,84.2
		c0,1.2,0.2,2.2,0.7,2.9c0.5,0.7,1.2,1.1,2.2,1.1c0.7,0,1.3-0.2,1.8-0.5c0.5-0.3,0.9-0.8,1.1-1.4v-4.8c-0.3-0.6-0.6-1.1-1.1-1.4
		c-0.5-0.4-1.1-0.5-1.8-0.5c-1,0-1.7,0.4-2.2,1.2c-0.5,0.8-0.7,1.9-0.7,3.2V84.2z"/>
	<path class="st22" d="M904.3,89.2c-1.3,0-2.3-0.5-3.2-1.4c-0.8-0.9-1.3-2.1-1.3-3.5v-0.5c0-1.4,0.4-2.6,1.2-3.6
		c0.8-1,1.8-1.4,3-1.4c1.2,0,2.2,0.4,2.9,1.2c0.7,0.8,1.1,1.8,1.1,3.1v1H901v0.3c0,1.1,0.3,2.1,0.9,2.9c0.6,0.8,1.4,1.1,2.4,1.1
		c0.7,0,1.3-0.1,1.8-0.3c0.5-0.2,0.9-0.5,1.3-0.8l0.5,0.8c-0.4,0.4-0.9,0.7-1.4,1C905.8,89.1,905.1,89.2,904.3,89.2z M904.2,79.7
		c-0.8,0-1.5,0.3-2.1,0.9c-0.6,0.6-0.9,1.4-1,2.4l0,0h5.9v-0.3c0-0.9-0.3-1.6-0.8-2.2C905.7,80,905,79.7,904.2,79.7z"/>
	<path class="st22" d="M918.8,88.3c0.7,0,1.4-0.2,2-0.6s0.9-1,0.9-1.8h1l0,0.1c0,0.9-0.3,1.7-1.1,2.3s-1.7,0.9-2.7,0.9
		c-1.4,0-2.4-0.5-3.2-1.4s-1.1-2.2-1.1-3.6v-0.4c0-1.5,0.4-2.7,1.1-3.6c0.8-0.9,1.8-1.4,3.2-1.4c1.1,0,2,0.3,2.8,1
		c0.7,0.7,1.1,1.5,1.1,2.6l0,0.1h-1c0-0.8-0.3-1.5-0.8-1.9c-0.5-0.5-1.2-0.7-2-0.7c-1.1,0-1.9,0.4-2.4,1.2s-0.8,1.7-0.8,2.9v0.4
		c0,1.2,0.3,2.2,0.8,2.9C916.9,87.9,917.7,88.3,918.8,88.3z"/>
	<path class="st22" d="M924.3,83.8c0-1.5,0.4-2.7,1.2-3.7c0.8-1,1.9-1.4,3.2-1.4c1.4,0,2.4,0.5,3.2,1.4c0.8,1,1.2,2.2,1.2,3.7v0.3
		c0,1.5-0.4,2.7-1.2,3.7c-0.8,1-1.9,1.4-3.2,1.4c-1.4,0-2.4-0.5-3.3-1.4c-0.8-0.9-1.2-2.2-1.2-3.7V83.8z M925.4,84.1
		c0,1.2,0.3,2.2,0.9,2.9c0.6,0.8,1.4,1.2,2.5,1.2c1,0,1.9-0.4,2.5-1.2c0.6-0.8,0.9-1.8,0.9-2.9v-0.3c0-1.2-0.3-2.1-0.9-2.9
		c-0.6-0.8-1.4-1.2-2.5-1.2c-1,0-1.9,0.4-2.5,1.2c-0.6,0.8-0.9,1.8-0.9,2.9V84.1z"/>
	<path class="st22" d="M936.6,78.9l0.1,1.8c0.3-0.6,0.8-1.1,1.3-1.4c0.6-0.3,1.2-0.5,2-0.5c1.1,0,1.9,0.3,2.5,1
		c0.6,0.7,0.9,1.7,0.9,3.1V89h-1.1v-6.2c0-1.2-0.2-2-0.6-2.5s-1-0.7-1.8-0.7c-0.8,0-1.4,0.2-1.9,0.6c-0.5,0.4-0.9,1-1.1,1.7V89h-1.1
		V78.9H936.6z"/>
	<path class="st22" d="M948,76.3v2.6h2.2v0.9H948v6.6c0,0.7,0.1,1.1,0.4,1.4c0.2,0.3,0.6,0.4,1,0.4c0.2,0,0.4,0,0.5,0
		c0.2,0,0.4,0,0.6-0.1l0.2,0.8c-0.2,0.1-0.4,0.1-0.7,0.2c-0.3,0-0.5,0.1-0.8,0.1c-0.7,0-1.3-0.2-1.7-0.7s-0.6-1.2-0.6-2.1v-6.6h-1.7
		v-0.9h1.7v-2.6H948z"/>
	<path class="st22" d="M953.8,76h-1.1v-1.6h1.1V76z M953.8,89h-1.1V78.9h1.1V89z"/>
	<path class="st22" d="M957.9,78.9l0.1,1.8c0.3-0.6,0.8-1.1,1.3-1.4c0.6-0.3,1.2-0.5,2-0.5c1.1,0,1.9,0.3,2.5,1
		c0.6,0.7,0.9,1.7,0.9,3.1V89h-1.1v-6.2c0-1.2-0.2-2-0.6-2.5s-1-0.7-1.8-0.7c-0.8,0-1.4,0.2-1.9,0.6c-0.5,0.4-0.9,1-1.1,1.7V89h-1.1
		V78.9H957.9z"/>
	<path class="st22" d="M974.2,87.4c-0.3,0.6-0.8,1-1.3,1.4c-0.5,0.3-1.2,0.5-1.9,0.5c-1.1,0-1.9-0.4-2.5-1.1
		c-0.6-0.7-0.9-1.8-0.9-3.4v-5.9h1.1v5.9c0,1.2,0.2,2.1,0.6,2.7c0.4,0.5,1,0.8,1.8,0.8c0.8,0,1.5-0.2,2-0.6c0.5-0.4,0.9-0.9,1.1-1.6
		v-7.2h1.1V89h-1L974.2,87.4z"/>
	<path class="st22" d="M979.5,76h-1.1v-1.6h1.1V76z M979.5,89h-1.1V78.9h1.1V89z"/>
	<path class="st22" d="M984.3,76.3v2.6h2.2v0.9h-2.2v6.6c0,0.7,0.1,1.1,0.4,1.4c0.2,0.3,0.6,0.4,1,0.4c0.2,0,0.4,0,0.5,0
		c0.2,0,0.4,0,0.6-0.1l0.2,0.8c-0.2,0.1-0.4,0.1-0.7,0.2c-0.3,0-0.5,0.1-0.8,0.1c-0.7,0-1.3-0.2-1.7-0.7s-0.6-1.2-0.6-2.1v-6.6h-1.7
		v-0.9h1.7v-2.6H984.3z"/>
	<path class="st22" d="M992.7,89.2c-1.3,0-2.3-0.5-3.2-1.4c-0.8-0.9-1.3-2.1-1.3-3.5v-0.5c0-1.4,0.4-2.6,1.2-3.6
		c0.8-1,1.8-1.4,3-1.4c1.2,0,2.2,0.4,2.9,1.2c0.7,0.8,1.1,1.8,1.1,3.1v1h-7.1v0.3c0,1.1,0.3,2.1,0.9,2.9c0.6,0.8,1.4,1.1,2.4,1.1
		c0.7,0,1.3-0.1,1.8-0.3c0.5-0.2,0.9-0.5,1.3-0.8l0.5,0.8c-0.4,0.4-0.9,0.7-1.4,1C994.2,89.1,993.5,89.2,992.7,89.2z M992.6,79.7
		c-0.8,0-1.5,0.3-2.1,0.9c-0.6,0.6-0.9,1.4-1,2.4l0,0h5.9v-0.3c0-0.9-0.3-1.6-0.8-2.2C994.1,80,993.4,79.7,992.6,79.7z M993.9,75
		h1.4l0,0.1l-2.3,2.4h-1L993.9,75z"/>
	<path class="st22" d="M1007.2,88.3c0.7,0,1.4-0.2,2-0.6s0.9-1,0.9-1.8h1l0,0.1c0,0.9-0.3,1.7-1.1,2.3s-1.7,0.9-2.7,0.9
		c-1.4,0-2.4-0.5-3.2-1.4s-1.1-2.2-1.1-3.6v-0.4c0-1.5,0.4-2.7,1.1-3.6c0.8-0.9,1.8-1.4,3.2-1.4c1.1,0,2,0.3,2.8,1
		c0.7,0.7,1.1,1.5,1.1,2.6l0,0.1h-1c0-0.8-0.3-1.5-0.8-1.9c-0.5-0.5-1.2-0.7-2-0.7c-1.1,0-1.9,0.4-2.4,1.2s-0.8,1.7-0.8,2.9v0.4
		c0,1.2,0.3,2.2,0.8,2.9C1005.3,87.9,1006.1,88.3,1007.2,88.3z"/>
	<path class="st22" d="M1019.9,87.4c-0.3,0.6-0.8,1-1.3,1.4c-0.5,0.3-1.2,0.5-1.9,0.5c-1.1,0-1.9-0.4-2.5-1.1
		c-0.6-0.7-0.9-1.8-0.9-3.4v-5.9h1.1v5.9c0,1.2,0.2,2.1,0.6,2.7c0.4,0.5,1,0.8,1.8,0.8c0.8,0,1.5-0.2,2-0.6c0.5-0.4,0.9-0.9,1.1-1.6
		v-7.2h1.1V89h-1L1019.9,87.4z"/>
	<path class="st22" d="M1025.2,76h-1.1v-1.6h1.1V76z M1025.2,89h-1.1V78.9h1.1V89z"/>
	<path class="st22" d="M1031.2,86.5l0.3,1.2h0.1l0.4-1.2l2.7-7.6h1.2L1032,89h-0.9l-3.8-10.1h1.2L1031.2,86.5z"/>
</g>
<g class="st21">
	<path class="st22" d="M1042.3,79.9l-0.8-0.1c-0.7,0-1.3,0.2-1.7,0.6c-0.5,0.4-0.8,0.9-1,1.6v7h-1.1V78.9h1l0.1,1.7v0.1
		c0.3-0.6,0.7-1.1,1.2-1.5c0.5-0.3,1.1-0.5,1.8-0.5c0.1,0,0.3,0,0.4,0s0.2,0,0.3,0.1L1042.3,79.9z"/>
</g>
<g class="st21">
	<path class="st22" d="M1047.8,89.2c-1.3,0-2.3-0.5-3.2-1.4c-0.8-0.9-1.3-2.1-1.3-3.5v-0.5c0-1.4,0.4-2.6,1.2-3.6
		c0.8-1,1.8-1.4,3-1.4c1.2,0,2.2,0.4,2.9,1.2c0.7,0.8,1.1,1.8,1.1,3.1v1h-7.1v0.3c0,1.1,0.3,2.1,0.9,2.9c0.6,0.8,1.4,1.1,2.4,1.1
		c0.7,0,1.3-0.1,1.8-0.3c0.5-0.2,0.9-0.5,1.3-0.8l0.5,0.8c-0.4,0.4-0.9,0.7-1.4,1C1049.3,89.1,1048.6,89.2,1047.8,89.2z
		 M1047.7,79.7c-0.8,0-1.5,0.3-2.1,0.9c-0.6,0.6-0.9,1.4-1,2.4l0,0h5.9v-0.3c0-0.9-0.3-1.6-0.8-2.2
		C1049.3,80,1048.6,79.7,1047.7,79.7z"/>
	<path class="st22" d="M1062.3,89.2c-1.3,0-2.3-0.5-3.2-1.4c-0.8-0.9-1.3-2.1-1.3-3.5v-0.5c0-1.4,0.4-2.6,1.2-3.6
		c0.8-1,1.8-1.4,3-1.4c1.2,0,2.2,0.4,2.9,1.2c0.7,0.8,1.1,1.8,1.1,3.1v1h-7.1v0.3c0,1.1,0.3,2.1,0.9,2.9c0.6,0.8,1.4,1.1,2.4,1.1
		c0.7,0,1.3-0.1,1.8-0.3c0.5-0.2,0.9-0.5,1.3-0.8l0.5,0.8c-0.4,0.4-0.9,0.7-1.4,1C1063.8,89.1,1063.1,89.2,1062.3,89.2z
		 M1062.2,79.7c-0.8,0-1.5,0.3-2.1,0.9c-0.6,0.6-0.9,1.4-1,2.4l0,0h5.9v-0.3c0-0.9-0.3-1.6-0.8-2.2S1063.1,79.7,1062.2,79.7z
		 M1063.5,75h1.4l0,0.1l-2.3,2.4h-1L1063.5,75z"/>
	<path class="st22" d="M1070.1,76.3v2.6h2.2v0.9h-2.2v6.6c0,0.7,0.1,1.1,0.4,1.4c0.2,0.3,0.6,0.4,1,0.4c0.2,0,0.4,0,0.5,0
		c0.2,0,0.4,0,0.6-0.1l0.2,0.8c-0.2,0.1-0.4,0.1-0.7,0.2c-0.3,0-0.5,0.1-0.8,0.1c-0.7,0-1.3-0.2-1.7-0.7s-0.6-1.2-0.6-2.1v-6.6h-1.7
		v-0.9h1.7v-2.6H1070.1z"/>
	<path class="st22" d="M1081.1,89c-0.1-0.3-0.1-0.6-0.2-0.9s0-0.5,0-0.8c-0.4,0.5-0.9,1-1.5,1.3s-1.3,0.5-2.1,0.5
		c-1,0-1.7-0.3-2.3-0.8c-0.5-0.5-0.8-1.2-0.8-2.1c0-0.9,0.4-1.7,1.2-2.2c0.8-0.6,1.9-0.8,3.3-0.8h2.2V82c0-0.7-0.2-1.3-0.7-1.7
		s-1.1-0.6-1.9-0.6c-0.8,0-1.4,0.2-1.9,0.6c-0.5,0.4-0.8,0.9-0.8,1.4l-1,0l0-0.1c0-0.8,0.3-1.4,1-2c0.7-0.6,1.6-0.9,2.8-0.9
		c1.1,0,2,0.3,2.7,0.9s1,1.4,1,2.4v5c0,0.4,0,0.7,0.1,1c0,0.3,0.1,0.7,0.2,1H1081.1z M1077.5,88.2c0.8,0,1.5-0.2,2.1-0.6
		c0.6-0.4,1.1-0.9,1.3-1.4v-2.1h-2.3c-1,0-1.8,0.2-2.4,0.6c-0.6,0.4-0.9,1-0.9,1.6c0,0.5,0.2,1,0.6,1.3S1076.8,88.2,1077.5,88.2z"/>
	<path class="st22" d="M1086,78.9l0.1,1.7c0.3-0.6,0.8-1,1.3-1.4c0.5-0.3,1.2-0.5,1.9-0.5c0.8,0,1.4,0.2,1.9,0.6
		c0.5,0.4,0.9,0.9,1.1,1.7c0.3-0.7,0.7-1.3,1.3-1.7c0.6-0.4,1.2-0.6,2.1-0.6c1.1,0,1.9,0.4,2.5,1.1c0.6,0.7,0.9,1.8,0.9,3.3V89h-1.1
		v-5.9c0-1.2-0.2-2.1-0.7-2.6c-0.4-0.5-1.1-0.8-1.8-0.8c-0.9,0-1.5,0.3-2,0.8c-0.5,0.5-0.8,1.2-0.9,2.1c0,0,0,0.1,0,0.2s0,0.1,0,0.2
		V89h-1.1v-5.9c0-1.2-0.2-2.1-0.7-2.6s-1.1-0.8-1.8-0.8c-0.8,0-1.4,0.2-1.9,0.6c-0.5,0.4-0.8,0.9-1,1.6V89h-1.1V78.9H1086z"/>
	<path class="st22" d="M1105.8,89.2c-1.3,0-2.3-0.5-3.2-1.4c-0.8-0.9-1.3-2.1-1.3-3.5v-0.5c0-1.4,0.4-2.6,1.2-3.6
		c0.8-1,1.8-1.4,3-1.4c1.2,0,2.2,0.4,2.9,1.2c0.7,0.8,1.1,1.8,1.1,3.1v1h-7.1v0.3c0,1.1,0.3,2.1,0.9,2.9c0.6,0.8,1.4,1.1,2.4,1.1
		c0.7,0,1.3-0.1,1.8-0.3c0.5-0.2,0.9-0.5,1.3-0.8l0.5,0.8c-0.4,0.4-0.9,0.7-1.4,1C1107.3,89.1,1106.6,89.2,1105.8,89.2z
		 M1105.6,79.7c-0.8,0-1.5,0.3-2.1,0.9c-0.6,0.6-0.9,1.4-1,2.4l0,0h5.9v-0.3c0-0.9-0.3-1.6-0.8-2.2
		C1107.2,80,1106.5,79.7,1105.6,79.7z M1107,75h1.4l0,0.1l-2.3,2.4h-1L1107,75z"/>
</g>
<g class="st21">
	<path class="st22" d="M759.6,51.1h-1.1V37.5h1.1V51.1z"/>
	<path class="st22" d="M769.2,48.5c0-0.5-0.2-0.9-0.6-1.2c-0.4-0.4-1.1-0.6-2.1-0.9c-1.2-0.3-2.1-0.6-2.7-1c-0.6-0.4-0.9-1-0.9-1.8
		c0-0.8,0.3-1.4,1-2c0.7-0.5,1.5-0.8,2.6-0.8c1.1,0,2,0.3,2.7,0.8s1,1.3,1,2.1l0,0.1h-1c0-0.6-0.2-1-0.7-1.4
		c-0.5-0.4-1.1-0.6-1.9-0.6c-0.8,0-1.4,0.2-1.8,0.5c-0.4,0.3-0.6,0.8-0.6,1.2c0,0.5,0.2,0.8,0.5,1.2c0.4,0.3,1.1,0.6,2.1,0.8
		c1.2,0.3,2.1,0.6,2.7,1.1s0.9,1.1,0.9,1.9c0,0.8-0.3,1.5-1,2c-0.7,0.5-1.6,0.8-2.7,0.8c-1.2,0-2.2-0.3-2.9-0.9
		c-0.7-0.6-1-1.3-1-2.1l0-0.1h1c0,0.7,0.3,1.3,0.9,1.6c0.6,0.3,1.2,0.5,1.9,0.5c0.8,0,1.4-0.2,1.9-0.5C769,49.4,769.2,49,769.2,48.5
		z"/>
	<path class="st22" d="M772.2,45.9c0-1.5,0.4-2.7,1.2-3.7c0.8-1,1.9-1.4,3.2-1.4c1.4,0,2.4,0.5,3.2,1.4c0.8,1,1.2,2.2,1.2,3.7v0.3
		c0,1.5-0.4,2.7-1.2,3.7c-0.8,1-1.9,1.4-3.2,1.4c-1.4,0-2.4-0.5-3.3-1.4c-0.8-0.9-1.2-2.2-1.2-3.7V45.9z M773.4,46.2
		c0,1.2,0.3,2.2,0.9,2.9c0.6,0.8,1.4,1.2,2.5,1.2c1,0,1.9-0.4,2.5-1.2c0.6-0.8,0.9-1.8,0.9-2.9v-0.3c0-1.2-0.3-2.1-0.9-2.9
		c-0.6-0.8-1.4-1.2-2.5-1.2c-1,0-1.9,0.4-2.5,1.2c-0.6,0.8-0.9,1.8-0.9,2.9V46.2z"/>
	<path class="st22" d="M784.8,51.1h-1.1V36.5h1.1V51.1z"/>
	<path class="st22" d="M794.3,51.1c-0.1-0.3-0.1-0.6-0.2-0.9s0-0.5,0-0.8c-0.4,0.5-0.9,1-1.5,1.3c-0.6,0.3-1.3,0.5-2.1,0.5
		c-1,0-1.7-0.3-2.3-0.8c-0.5-0.5-0.8-1.2-0.8-2.1c0-0.9,0.4-1.7,1.2-2.2s1.9-0.8,3.3-0.8h2.2v-1.3c0-0.7-0.2-1.3-0.7-1.7
		s-1.1-0.6-1.9-0.6c-0.8,0-1.4,0.2-1.9,0.6c-0.5,0.4-0.8,0.9-0.8,1.4l-1,0l0-0.1c0-0.8,0.3-1.4,1-2c0.7-0.6,1.6-0.9,2.8-0.9
		c1.1,0,2,0.3,2.7,0.9s1,1.4,1,2.4v5c0,0.4,0,0.7,0.1,1c0,0.3,0.1,0.7,0.2,1H794.3z M790.6,50.3c0.8,0,1.5-0.2,2.1-0.6
		c0.6-0.4,1.1-0.9,1.3-1.4v-2.1h-2.3c-1,0-1.8,0.2-2.4,0.6c-0.6,0.4-0.9,1-0.9,1.6c0,0.5,0.2,1,0.6,1.3S789.9,50.3,790.6,50.3z"/>
	<path class="st22" d="M799.1,41l0.1,1.8c0.3-0.6,0.8-1.1,1.3-1.4c0.6-0.3,1.2-0.5,2-0.5c1.1,0,1.9,0.3,2.5,1
		c0.6,0.7,0.9,1.7,0.9,3.1v6.2h-1.1v-6.2c0-1.2-0.2-2-0.6-2.5c-0.4-0.5-1-0.7-1.8-0.7c-0.8,0-1.4,0.2-1.9,0.6
		c-0.5,0.4-0.9,1-1.1,1.7v7.1h-1.1V41H799.1z"/>
	<path class="st22" d="M810.6,38.4V41h2.2v0.9h-2.2v6.6c0,0.7,0.1,1.1,0.4,1.4c0.2,0.3,0.6,0.4,1,0.4c0.2,0,0.4,0,0.5,0
		c0.2,0,0.4,0,0.6-0.1l0.2,0.8c-0.2,0.1-0.4,0.1-0.7,0.2c-0.3,0-0.5,0.1-0.8,0.1c-0.7,0-1.3-0.2-1.7-0.7c-0.4-0.4-0.6-1.2-0.6-2.1
		v-6.6h-1.7V41h1.7v-2.6H810.6z"/>
	<path class="st22" d="M816.4,42.5h-1.3V41h1.3V42.5z M816.4,51.1h-1.3v-1.5h1.3V51.1z"/>
	<path class="st22" d="M825.3,45.4v5.7h-1.1V37.5h4.7c1.4,0,2.5,0.4,3.3,1.1s1.2,1.7,1.2,2.9c0,1.2-0.4,2.2-1.2,2.9
		c-0.8,0.7-1.9,1.1-3.3,1.1H825.3z M825.3,44.5h3.6c1.1,0,2-0.3,2.5-0.9c0.6-0.6,0.8-1.3,0.8-2.2c0-0.9-0.3-1.6-0.8-2.2
		s-1.4-0.9-2.5-0.9h-3.6V44.5z"/>
</g>
<g class="st21">
	<path class="st22" d="M839.8,48.8l0.3,0.9h0.1l0.3-0.9l4.1-11.3h1.2l-5.1,13.6h-1.1l-5.1-13.6h1.2L839.8,48.8z"/>
</g>
<g class="st21">
	<path class="st22" d="M857.1,46.8L857.1,46.8c-0.1,1.4-0.6,2.5-1.4,3.3c-0.9,0.8-2,1.2-3.4,1.2c-1.5,0-2.7-0.5-3.7-1.6
		c-0.9-1.1-1.4-2.5-1.4-4.2v-2.2c0-1.7,0.5-3.1,1.4-4.2c0.9-1.1,2.1-1.6,3.7-1.6c1.4,0,2.6,0.4,3.4,1.1s1.3,1.8,1.4,3.2l0,0.1h-1
		c-0.1-1.1-0.5-2-1.2-2.6c-0.6-0.6-1.5-0.9-2.7-0.9c-1.2,0-2.1,0.5-2.9,1.4c-0.7,0.9-1.1,2.1-1.1,3.5v2.2c0,1.5,0.4,2.6,1.1,3.6
		c0.7,0.9,1.7,1.4,2.9,1.4c1.1,0,2-0.3,2.7-0.9c0.6-0.6,1-1.5,1.2-2.6H857.1z"/>
</g>
<line class="st23" x1="960" y1="374.2" x2="960" y2="291.4"/>
<line class="st23" x1="768.1" y1="298.8" x2="768.1" y2="199.2"/>
<line class="st23" x1="1133.4" y1="385" x2="1133.4" y2="436.2"/>
<line class="st23" x1="1063.6" y1="185.1" x2="1063.6" y2="226.3"/>
<line class="st23" x1="924.6" y1="101.4" x2="924.6" y2="176"/>
<line class="st23" x1="807.3" y1="63.9" x2="807.3" y2="126.9"/>
</svg>
